<?xml version="1.0" encoding="UTF-8" standalone="no"?>
<!DOCTYPE svg PUBLIC "-//W3C//DTD SVG 1.1//EN"
 "http://www.w3.org/Graphics/SVG/1.1/DTD/svg11.dtd">
<!-- Generated by graphviz version 2.28.0 (20130928.0220)
 -->
<!-- Title: G Pages: 1 -->
<svg width="527pt" height="1986pt"
 viewBox="0.00 0.00 527.00 1986.00" xmlns="http://www.w3.org/2000/svg" xmlns:xlink="http://www.w3.org/1999/xlink">
<g id="graph1" class="graph" transform="scale(1 1) rotate(0) translate(4 1982)">
<title>G</title>
<polygon fill="white" stroke="white" points="-4,5 -4,-1982 524,-1982 524,5 -4,5"/>
<g id="graph2" class="cluster"><title>cluster_Global</title>
<polyline fill="none" stroke="gray" points="20,-98 499,-98 "/>
<path fill="none" stroke="gray" d="M499,-98C505,-98 511,-104 511,-110"/>
<polyline fill="none" stroke="gray" points="511,-110 511,-1958 "/>
<path fill="none" stroke="gray" d="M511,-1958C511,-1964 505,-1970 499,-1970"/>
<polyline fill="none" stroke="gray" points="499,-1970 20,-1970 "/>
<path fill="none" stroke="gray" d="M20,-1970C14,-1970 8,-1964 8,-1958"/>
<polyline fill="none" stroke="gray" points="8,-1958 8,-110 "/>
<path fill="none" stroke="gray" d="M8,-110C8,-104 14,-98 20,-98"/>
<text text-anchor="middle" x="259.5" y="-1957.2" font-family="Times,serif" font-size="11.00" fill="gray">Global</text>
</g>
<g id="graph3" class="cluster"><title>cluster_\triagens</title>
<polyline fill="none" stroke="gray" points="28,-106 491,-106 "/>
<path fill="none" stroke="gray" d="M491,-106C497,-106 503,-112 503,-118"/>
<polyline fill="none" stroke="gray" points="503,-118 503,-1930 "/>
<path fill="none" stroke="gray" d="M503,-1930C503,-1936 497,-1942 491,-1942"/>
<polyline fill="none" stroke="gray" points="491,-1942 28,-1942 "/>
<path fill="none" stroke="gray" d="M28,-1942C22,-1942 16,-1936 16,-1930"/>
<polyline fill="none" stroke="gray" points="16,-1930 16,-118 "/>
<path fill="none" stroke="gray" d="M16,-118C16,-112 22,-106 28,-106"/>
<text text-anchor="middle" x="259.5" y="-1929.2" font-family="Times,serif" font-size="11.00" fill="gray">triagens</text>
</g>
<g id="graph4" class="cluster"><title>cluster_\triagens\ArangoDb</title>
<polyline fill="none" stroke="gray" points="36,-114 483,-114 "/>
<path fill="none" stroke="gray" d="M483,-114C489,-114 495,-120 495,-126"/>
<polyline fill="none" stroke="gray" points="495,-126 495,-1902 "/>
<path fill="none" stroke="gray" d="M495,-1902C495,-1908 489,-1914 483,-1914"/>
<polyline fill="none" stroke="gray" points="483,-1914 36,-1914 "/>
<path fill="none" stroke="gray" d="M36,-1914C30,-1914 24,-1908 24,-1902"/>
<polyline fill="none" stroke="gray" points="24,-1902 24,-126 "/>
<path fill="none" stroke="gray" d="M24,-126C24,-120 30,-114 36,-114"/>
<text text-anchor="middle" x="259.5" y="-1901.2" font-family="Times,serif" font-size="11.00" fill="gray">ArangoDb</text>
</g>
<!-- \\triagens\\ArangoDb\\Edge -->
<g id="node4" class="node"><title>\\triagens\\ArangoDb\\Edge</title>
<polygon fill="none" stroke="black" points="462,-806 408,-806 408,-770 462,-770 462,-806"/>
<text text-anchor="middle" x="435" y="-785.2" font-family="Times,serif" font-size="11.00">Edge</text>
</g>
<!-- \\triagens\\ArangoDb\\Document -->
<g id="node27" class="node"><title>\\triagens\\ArangoDb\\Document</title>
<polygon fill="none" stroke="black" points="281,-1116 217,-1116 217,-1080 281,-1080 281,-1116"/>
<text text-anchor="middle" x="249" y="-1095.2" font-family="Times,serif" font-size="11.00">Document</text>
</g>
<!-- \\triagens\\ArangoDb\\Edge&#45;&gt;\\triagens\\ArangoDb\\Document -->
<g id="edge5" class="edge"><title>\\triagens\\ArangoDb\\Edge&#45;&gt;\\triagens\\ArangoDb\\Document</title>
<path fill="none" stroke="black" d="M407.805,-796.924C398.818,-801.146 389.418,-807.048 383,-815 308.771,-906.975 388.411,-981.687 311,-1071 305.499,-1077.35 298.221,-1082.26 290.612,-1086.05"/>
<polygon fill="none" stroke="black" points="289.029,-1082.92 281.266,-1090.13 291.831,-1089.34 289.029,-1082.92"/>
</g>
<!-- \\triagens\\ArangoDb\\Transaction -->
<g id="node5" class="node"><title>\\triagens\\ArangoDb\\Transaction</title>
<polygon fill="none" stroke="black" points="470,-1832 400,-1832 400,-1796 470,-1796 470,-1832"/>
<text text-anchor="middle" x="435" y="-1811.2" font-family="Times,serif" font-size="11.00">Transaction</text>
</g>
<!-- \\triagens\\ArangoDb\\UrlHelper -->
<g id="node6" class="node"><title>\\triagens\\ArangoDb\\UrlHelper</title>
<polygon fill="none" stroke="black" points="467,-1778 403,-1778 403,-1742 467,-1742 467,-1778"/>
<text text-anchor="start" x="411.5" y="-1763.7" font-family="Times,serif" font-size="11.00">«abstract»</text>
<text text-anchor="start" x="411.5" y="-1752.7" font-family="Times,serif" font-size="11.00">UrlHelper</text>
</g>
<!-- \\triagens\\ArangoDb\\Endpoint -->
<g id="node7" class="node"><title>\\triagens\\ArangoDb\\Endpoint</title>
<polygon fill="none" stroke="black" points="464,-1724 406,-1724 406,-1688 464,-1688 464,-1724"/>
<text text-anchor="middle" x="435" y="-1703.2" font-family="Times,serif" font-size="11.00">Endpoint</text>
</g>
<!-- \\triagens\\ArangoDb\\Batch -->
<g id="node8" class="node"><title>\\triagens\\ArangoDb\\Batch</title>
<polygon fill="none" stroke="black" points="462,-1670 408,-1670 408,-1634 462,-1634 462,-1670"/>
<text text-anchor="middle" x="435" y="-1649.2" font-family="Times,serif" font-size="11.00">Batch</text>
</g>
<!-- \\triagens\\ArangoDb\\ConnectException -->
<g id="node9" class="node"><title>\\triagens\\ArangoDb\\ConnectException</title>
<polygon fill="none" stroke="black" points="485,-644 385,-644 385,-608 485,-608 485,-644"/>
<text text-anchor="middle" x="435" y="-623.2" font-family="Times,serif" font-size="11.00">ConnectException</text>
</g>
<!-- \\triagens\\ArangoDb\\Exception -->
<g id="node31" class="node"><title>\\triagens\\ArangoDb\\Exception</title>
<polygon fill="none" stroke="black" points="280,-482 218,-482 218,-446 280,-446 280,-482"/>
<text text-anchor="middle" x="249" y="-461.2" font-family="Times,serif" font-size="11.00">Exception</text>
</g>
<!-- \\triagens\\ArangoDb\\ConnectException&#45;&gt;\\triagens\\ArangoDb\\Exception -->
<g id="edge7" class="edge"><title>\\triagens\\ArangoDb\\ConnectException&#45;&gt;\\triagens\\ArangoDb\\Exception</title>
<path fill="none" stroke="black" d="M396.688,-607.973C391.941,-605.185 387.259,-602.17 383,-599 339.094,-566.318 296.087,-519.103 271.352,-490.044"/>
<polygon fill="none" stroke="black" points="273.994,-487.749 264.874,-482.357 268.641,-492.259 273.994,-487.749"/>
</g>
<!-- \\triagens\\ArangoDb\\Collection -->
<g id="node10" class="node"><title>\\triagens\\ArangoDb\\Collection</title>
<polygon fill="none" stroke="black" points="467,-1562 403,-1562 403,-1526 467,-1526 467,-1562"/>
<text text-anchor="middle" x="435" y="-1541.2" font-family="Times,serif" font-size="11.00">Collection</text>
</g>
<!-- \\triagens\\ArangoDb\\TraceRequest -->
<g id="node11" class="node"><title>\\triagens\\ArangoDb\\TraceRequest</title>
<polygon fill="none" stroke="black" points="475,-1508 395,-1508 395,-1472 475,-1472 475,-1508"/>
<text text-anchor="middle" x="435" y="-1487.2" font-family="Times,serif" font-size="11.00">TraceRequest</text>
</g>
<!-- \\triagens\\ArangoDb\\AqlUserFunction -->
<g id="node12" class="node"><title>\\triagens\\ArangoDb\\AqlUserFunction</title>
<polygon fill="none" stroke="black" points="482.5,-1454 387.5,-1454 387.5,-1418 482.5,-1418 482.5,-1454"/>
<text text-anchor="middle" x="435" y="-1433.2" font-family="Times,serif" font-size="11.00">AqlUserFunction</text>
</g>
<!-- \\triagens\\ArangoDb\\Traversal -->
<g id="node13" class="node"><title>\\triagens\\ArangoDb\\Traversal</title>
<polygon fill="none" stroke="black" points="464.5,-1400 405.5,-1400 405.5,-1364 464.5,-1364 464.5,-1400"/>
<text text-anchor="middle" x="435" y="-1379.2" font-family="Times,serif" font-size="11.00">Traversal</text>
</g>
<!-- \\triagens\\ArangoDb\\DefaultValues -->
<g id="node14" class="node"><title>\\triagens\\ArangoDb\\DefaultValues</title>
<polygon fill="none" stroke="black" points="476.5,-1346 393.5,-1346 393.5,-1310 476.5,-1310 476.5,-1346"/>
<text text-anchor="start" x="411.5" y="-1331.7" font-family="Times,serif" font-size="11.00">«abstract»</text>
<text text-anchor="start" x="402" y="-1320.7" font-family="Times,serif" font-size="11.00">DefaultValues</text>
</g>
<!-- \\triagens\\ArangoDb\\User -->
<g id="node15" class="node"><title>\\triagens\\ArangoDb\\User</title>
<polygon fill="none" stroke="black" points="462,-1292 408,-1292 408,-1256 462,-1256 462,-1292"/>
<text text-anchor="middle" x="435" y="-1271.2" font-family="Times,serif" font-size="11.00">User</text>
</g>
<!-- \\triagens\\ArangoDb\\User&#45;&gt;\\triagens\\ArangoDb\\Document -->
<g id="edge9" class="edge"><title>\\triagens\\ArangoDb\\User&#45;&gt;\\triagens\\ArangoDb\\Document</title>
<path fill="none" stroke="black" d="M407.748,-1262.36C399.447,-1258.1 390.492,-1252.87 383,-1247 336.591,-1210.65 293.164,-1156.86 269.227,-1124.83"/>
<polygon fill="none" stroke="black" points="271.762,-1122.37 263.006,-1116.41 266.131,-1126.53 271.762,-1122.37"/>
</g>
<!-- \\triagens\\ArangoDb\\CollectionHandler -->
<g id="node16" class="node"><title>\\triagens\\ArangoDb\\CollectionHandler</title>
<polygon fill="none" stroke="black" points="299.5,-1062 198.5,-1062 198.5,-1026 299.5,-1026 299.5,-1062"/>
<text text-anchor="middle" x="249" y="-1041.2" font-family="Times,serif" font-size="11.00">CollectionHandler</text>
</g>
<!-- \\triagens\\ArangoDb\\Handler -->
<g id="node32" class="node"><title>\\triagens\\ArangoDb\\Handler</title>
<polygon fill="none" stroke="black" points="96,-1062 32,-1062 32,-1026 96,-1026 96,-1062"/>
<text text-anchor="start" x="40.5" y="-1047.7" font-family="Times,serif" font-size="11.00">«abstract»</text>
<text text-anchor="start" x="45.5" y="-1036.7" font-family="Times,serif" font-size="11.00">Handler</text>
</g>
<!-- \\triagens\\ArangoDb\\CollectionHandler&#45;&gt;\\triagens\\ArangoDb\\Handler -->
<g id="edge11" class="edge"><title>\\triagens\\ArangoDb\\CollectionHandler&#45;&gt;\\triagens\\ArangoDb\\Handler</title>
<path fill="none" stroke="black" d="M198.478,-1044C169.568,-1044 133.522,-1044 106.178,-1044"/>
<polygon fill="none" stroke="black" points="106.157,-1040.5 96.1568,-1044 106.157,-1047.5 106.157,-1040.5"/>
</g>
<!-- \\triagens\\ArangoDb\\Database -->
<g id="node17" class="node"><title>\\triagens\\ArangoDb\\Database</title>
<polygon fill="none" stroke="black" points="464.5,-1238 405.5,-1238 405.5,-1202 464.5,-1202 464.5,-1238"/>
<text text-anchor="middle" x="435" y="-1217.2" font-family="Times,serif" font-size="11.00">Database</text>
</g>
<!-- \\triagens\\ArangoDb\\BatchPart -->
<g id="node18" class="node"><title>\\triagens\\ArangoDb\\BatchPart</title>
<polygon fill="none" stroke="black" points="466,-1184 404,-1184 404,-1148 466,-1148 466,-1184"/>
<text text-anchor="middle" x="435" y="-1163.2" font-family="Times,serif" font-size="11.00">BatchPart</text>
</g>
<!-- \\triagens\\ArangoDb\\Connection -->
<g id="node19" class="node"><title>\\triagens\\ArangoDb\\Connection</title>
<polygon fill="none" stroke="black" points="469,-1130 401,-1130 401,-1094 469,-1094 469,-1130"/>
<text text-anchor="middle" x="435" y="-1109.2" font-family="Times,serif" font-size="11.00">Connection</text>
</g>
<!-- \\triagens\\ArangoDb\\TraceResponse -->
<g id="node20" class="node"><title>\\triagens\\ArangoDb\\TraceResponse</title>
<polygon fill="none" stroke="black" points="478.5,-1076 391.5,-1076 391.5,-1040 478.5,-1040 478.5,-1076"/>
<text text-anchor="middle" x="435" y="-1055.2" font-family="Times,serif" font-size="11.00">TraceResponse</text>
</g>
<!-- \\triagens\\ArangoDb\\Autoloader -->
<g id="node21" class="node"><title>\\triagens\\ArangoDb\\Autoloader</title>
<polygon fill="none" stroke="black" points="469,-1022 401,-1022 401,-986 469,-986 469,-1022"/>
<text text-anchor="middle" x="435" y="-1001.2" font-family="Times,serif" font-size="11.00">Autoloader</text>
</g>
<!-- \\triagens\\ArangoDb\\ServerException -->
<g id="node22" class="node"><title>\\triagens\\ArangoDb\\ServerException</title>
<polygon fill="none" stroke="black" points="481,-752 389,-752 389,-716 481,-716 481,-752"/>
<text text-anchor="middle" x="435" y="-731.2" font-family="Times,serif" font-size="11.00">ServerException</text>
</g>
<!-- \\triagens\\ArangoDb\\ServerException&#45;&gt;\\triagens\\ArangoDb\\Exception -->
<g id="edge13" class="edge"><title>\\triagens\\ArangoDb\\ServerException&#45;&gt;\\triagens\\ArangoDb\\Exception</title>
<path fill="none" stroke="black" d="M393.972,-715.835C390.03,-713.181 386.281,-710.236 383,-707 318.104,-642.999 276.403,-540.581 259.12,-491.703"/>
<polygon fill="none" stroke="black" points="262.381,-490.424 255.803,-482.119 255.766,-492.714 262.381,-490.424"/>
</g>
<!-- \\triagens\\ArangoDb\\UserHandler -->
<g id="node23" class="node"><title>\\triagens\\ArangoDb\\UserHandler</title>
<polygon fill="none" stroke="black" points="286.5,-1008 211.5,-1008 211.5,-972 286.5,-972 286.5,-1008"/>
<text text-anchor="middle" x="249" y="-987.2" font-family="Times,serif" font-size="11.00">UserHandler</text>
</g>
<!-- \\triagens\\ArangoDb\\UserHandler&#45;&gt;\\triagens\\ArangoDb\\Handler -->
<g id="edge15" class="edge"><title>\\triagens\\ArangoDb\\UserHandler&#45;&gt;\\triagens\\ArangoDb\\Handler</title>
<path fill="none" stroke="black" d="M211.407,-1000.8C180.913,-1009.8 137.507,-1022.6 105.877,-1031.94"/>
<polygon fill="none" stroke="black" points="104.654,-1028.65 96.0532,-1034.84 106.635,-1035.36 104.654,-1028.65"/>
</g>
<!-- \\triagens\\ArangoDb\\HttpHelper -->
<g id="node24" class="node"><title>\\triagens\\ArangoDb\\HttpHelper</title>
<polygon fill="none" stroke="black" points="469,-914 401,-914 401,-878 469,-878 469,-914"/>
<text text-anchor="middle" x="435" y="-893.2" font-family="Times,serif" font-size="11.00">HttpHelper</text>
</g>
<!-- \\triagens\\ArangoDb\\Cursor -->
<g id="node25" class="node"><title>\\triagens\\ArangoDb\\Cursor</title>
<polygon fill="none" stroke="black" points="462,-212 408,-212 408,-176 462,-176 462,-212"/>
<text text-anchor="middle" x="435" y="-191.2" font-family="Times,serif" font-size="11.00">Cursor</text>
</g>
<!-- \\Iterator -->
<g id="node52" class="node"><title>\\Iterator</title>
<ellipse fill="none" stroke="black" cx="249" cy="-72" rx="40.0939" ry="18"/>
<text text-anchor="middle" x="249" y="-68.3" font-family="Times,serif" font-size="14.00" fill="gray">\Iterator</text>
</g>
<!-- \\triagens\\ArangoDb\\Cursor&#45;&gt;\\Iterator -->
<g id="edge17" class="edge"><title>\\triagens\\ArangoDb\\Cursor&#45;&gt;\\Iterator</title>
<path fill="none" stroke="black" stroke-dasharray="1,5" d="M407.791,-181.295C399.666,-177.048 390.802,-172.093 383,-167 348.822,-144.692 344.374,-133.494 311,-110 302.031,-103.686 292.029,-97.228 282.761,-91.4689"/>
<polygon fill="none" stroke="black" points="284.512,-88.4366 274.158,-86.189 280.85,-94.4026 284.512,-88.4366"/>
</g>
<!-- \\triagens\\ArangoDb\\Graph -->
<g id="node26" class="node"><title>\\triagens\\ArangoDb\\Graph</title>
<polygon fill="none" stroke="black" points="462,-968 408,-968 408,-932 462,-932 462,-968"/>
<text text-anchor="middle" x="435" y="-947.2" font-family="Times,serif" font-size="11.00">Graph</text>
</g>
<!-- \\triagens\\ArangoDb\\Graph&#45;&gt;\\triagens\\ArangoDb\\Document -->
<g id="edge19" class="edge"><title>\\triagens\\ArangoDb\\Graph&#45;&gt;\\triagens\\ArangoDb\\Document</title>
<path fill="none" stroke="black" d="M407.742,-961.179C399.351,-965.44 390.343,-970.789 383,-977 342.819,-1010.98 352.349,-1038.45 311,-1071 304.794,-1075.89 297.565,-1080.09 290.298,-1083.62"/>
<polygon fill="none" stroke="black" points="288.832,-1080.44 281.149,-1087.73 291.704,-1086.82 288.832,-1080.44"/>
</g>
<!-- \\triagens\\ArangoDb\\Vertex -->
<g id="node28" class="node"><title>\\triagens\\ArangoDb\\Vertex</title>
<polygon fill="none" stroke="black" points="462,-860 408,-860 408,-824 462,-824 462,-860"/>
<text text-anchor="middle" x="435" y="-839.2" font-family="Times,serif" font-size="11.00">Vertex</text>
</g>
<!-- \\triagens\\ArangoDb\\Vertex&#45;&gt;\\triagens\\ArangoDb\\Document -->
<g id="edge21" class="edge"><title>\\triagens\\ArangoDb\\Vertex&#45;&gt;\\triagens\\ArangoDb\\Document</title>
<path fill="none" stroke="black" d="M407.832,-851.292C398.955,-855.53 389.62,-861.347 383,-869 320.646,-941.084 375.845,-1001.15 311,-1071 305.404,-1077.03 298.219,-1081.79 290.757,-1085.52"/>
<polygon fill="none" stroke="black" points="288.988,-1082.48 281.255,-1089.72 291.817,-1088.88 288.988,-1082.48"/>
</g>
<!-- \\triagens\\ArangoDb\\DocumentHandler -->
<g id="node29" class="node"><title>\\triagens\\ArangoDb\\DocumentHandler</title>
<polygon fill="none" stroke="black" points="299.5,-1467 198.5,-1467 198.5,-1431 299.5,-1431 299.5,-1467"/>
<text text-anchor="middle" x="249" y="-1446.2" font-family="Times,serif" font-size="11.00">DocumentHandler</text>
</g>
<!-- \\triagens\\ArangoDb\\DocumentHandler&#45;&gt;\\triagens\\ArangoDb\\Handler -->
<g id="edge23" class="edge"><title>\\triagens\\ArangoDb\\DocumentHandler&#45;&gt;\\triagens\\ArangoDb\\Handler</title>
<path fill="none" stroke="black" d="M239.781,-1430.81C210.695,-1366.44 112.507,-1149.14 77.5151,-1071.7"/>
<polygon fill="none" stroke="black" points="80.5032,-1069.81 73.196,-1062.14 74.1242,-1072.69 80.5032,-1069.81"/>
</g>
<!-- \\triagens\\ArangoDb\\Statement -->
<g id="node30" class="node"><title>\\triagens\\ArangoDb\\Statement</title>
<polygon fill="none" stroke="black" points="466,-698 404,-698 404,-662 466,-662 466,-698"/>
<text text-anchor="middle" x="435" y="-677.2" font-family="Times,serif" font-size="11.00">Statement</text>
</g>
<!-- \\Exception -->
<g id="node57" class="node"><title>\\Exception</title>
<ellipse fill="none" stroke="black" cx="64" cy="-72" rx="50.8918" ry="18"/>
<text text-anchor="middle" x="64" y="-68.3" font-family="Times,serif" font-size="14.00" fill="gray">\Exception</text>
</g>
<!-- \\triagens\\ArangoDb\\Exception&#45;&gt;\\Exception -->
<g id="edge25" class="edge"><title>\\triagens\\ArangoDb\\Exception&#45;&gt;\\Exception</title>
<path fill="none" stroke="black" d="M217.81,-459.44C206.67,-456.294 194.861,-450.979 187,-442 87.5434,-328.4 196.126,-237.339 115,-110 111.013,-103.741 105.611,-98.1246 99.8295,-93.2508"/>
<polygon fill="none" stroke="black" points="101.866,-90.4013 91.8067,-87.0747 97.5957,-95.9482 101.866,-90.4013"/>
</g>
<!-- \\triagens\\ArangoDb\\VertexHandler -->
<g id="node33" class="node"><title>\\triagens\\ArangoDb\\VertexHandler</title>
<polygon fill="none" stroke="black" points="477,-1616 393,-1616 393,-1580 477,-1580 477,-1616"/>
<text text-anchor="middle" x="435" y="-1595.2" font-family="Times,serif" font-size="11.00">VertexHandler</text>
</g>
<!-- \\triagens\\ArangoDb\\VertexHandler&#45;&gt;\\triagens\\ArangoDb\\DocumentHandler -->
<g id="edge27" class="edge"><title>\\triagens\\ArangoDb\\VertexHandler&#45;&gt;\\triagens\\ArangoDb\\DocumentHandler</title>
<path fill="none" stroke="black" d="M395.49,-1579.99C391.088,-1577.25 386.816,-1574.24 383,-1571 342.637,-1536.69 352.543,-1508.88 311,-1476 309.433,-1474.76 307.801,-1473.56 306.119,-1472.41"/>
<polygon fill="none" stroke="black" points="307.716,-1469.29 297.366,-1467.02 304.046,-1475.25 307.716,-1469.29"/>
</g>
<!-- \\triagens\\ArangoDb\\HttpResponse -->
<g id="node34" class="node"><title>\\triagens\\ArangoDb\\HttpResponse</title>
<polygon fill="none" stroke="black" points="475.5,-590 394.5,-590 394.5,-554 475.5,-554 475.5,-590"/>
<text text-anchor="middle" x="435" y="-569.2" font-family="Times,serif" font-size="11.00">HttpResponse</text>
</g>
<!-- \\triagens\\ArangoDb\\BindVars -->
<g id="node35" class="node"><title>\\triagens\\ArangoDb\\BindVars</title>
<polygon fill="none" stroke="black" points="465,-536 405,-536 405,-500 465,-500 465,-536"/>
<text text-anchor="middle" x="435" y="-515.2" font-family="Times,serif" font-size="11.00">BindVars</text>
</g>
<!-- \\triagens\\ArangoDb\\UpdatePolicy -->
<g id="node36" class="node"><title>\\triagens\\ArangoDb\\UpdatePolicy</title>
<polygon fill="none" stroke="black" points="475,-482 395,-482 395,-446 475,-446 475,-482"/>
<text text-anchor="middle" x="435" y="-461.2" font-family="Times,serif" font-size="11.00">UpdatePolicy</text>
</g>
<!-- \\triagens\\ArangoDb\\Urls -->
<g id="node37" class="node"><title>\\triagens\\ArangoDb\\Urls</title>
<polygon fill="none" stroke="black" points="467,-428 403,-428 403,-392 467,-392 467,-428"/>
<text text-anchor="start" x="411.5" y="-413.7" font-family="Times,serif" font-size="11.00">«abstract»</text>
<text text-anchor="start" x="425" y="-402.7" font-family="Times,serif" font-size="11.00">Urls</text>
</g>
<!-- \\triagens\\ArangoDb\\EdgeDefinition -->
<g id="node38" class="node"><title>\\triagens\\ArangoDb\\EdgeDefinition</title>
<polygon fill="none" stroke="black" points="478.5,-374 391.5,-374 391.5,-338 478.5,-338 478.5,-374"/>
<text text-anchor="middle" x="435" y="-353.2" font-family="Times,serif" font-size="11.00">EdgeDefinition</text>
</g>
<!-- \\triagens\\ArangoDb\\ClientException -->
<g id="node39" class="node"><title>\\triagens\\ArangoDb\\ClientException</title>
<polygon fill="none" stroke="black" points="479.5,-320 390.5,-320 390.5,-284 479.5,-284 479.5,-320"/>
<text text-anchor="middle" x="435" y="-299.2" font-family="Times,serif" font-size="11.00">ClientException</text>
</g>
<!-- \\triagens\\ArangoDb\\ClientException&#45;&gt;\\triagens\\ArangoDb\\Exception -->
<g id="edge29" class="edge"><title>\\triagens\\ArangoDb\\ClientException&#45;&gt;\\triagens\\ArangoDb\\Exception</title>
<path fill="none" stroke="black" d="M394.706,-320.05C390.536,-322.752 386.534,-325.739 383,-329 339.233,-369.382 357.498,-404.796 311,-442 304.757,-446.995 297.284,-450.911 289.743,-453.964"/>
<polygon fill="none" stroke="black" points="288.466,-450.703 280.243,-457.384 290.837,-457.29 288.466,-450.703"/>
</g>
<!-- \\triagens\\ArangoDb\\ValueValidator -->
<g id="node40" class="node"><title>\\triagens\\ArangoDb\\ValueValidator</title>
<polygon fill="none" stroke="black" points="478.5,-266 391.5,-266 391.5,-230 478.5,-230 478.5,-266"/>
<text text-anchor="middle" x="435" y="-245.2" font-family="Times,serif" font-size="11.00">ValueValidator</text>
</g>
<!-- \\triagens\\ArangoDb\\GraphHandler -->
<g id="node41" class="node"><title>\\triagens\\ArangoDb\\GraphHandler</title>
<polygon fill="none" stroke="black" points="289.5,-954 208.5,-954 208.5,-918 289.5,-918 289.5,-954"/>
<text text-anchor="middle" x="249" y="-933.2" font-family="Times,serif" font-size="11.00">GraphHandler</text>
</g>
<!-- \\triagens\\ArangoDb\\GraphHandler&#45;&gt;\\triagens\\ArangoDb\\Handler -->
<g id="edge31" class="edge"><title>\\triagens\\ArangoDb\\GraphHandler&#45;&gt;\\triagens\\ArangoDb\\Handler</title>
<path fill="none" stroke="black" d="M208.477,-951.62C201.155,-955.033 193.707,-958.873 187,-963 151.764,-984.681 150.26,-1000.36 115,-1022 111.865,-1023.92 108.533,-1025.77 105.135,-1027.52"/>
<polygon fill="none" stroke="black" points="103.555,-1024.39 96.0764,-1031.9 106.603,-1030.7 103.555,-1024.39"/>
</g>
<!-- \\triagens\\ArangoDb\\AdminHandler -->
<g id="node42" class="node"><title>\\triagens\\ArangoDb\\AdminHandler</title>
<polygon fill="none" stroke="black" points="291.5,-1521 206.5,-1521 206.5,-1485 291.5,-1485 291.5,-1521"/>
<text text-anchor="middle" x="249" y="-1500.2" font-family="Times,serif" font-size="11.00">AdminHandler</text>
</g>
<!-- \\triagens\\ArangoDb\\AdminHandler&#45;&gt;\\triagens\\ArangoDb\\Handler -->
<g id="edge33" class="edge"><title>\\triagens\\ArangoDb\\AdminHandler&#45;&gt;\\triagens\\ArangoDb\\Handler</title>
<path fill="none" stroke="black" d="M206.289,-1490.49C199.083,-1486.78 192.237,-1482.04 187,-1476 81.3628,-1354.25 66.7848,-1147.25 65.082,-1072.22"/>
<polygon fill="none" stroke="black" points="68.5801,-1072.07 64.9148,-1062.13 61.5811,-1072.19 68.5801,-1072.07"/>
</g>
<!-- \\triagens\\ArangoDb\\EdgeHandler -->
<g id="node43" class="node"><title>\\triagens\\ArangoDb\\EdgeHandler</title>
<polygon fill="none" stroke="black" points="474,-1886 396,-1886 396,-1850 474,-1850 474,-1886"/>
<text text-anchor="middle" x="435" y="-1865.2" font-family="Times,serif" font-size="11.00">EdgeHandler</text>
</g>
<!-- \\triagens\\ArangoDb\\EdgeHandler&#45;&gt;\\triagens\\ArangoDb\\DocumentHandler -->
<g id="edge35" class="edge"><title>\\triagens\\ArangoDb\\EdgeHandler&#45;&gt;\\triagens\\ArangoDb\\DocumentHandler</title>
<path fill="none" stroke="black" d="M395.889,-1852.9C390.981,-1849.6 386.467,-1845.66 383,-1841 284.344,-1708.31 414.252,-1605.15 311,-1476 309.906,-1474.63 308.729,-1473.33 307.481,-1472.09"/>
<polygon fill="none" stroke="black" points="309.62,-1469.32 299.667,-1465.69 305.184,-1474.74 309.62,-1469.32"/>
</g>
<!-- \\triagens\\ArangoDb\\ConnectionOptions -->
<g id="node44" class="node"><title>\\triagens\\ArangoDb\\ConnectionOptions</title>
<polygon fill="none" stroke="black" points="487,-158 383,-158 383,-122 487,-122 487,-158"/>
<text text-anchor="middle" x="435" y="-137.2" font-family="Times,serif" font-size="11.00">ConnectionOptions</text>
</g>
<!-- \\ArrayAccess -->
<g id="node64" class="node"><title>\\ArrayAccess</title>
<ellipse fill="none" stroke="black" cx="249" cy="-18" rx="61.99" ry="18"/>
<text text-anchor="middle" x="249" y="-14.3" font-family="Times,serif" font-size="14.00" fill="gray">\ArrayAccess</text>
</g>
<!-- \\triagens\\ArangoDb\\ConnectionOptions&#45;&gt;\\ArrayAccess -->
<g id="edge37" class="edge"><title>\\triagens\\ArangoDb\\ConnectionOptions&#45;&gt;\\ArrayAccess</title>
<path fill="none" stroke="black" stroke-dasharray="1,5" d="M413.775,-121.898C390.261,-101.46 349.713,-68.0577 311,-45 306.211,-42.148 301.068,-39.414 295.871,-36.8546"/>
<polygon fill="none" stroke="black" points="297.064,-33.5476 286.526,-32.4484 294.079,-39.879 297.064,-33.5476"/>
</g>
</g>
</svg>
