<?xml version="1.0" encoding="UTF-8" standalone="no"?>
<!DOCTYPE svg PUBLIC "-//W3C//DTD SVG 1.1//EN"
 "http://www.w3.org/Graphics/SVG/1.1/DTD/svg11.dtd">
<!-- Generated by graphviz version 2.26.0 (20091210.2329)
 -->
<!-- Title: G Pages: 1 -->
<svg width="531pt" height="1837pt"
 viewBox="0.00 0.00 531.00 1837.00" xmlns="http://www.w3.org/2000/svg" xmlns:xlink="http://www.w3.org/1999/xlink">
<g id="graph1" class="graph" transform="scale(1 1) rotate(0) translate(4 1833)">
<title>G</title>
<polygon fill="white" stroke="white" points="-4,5 -4,-1833 528,-1833 528,5 -4,5"/>
<g id="graph2" class="cluster"><title>cluster_Global</title>
<polyline fill="none" stroke="gray" points="20,-102 503,-102 "/>
<path fill="none" stroke="gray" d="M503,-102C509,-102 515,-108 515,-114"/>
<polyline fill="none" stroke="gray" points="515,-114 515,-1809 "/>
<path fill="none" stroke="gray" d="M515,-1809C515,-1815 509,-1821 503,-1821"/>
<polyline fill="none" stroke="gray" points="503,-1821 20,-1821 "/>
<path fill="none" stroke="gray" d="M20,-1821C14,-1821 8,-1815 8,-1809"/>
<polyline fill="none" stroke="gray" points="8,-1809 8,-114 "/>
<path fill="none" stroke="gray" d="M8,-114C8,-108 14,-102 20,-102"/>
<text text-anchor="middle" x="261.5" y="-1807.1" font-family="Times Roman,serif" font-size="11.00" fill="gray">\</text>
</g>
<g id="graph3" class="cluster"><title>cluster_\triagens</title>
<polyline fill="none" stroke="gray" points="28,-110 495,-110 "/>
<path fill="none" stroke="gray" d="M495,-110C501,-110 507,-116 507,-122"/>
<polyline fill="none" stroke="gray" points="507,-122 507,-1778 "/>
<path fill="none" stroke="gray" d="M507,-1778C507,-1784 501,-1790 495,-1790"/>
<polyline fill="none" stroke="gray" points="495,-1790 28,-1790 "/>
<path fill="none" stroke="gray" d="M28,-1790C22,-1790 16,-1784 16,-1778"/>
<polyline fill="none" stroke="gray" points="16,-1778 16,-122 "/>
<path fill="none" stroke="gray" d="M16,-122C16,-116 22,-110 28,-110"/>
<text text-anchor="middle" x="261.5" y="-1776.1" font-family="Times Roman,serif" font-size="11.00" fill="gray">triagens</text>
</g>
<g id="graph4" class="cluster"><title>cluster_\triagens\ArangoDb</title>
<polyline fill="none" stroke="gray" points="36,-118 487,-118 "/>
<path fill="none" stroke="gray" d="M487,-118C493,-118 499,-124 499,-130"/>
<polyline fill="none" stroke="gray" points="499,-130 499,-1747 "/>
<path fill="none" stroke="gray" d="M499,-1747C499,-1753 493,-1759 487,-1759"/>
<polyline fill="none" stroke="gray" points="487,-1759 36,-1759 "/>
<path fill="none" stroke="gray" d="M36,-1759C30,-1759 24,-1753 24,-1747"/>
<polyline fill="none" stroke="gray" points="24,-1747 24,-130 "/>
<path fill="none" stroke="gray" d="M24,-130C24,-124 30,-118 36,-118"/>
<text text-anchor="middle" x="261.5" y="-1745.1" font-family="Times Roman,serif" font-size="11.00" fill="gray">ArangoDb</text>
</g>
<!-- \\triagens\\ArangoDb\\Edge -->
<g id="node4" class="node"><title>\\triagens\\ArangoDb\\Edge</title>
<polygon fill="none" stroke="black" points="467,-1188 413,-1188 413,-1152 467,-1152 467,-1188"/>
<text text-anchor="middle" x="440" y="-1167.6" font-family="Times Roman,serif" font-size="11.00">Edge</text>
</g>
<!-- \\triagens\\ArangoDb\\Document -->
<g id="node25" class="node"><title>\\triagens\\ArangoDb\\Document</title>
<polygon fill="none" stroke="black" points="284,-1039 222,-1039 222,-1003 284,-1003 284,-1039"/>
<text text-anchor="middle" x="253" y="-1018.6" font-family="Times Roman,serif" font-size="11.00">Document</text>
</g>
<!-- \\triagens\\ArangoDb\\Edge&#45;&gt;\\triagens\\ArangoDb\\Document -->
<g id="edge5" class="edge"><title>\\triagens\\ArangoDb\\Edge&#45;&gt;\\triagens\\ArangoDb\\Document</title>
<path fill="none" stroke="black" d="M412.807,-1157.17C404.894,-1153.03 396.395,-1148.16 389,-1143 346.852,-1113.6 303.584,-1072.55 277.493,-1046.37"/>
<polygon fill="none" stroke="black" points="279.804,-1043.73 270.286,-1039.08 274.825,-1048.65 279.804,-1043.73"/>
</g>
<!-- \\triagens\\ArangoDb\\Transaction -->
<g id="node5" class="node"><title>\\triagens\\ArangoDb\\Transaction</title>
<polygon fill="none" stroke="black" points="474,-1674 406,-1674 406,-1638 474,-1638 474,-1674"/>
<text text-anchor="middle" x="440" y="-1653.6" font-family="Times Roman,serif" font-size="11.00">Transaction</text>
</g>
<!-- \\triagens\\ArangoDb\\UrlHelper -->
<g id="node6" class="node"><title>\\triagens\\ArangoDb\\UrlHelper</title>
<polygon fill="none" stroke="black" points="471,-1620 409,-1620 409,-1584 471,-1584 471,-1620"/>
<text text-anchor="start" x="417" y="-1607.43" font-family="Times Roman,serif" font-size="11.00">«abstract»</text>
<text text-anchor="start" x="417" y="-1594.23" font-family="Times Roman,serif" font-size="11.00">UrlHelper</text>
</g>
<!-- \\triagens\\ArangoDb\\Endpoint -->
<g id="node7" class="node"><title>\\triagens\\ArangoDb\\Endpoint</title>
<polygon fill="none" stroke="black" points="468,-1566 412,-1566 412,-1530 468,-1530 468,-1566"/>
<text text-anchor="middle" x="440" y="-1545.6" font-family="Times Roman,serif" font-size="11.00">Endpoint</text>
</g>
<!-- \\triagens\\ArangoDb\\Batch -->
<g id="node8" class="node"><title>\\triagens\\ArangoDb\\Batch</title>
<polygon fill="none" stroke="black" points="467,-1512 413,-1512 413,-1476 467,-1476 467,-1512"/>
<text text-anchor="middle" x="440" y="-1491.6" font-family="Times Roman,serif" font-size="11.00">Batch</text>
</g>
<!-- \\triagens\\ArangoDb\\ConnectException -->
<g id="node9" class="node"><title>\\triagens\\ArangoDb\\ConnectException</title>
<polygon fill="none" stroke="black" points="489,-594 391,-594 391,-558 489,-558 489,-594"/>
<text text-anchor="middle" x="440" y="-573.6" font-family="Times Roman,serif" font-size="11.00">ConnectException</text>
</g>
<!-- \\triagens\\ArangoDb\\Exception -->
<g id="node29" class="node"><title>\\triagens\\ArangoDb\\Exception</title>
<polygon fill="none" stroke="black" points="283,-459 223,-459 223,-423 283,-423 283,-459"/>
<text text-anchor="middle" x="253" y="-438.6" font-family="Times Roman,serif" font-size="11.00">Exception</text>
</g>
<!-- \\triagens\\ArangoDb\\ConnectException&#45;&gt;\\triagens\\ArangoDb\\Exception -->
<g id="edge7" class="edge"><title>\\triagens\\ArangoDb\\ConnectException&#45;&gt;\\triagens\\ArangoDb\\Exception</title>
<path fill="none" stroke="black" d="M403.852,-557.932C398.778,-555.089 393.696,-552.07 389,-549 349.664,-523.283 307.809,-488.843 281.086,-465.837"/>
<polygon fill="none" stroke="black" points="283.148,-462.992 273.299,-459.087 278.563,-468.282 283.148,-462.992"/>
</g>
<!-- \\triagens\\ArangoDb\\Collection -->
<g id="node10" class="node"><title>\\triagens\\ArangoDb\\Collection</title>
<polygon fill="none" stroke="black" points="471,-1404 409,-1404 409,-1368 471,-1368 471,-1404"/>
<text text-anchor="middle" x="440" y="-1383.6" font-family="Times Roman,serif" font-size="11.00">Collection</text>
</g>
<!-- \\triagens\\ArangoDb\\TraceRequest -->
<g id="node11" class="node"><title>\\triagens\\ArangoDb\\TraceRequest</title>
<polygon fill="none" stroke="black" points="479,-1350 401,-1350 401,-1314 479,-1314 479,-1350"/>
<text text-anchor="middle" x="440" y="-1329.6" font-family="Times Roman,serif" font-size="11.00">TraceRequest</text>
</g>
<!-- \\triagens\\ArangoDb\\AqlUserFunction -->
<g id="node12" class="node"><title>\\triagens\\ArangoDb\\AqlUserFunction</title>
<polygon fill="none" stroke="black" points="486,-1296 394,-1296 394,-1260 486,-1260 486,-1296"/>
<text text-anchor="middle" x="440" y="-1275.6" font-family="Times Roman,serif" font-size="11.00">AqlUserFunction</text>
</g>
<!-- \\triagens\\ArangoDb\\DefaultValues -->
<g id="node13" class="node"><title>\\triagens\\ArangoDb\\DefaultValues</title>
<polygon fill="none" stroke="black" points="481,-1242 399,-1242 399,-1206 481,-1206 481,-1242"/>
<text text-anchor="start" x="417" y="-1229.43" font-family="Times Roman,serif" font-size="11.00">«abstract»</text>
<text text-anchor="start" x="407" y="-1216.23" font-family="Times Roman,serif" font-size="11.00">DefaultValues</text>
</g>
<!-- \\triagens\\ArangoDb\\User -->
<g id="node14" class="node"><title>\\triagens\\ArangoDb\\User</title>
<polygon fill="none" stroke="black" points="467,-918 413,-918 413,-882 467,-882 467,-918"/>
<text text-anchor="middle" x="440" y="-897.6" font-family="Times Roman,serif" font-size="11.00">User</text>
</g>
<!-- \\triagens\\ArangoDb\\User&#45;&gt;\\triagens\\ArangoDb\\Document -->
<g id="edge9" class="edge"><title>\\triagens\\ArangoDb\\User&#45;&gt;\\triagens\\ArangoDb\\Document</title>
<path fill="none" stroke="black" d="M412.747,-912.744C404.833,-916.886 396.348,-921.774 389,-927 353.378,-952.333 353.698,-970.253 317,-994 309.723,-998.709 301.487,-1002.9 293.405,-1006.5"/>
<polygon fill="none" stroke="black" points="291.909,-1003.33 284.054,-1010.44 294.628,-1009.78 291.909,-1003.33"/>
</g>
<!-- \\triagens\\ArangoDb\\CollectionHandler -->
<g id="node15" class="node"><title>\\triagens\\ArangoDb\\CollectionHandler</title>
<polygon fill="none" stroke="black" points="302,-985 204,-985 204,-949 302,-949 302,-985"/>
<text text-anchor="middle" x="253" y="-964.6" font-family="Times Roman,serif" font-size="11.00">CollectionHandler</text>
</g>
<!-- \\triagens\\ArangoDb\\Handler -->
<g id="node30" class="node"><title>\\triagens\\ArangoDb\\Handler</title>
<polygon fill="none" stroke="black" points="95,-985 33,-985 33,-949 95,-949 95,-985"/>
<text text-anchor="start" x="41" y="-972.433" font-family="Times Roman,serif" font-size="11.00">«abstract»</text>
<text text-anchor="start" x="45.5" y="-959.233" font-family="Times Roman,serif" font-size="11.00">Handler</text>
</g>
<!-- \\triagens\\ArangoDb\\CollectionHandler&#45;&gt;\\triagens\\ArangoDb\\Handler -->
<g id="edge11" class="edge"><title>\\triagens\\ArangoDb\\CollectionHandler&#45;&gt;\\triagens\\ArangoDb\\Handler</title>
<path fill="none" stroke="black" d="M203.836,-967C173.443,-967 134.852,-967 105.913,-967"/>
<polygon fill="none" stroke="black" points="105.721,-963.5 95.7209,-967 105.721,-970.5 105.721,-963.5"/>
</g>
<!-- \\triagens\\ArangoDb\\BatchPart -->
<g id="node16" class="node"><title>\\triagens\\ArangoDb\\BatchPart</title>
<polygon fill="none" stroke="black" points="470,-1134 410,-1134 410,-1098 470,-1098 470,-1134"/>
<text text-anchor="middle" x="440" y="-1113.6" font-family="Times Roman,serif" font-size="11.00">BatchPart</text>
</g>
<!-- \\triagens\\ArangoDb\\Connection -->
<g id="node17" class="node"><title>\\triagens\\ArangoDb\\Connection</title>
<polygon fill="none" stroke="black" points="473,-1080 407,-1080 407,-1044 473,-1044 473,-1080"/>
<text text-anchor="middle" x="440" y="-1059.6" font-family="Times Roman,serif" font-size="11.00">Connection</text>
</g>
<!-- \\triagens\\ArangoDb\\TraceResponse -->
<g id="node18" class="node"><title>\\triagens\\ArangoDb\\TraceResponse</title>
<polygon fill="none" stroke="black" points="483,-1026 397,-1026 397,-990 483,-990 483,-1026"/>
<text text-anchor="middle" x="440" y="-1005.6" font-family="Times Roman,serif" font-size="11.00">TraceResponse</text>
</g>
<!-- \\triagens\\ArangoDb\\Autoloader -->
<g id="node19" class="node"><title>\\triagens\\ArangoDb\\Autoloader</title>
<polygon fill="none" stroke="black" points="473,-972 407,-972 407,-936 473,-936 473,-972"/>
<text text-anchor="middle" x="440" y="-951.6" font-family="Times Roman,serif" font-size="11.00">Autoloader</text>
</g>
<!-- \\triagens\\ArangoDb\\ServerException -->
<g id="node20" class="node"><title>\\triagens\\ArangoDb\\ServerException</title>
<polygon fill="none" stroke="black" points="485,-702 395,-702 395,-666 485,-666 485,-702"/>
<text text-anchor="middle" x="440" y="-681.6" font-family="Times Roman,serif" font-size="11.00">ServerException</text>
</g>
<!-- \\triagens\\ArangoDb\\ServerException&#45;&gt;\\triagens\\ArangoDb\\Exception -->
<g id="edge13" class="edge"><title>\\triagens\\ArangoDb\\ServerException&#45;&gt;\\triagens\\ArangoDb\\Exception</title>
<path fill="none" stroke="black" d="M400.689,-665.969C396.522,-663.264 392.525,-660.27 389,-657 328.744,-601.103 284.412,-512.822 264.559,-468.422"/>
<polygon fill="none" stroke="black" points="267.705,-466.881 260.478,-459.134 261.297,-469.697 267.705,-466.881"/>
</g>
<!-- \\triagens\\ArangoDb\\UserHandler -->
<g id="node21" class="node"><title>\\triagens\\ArangoDb\\UserHandler</title>
<polygon fill="none" stroke="black" points="290,-931 216,-931 216,-895 290,-895 290,-931"/>
<text text-anchor="middle" x="253" y="-910.6" font-family="Times Roman,serif" font-size="11.00">UserHandler</text>
</g>
<!-- \\triagens\\ArangoDb\\UserHandler&#45;&gt;\\triagens\\ArangoDb\\Handler -->
<g id="edge15" class="edge"><title>\\triagens\\ArangoDb\\UserHandler&#45;&gt;\\triagens\\ArangoDb\\Handler</title>
<path fill="none" stroke="black" d="M215.66,-923.669C183.877,-932.749 138.277,-945.778 105.387,-955.175"/>
<polygon fill="none" stroke="black" points="104.271,-951.854 95.6177,-957.966 106.195,-958.584 104.271,-951.854"/>
</g>
<!-- \\triagens\\ArangoDb\\HttpHelper -->
<g id="node22" class="node"><title>\\triagens\\ArangoDb\\HttpHelper</title>
<polygon fill="none" stroke="black" points="473,-864 407,-864 407,-828 473,-828 473,-864"/>
<text text-anchor="middle" x="440" y="-843.6" font-family="Times Roman,serif" font-size="11.00">HttpHelper</text>
</g>
<!-- \\triagens\\ArangoDb\\Cursor -->
<g id="node23" class="node"><title>\\triagens\\ArangoDb\\Cursor</title>
<polygon fill="none" stroke="black" points="467,-216 413,-216 413,-180 467,-180 467,-216"/>
<text text-anchor="middle" x="440" y="-195.6" font-family="Times Roman,serif" font-size="11.00">Cursor</text>
</g>
<!-- \\Iterator -->
<g id="node49" class="node"><title>\\Iterator</title>
<ellipse fill="none" stroke="black" cx="253" cy="-75" rx="41.9273" ry="19.0919"/>
<text text-anchor="middle" x="253" y="-71.9" font-family="Times Roman,serif" font-size="14.00" fill="gray">\Iterator</text>
</g>
<!-- \\triagens\\ArangoDb\\Cursor&#45;&gt;\\Iterator -->
<g id="edge17" class="edge"><title>\\triagens\\ArangoDb\\Cursor&#45;&gt;\\Iterator</title>
<path fill="none" stroke="black" stroke-dasharray="1,5" d="M412.739,-184.743C404.906,-180.622 396.467,-175.873 389,-171 354.822,-148.692 350.489,-137.329 317,-114 307.858,-107.631 297.67,-101.159 288.16,-95.3659"/>
<polygon fill="none" stroke="black" points="289.68,-92.196 279.306,-90.0449 286.075,-98.1959 289.68,-92.196"/>
</g>
<!-- \\triagens\\ArangoDb\\Graph -->
<g id="node24" class="node"><title>\\triagens\\ArangoDb\\Graph</title>
<polygon fill="none" stroke="black" points="467,-810 413,-810 413,-774 467,-774 467,-810"/>
<text text-anchor="middle" x="440" y="-789.6" font-family="Times Roman,serif" font-size="11.00">Graph</text>
</g>
<!-- \\triagens\\ArangoDb\\Graph&#45;&gt;\\triagens\\ArangoDb\\Document -->
<g id="edge19" class="edge"><title>\\triagens\\ArangoDb\\Graph&#45;&gt;\\triagens\\ArangoDb\\Document</title>
<path fill="none" stroke="black" d="M412.977,-801.982C404.436,-806.186 395.532,-811.805 389,-819 332.47,-881.271 376.205,-934.266 317,-994 310.524,-1000.53 302.224,-1005.57 293.762,-1009.42"/>
<polygon fill="none" stroke="black" points="292.182,-1006.29 284.229,-1013.29 294.811,-1012.78 292.182,-1006.29"/>
</g>
<!-- \\triagens\\ArangoDb\\Vertex -->
<g id="node26" class="node"><title>\\triagens\\ArangoDb\\Vertex</title>
<polygon fill="none" stroke="black" points="467,-756 413,-756 413,-720 467,-720 467,-756"/>
<text text-anchor="middle" x="440" y="-735.6" font-family="Times Roman,serif" font-size="11.00">Vertex</text>
</g>
<!-- \\triagens\\ArangoDb\\Vertex&#45;&gt;\\triagens\\ArangoDb\\Document -->
<g id="edge21" class="edge"><title>\\triagens\\ArangoDb\\Vertex&#45;&gt;\\triagens\\ArangoDb\\Document</title>
<path fill="none" stroke="black" d="M412.878,-747.537C404.228,-751.729 395.282,-757.455 389,-765 320.738,-846.994 388.79,-915.076 317,-994 310.683,-1000.94 302.291,-1006.16 293.668,-1010.06"/>
<polygon fill="none" stroke="black" points="292.301,-1006.84 284.31,-1013.79 294.895,-1013.34 292.301,-1006.84"/>
</g>
<!-- \\triagens\\ArangoDb\\DocumentHandler -->
<g id="node27" class="node"><title>\\triagens\\ArangoDb\\DocumentHandler</title>
<polygon fill="none" stroke="black" points="302,-1336 204,-1336 204,-1300 302,-1300 302,-1336"/>
<text text-anchor="middle" x="253" y="-1315.6" font-family="Times Roman,serif" font-size="11.00">DocumentHandler</text>
</g>
<!-- \\triagens\\ArangoDb\\DocumentHandler&#45;&gt;\\triagens\\ArangoDb\\Handler -->
<g id="edge23" class="edge"><title>\\triagens\\ArangoDb\\DocumentHandler&#45;&gt;\\triagens\\ArangoDb\\Handler</title>
<path fill="none" stroke="black" d="M243.105,-1299.62C211.912,-1241.69 115.525,-1062.69 78.6001,-994.114"/>
<polygon fill="none" stroke="black" points="81.6201,-992.341 73.7974,-985.195 75.4568,-995.659 81.6201,-992.341"/>
</g>
<!-- \\triagens\\ArangoDb\\Statement -->
<g id="node28" class="node"><title>\\triagens\\ArangoDb\\Statement</title>
<polygon fill="none" stroke="black" points="470,-648 410,-648 410,-612 470,-612 470,-648"/>
<text text-anchor="middle" x="440" y="-627.6" font-family="Times Roman,serif" font-size="11.00">Statement</text>
</g>
<!-- \\Exception -->
<g id="node54" class="node"><title>\\Exception</title>
<ellipse fill="none" stroke="black" cx="64" cy="-75" rx="53.033" ry="19.0919"/>
<text text-anchor="middle" x="64" y="-71.9" font-family="Times Roman,serif" font-size="14.00" fill="gray">\Exception</text>
</g>
<!-- \\triagens\\ArangoDb\\Exception&#45;&gt;\\Exception -->
<g id="edge25" class="edge"><title>\\triagens\\ArangoDb\\Exception&#45;&gt;\\Exception</title>
<path fill="none" stroke="black" d="M222.43,-436.96C210.474,-433.891 197.595,-428.494 189,-419 95.5211,-315.748 193.809,-230.188 117,-114 112.842,-107.71 107.305,-102.071 101.377,-97.1659"/>
<polygon fill="none" stroke="black" points="103.23,-94.1793 93.143,-90.9389 99.0078,-99.7625 103.23,-94.1793"/>
</g>
<!-- \\triagens\\ArangoDb\\VertexHandler -->
<g id="node31" class="node"><title>\\triagens\\ArangoDb\\VertexHandler</title>
<polygon fill="none" stroke="black" points="481,-1728 399,-1728 399,-1692 481,-1692 481,-1728"/>
<text text-anchor="middle" x="440" y="-1707.6" font-family="Times Roman,serif" font-size="11.00">VertexHandler</text>
</g>
<!-- \\triagens\\ArangoDb\\VertexHandler&#45;&gt;\\triagens\\ArangoDb\\DocumentHandler -->
<g id="edge27" class="edge"><title>\\triagens\\ArangoDb\\VertexHandler&#45;&gt;\\triagens\\ArangoDb\\DocumentHandler</title>
<path fill="none" stroke="black" d="M398.468,-1692.36C394.907,-1689.62 391.657,-1686.52 389,-1683 296.429,-1560.44 414.854,-1463.39 317,-1345 315.091,-1342.69 312.95,-1340.58 310.64,-1338.64"/>
<polygon fill="none" stroke="black" points="312.417,-1335.61 302.225,-1332.71 308.387,-1341.33 312.417,-1335.61"/>
</g>
<!-- \\triagens\\ArangoDb\\HttpResponse -->
<g id="node32" class="node"><title>\\triagens\\ArangoDb\\HttpResponse</title>
<polygon fill="none" stroke="black" points="479,-540 401,-540 401,-504 479,-504 479,-540"/>
<text text-anchor="middle" x="440" y="-519.6" font-family="Times Roman,serif" font-size="11.00">HttpResponse</text>
</g>
<!-- \\triagens\\ArangoDb\\BindVars -->
<g id="node33" class="node"><title>\\triagens\\ArangoDb\\BindVars</title>
<polygon fill="none" stroke="black" points="469,-486 411,-486 411,-450 469,-450 469,-486"/>
<text text-anchor="middle" x="440" y="-465.6" font-family="Times Roman,serif" font-size="11.00">BindVars</text>
</g>
<!-- \\triagens\\ArangoDb\\UpdatePolicy -->
<g id="node34" class="node"><title>\\triagens\\ArangoDb\\UpdatePolicy</title>
<polygon fill="none" stroke="black" points="478,-432 402,-432 402,-396 478,-396 478,-432"/>
<text text-anchor="middle" x="440" y="-411.6" font-family="Times Roman,serif" font-size="11.00">UpdatePolicy</text>
</g>
<!-- \\triagens\\ArangoDb\\Urls -->
<g id="node35" class="node"><title>\\triagens\\ArangoDb\\Urls</title>
<polygon fill="none" stroke="black" points="471,-378 409,-378 409,-342 471,-342 471,-378"/>
<text text-anchor="start" x="417" y="-365.433" font-family="Times Roman,serif" font-size="11.00">«abstract»</text>
<text text-anchor="start" x="430" y="-352.233" font-family="Times Roman,serif" font-size="11.00">Urls</text>
</g>
<!-- \\triagens\\ArangoDb\\ClientException -->
<g id="node36" class="node"><title>\\triagens\\ArangoDb\\ClientException</title>
<polygon fill="none" stroke="black" points="484,-324 396,-324 396,-288 484,-288 484,-324"/>
<text text-anchor="middle" x="440" y="-303.6" font-family="Times Roman,serif" font-size="11.00">ClientException</text>
</g>
<!-- \\triagens\\ArangoDb\\ClientException&#45;&gt;\\triagens\\ArangoDb\\Exception -->
<g id="edge29" class="edge"><title>\\triagens\\ArangoDb\\ClientException&#45;&gt;\\triagens\\ArangoDb\\Exception</title>
<path fill="none" stroke="black" d="M401.907,-324.029C397.385,-326.781 392.972,-329.786 389,-333 350.249,-364.358 358.074,-390.753 317,-419 309.833,-423.929 301.459,-427.847 293.176,-430.926"/>
<polygon fill="none" stroke="black" points="291.927,-427.654 283.571,-434.167 294.165,-434.286 291.927,-427.654"/>
</g>
<!-- \\triagens\\ArangoDb\\ValueValidator -->
<g id="node37" class="node"><title>\\triagens\\ArangoDb\\ValueValidator</title>
<polygon fill="none" stroke="black" points="483,-270 397,-270 397,-234 483,-234 483,-270"/>
<text text-anchor="middle" x="440" y="-249.6" font-family="Times Roman,serif" font-size="11.00">ValueValidator</text>
</g>
<!-- \\triagens\\ArangoDb\\GraphHandler -->
<g id="node38" class="node"><title>\\triagens\\ArangoDb\\GraphHandler</title>
<polygon fill="none" stroke="black" points="293,-877 213,-877 213,-841 293,-841 293,-877"/>
<text text-anchor="middle" x="253" y="-856.6" font-family="Times Roman,serif" font-size="11.00">GraphHandler</text>
</g>
<!-- \\triagens\\ArangoDb\\GraphHandler&#45;&gt;\\triagens\\ArangoDb\\Handler -->
<g id="edge31" class="edge"><title>\\triagens\\ArangoDb\\GraphHandler&#45;&gt;\\triagens\\ArangoDb\\Handler</title>
<path fill="none" stroke="black" d="M212.862,-873.843C204.75,-877.417 196.435,-881.515 189,-886 153.576,-907.372 152.485,-923.731 117,-945 113.147,-947.31 109.006,-949.488 104.8,-951.51"/>
<polygon fill="none" stroke="black" points="103.245,-948.372 95.5705,-955.677 106.125,-954.752 103.245,-948.372"/>
</g>
<!-- \\triagens\\ArangoDb\\AdminHandler -->
<g id="node39" class="node"><title>\\triagens\\ArangoDb\\AdminHandler</title>
<polygon fill="none" stroke="black" points="294,-1390 212,-1390 212,-1354 294,-1354 294,-1390"/>
<text text-anchor="middle" x="253" y="-1369.6" font-family="Times Roman,serif" font-size="11.00">AdminHandler</text>
</g>
<!-- \\triagens\\ArangoDb\\AdminHandler&#45;&gt;\\triagens\\ArangoDb\\Handler -->
<g id="edge33" class="edge"><title>\\triagens\\ArangoDb\\AdminHandler&#45;&gt;\\triagens\\ArangoDb\\Handler</title>
<path fill="none" stroke="black" d="M211.462,-1360.56C203.169,-1356.71 195.135,-1351.65 189,-1345 93.7603,-1241.83 70.9608,-1064.39 65.6058,-995.505"/>
<polygon fill="none" stroke="black" points="69.0884,-995.135 64.8877,-985.409 62.1061,-995.632 69.0884,-995.135"/>
</g>
<!-- \\triagens\\ArangoDb\\EdgeHandler -->
<g id="node40" class="node"><title>\\triagens\\ArangoDb\\EdgeHandler</title>
<polygon fill="none" stroke="black" points="477,-1458 403,-1458 403,-1422 477,-1422 477,-1458"/>
<text text-anchor="middle" x="440" y="-1437.6" font-family="Times Roman,serif" font-size="11.00">EdgeHandler</text>
</g>
<!-- \\triagens\\ArangoDb\\EdgeHandler&#45;&gt;\\triagens\\ArangoDb\\DocumentHandler -->
<g id="edge35" class="edge"><title>\\triagens\\ArangoDb\\EdgeHandler&#45;&gt;\\triagens\\ArangoDb\\DocumentHandler</title>
<path fill="none" stroke="black" d="M403.064,-1421.98C398.209,-1419.17 393.397,-1416.15 389,-1413 353.224,-1387.36 353.865,-1369.05 317,-1345 314.835,-1343.59 312.583,-1342.22 310.275,-1340.91"/>
<polygon fill="none" stroke="black" points="311.631,-1337.66 301.156,-1336.08 308.356,-1343.85 311.631,-1337.66"/>
</g>
<!-- \\triagens\\ArangoDb\\ConnectionOptions -->
<g id="node41" class="node"><title>\\triagens\\ArangoDb\\ConnectionOptions</title>
<polygon fill="none" stroke="black" points="490,-162 390,-162 390,-126 490,-126 490,-162"/>
<text text-anchor="middle" x="440" y="-141.6" font-family="Times Roman,serif" font-size="11.00">ConnectionOptions</text>
</g>
<!-- \\ArrayAccess -->
<g id="node61" class="node"><title>\\ArrayAccess</title>
<ellipse fill="none" stroke="black" cx="253" cy="-19" rx="63.1385" ry="19.0919"/>
<text text-anchor="middle" x="253" y="-15.9" font-family="Times Roman,serif" font-size="14.00" fill="gray">\ArrayAccess</text>
</g>
<!-- \\triagens\\ArangoDb\\ConnectionOptions&#45;&gt;\\ArrayAccess -->
<g id="edge37" class="edge"><title>\\triagens\\ArangoDb\\ConnectionOptions&#45;&gt;\\ArrayAccess</title>
<path fill="none" stroke="black" stroke-dasharray="1,5" d="M420.281,-125.823C396.912,-104.926 356.185,-70.4935 317,-47 312.002,-44.0036 306.626,-41.1457 301.19,-38.4798"/>
<polygon fill="none" stroke="black" points="302.579,-35.2657 292.04,-34.184 299.604,-41.6021 302.579,-35.2657"/>
</g>
</g>
</svg>
