<?xml version="1.0" encoding="UTF-8" standalone="no"?>
<!DOCTYPE svg PUBLIC "-//W3C//DTD SVG 1.1//EN"
 "http://www.w3.org/Graphics/SVG/1.1/DTD/svg11.dtd">
<!-- Generated by graphviz version 2.26.0 (20091210.2329)
 -->
<!-- Title: G Pages: 1 -->
<svg width="562pt" height="1744pt"
 viewBox="0.00 0.00 562.00 1744.00" xmlns="http://www.w3.org/2000/svg" xmlns:xlink="http://www.w3.org/1999/xlink">
<g id="graph1" class="graph" transform="scale(1 1) rotate(0) translate(4 1740)">
<title>G</title>
<polygon fill="white" stroke="white" points="-4,5 -4,-1740 559,-1740 559,5 -4,5"/>
<g id="graph2" class="cluster"><title>cluster_triagens</title>
<polyline fill="none" stroke="gray" points="20,-102 534,-102 "/>
<path fill="none" stroke="gray" d="M534,-102C540,-102 546,-108 546,-114"/>
<polyline fill="none" stroke="gray" points="546,-114 546,-1716 "/>
<path fill="none" stroke="gray" d="M546,-1716C546,-1722 540,-1728 534,-1728"/>
<polyline fill="none" stroke="gray" points="534,-1728 20,-1728 "/>
<path fill="none" stroke="gray" d="M20,-1728C14,-1728 8,-1722 8,-1716"/>
<polyline fill="none" stroke="gray" points="8,-1716 8,-114 "/>
<path fill="none" stroke="gray" d="M8,-114C8,-108 14,-102 20,-102"/>
<text text-anchor="middle" x="277" y="-1714.1" font-family="Times Roman,serif" font-size="11.00" fill="gray">triagens</text>
</g>
<g id="graph3" class="cluster"><title>cluster_triagens\ArangoDb</title>
<polyline fill="none" stroke="gray" points="28,-110 526,-110 "/>
<path fill="none" stroke="gray" d="M526,-110C532,-110 538,-116 538,-122"/>
<polyline fill="none" stroke="gray" points="538,-122 538,-1685 "/>
<path fill="none" stroke="gray" d="M538,-1685C538,-1691 532,-1697 526,-1697"/>
<polyline fill="none" stroke="gray" points="526,-1697 28,-1697 "/>
<path fill="none" stroke="gray" d="M28,-1697C22,-1697 16,-1691 16,-1685"/>
<polyline fill="none" stroke="gray" points="16,-1685 16,-122 "/>
<path fill="none" stroke="gray" d="M16,-122C16,-116 22,-110 28,-110"/>
<text text-anchor="middle" x="277" y="-1683.1" font-family="Times Roman,serif" font-size="11.00" fill="gray">ArangoDb</text>
</g>
<!-- \\triagens\\ArangoDb\\ValueValidator -->
<g id="node3" class="node"><title>\\triagens\\ArangoDb\\ValueValidator</title>
<a xlink:href="ValueValidator.html" xlink:title="ValueValidator" target="_parent">
<polygon fill="none" stroke="black" points="519,-1666 409,-1666 409,-1630 519,-1630 519,-1666"/>
<text text-anchor="middle" x="464" y="-1645.1" font-family="Courier,monospace" font-size="11.00">ValueValidator</text>
</a>
</g>
<!-- \\triagens\\ArangoDb\\Batch -->
<g id="node4" class="node"><title>\\triagens\\ArangoDb\\Batch</title>
<a xlink:href="Batch.html" xlink:title="Batch" target="_parent">
<polygon fill="none" stroke="black" points="491,-1612 437,-1612 437,-1576 491,-1576 491,-1612"/>
<text text-anchor="middle" x="464" y="-1591.1" font-family="Courier,monospace" font-size="11.00">Batch</text>
</a>
</g>
<!-- \\triagens\\ArangoDb\\Vertex -->
<g id="node5" class="node"><title>\\triagens\\ArangoDb\\Vertex</title>
<a xlink:href="Vertex.html" xlink:title="Vertex" target="_parent">
<polygon fill="none" stroke="black" points="492,-1396 436,-1396 436,-1360 492,-1360 492,-1396"/>
<text text-anchor="middle" x="464" y="-1375.1" font-family="Courier,monospace" font-size="11.00">Vertex</text>
</a>
</g>
<!-- \\triagens\\ArangoDb\\Document -->
<g id="node28" class="node"><title>\\triagens\\ArangoDb\\Document</title>
<a xlink:href="Document.html" xlink:title="Document" target="_parent">
<polygon fill="none" stroke="black" points="294,-1126 224,-1126 224,-1090 294,-1090 294,-1126"/>
<text text-anchor="middle" x="259" y="-1105.1" font-family="Courier,monospace" font-size="11.00">Document</text>
</a>
</g>
<!-- \\triagens\\ArangoDb\\Vertex&#45;&gt;\\triagens\\ArangoDb\\Document -->
<g id="edge4" class="edge"><title>\\triagens\\ArangoDb\\Vertex&#45;&gt;\\triagens\\ArangoDb\\Document</title>
<path fill="none" stroke="black" d="M435.176,-1372.02C422.282,-1368.01 407.811,-1361.49 398,-1351 328.867,-1277.1 395.327,-1208.71 326,-1135 320.01,-1128.63 312.313,-1123.73 304.284,-1119.97"/>
<polygon fill="none" stroke="black" points="305.367,-1116.63 294.787,-1116.05 302.7,-1123.1 305.367,-1116.63"/>
</g>
<!-- \\triagens\\ArangoDb\\Exception -->
<g id="node6" class="node"><title>\\triagens\\ArangoDb\\Exception</title>
<a xlink:href="Exception.html" xlink:title="Exception" target="_parent">
<polygon fill="none" stroke="black" points="297,-451 221,-451 221,-415 297,-415 297,-451"/>
<text text-anchor="middle" x="259" y="-430.1" font-family="Courier,monospace" font-size="11.00">Exception</text>
</a>
</g>
<!-- \\Exception -->
<g id="node42" class="node"><title>\\Exception</title>
<ellipse fill="none" stroke="black" cx="67" cy="-75" rx="53.033" ry="19.0919"/>
<text text-anchor="middle" x="67" y="-71.9" font-family="Times Roman,serif" font-size="14.00" fill="gray">\Exception</text>
</g>
<!-- \\triagens\\ArangoDb\\Exception&#45;&gt;\\Exception -->
<g id="edge6" class="edge"><title>\\triagens\\ArangoDb\\Exception&#45;&gt;\\Exception</title>
<path fill="none" stroke="black" d="M220.42,-427.484C209.945,-424.246 199.452,-419.117 192,-411 97.8094,-308.397 202.807,-217.992 120,-106 117.103,-102.081 113.55,-98.5736 109.668,-95.4551"/>
<polygon fill="none" stroke="black" points="111.534,-92.4885 101.342,-89.5933 107.504,-98.2122 111.534,-92.4885"/>
</g>
<!-- \\triagens\\ArangoDb\\BindVars -->
<g id="node7" class="node"><title>\\triagens\\ArangoDb\\BindVars</title>
<a xlink:href="BindVars.html" xlink:title="BindVars" target="_parent">
<polygon fill="none" stroke="black" points="499,-1504 429,-1504 429,-1468 499,-1468 499,-1504"/>
<text text-anchor="middle" x="464" y="-1483.1" font-family="Courier,monospace" font-size="11.00">BindVars</text>
</a>
</g>
<!-- \\triagens\\ArangoDb\\Scope -->
<g id="node8" class="node"><title>\\triagens\\ArangoDb\\Scope</title>
<a xlink:href="Scope.html" xlink:title="Scope" target="_parent">
<polygon fill="none" stroke="black" points="491,-1450 437,-1450 437,-1414 491,-1414 491,-1450"/>
<text text-anchor="middle" x="464" y="-1429.1" font-family="Courier,monospace" font-size="11.00">Scope</text>
</a>
</g>
<!-- \\triagens\\ArangoDb\\ConnectionOptions -->
<g id="node9" class="node"><title>\\triagens\\ArangoDb\\ConnectionOptions</title>
<a xlink:href="ConnectionOptions.html" xlink:title="ConnectionOptions" target="_parent">
<polygon fill="none" stroke="black" points="529,-262 399,-262 399,-226 529,-226 529,-262"/>
<text text-anchor="middle" x="464" y="-241.1" font-family="Courier,monospace" font-size="11.00">ConnectionOptions</text>
</a>
</g>
<!-- \\ArrayAccess -->
<g id="node57" class="node"><title>\\ArrayAccess</title>
<ellipse fill="none" stroke="black" cx="259" cy="-75" rx="65.9683" ry="19.0919"/>
<text text-anchor="middle" x="259" y="-71.9" font-family="Times Roman,serif" font-size="14.00" fill="gray">\\ArrayAccess</text>
</g>
<!-- \\triagens\\ArangoDb\\ConnectionOptions&#45;&gt;\\ArrayAccess -->
<g id="edge34" class="edge"><title>\\triagens\\ArangoDb\\ConnectionOptions&#45;&gt;\\ArrayAccess</title>
<path fill="none" stroke="black" stroke-dasharray="1,5" d="M411.141,-225.896C406.471,-223.273 402.004,-220.317 398,-217 352.718,-179.486 370.426,-144.524 326,-106 321.171,-101.812 315.68,-98.0795 309.969,-94.7835"/>
<polygon fill="none" stroke="black" points="311.351,-91.5546 300.876,-89.961 308.071,-97.7386 311.351,-91.5546"/>
</g>
<!-- \\triagens\\ArangoDb\\Statement -->
<g id="node10" class="node"><title>\\triagens\\ArangoDb\\Statement</title>
<a xlink:href="Statement.html" xlink:title="Statement" target="_parent">
<polygon fill="none" stroke="black" points="502,-1342 426,-1342 426,-1306 502,-1306 502,-1342"/>
<text text-anchor="middle" x="464" y="-1321.1" font-family="Courier,monospace" font-size="11.00">Statement</text>
</a>
</g>
<!-- \\triagens\\ArangoDb\\DocumentHandler -->
<g id="node11" class="node"><title>\\triagens\\ArangoDb\\DocumentHandler</title>
<a xlink:href="DocumentHandler.html" xlink:title="DocumentHandler" target="_parent">
<polygon fill="none" stroke="black" points="318,-1018 200,-1018 200,-982 318,-982 318,-1018"/>
<text text-anchor="middle" x="259" y="-997.1" font-family="Courier,monospace" font-size="11.00">DocumentHandler</text>
</a>
</g>
<!-- \\triagens\\ArangoDb\\Handler -->
<g id="node30" class="node"><title>\\triagens\\ArangoDb\\Handler</title>
<a xlink:href="Handler.html" xlink:title="«abstract»&lt;br/&gt;Handler" target="_parent">
<polygon fill="none" stroke="black" points="109,-1180 25,-1180 25,-1144 109,-1144 109,-1180"/>
<text text-anchor="start" x="33" y="-1167.43" font-family="Courier,monospace" font-size="11.00">«abstract»</text>
<text text-anchor="start" x="43" y="-1154.23" font-family="Courier,monospace" font-size="11.00">Handler</text>
</a>
</g>
<!-- \\triagens\\ArangoDb\\DocumentHandler&#45;&gt;\\triagens\\ArangoDb\\Handler -->
<g id="edge8" class="edge"><title>\\triagens\\ArangoDb\\DocumentHandler&#45;&gt;\\triagens\\ArangoDb\\Handler</title>
<path fill="none" stroke="black" d="M205.311,-1018C200.577,-1020.65 196.051,-1023.63 192,-1027 146.197,-1065.06 165.605,-1101.71 120,-1140 119.413,-1140.49 118.814,-1140.98 118.204,-1141.45"/>
<polygon fill="none" stroke="black" points="116.132,-1138.62 109.738,-1147.07 120.005,-1144.45 116.132,-1138.62"/>
</g>
<!-- \\triagens\\ArangoDb\\UserHandler -->
<g id="node12" class="node"><title>\\triagens\\ArangoDb\\UserHandler</title>
<a xlink:href="UserHandler.html" xlink:title="UserHandler" target="_parent">
<polygon fill="none" stroke="black" points="304,-1180 214,-1180 214,-1144 304,-1144 304,-1180"/>
<text text-anchor="middle" x="259" y="-1159.1" font-family="Courier,monospace" font-size="11.00">UserHandler</text>
</a>
</g>
<!-- \\triagens\\ArangoDb\\UserHandler&#45;&gt;\\triagens\\ArangoDb\\Handler -->
<g id="edge10" class="edge"><title>\\triagens\\ArangoDb\\UserHandler&#45;&gt;\\triagens\\ArangoDb\\Handler</title>
<path fill="none" stroke="black" d="M213.499,-1162C185.327,-1162 149.044,-1162 119.635,-1162"/>
<polygon fill="none" stroke="black" points="119.544,-1158.5 109.544,-1162 119.544,-1165.5 119.544,-1158.5"/>
</g>
<!-- \\triagens\\ArangoDb\\Connection -->
<g id="node13" class="node"><title>\\triagens\\ArangoDb\\Connection</title>
<a xlink:href="Connection.html" xlink:title="Connection" target="_parent">
<polygon fill="none" stroke="black" points="506,-1288 422,-1288 422,-1252 506,-1252 506,-1288"/>
<text text-anchor="middle" x="464" y="-1267.1" font-family="Courier,monospace" font-size="11.00">Connection</text>
</a>
</g>
<!-- \\triagens\\ArangoDb\\TraceRequest -->
<g id="node14" class="node"><title>\\triagens\\ArangoDb\\TraceRequest</title>
<a xlink:href="TraceRequest.html" xlink:title="TraceRequest" target="_parent">
<polygon fill="none" stroke="black" points="513,-1234 415,-1234 415,-1198 513,-1198 513,-1234"/>
<text text-anchor="middle" x="464" y="-1213.1" font-family="Courier,monospace" font-size="11.00">TraceRequest</text>
</a>
</g>
<!-- \\triagens\\ArangoDb\\DefaultValues -->
<g id="node15" class="node"><title>\\triagens\\ArangoDb\\DefaultValues</title>
<a xlink:href="DefaultValues.html" xlink:title="«abstract»&lt;br/&gt;DefaultValues" target="_parent">
<polygon fill="none" stroke="black" points="516,-1180 412,-1180 412,-1144 516,-1144 516,-1180"/>
<text text-anchor="start" x="430" y="-1167.43" font-family="Courier,monospace" font-size="11.00">«abstract»</text>
<text text-anchor="start" x="420" y="-1154.23" font-family="Courier,monospace" font-size="11.00">DefaultValues</text>
</a>
</g>
<!-- \\triagens\\ArangoDb\\ConnectException -->
<g id="node16" class="node"><title>\\triagens\\ArangoDb\\ConnectException</title>
<a xlink:href="ConnectException.html" xlink:title="ConnectException" target="_parent">
<polygon fill="none" stroke="black" points="526,-586 402,-586 402,-550 526,-550 526,-586"/>
<text text-anchor="middle" x="464" y="-565.1" font-family="Courier,monospace" font-size="11.00">ConnectException</text>
</a>
</g>
<!-- \\triagens\\ArangoDb\\ConnectException&#45;&gt;\\triagens\\ArangoDb\\Exception -->
<g id="edge12" class="edge"><title>\\triagens\\ArangoDb\\ConnectException&#45;&gt;\\triagens\\ArangoDb\\Exception</title>
<path fill="none" stroke="black" d="M415.328,-549.87C409.372,-547.135 403.465,-544.161 398,-541 356.348,-516.906 313.349,-481.594 286.417,-457.978"/>
<polygon fill="none" stroke="black" points="288.735,-455.356 278.928,-451.348 284.096,-460.597 288.735,-455.356"/>
</g>
<!-- \\triagens\\ArangoDb\\ClientException -->
<g id="node17" class="node"><title>\\triagens\\ArangoDb\\ClientException</title>
<a xlink:href="ClientException.html" xlink:title="ClientException" target="_parent">
<polygon fill="none" stroke="black" points="523,-478 405,-478 405,-442 523,-442 523,-478"/>
<text text-anchor="middle" x="464" y="-457.1" font-family="Courier,monospace" font-size="11.00">ClientException</text>
</a>
</g>
<!-- \\triagens\\ArangoDb\\ClientException&#45;&gt;\\triagens\\ArangoDb\\Exception -->
<g id="edge14" class="edge"><title>\\triagens\\ArangoDb\\ClientException&#45;&gt;\\triagens\\ArangoDb\\Exception</title>
<path fill="none" stroke="black" d="M404.981,-452.227C374.085,-448.157 336.719,-443.236 307.526,-439.391"/>
<polygon fill="none" stroke="black" points="307.936,-435.915 297.565,-438.079 307.022,-442.855 307.936,-435.915"/>
</g>
<!-- \\triagens\\ArangoDb\\ServerException -->
<g id="node18" class="node"><title>\\triagens\\ArangoDb\\ServerException</title>
<a xlink:href="ServerException.html" xlink:title="ServerException" target="_parent">
<polygon fill="none" stroke="black" points="523,-424 405,-424 405,-388 523,-388 523,-424"/>
<text text-anchor="middle" x="464" y="-403.1" font-family="Courier,monospace" font-size="11.00">ServerException</text>
</a>
</g>
<!-- \\triagens\\ArangoDb\\ServerException&#45;&gt;\\triagens\\ArangoDb\\Exception -->
<g id="edge16" class="edge"><title>\\triagens\\ArangoDb\\ServerException&#45;&gt;\\triagens\\ArangoDb\\Exception</title>
<path fill="none" stroke="black" d="M404.981,-413.773C374.085,-417.843 336.719,-422.764 307.526,-426.609"/>
<polygon fill="none" stroke="black" points="307.022,-423.145 297.565,-427.921 307.936,-430.085 307.022,-423.145"/>
</g>
<!-- \\triagens\\ArangoDb\\Graph -->
<g id="node19" class="node"><title>\\triagens\\ArangoDb\\Graph</title>
<a xlink:href="Graph.html" xlink:title="Graph" target="_parent">
<polygon fill="none" stroke="black" points="491,-1126 437,-1126 437,-1090 491,-1090 491,-1126"/>
<text text-anchor="middle" x="464" y="-1105.1" font-family="Courier,monospace" font-size="11.00">Graph</text>
</a>
</g>
<!-- \\triagens\\ArangoDb\\Graph&#45;&gt;\\triagens\\ArangoDb\\Document -->
<g id="edge18" class="edge"><title>\\triagens\\ArangoDb\\Graph&#45;&gt;\\triagens\\ArangoDb\\Document</title>
<path fill="none" stroke="black" d="M436.778,-1108C403.113,-1108 345.303,-1108 304.771,-1108"/>
<polygon fill="none" stroke="black" points="304.606,-1104.5 294.606,-1108 304.606,-1111.5 304.606,-1104.5"/>
</g>
<!-- \\triagens\\ArangoDb\\HttpResponse -->
<g id="node20" class="node"><title>\\triagens\\ArangoDb\\HttpResponse</title>
<a xlink:href="HttpResponse.html" xlink:title="HttpResponse" target="_parent">
<polygon fill="none" stroke="black" points="513,-910 415,-910 415,-874 513,-874 513,-910"/>
<text text-anchor="middle" x="464" y="-889.1" font-family="Courier,monospace" font-size="11.00">HttpResponse</text>
</a>
</g>
<!-- \\triagens\\ArangoDb\\BatchPart -->
<g id="node21" class="node"><title>\\triagens\\ArangoDb\\BatchPart</title>
<a xlink:href="BatchPart.html" xlink:title="BatchPart" target="_parent">
<polygon fill="none" stroke="black" points="502,-856 426,-856 426,-820 502,-820 502,-856"/>
<text text-anchor="middle" x="464" y="-835.1" font-family="Courier,monospace" font-size="11.00">BatchPart</text>
</a>
</g>
<!-- \\triagens\\ArangoDb\\UpdatePolicy -->
<g id="node22" class="node"><title>\\triagens\\ArangoDb\\UpdatePolicy</title>
<a xlink:href="UpdatePolicy.html" xlink:title="UpdatePolicy" target="_parent">
<polygon fill="none" stroke="black" points="513,-802 415,-802 415,-766 513,-766 513,-802"/>
<text text-anchor="middle" x="464" y="-781.1" font-family="Courier,monospace" font-size="11.00">UpdatePolicy</text>
</a>
</g>
<!-- \\triagens\\ArangoDb\\CollectionHandler -->
<g id="node23" class="node"><title>\\triagens\\ArangoDb\\CollectionHandler</title>
<a xlink:href="CollectionHandler.html" xlink:title="CollectionHandler" target="_parent">
<polygon fill="none" stroke="black" points="324,-1072 194,-1072 194,-1036 324,-1036 324,-1072"/>
<text text-anchor="middle" x="259" y="-1051.1" font-family="Courier,monospace" font-size="11.00">CollectionHandler</text>
</a>
</g>
<!-- \\triagens\\ArangoDb\\CollectionHandler&#45;&gt;\\triagens\\ArangoDb\\Handler -->
<g id="edge20" class="edge"><title>\\triagens\\ArangoDb\\CollectionHandler&#45;&gt;\\triagens\\ArangoDb\\Handler</title>
<path fill="none" stroke="black" d="M209.149,-1072.1C203.238,-1074.83 197.395,-1077.8 192,-1081 156.405,-1102.09 155.485,-1118.73 120,-1140 119.479,-1140.31 118.953,-1140.62 118.423,-1140.93"/>
<polygon fill="none" stroke="black" points="116.681,-1137.89 109.501,-1145.68 119.972,-1144.07 116.681,-1137.89"/>
</g>
<!-- \\triagens\\ArangoDb\\Endpoint -->
<g id="node24" class="node"><title>\\triagens\\ArangoDb\\Endpoint</title>
<a xlink:href="Endpoint.html" xlink:title="Endpoint" target="_parent">
<polygon fill="none" stroke="black" points="499,-748 429,-748 429,-712 499,-712 499,-748"/>
<text text-anchor="middle" x="464" y="-727.1" font-family="Courier,monospace" font-size="11.00">Endpoint</text>
</a>
</g>
<!-- \\triagens\\ArangoDb\\Collection -->
<g id="node25" class="node"><title>\\triagens\\ArangoDb\\Collection</title>
<a xlink:href="Collection.html" xlink:title="Collection" target="_parent">
<polygon fill="none" stroke="black" points="506,-694 422,-694 422,-658 506,-658 506,-694"/>
<text text-anchor="middle" x="464" y="-673.1" font-family="Courier,monospace" font-size="11.00">Collection</text>
</a>
</g>
<!-- \\triagens\\ArangoDb\\HttpHelper -->
<g id="node26" class="node"><title>\\triagens\\ArangoDb\\HttpHelper</title>
<a xlink:href="HttpHelper.html" xlink:title="HttpHelper" target="_parent">
<polygon fill="none" stroke="black" points="506,-640 422,-640 422,-604 506,-604 506,-640"/>
<text text-anchor="middle" x="464" y="-619.1" font-family="Courier,monospace" font-size="11.00">HttpHelper</text>
</a>
</g>
<!-- \\triagens\\ArangoDb\\VertexHandler -->
<g id="node27" class="node"><title>\\triagens\\ArangoDb\\VertexHandler</title>
<a xlink:href="VertexHandler.html" xlink:title="VertexHandler" target="_parent">
<polygon fill="none" stroke="black" points="516,-964 412,-964 412,-928 516,-928 516,-964"/>
<text text-anchor="middle" x="464" y="-943.1" font-family="Courier,monospace" font-size="11.00">VertexHandler</text>
</a>
</g>
<!-- \\triagens\\ArangoDb\\VertexHandler&#45;&gt;\\triagens\\ArangoDb\\DocumentHandler -->
<g id="edge22" class="edge"><title>\\triagens\\ArangoDb\\VertexHandler&#45;&gt;\\triagens\\ArangoDb\\DocumentHandler</title>
<path fill="none" stroke="black" d="M411.739,-959.766C386.278,-966.473 355.321,-974.628 327.951,-981.837"/>
<polygon fill="none" stroke="black" points="326.825,-978.514 318.046,-984.446 328.608,-985.284 326.825,-978.514"/>
</g>
<!-- \\triagens\\ArangoDb\\UrlHelper -->
<g id="node29" class="node"><title>\\triagens\\ArangoDb\\UrlHelper</title>
<a xlink:href="UrlHelper.html" xlink:title="«abstract»&lt;br/&gt;UrlHelper" target="_parent">
<polygon fill="none" stroke="black" points="506,-532 422,-532 422,-496 506,-496 506,-532"/>
<text text-anchor="start" x="430" y="-519.433" font-family="Courier,monospace" font-size="11.00">«abstract»</text>
<text text-anchor="start" x="433.5" y="-506.233" font-family="Courier,monospace" font-size="11.00">UrlHelper</text>
</a>
</g>
<!-- \\triagens\\ArangoDb\\Edge -->
<g id="node31" class="node"><title>\\triagens\\ArangoDb\\Edge</title>
<a xlink:href="Edge.html" xlink:title="Edge" target="_parent">
<polygon fill="none" stroke="black" points="491,-1072 437,-1072 437,-1036 491,-1036 491,-1072"/>
<text text-anchor="middle" x="464" y="-1051.1" font-family="Courier,monospace" font-size="11.00">Edge</text>
</a>
</g>
<!-- \\triagens\\ArangoDb\\Edge&#45;&gt;\\triagens\\ArangoDb\\Document -->
<g id="edge24" class="edge"><title>\\triagens\\ArangoDb\\Edge&#45;&gt;\\triagens\\ArangoDb\\Document</title>
<path fill="none" stroke="black" d="M436.778,-1061.17C403.041,-1070.06 345.058,-1085.33 304.513,-1096.01"/>
<polygon fill="none" stroke="black" points="303.384,-1092.69 294.606,-1098.62 305.168,-1099.46 303.384,-1092.69"/>
</g>
<!-- \\triagens\\ArangoDb\\EdgeHandler -->
<g id="node32" class="node"><title>\\triagens\\ArangoDb\\EdgeHandler</title>
<a xlink:href="EdgeHandler.html" xlink:title="EdgeHandler" target="_parent">
<polygon fill="none" stroke="black" points="509,-1018 419,-1018 419,-982 509,-982 509,-1018"/>
<text text-anchor="middle" x="464" y="-997.1" font-family="Courier,monospace" font-size="11.00">EdgeHandler</text>
</a>
</g>
<!-- \\triagens\\ArangoDb\\EdgeHandler&#45;&gt;\\triagens\\ArangoDb\\DocumentHandler -->
<g id="edge26" class="edge"><title>\\triagens\\ArangoDb\\EdgeHandler&#45;&gt;\\triagens\\ArangoDb\\DocumentHandler</title>
<path fill="none" stroke="black" d="M418.249,-1000C391.86,-1000 358.142,-1000 328.532,-1000"/>
<polygon fill="none" stroke="black" points="328.248,-996.5 318.248,-1000 328.248,-1003.5 328.248,-996.5"/>
</g>
<!-- \\triagens\\ArangoDb\\Autoloader -->
<g id="node33" class="node"><title>\\triagens\\ArangoDb\\Autoloader</title>
<a xlink:href="Autoloader.html" xlink:title="Autoloader" target="_parent">
<polygon fill="none" stroke="black" points="506,-370 422,-370 422,-334 506,-334 506,-370"/>
<text text-anchor="middle" x="464" y="-349.1" font-family="Courier,monospace" font-size="11.00">Autoloader</text>
</a>
</g>
<!-- \\triagens\\ArangoDb\\TraceResponse -->
<g id="node34" class="node"><title>\\triagens\\ArangoDb\\TraceResponse</title>
<a xlink:href="TraceResponse.html" xlink:title="TraceResponse" target="_parent">
<polygon fill="none" stroke="black" points="516,-316 412,-316 412,-280 516,-280 516,-316"/>
<text text-anchor="middle" x="464" y="-295.1" font-family="Courier,monospace" font-size="11.00">TraceResponse</text>
</a>
</g>
<!-- \\triagens\\ArangoDb\\User -->
<g id="node35" class="node"><title>\\triagens\\ArangoDb\\User</title>
<a xlink:href="User.html" xlink:title="User" target="_parent">
<polygon fill="none" stroke="black" points="491,-1558 437,-1558 437,-1522 491,-1522 491,-1558"/>
<text text-anchor="middle" x="464" y="-1537.1" font-family="Courier,monospace" font-size="11.00">User</text>
</a>
</g>
<!-- \\triagens\\ArangoDb\\User&#45;&gt;\\triagens\\ArangoDb\\Document -->
<g id="edge28" class="edge"><title>\\triagens\\ArangoDb\\User&#45;&gt;\\triagens\\ArangoDb\\Document</title>
<path fill="none" stroke="black" d="M436.872,-1535.26C423.251,-1531.48 407.638,-1524.79 398,-1513 289.754,-1380.6 434.593,-1267.12 326,-1135 320.272,-1128.03 312.474,-1122.85 304.22,-1118.99"/>
<polygon fill="none" stroke="black" points="305.378,-1115.69 294.795,-1115.19 302.756,-1122.18 305.378,-1115.69"/>
</g>
<!-- \\triagens\\ArangoDb\\Urls -->
<g id="node36" class="node"><title>\\triagens\\ArangoDb\\Urls</title>
<a xlink:href="Urls.html" xlink:title="«abstract»&lt;br/&gt;Urls" target="_parent">
<polygon fill="none" stroke="black" points="506,-208 422,-208 422,-172 506,-172 506,-208"/>
<text text-anchor="start" x="430" y="-195.433" font-family="Courier,monospace" font-size="11.00">«abstract»</text>
<text text-anchor="start" x="450" y="-182.233" font-family="Courier,monospace" font-size="11.00">Urls</text>
</a>
</g>
<!-- \\triagens\\ArangoDb\\AdminHandler -->
<g id="node37" class="node"><title>\\triagens\\ArangoDb\\AdminHandler</title>
<a xlink:href="AdminHandler.html" xlink:title="AdminHandler" target="_parent">
<polygon fill="none" stroke="black" points="308,-1288 210,-1288 210,-1252 308,-1252 308,-1288"/>
<text text-anchor="middle" x="259" y="-1267.1" font-family="Courier,monospace" font-size="11.00">AdminHandler</text>
</a>
</g>
<!-- \\triagens\\ArangoDb\\AdminHandler&#45;&gt;\\triagens\\ArangoDb\\Handler -->
<g id="edge30" class="edge"><title>\\triagens\\ArangoDb\\AdminHandler&#45;&gt;\\triagens\\ArangoDb\\Handler</title>
<path fill="none" stroke="black" d="M210.911,-1251.93C204.465,-1249.13 198.01,-1246.12 192,-1243 159.565,-1226.15 124.844,-1203.22 100.247,-1186.05"/>
<polygon fill="none" stroke="black" points="102.181,-1183.14 91.9889,-1180.24 98.1523,-1188.86 102.181,-1183.14"/>
</g>
<!-- \\triagens\\ArangoDb\\Cursor -->
<g id="node38" class="node"><title>\\triagens\\ArangoDb\\Cursor</title>
<a xlink:href="Cursor.html" xlink:title="Cursor" target="_parent">
<polygon fill="none" stroke="black" points="492,-154 436,-154 436,-118 492,-118 492,-154"/>
<text text-anchor="middle" x="464" y="-133.1" font-family="Courier,monospace" font-size="11.00">Cursor</text>
</a>
</g>
<!-- \\Iterator -->
<g id="node59" class="node"><title>\\Iterator</title>
<ellipse fill="none" stroke="black" cx="259" cy="-19" rx="44.7575" ry="19.0919"/>
<text text-anchor="middle" x="259" y="-15.9" font-family="Times Roman,serif" font-size="14.00" fill="gray">\\Iterator</text>
</g>
<!-- \\triagens\\ArangoDb\\Cursor&#45;&gt;\\Iterator -->
<g id="edge36" class="edge"><title>\\triagens\\ArangoDb\\Cursor&#45;&gt;\\Iterator</title>
<path fill="none" stroke="black" stroke-dasharray="1,5" d="M438.878,-117.863C411.826,-98.8019 367.125,-68.6366 326,-47 318.462,-43.0342 310.236,-39.2114 302.211,-35.7323"/>
<polygon fill="none" stroke="black" points="303.509,-32.4812 292.935,-31.8182 300.787,-38.9306 303.509,-32.4812"/>
</g>
<!-- \\triagens\\ArangoDb\\GraphHandler -->
<g id="node39" class="node"><title>\\triagens\\ArangoDb\\GraphHandler</title>
<a xlink:href="GraphHandler.html" xlink:title="GraphHandler" target="_parent">
<polygon fill="none" stroke="black" points="308,-1234 210,-1234 210,-1198 308,-1198 308,-1234"/>
<text text-anchor="middle" x="259" y="-1213.1" font-family="Courier,monospace" font-size="11.00">GraphHandler</text>
</a>
</g>
<!-- \\triagens\\ArangoDb\\GraphHandler&#45;&gt;\\triagens\\ArangoDb\\Handler -->
<g id="edge32" class="edge"><title>\\triagens\\ArangoDb\\GraphHandler&#45;&gt;\\triagens\\ArangoDb\\Handler</title>
<path fill="none" stroke="black" d="M209.555,-1202.09C181.924,-1194.32 147.505,-1184.64 119.409,-1176.74"/>
<polygon fill="none" stroke="black" points="120.33,-1173.36 109.756,-1174.03 118.435,-1180.1 120.33,-1173.36"/>
</g>
</g>
</svg>
