<?xml version="1.0" encoding="UTF-8" standalone="no"?>
<!DOCTYPE svg PUBLIC "-//W3C//DTD SVG 1.1//EN"
 "http://www.w3.org/Graphics/SVG/1.1/DTD/svg11.dtd">
<!-- Generated by graphviz version 2.26.0 (20091210.2329)
 -->
<!-- Title: G Pages: 1 -->
<svg width="562pt" height="1312pt"
 viewBox="0.00 0.00 562.00 1312.00" xmlns="http://www.w3.org/2000/svg" xmlns:xlink="http://www.w3.org/1999/xlink">
<g id="graph1" class="graph" transform="scale(1 1) rotate(0) translate(4 1308)">
<title>G</title>
<polygon fill="white" stroke="white" points="-4,5 -4,-1308 559,-1308 559,5 -4,5"/>
<g id="graph2" class="cluster"><title>cluster_triagens</title>
<polyline fill="none" stroke="gray" points="20,-102 534,-102 "/>
<path fill="none" stroke="gray" d="M534,-102C540,-102 546,-108 546,-114"/>
<polyline fill="none" stroke="gray" points="546,-114 546,-1284 "/>
<path fill="none" stroke="gray" d="M546,-1284C546,-1290 540,-1296 534,-1296"/>
<polyline fill="none" stroke="gray" points="534,-1296 20,-1296 "/>
<path fill="none" stroke="gray" d="M20,-1296C14,-1296 8,-1290 8,-1284"/>
<polyline fill="none" stroke="gray" points="8,-1284 8,-114 "/>
<path fill="none" stroke="gray" d="M8,-114C8,-108 14,-102 20,-102"/>
<text text-anchor="middle" x="277" y="-1282.1" font-family="Times Roman,serif" font-size="11.00" fill="gray">triagens</text>
</g>
<g id="graph3" class="cluster"><title>cluster_triagens\ArangoDb</title>
<polyline fill="none" stroke="gray" points="28,-110 526,-110 "/>
<path fill="none" stroke="gray" d="M526,-110C532,-110 538,-116 538,-122"/>
<polyline fill="none" stroke="gray" points="538,-122 538,-1253 "/>
<path fill="none" stroke="gray" d="M538,-1253C538,-1259 532,-1265 526,-1265"/>
<polyline fill="none" stroke="gray" points="526,-1265 28,-1265 "/>
<path fill="none" stroke="gray" d="M28,-1265C22,-1265 16,-1259 16,-1253"/>
<polyline fill="none" stroke="gray" points="16,-1253 16,-122 "/>
<path fill="none" stroke="gray" d="M16,-122C16,-116 22,-110 28,-110"/>
<text text-anchor="middle" x="277" y="-1251.1" font-family="Times Roman,serif" font-size="11.00" fill="gray">ArangoDb</text>
</g>
<!-- \\triagens\\ArangoDb\\ValueValidator -->
<g id="node3" class="node"><title>\\triagens\\ArangoDb\\ValueValidator</title>
<a xlink:href="ValueValidator.html" xlink:title="ValueValidator" target="_parent">
<polygon fill="none" stroke="black" points="519,-1234 409,-1234 409,-1198 519,-1198 519,-1234"/>
<text text-anchor="middle" x="464" y="-1213.1" font-family="Courier,monospace" font-size="11.00">ValueValidator</text>
</a>
</g>
<!-- \\triagens\\ArangoDb\\Exception -->
<g id="node4" class="node"><title>\\triagens\\ArangoDb\\Exception</title>
<a xlink:href="Exception.html" xlink:title="Exception" target="_parent">
<polygon fill="none" stroke="black" points="297,-559 221,-559 221,-523 297,-523 297,-559"/>
<text text-anchor="middle" x="259" y="-538.1" font-family="Courier,monospace" font-size="11.00">Exception</text>
</a>
</g>
<!-- \\Exception -->
<g id="node30" class="node"><title>\\Exception</title>
<ellipse fill="none" stroke="black" cx="67" cy="-75" rx="53.033" ry="19.0919"/>
<text text-anchor="middle" x="67" y="-71.9" font-family="Times Roman,serif" font-size="14.00" fill="gray">\Exception</text>
</g>
<!-- \\triagens\\ArangoDb\\Exception&#45;&gt;\\Exception -->
<g id="edge4" class="edge"><title>\\triagens\\ArangoDb\\Exception&#45;&gt;\\Exception</title>
<path fill="none" stroke="black" d="M220.462,-535.865C209.861,-532.642 199.288,-527.427 192,-519 70.1152,-378.072 226.292,-259.032 120,-106 117.22,-101.997 113.742,-98.4355 109.905,-95.2849"/>
<polygon fill="none" stroke="black" points="111.806,-92.3418 101.632,-89.3857 107.742,-98.0412 111.806,-92.3418"/>
</g>
<!-- \\triagens\\ArangoDb\\BindVars -->
<g id="node5" class="node"><title>\\triagens\\ArangoDb\\BindVars</title>
<a xlink:href="BindVars.html" xlink:title="BindVars" target="_parent">
<polygon fill="none" stroke="black" points="499,-1180 429,-1180 429,-1144 499,-1144 499,-1180"/>
<text text-anchor="middle" x="464" y="-1159.1" font-family="Courier,monospace" font-size="11.00">BindVars</text>
</a>
</g>
<!-- \\triagens\\ArangoDb\\Scope -->
<g id="node6" class="node"><title>\\triagens\\ArangoDb\\Scope</title>
<a xlink:href="Scope.html" xlink:title="Scope" target="_parent">
<polygon fill="none" stroke="black" points="491,-1126 437,-1126 437,-1090 491,-1090 491,-1126"/>
<text text-anchor="middle" x="464" y="-1105.1" font-family="Courier,monospace" font-size="11.00">Scope</text>
</a>
</g>
<!-- \\triagens\\ArangoDb\\ConnectionOptions -->
<g id="node7" class="node"><title>\\triagens\\ArangoDb\\ConnectionOptions</title>
<a xlink:href="ConnectionOptions.html" xlink:title="ConnectionOptions" target="_parent">
<polygon fill="none" stroke="black" points="529,-316 399,-316 399,-280 529,-280 529,-316"/>
<text text-anchor="middle" x="464" y="-295.1" font-family="Courier,monospace" font-size="11.00">ConnectionOptions</text>
</a>
</g>
<!-- \\ArrayAccess -->
<g id="node39" class="node"><title>\\ArrayAccess</title>
<ellipse fill="none" stroke="black" cx="259" cy="-75" rx="65.9683" ry="19.0919"/>
<text text-anchor="middle" x="259" y="-71.9" font-family="Times Roman,serif" font-size="14.00" fill="gray">\\ArrayAccess</text>
</g>
<!-- \\triagens\\ArangoDb\\ConnectionOptions&#45;&gt;\\ArrayAccess -->
<g id="edge20" class="edge"><title>\\triagens\\ArangoDb\\ConnectionOptions&#45;&gt;\\ArrayAccess</title>
<path fill="none" stroke="black" stroke-dasharray="1,5" d="M409.572,-279.963C405.386,-277.347 401.453,-274.374 398,-271 340.773,-215.082 381.954,-163.192 326,-106 321.751,-101.657 316.778,-97.8593 311.495,-94.554"/>
<polygon fill="none" stroke="black" points="312.819,-91.2838 302.385,-89.447 309.396,-97.3898 312.819,-91.2838"/>
</g>
<!-- \\triagens\\ArangoDb\\Statement -->
<g id="node8" class="node"><title>\\triagens\\ArangoDb\\Statement</title>
<a xlink:href="Statement.html" xlink:title="Statement" target="_parent">
<polygon fill="none" stroke="black" points="502,-1018 426,-1018 426,-982 502,-982 502,-1018"/>
<text text-anchor="middle" x="464" y="-997.1" font-family="Courier,monospace" font-size="11.00">Statement</text>
</a>
</g>
<!-- \\triagens\\ArangoDb\\DocumentHandler -->
<g id="node9" class="node"><title>\\triagens\\ArangoDb\\DocumentHandler</title>
<a xlink:href="DocumentHandler.html" xlink:title="DocumentHandler" target="_parent">
<polygon fill="none" stroke="black" points="318,-1072 200,-1072 200,-1036 318,-1036 318,-1072"/>
<text text-anchor="middle" x="259" y="-1051.1" font-family="Courier,monospace" font-size="11.00">DocumentHandler</text>
</a>
</g>
<!-- \\triagens\\ArangoDb\\Handler -->
<g id="node23" class="node"><title>\\triagens\\ArangoDb\\Handler</title>
<a xlink:href="Handler.html" xlink:title="«abstract»&lt;br/&gt;Handler" target="_parent">
<polygon fill="none" stroke="black" points="109,-1099 25,-1099 25,-1063 109,-1063 109,-1099"/>
<text text-anchor="start" x="33" y="-1086.43" font-family="Courier,monospace" font-size="11.00">«abstract»</text>
<text text-anchor="start" x="43" y="-1073.23" font-family="Courier,monospace" font-size="11.00">Handler</text>
</a>
</g>
<!-- \\triagens\\ArangoDb\\DocumentHandler&#45;&gt;\\triagens\\ArangoDb\\Handler -->
<g id="edge6" class="edge"><title>\\triagens\\ArangoDb\\DocumentHandler&#45;&gt;\\triagens\\ArangoDb\\Handler</title>
<path fill="none" stroke="black" d="M199.827,-1062.32C174.164,-1065.93 144.363,-1070.12 119.499,-1073.62"/>
<polygon fill="none" stroke="black" points="118.941,-1070.16 109.526,-1075.02 119.916,-1077.09 118.941,-1070.16"/>
</g>
<!-- \\triagens\\ArangoDb\\Connection -->
<g id="node10" class="node"><title>\\triagens\\ArangoDb\\Connection</title>
<a xlink:href="Connection.html" xlink:title="Connection" target="_parent">
<polygon fill="none" stroke="black" points="506,-964 422,-964 422,-928 506,-928 506,-964"/>
<text text-anchor="middle" x="464" y="-943.1" font-family="Courier,monospace" font-size="11.00">Connection</text>
</a>
</g>
<!-- \\triagens\\ArangoDb\\DefaultValues -->
<g id="node11" class="node"><title>\\triagens\\ArangoDb\\DefaultValues</title>
<a xlink:href="DefaultValues.html" xlink:title="«abstract»&lt;br/&gt;DefaultValues" target="_parent">
<polygon fill="none" stroke="black" points="516,-910 412,-910 412,-874 516,-874 516,-910"/>
<text text-anchor="start" x="430" y="-897.433" font-family="Courier,monospace" font-size="11.00">«abstract»</text>
<text text-anchor="start" x="420" y="-884.233" font-family="Courier,monospace" font-size="11.00">DefaultValues</text>
</a>
</g>
<!-- \\triagens\\ArangoDb\\ConnectException -->
<g id="node12" class="node"><title>\\triagens\\ArangoDb\\ConnectException</title>
<a xlink:href="ConnectException.html" xlink:title="ConnectException" target="_parent">
<polygon fill="none" stroke="black" points="526,-748 402,-748 402,-712 526,-712 526,-748"/>
<text text-anchor="middle" x="464" y="-727.1" font-family="Courier,monospace" font-size="11.00">ConnectException</text>
</a>
</g>
<!-- \\triagens\\ArangoDb\\ConnectException&#45;&gt;\\triagens\\ArangoDb\\Exception -->
<g id="edge8" class="edge"><title>\\triagens\\ArangoDb\\ConnectException&#45;&gt;\\triagens\\ArangoDb\\Exception</title>
<path fill="none" stroke="black" d="M412.609,-711.853C407.487,-709.207 402.518,-706.26 398,-703 345.306,-664.983 299.59,-603.051 276.011,-567.795"/>
<polygon fill="none" stroke="black" points="278.654,-565.445 270.231,-559.018 272.808,-569.295 278.654,-565.445"/>
</g>
<!-- \\triagens\\ArangoDb\\ClientException -->
<g id="node13" class="node"><title>\\triagens\\ArangoDb\\ClientException</title>
<a xlink:href="ClientException.html" xlink:title="ClientException" target="_parent">
<polygon fill="none" stroke="black" points="523,-370 405,-370 405,-334 523,-334 523,-370"/>
<text text-anchor="middle" x="464" y="-349.1" font-family="Courier,monospace" font-size="11.00">ClientException</text>
</a>
</g>
<!-- \\triagens\\ArangoDb\\ClientException&#45;&gt;\\triagens\\ArangoDb\\Exception -->
<g id="edge10" class="edge"><title>\\triagens\\ArangoDb\\ClientException&#45;&gt;\\triagens\\ArangoDb\\Exception</title>
<path fill="none" stroke="black" d="M410.126,-370.081C405.771,-372.693 401.65,-375.653 398,-379 346.427,-426.285 379.22,-473.577 326,-519 320.619,-523.592 314.254,-527.233 307.623,-530.116"/>
<polygon fill="none" stroke="black" points="305.922,-527.017 297.802,-533.823 308.393,-533.567 305.922,-527.017"/>
</g>
<!-- \\triagens\\ArangoDb\\ServerException -->
<g id="node14" class="node"><title>\\triagens\\ArangoDb\\ServerException</title>
<a xlink:href="ServerException.html" xlink:title="ServerException" target="_parent">
<polygon fill="none" stroke="black" points="523,-802 405,-802 405,-766 523,-766 523,-802"/>
<text text-anchor="middle" x="464" y="-781.1" font-family="Courier,monospace" font-size="11.00">ServerException</text>
</a>
</g>
<!-- \\triagens\\ArangoDb\\ServerException&#45;&gt;\\triagens\\ArangoDb\\Exception -->
<g id="edge12" class="edge"><title>\\triagens\\ArangoDb\\ServerException&#45;&gt;\\triagens\\ArangoDb\\Exception</title>
<path fill="none" stroke="black" d="M411.128,-765.911C406.461,-763.285 401.998,-760.324 398,-757 334.244,-703.987 289.775,-614.034 270.209,-568.768"/>
<polygon fill="none" stroke="black" points="273.322,-567.144 266.2,-559.3 266.876,-569.873 273.322,-567.144"/>
</g>
<!-- \\triagens\\ArangoDb\\HttpResponse -->
<g id="node15" class="node"><title>\\triagens\\ArangoDb\\HttpResponse</title>
<a xlink:href="HttpResponse.html" xlink:title="HttpResponse" target="_parent">
<polygon fill="none" stroke="black" points="513,-694 415,-694 415,-658 513,-658 513,-694"/>
<text text-anchor="middle" x="464" y="-673.1" font-family="Courier,monospace" font-size="11.00">HttpResponse</text>
</a>
</g>
<!-- \\triagens\\ArangoDb\\UpdatePolicy -->
<g id="node16" class="node"><title>\\triagens\\ArangoDb\\UpdatePolicy</title>
<a xlink:href="UpdatePolicy.html" xlink:title="UpdatePolicy" target="_parent">
<polygon fill="none" stroke="black" points="513,-640 415,-640 415,-604 513,-604 513,-640"/>
<text text-anchor="middle" x="464" y="-619.1" font-family="Courier,monospace" font-size="11.00">UpdatePolicy</text>
</a>
</g>
<!-- \\triagens\\ArangoDb\\CollectionHandler -->
<g id="node17" class="node"><title>\\triagens\\ArangoDb\\CollectionHandler</title>
<a xlink:href="CollectionHandler.html" xlink:title="CollectionHandler" target="_parent">
<polygon fill="none" stroke="black" points="324,-1126 194,-1126 194,-1090 324,-1090 324,-1126"/>
<text text-anchor="middle" x="259" y="-1105.1" font-family="Courier,monospace" font-size="11.00">CollectionHandler</text>
</a>
</g>
<!-- \\triagens\\ArangoDb\\CollectionHandler&#45;&gt;\\triagens\\ArangoDb\\Handler -->
<g id="edge14" class="edge"><title>\\triagens\\ArangoDb\\CollectionHandler&#45;&gt;\\triagens\\ArangoDb\\Handler</title>
<path fill="none" stroke="black" d="M193.461,-1098.78C169.439,-1095.41 142.577,-1091.63 119.81,-1088.43"/>
<polygon fill="none" stroke="black" points="120.052,-1084.93 109.662,-1087 119.077,-1091.86 120.052,-1084.93"/>
</g>
<!-- \\triagens\\ArangoDb\\Endpoint -->
<g id="node18" class="node"><title>\\triagens\\ArangoDb\\Endpoint</title>
<a xlink:href="Endpoint.html" xlink:title="Endpoint" target="_parent">
<polygon fill="none" stroke="black" points="499,-586 429,-586 429,-550 499,-550 499,-586"/>
<text text-anchor="middle" x="464" y="-565.1" font-family="Courier,monospace" font-size="11.00">Endpoint</text>
</a>
</g>
<!-- \\triagens\\ArangoDb\\Collection -->
<g id="node19" class="node"><title>\\triagens\\ArangoDb\\Collection</title>
<a xlink:href="Collection.html" xlink:title="Collection" target="_parent">
<polygon fill="none" stroke="black" points="506,-532 422,-532 422,-496 506,-496 506,-532"/>
<text text-anchor="middle" x="464" y="-511.1" font-family="Courier,monospace" font-size="11.00">Collection</text>
</a>
</g>
<!-- \\triagens\\ArangoDb\\HttpHelper -->
<g id="node20" class="node"><title>\\triagens\\ArangoDb\\HttpHelper</title>
<a xlink:href="HttpHelper.html" xlink:title="HttpHelper" target="_parent">
<polygon fill="none" stroke="black" points="506,-478 422,-478 422,-442 506,-442 506,-478"/>
<text text-anchor="middle" x="464" y="-457.1" font-family="Courier,monospace" font-size="11.00">HttpHelper</text>
</a>
</g>
<!-- \\triagens\\ArangoDb\\Document -->
<g id="node21" class="node"><title>\\triagens\\ArangoDb\\Document</title>
<a xlink:href="Document.html" xlink:title="Document" target="_parent">
<polygon fill="none" stroke="black" points="294,-856 224,-856 224,-820 294,-820 294,-856"/>
<text text-anchor="middle" x="259" y="-835.1" font-family="Courier,monospace" font-size="11.00">Document</text>
</a>
</g>
<!-- \\triagens\\ArangoDb\\URLHelper -->
<g id="node22" class="node"><title>\\triagens\\ArangoDb\\URLHelper</title>
<a xlink:href="UrlHelper.html" xlink:title="«abstract»&lt;br/&gt;URLHelper" target="_parent">
<polygon fill="none" stroke="black" points="506,-424 422,-424 422,-388 506,-388 506,-424"/>
<text text-anchor="start" x="430" y="-411.433" font-family="Courier,monospace" font-size="11.00">«abstract»</text>
<text text-anchor="start" x="433.5" y="-398.233" font-family="Courier,monospace" font-size="11.00">URLHelper</text>
</a>
</g>
<!-- \\triagens\\ArangoDb\\Edge -->
<g id="node24" class="node"><title>\\triagens\\ArangoDb\\Edge</title>
<a xlink:href="Edge.html" xlink:title="Edge" target="_parent">
<polygon fill="none" stroke="black" points="491,-856 437,-856 437,-820 491,-820 491,-856"/>
<text text-anchor="middle" x="464" y="-835.1" font-family="Courier,monospace" font-size="11.00">Edge</text>
</a>
</g>
<!-- \\triagens\\ArangoDb\\Edge&#45;&gt;\\triagens\\ArangoDb\\Document -->
<g id="edge16" class="edge"><title>\\triagens\\ArangoDb\\Edge&#45;&gt;\\triagens\\ArangoDb\\Document</title>
<path fill="none" stroke="black" d="M436.778,-838C403.113,-838 345.303,-838 304.771,-838"/>
<polygon fill="none" stroke="black" points="304.606,-834.5 294.606,-838 304.606,-841.5 304.606,-834.5"/>
</g>
<!-- \\triagens\\ArangoDb\\EdgeHandler -->
<g id="node25" class="node"><title>\\triagens\\ArangoDb\\EdgeHandler</title>
<a xlink:href="EdgeHandler.html" xlink:title="EdgeHandler" target="_parent">
<polygon fill="none" stroke="black" points="509,-1072 419,-1072 419,-1036 509,-1036 509,-1072"/>
<text text-anchor="middle" x="464" y="-1051.1" font-family="Courier,monospace" font-size="11.00">EdgeHandler</text>
</a>
</g>
<!-- \\triagens\\ArangoDb\\EdgeHandler&#45;&gt;\\triagens\\ArangoDb\\DocumentHandler -->
<g id="edge18" class="edge"><title>\\triagens\\ArangoDb\\EdgeHandler&#45;&gt;\\triagens\\ArangoDb\\DocumentHandler</title>
<path fill="none" stroke="black" d="M418.249,-1054C391.86,-1054 358.142,-1054 328.532,-1054"/>
<polygon fill="none" stroke="black" points="328.248,-1050.5 318.248,-1054 328.248,-1057.5 328.248,-1050.5"/>
</g>
<!-- \\triagens\\ArangoDb\\Autoloader -->
<g id="node26" class="node"><title>\\triagens\\ArangoDb\\Autoloader</title>
<a xlink:href="Autoloader.html" xlink:title="Autoloader" target="_parent">
<polygon fill="none" stroke="black" points="506,-262 422,-262 422,-226 506,-226 506,-262"/>
<text text-anchor="middle" x="464" y="-241.1" font-family="Courier,monospace" font-size="11.00">Autoloader</text>
</a>
</g>
<!-- \\triagens\\ArangoDb\\URLs -->
<g id="node27" class="node"><title>\\triagens\\ArangoDb\\URLs</title>
<a xlink:href="Urls.html" xlink:title="«abstract»&lt;br/&gt;URLs" target="_parent">
<polygon fill="none" stroke="black" points="506,-208 422,-208 422,-172 506,-172 506,-208"/>
<text text-anchor="start" x="430" y="-195.433" font-family="Courier,monospace" font-size="11.00">«abstract»</text>
<text text-anchor="start" x="450" y="-182.233" font-family="Courier,monospace" font-size="11.00">URLs</text>
</a>
</g>
<!-- \\triagens\\ArangoDb\\Cursor -->
<g id="node28" class="node"><title>\\triagens\\ArangoDb\\Cursor</title>
<a xlink:href="Cursor.html" xlink:title="Cursor" target="_parent">
<polygon fill="none" stroke="black" points="492,-154 436,-154 436,-118 492,-118 492,-154"/>
<text text-anchor="middle" x="464" y="-133.1" font-family="Courier,monospace" font-size="11.00">Cursor</text>
</a>
</g>
<!-- \\Iterator -->
<g id="node41" class="node"><title>\\Iterator</title>
<ellipse fill="none" stroke="black" cx="259" cy="-19" rx="44.7575" ry="19.0919"/>
<text text-anchor="middle" x="259" y="-15.9" font-family="Times Roman,serif" font-size="14.00" fill="gray">\\Iterator</text>
</g>
<!-- \\triagens\\ArangoDb\\Cursor&#45;&gt;\\Iterator -->
<g id="edge22" class="edge"><title>\\triagens\\ArangoDb\\Cursor&#45;&gt;\\Iterator</title>
<path fill="none" stroke="black" stroke-dasharray="1,5" d="M438.878,-117.863C411.826,-98.8019 367.125,-68.6366 326,-47 318.462,-43.0342 310.236,-39.2114 302.211,-35.7323"/>
<polygon fill="none" stroke="black" points="303.509,-32.4812 292.935,-31.8182 300.787,-38.9306 303.509,-32.4812"/>
</g>
</g>
</svg>
