<?xml version="1.0" encoding="UTF-8" standalone="no"?>
<!DOCTYPE svg PUBLIC "-//W3C//DTD SVG 1.1//EN"
 "http://www.w3.org/Graphics/SVG/1.1/DTD/svg11.dtd">
<!-- Generated by graphviz version 2.26.0 (20091210.2329)
 -->
<!-- Title: G Pages: 1 -->
<svg width="531pt" height="1945pt"
 viewBox="0.00 0.00 531.00 1945.00" xmlns="http://www.w3.org/2000/svg" xmlns:xlink="http://www.w3.org/1999/xlink">
<g id="graph1" class="graph" transform="scale(1 1) rotate(0) translate(4 1941)">
<title>G</title>
<polygon fill="white" stroke="white" points="-4,5 -4,-1941 528,-1941 528,5 -4,5"/>
<g id="graph2" class="cluster"><title>cluster_Global</title>
<polyline fill="none" stroke="gray" points="20,-102 503,-102 "/>
<path fill="none" stroke="gray" d="M503,-102C509,-102 515,-108 515,-114"/>
<polyline fill="none" stroke="gray" points="515,-114 515,-1917 "/>
<path fill="none" stroke="gray" d="M515,-1917C515,-1923 509,-1929 503,-1929"/>
<polyline fill="none" stroke="gray" points="503,-1929 20,-1929 "/>
<path fill="none" stroke="gray" d="M20,-1929C14,-1929 8,-1923 8,-1917"/>
<polyline fill="none" stroke="gray" points="8,-1917 8,-114 "/>
<path fill="none" stroke="gray" d="M8,-114C8,-108 14,-102 20,-102"/>
<text text-anchor="middle" x="261.5" y="-1915.1" font-family="Times Roman,serif" font-size="11.00" fill="gray">\</text>
</g>
<g id="graph3" class="cluster"><title>cluster_\triagens</title>
<polyline fill="none" stroke="gray" points="28,-110 495,-110 "/>
<path fill="none" stroke="gray" d="M495,-110C501,-110 507,-116 507,-122"/>
<polyline fill="none" stroke="gray" points="507,-122 507,-1886 "/>
<path fill="none" stroke="gray" d="M507,-1886C507,-1892 501,-1898 495,-1898"/>
<polyline fill="none" stroke="gray" points="495,-1898 28,-1898 "/>
<path fill="none" stroke="gray" d="M28,-1898C22,-1898 16,-1892 16,-1886"/>
<polyline fill="none" stroke="gray" points="16,-1886 16,-122 "/>
<path fill="none" stroke="gray" d="M16,-122C16,-116 22,-110 28,-110"/>
<text text-anchor="middle" x="261.5" y="-1884.1" font-family="Times Roman,serif" font-size="11.00" fill="gray">triagens</text>
</g>
<g id="graph4" class="cluster"><title>cluster_\triagens\ArangoDb</title>
<polyline fill="none" stroke="gray" points="36,-118 487,-118 "/>
<path fill="none" stroke="gray" d="M487,-118C493,-118 499,-124 499,-130"/>
<polyline fill="none" stroke="gray" points="499,-130 499,-1855 "/>
<path fill="none" stroke="gray" d="M499,-1855C499,-1861 493,-1867 487,-1867"/>
<polyline fill="none" stroke="gray" points="487,-1867 36,-1867 "/>
<path fill="none" stroke="gray" d="M36,-1867C30,-1867 24,-1861 24,-1855"/>
<polyline fill="none" stroke="gray" points="24,-1855 24,-130 "/>
<path fill="none" stroke="gray" d="M24,-130C24,-124 30,-118 36,-118"/>
<text text-anchor="middle" x="261.5" y="-1853.1" font-family="Times Roman,serif" font-size="11.00" fill="gray">ArangoDb</text>
</g>
<!-- \\triagens\\ArangoDb\\Edge -->
<g id="node4" class="node"><title>\\triagens\\ArangoDb\\Edge</title>
<polygon fill="none" stroke="black" points="467,-810 413,-810 413,-774 467,-774 467,-810"/>
<text text-anchor="middle" x="440" y="-789.6" font-family="Times Roman,serif" font-size="11.00">Edge</text>
</g>
<!-- \\triagens\\ArangoDb\\Document -->
<g id="node27" class="node"><title>\\triagens\\ArangoDb\\Document</title>
<polygon fill="none" stroke="black" points="284,-1066 222,-1066 222,-1030 284,-1030 284,-1066"/>
<text text-anchor="middle" x="253" y="-1045.6" font-family="Times Roman,serif" font-size="11.00">Document</text>
</g>
<!-- \\triagens\\ArangoDb\\Edge&#45;&gt;\\triagens\\ArangoDb\\Document -->
<g id="edge5" class="edge"><title>\\triagens\\ArangoDb\\Edge&#45;&gt;\\triagens\\ArangoDb\\Document</title>
<path fill="none" stroke="black" d="M412.775,-801.803C404.219,-805.994 395.358,-811.65 389,-819 326.646,-891.084 382.453,-951.718 317,-1021 310.553,-1027.82 302.11,-1032.99 293.479,-1036.89"/>
<polygon fill="none" stroke="black" points="292.114,-1033.66 284.127,-1040.62 294.712,-1040.16 292.114,-1033.66"/>
</g>
<!-- \\triagens\\ArangoDb\\Transaction -->
<g id="node5" class="node"><title>\\triagens\\ArangoDb\\Transaction</title>
<polygon fill="none" stroke="black" points="474,-1782 406,-1782 406,-1746 474,-1746 474,-1782"/>
<text text-anchor="middle" x="440" y="-1761.6" font-family="Times Roman,serif" font-size="11.00">Transaction</text>
</g>
<!-- \\triagens\\ArangoDb\\UrlHelper -->
<g id="node6" class="node"><title>\\triagens\\ArangoDb\\UrlHelper</title>
<polygon fill="none" stroke="black" points="471,-1728 409,-1728 409,-1692 471,-1692 471,-1728"/>
<text text-anchor="start" x="417" y="-1715.43" font-family="Times Roman,serif" font-size="11.00">«abstract»</text>
<text text-anchor="start" x="417" y="-1702.23" font-family="Times Roman,serif" font-size="11.00">UrlHelper</text>
</g>
<!-- \\triagens\\ArangoDb\\Endpoint -->
<g id="node7" class="node"><title>\\triagens\\ArangoDb\\Endpoint</title>
<polygon fill="none" stroke="black" points="468,-1674 412,-1674 412,-1638 468,-1638 468,-1674"/>
<text text-anchor="middle" x="440" y="-1653.6" font-family="Times Roman,serif" font-size="11.00">Endpoint</text>
</g>
<!-- \\triagens\\ArangoDb\\Batch -->
<g id="node8" class="node"><title>\\triagens\\ArangoDb\\Batch</title>
<polygon fill="none" stroke="black" points="467,-1620 413,-1620 413,-1584 467,-1584 467,-1620"/>
<text text-anchor="middle" x="440" y="-1599.6" font-family="Times Roman,serif" font-size="11.00">Batch</text>
</g>
<!-- \\triagens\\ArangoDb\\ConnectException -->
<g id="node9" class="node"><title>\\triagens\\ArangoDb\\ConnectException</title>
<polygon fill="none" stroke="black" points="489,-702 391,-702 391,-666 489,-666 489,-702"/>
<text text-anchor="middle" x="440" y="-681.6" font-family="Times Roman,serif" font-size="11.00">ConnectException</text>
</g>
<!-- \\triagens\\ArangoDb\\Exception -->
<g id="node31" class="node"><title>\\triagens\\ArangoDb\\Exception</title>
<polygon fill="none" stroke="black" points="283,-459 223,-459 223,-423 283,-423 283,-459"/>
<text text-anchor="middle" x="253" y="-438.6" font-family="Times Roman,serif" font-size="11.00">Exception</text>
</g>
<!-- \\triagens\\ArangoDb\\ConnectException&#45;&gt;\\triagens\\ArangoDb\\Exception -->
<g id="edge7" class="edge"><title>\\triagens\\ArangoDb\\ConnectException&#45;&gt;\\triagens\\ArangoDb\\Exception</title>
<path fill="none" stroke="black" d="M400.689,-665.969C396.522,-663.264 392.525,-660.27 389,-657 328.744,-601.103 284.412,-512.822 264.559,-468.422"/>
<polygon fill="none" stroke="black" points="267.705,-466.881 260.478,-459.134 261.297,-469.697 267.705,-466.881"/>
</g>
<!-- \\triagens\\ArangoDb\\Collection -->
<g id="node10" class="node"><title>\\triagens\\ArangoDb\\Collection</title>
<polygon fill="none" stroke="black" points="471,-1512 409,-1512 409,-1476 471,-1476 471,-1512"/>
<text text-anchor="middle" x="440" y="-1491.6" font-family="Times Roman,serif" font-size="11.00">Collection</text>
</g>
<!-- \\triagens\\ArangoDb\\TraceRequest -->
<g id="node11" class="node"><title>\\triagens\\ArangoDb\\TraceRequest</title>
<polygon fill="none" stroke="black" points="479,-1458 401,-1458 401,-1422 479,-1422 479,-1458"/>
<text text-anchor="middle" x="440" y="-1437.6" font-family="Times Roman,serif" font-size="11.00">TraceRequest</text>
</g>
<!-- \\triagens\\ArangoDb\\AqlUserFunction -->
<g id="node12" class="node"><title>\\triagens\\ArangoDb\\AqlUserFunction</title>
<polygon fill="none" stroke="black" points="486,-1404 394,-1404 394,-1368 486,-1368 486,-1404"/>
<text text-anchor="middle" x="440" y="-1383.6" font-family="Times Roman,serif" font-size="11.00">AqlUserFunction</text>
</g>
<!-- \\triagens\\ArangoDb\\Traversal -->
<g id="node13" class="node"><title>\\triagens\\ArangoDb\\Traversal</title>
<polygon fill="none" stroke="black" points="469,-1350 411,-1350 411,-1314 469,-1314 469,-1350"/>
<text text-anchor="middle" x="440" y="-1329.6" font-family="Times Roman,serif" font-size="11.00">Traversal</text>
</g>
<!-- \\triagens\\ArangoDb\\DefaultValues -->
<g id="node14" class="node"><title>\\triagens\\ArangoDb\\DefaultValues</title>
<polygon fill="none" stroke="black" points="481,-1296 399,-1296 399,-1260 481,-1260 481,-1296"/>
<text text-anchor="start" x="417" y="-1283.43" font-family="Times Roman,serif" font-size="11.00">«abstract»</text>
<text text-anchor="start" x="407" y="-1270.23" font-family="Times Roman,serif" font-size="11.00">DefaultValues</text>
</g>
<!-- \\triagens\\ArangoDb\\User -->
<g id="node15" class="node"><title>\\triagens\\ArangoDb\\User</title>
<polygon fill="none" stroke="black" points="467,-756 413,-756 413,-720 467,-720 467,-756"/>
<text text-anchor="middle" x="440" y="-735.6" font-family="Times Roman,serif" font-size="11.00">User</text>
</g>
<!-- \\triagens\\ArangoDb\\User&#45;&gt;\\triagens\\ArangoDb\\Document -->
<g id="edge9" class="edge"><title>\\triagens\\ArangoDb\\User&#45;&gt;\\triagens\\ArangoDb\\Document</title>
<path fill="none" stroke="black" d="M412.746,-747.428C404.085,-751.612 395.166,-757.36 389,-765 314.771,-856.975 395.189,-932.367 317,-1021 310.731,-1028.11 302.281,-1033.39 293.579,-1037.31"/>
<polygon fill="none" stroke="black" points="292.145,-1034.11 284.129,-1041.04 294.716,-1040.62 292.145,-1034.11"/>
</g>
<!-- \\triagens\\ArangoDb\\CollectionHandler -->
<g id="node16" class="node"><title>\\triagens\\ArangoDb\\CollectionHandler</title>
<polygon fill="none" stroke="black" points="302,-1012 204,-1012 204,-976 302,-976 302,-1012"/>
<text text-anchor="middle" x="253" y="-991.6" font-family="Times Roman,serif" font-size="11.00">CollectionHandler</text>
</g>
<!-- \\triagens\\ArangoDb\\Handler -->
<g id="node32" class="node"><title>\\triagens\\ArangoDb\\Handler</title>
<polygon fill="none" stroke="black" points="95,-1012 33,-1012 33,-976 95,-976 95,-1012"/>
<text text-anchor="start" x="41" y="-999.433" font-family="Times Roman,serif" font-size="11.00">«abstract»</text>
<text text-anchor="start" x="45.5" y="-986.233" font-family="Times Roman,serif" font-size="11.00">Handler</text>
</g>
<!-- \\triagens\\ArangoDb\\CollectionHandler&#45;&gt;\\triagens\\ArangoDb\\Handler -->
<g id="edge11" class="edge"><title>\\triagens\\ArangoDb\\CollectionHandler&#45;&gt;\\triagens\\ArangoDb\\Handler</title>
<path fill="none" stroke="black" d="M203.836,-994C173.443,-994 134.852,-994 105.913,-994"/>
<polygon fill="none" stroke="black" points="105.721,-990.5 95.7209,-994 105.721,-997.5 105.721,-990.5"/>
</g>
<!-- \\triagens\\ArangoDb\\Database -->
<g id="node17" class="node"><title>\\triagens\\ArangoDb\\Database</title>
<polygon fill="none" stroke="black" points="469,-1188 411,-1188 411,-1152 469,-1152 469,-1188"/>
<text text-anchor="middle" x="440" y="-1167.6" font-family="Times Roman,serif" font-size="11.00">Database</text>
</g>
<!-- \\triagens\\ArangoDb\\BatchPart -->
<g id="node18" class="node"><title>\\triagens\\ArangoDb\\BatchPart</title>
<polygon fill="none" stroke="black" points="470,-1134 410,-1134 410,-1098 470,-1098 470,-1134"/>
<text text-anchor="middle" x="440" y="-1113.6" font-family="Times Roman,serif" font-size="11.00">BatchPart</text>
</g>
<!-- \\triagens\\ArangoDb\\Connection -->
<g id="node19" class="node"><title>\\triagens\\ArangoDb\\Connection</title>
<polygon fill="none" stroke="black" points="473,-1080 407,-1080 407,-1044 473,-1044 473,-1080"/>
<text text-anchor="middle" x="440" y="-1059.6" font-family="Times Roman,serif" font-size="11.00">Connection</text>
</g>
<!-- \\triagens\\ArangoDb\\TraceResponse -->
<g id="node20" class="node"><title>\\triagens\\ArangoDb\\TraceResponse</title>
<polygon fill="none" stroke="black" points="483,-1026 397,-1026 397,-990 483,-990 483,-1026"/>
<text text-anchor="middle" x="440" y="-1005.6" font-family="Times Roman,serif" font-size="11.00">TraceResponse</text>
</g>
<!-- \\triagens\\ArangoDb\\Autoloader -->
<g id="node21" class="node"><title>\\triagens\\ArangoDb\\Autoloader</title>
<polygon fill="none" stroke="black" points="473,-972 407,-972 407,-936 473,-936 473,-972"/>
<text text-anchor="middle" x="440" y="-951.6" font-family="Times Roman,serif" font-size="11.00">Autoloader</text>
</g>
<!-- \\triagens\\ArangoDb\\ServerException -->
<g id="node22" class="node"><title>\\triagens\\ArangoDb\\ServerException</title>
<polygon fill="none" stroke="black" points="485,-324 395,-324 395,-288 485,-288 485,-324"/>
<text text-anchor="middle" x="440" y="-303.6" font-family="Times Roman,serif" font-size="11.00">ServerException</text>
</g>
<!-- \\triagens\\ArangoDb\\ServerException&#45;&gt;\\triagens\\ArangoDb\\Exception -->
<g id="edge13" class="edge"><title>\\triagens\\ArangoDb\\ServerException&#45;&gt;\\triagens\\ArangoDb\\Exception</title>
<path fill="none" stroke="black" d="M401.907,-324.029C397.385,-326.781 392.972,-329.786 389,-333 350.249,-364.358 358.074,-390.753 317,-419 309.833,-423.929 301.459,-427.847 293.176,-430.926"/>
<polygon fill="none" stroke="black" points="291.927,-427.654 283.571,-434.167 294.165,-434.286 291.927,-427.654"/>
</g>
<!-- \\triagens\\ArangoDb\\UserHandler -->
<g id="node23" class="node"><title>\\triagens\\ArangoDb\\UserHandler</title>
<polygon fill="none" stroke="black" points="290,-958 216,-958 216,-922 290,-922 290,-958"/>
<text text-anchor="middle" x="253" y="-937.6" font-family="Times Roman,serif" font-size="11.00">UserHandler</text>
</g>
<!-- \\triagens\\ArangoDb\\UserHandler&#45;&gt;\\triagens\\ArangoDb\\Handler -->
<g id="edge15" class="edge"><title>\\triagens\\ArangoDb\\UserHandler&#45;&gt;\\triagens\\ArangoDb\\Handler</title>
<path fill="none" stroke="black" d="M215.66,-950.669C183.877,-959.749 138.277,-972.778 105.387,-982.175"/>
<polygon fill="none" stroke="black" points="104.271,-978.854 95.6177,-984.966 106.195,-985.584 104.271,-978.854"/>
</g>
<!-- \\triagens\\ArangoDb\\HttpHelper -->
<g id="node24" class="node"><title>\\triagens\\ArangoDb\\HttpHelper</title>
<polygon fill="none" stroke="black" points="473,-864 407,-864 407,-828 473,-828 473,-864"/>
<text text-anchor="middle" x="440" y="-843.6" font-family="Times Roman,serif" font-size="11.00">HttpHelper</text>
</g>
<!-- \\triagens\\ArangoDb\\Cursor -->
<g id="node25" class="node"><title>\\triagens\\ArangoDb\\Cursor</title>
<polygon fill="none" stroke="black" points="467,-216 413,-216 413,-180 467,-180 467,-216"/>
<text text-anchor="middle" x="440" y="-195.6" font-family="Times Roman,serif" font-size="11.00">Cursor</text>
</g>
<!-- \\Iterator -->
<g id="node51" class="node"><title>\\Iterator</title>
<ellipse fill="none" stroke="black" cx="253" cy="-75" rx="41.9273" ry="19.0919"/>
<text text-anchor="middle" x="253" y="-71.9" font-family="Times Roman,serif" font-size="14.00" fill="gray">\Iterator</text>
</g>
<!-- \\triagens\\ArangoDb\\Cursor&#45;&gt;\\Iterator -->
<g id="edge17" class="edge"><title>\\triagens\\ArangoDb\\Cursor&#45;&gt;\\Iterator</title>
<path fill="none" stroke="black" stroke-dasharray="1,5" d="M412.739,-184.743C404.906,-180.622 396.467,-175.873 389,-171 354.822,-148.692 350.489,-137.329 317,-114 307.858,-107.631 297.67,-101.159 288.16,-95.3659"/>
<polygon fill="none" stroke="black" points="289.68,-92.196 279.306,-90.0449 286.075,-98.1959 289.68,-92.196"/>
</g>
<!-- \\triagens\\ArangoDb\\Graph -->
<g id="node26" class="node"><title>\\triagens\\ArangoDb\\Graph</title>
<polygon fill="none" stroke="black" points="467,-1242 413,-1242 413,-1206 467,-1206 467,-1242"/>
<text text-anchor="middle" x="440" y="-1221.6" font-family="Times Roman,serif" font-size="11.00">Graph</text>
</g>
<!-- \\triagens\\ArangoDb\\Graph&#45;&gt;\\triagens\\ArangoDb\\Document -->
<g id="edge19" class="edge"><title>\\triagens\\ArangoDb\\Graph&#45;&gt;\\triagens\\ArangoDb\\Document</title>
<path fill="none" stroke="black" d="M412.998,-1211.9C404.924,-1207.72 396.287,-1202.64 389,-1197 341.72,-1160.39 297.01,-1106.33 272.474,-1074.39"/>
<polygon fill="none" stroke="black" points="275.228,-1072.23 266.392,-1066.38 269.654,-1076.46 275.228,-1072.23"/>
</g>
<!-- \\triagens\\ArangoDb\\Vertex -->
<g id="node28" class="node"><title>\\triagens\\ArangoDb\\Vertex</title>
<polygon fill="none" stroke="black" points="467,-918 413,-918 413,-882 467,-882 467,-918"/>
<text text-anchor="middle" x="440" y="-897.6" font-family="Times Roman,serif" font-size="11.00">Vertex</text>
</g>
<!-- \\triagens\\ArangoDb\\Vertex&#45;&gt;\\triagens\\ArangoDb\\Document -->
<g id="edge21" class="edge"><title>\\triagens\\ArangoDb\\Vertex&#45;&gt;\\triagens\\ArangoDb\\Document</title>
<path fill="none" stroke="black" d="M412.954,-911.581C404.79,-915.775 396.114,-920.983 389,-927 348.819,-960.984 358.632,-988.81 317,-1021 309.93,-1026.47 301.59,-1031.03 293.307,-1034.76"/>
<polygon fill="none" stroke="black" points="291.938,-1031.54 284.052,-1038.61 294.629,-1038 291.938,-1031.54"/>
</g>
<!-- \\triagens\\ArangoDb\\DocumentHandler -->
<g id="node29" class="node"><title>\\triagens\\ArangoDb\\DocumentHandler</title>
<polygon fill="none" stroke="black" points="302,-1417 204,-1417 204,-1381 302,-1381 302,-1417"/>
<text text-anchor="middle" x="253" y="-1396.6" font-family="Times Roman,serif" font-size="11.00">DocumentHandler</text>
</g>
<!-- \\triagens\\ArangoDb\\DocumentHandler&#45;&gt;\\triagens\\ArangoDb\\Handler -->
<g id="edge23" class="edge"><title>\\triagens\\ArangoDb\\DocumentHandler&#45;&gt;\\triagens\\ArangoDb\\Handler</title>
<path fill="none" stroke="black" d="M244.512,-1380.81C214.41,-1316.31 112.651,-1098.25 76.705,-1021.22"/>
<polygon fill="none" stroke="black" points="79.8653,-1019.72 72.4647,-1012.14 73.522,-1022.68 79.8653,-1019.72"/>
</g>
<!-- \\triagens\\ArangoDb\\Statement -->
<g id="node30" class="node"><title>\\triagens\\ArangoDb\\Statement</title>
<polygon fill="none" stroke="black" points="470,-648 410,-648 410,-612 470,-612 470,-648"/>
<text text-anchor="middle" x="440" y="-627.6" font-family="Times Roman,serif" font-size="11.00">Statement</text>
</g>
<!-- \\Exception -->
<g id="node56" class="node"><title>\\Exception</title>
<ellipse fill="none" stroke="black" cx="64" cy="-75" rx="53.033" ry="19.0919"/>
<text text-anchor="middle" x="64" y="-71.9" font-family="Times Roman,serif" font-size="14.00" fill="gray">\Exception</text>
</g>
<!-- \\triagens\\ArangoDb\\Exception&#45;&gt;\\Exception -->
<g id="edge25" class="edge"><title>\\triagens\\ArangoDb\\Exception&#45;&gt;\\Exception</title>
<path fill="none" stroke="black" d="M222.43,-436.96C210.474,-433.891 197.595,-428.494 189,-419 95.5211,-315.748 193.809,-230.188 117,-114 112.842,-107.71 107.305,-102.071 101.377,-97.1659"/>
<polygon fill="none" stroke="black" points="103.23,-94.1793 93.143,-90.9389 99.0078,-99.7625 103.23,-94.1793"/>
</g>
<!-- \\triagens\\ArangoDb\\VertexHandler -->
<g id="node33" class="node"><title>\\triagens\\ArangoDb\\VertexHandler</title>
<polygon fill="none" stroke="black" points="481,-1836 399,-1836 399,-1800 481,-1800 481,-1836"/>
<text text-anchor="middle" x="440" y="-1815.6" font-family="Times Roman,serif" font-size="11.00">VertexHandler</text>
</g>
<!-- \\triagens\\ArangoDb\\VertexHandler&#45;&gt;\\triagens\\ArangoDb\\DocumentHandler -->
<g id="edge27" class="edge"><title>\\triagens\\ArangoDb\\VertexHandler&#45;&gt;\\triagens\\ArangoDb\\DocumentHandler</title>
<path fill="none" stroke="black" d="M398.413,-1800.4C394.863,-1797.66 391.63,-1794.54 389,-1791 290.344,-1658.31 421.377,-1554.24 317,-1426 315.109,-1423.68 312.982,-1421.55 310.683,-1419.6"/>
<polygon fill="none" stroke="black" points="312.477,-1416.58 302.295,-1413.66 308.429,-1422.3 312.477,-1416.58"/>
</g>
<!-- \\triagens\\ArangoDb\\HttpResponse -->
<g id="node34" class="node"><title>\\triagens\\ArangoDb\\HttpResponse</title>
<polygon fill="none" stroke="black" points="479,-540 401,-540 401,-504 479,-504 479,-540"/>
<text text-anchor="middle" x="440" y="-519.6" font-family="Times Roman,serif" font-size="11.00">HttpResponse</text>
</g>
<!-- \\triagens\\ArangoDb\\BindVars -->
<g id="node35" class="node"><title>\\triagens\\ArangoDb\\BindVars</title>
<polygon fill="none" stroke="black" points="469,-486 411,-486 411,-450 469,-450 469,-486"/>
<text text-anchor="middle" x="440" y="-465.6" font-family="Times Roman,serif" font-size="11.00">BindVars</text>
</g>
<!-- \\triagens\\ArangoDb\\UpdatePolicy -->
<g id="node36" class="node"><title>\\triagens\\ArangoDb\\UpdatePolicy</title>
<polygon fill="none" stroke="black" points="478,-432 402,-432 402,-396 478,-396 478,-432"/>
<text text-anchor="middle" x="440" y="-411.6" font-family="Times Roman,serif" font-size="11.00">UpdatePolicy</text>
</g>
<!-- \\triagens\\ArangoDb\\Urls -->
<g id="node37" class="node"><title>\\triagens\\ArangoDb\\Urls</title>
<polygon fill="none" stroke="black" points="471,-378 409,-378 409,-342 471,-342 471,-378"/>
<text text-anchor="start" x="417" y="-365.433" font-family="Times Roman,serif" font-size="11.00">«abstract»</text>
<text text-anchor="start" x="430" y="-352.233" font-family="Times Roman,serif" font-size="11.00">Urls</text>
</g>
<!-- \\triagens\\ArangoDb\\ClientException -->
<g id="node38" class="node"><title>\\triagens\\ArangoDb\\ClientException</title>
<polygon fill="none" stroke="black" points="484,-594 396,-594 396,-558 484,-558 484,-594"/>
<text text-anchor="middle" x="440" y="-573.6" font-family="Times Roman,serif" font-size="11.00">ClientException</text>
</g>
<!-- \\triagens\\ArangoDb\\ClientException&#45;&gt;\\triagens\\ArangoDb\\Exception -->
<g id="edge29" class="edge"><title>\\triagens\\ArangoDb\\ClientException&#45;&gt;\\triagens\\ArangoDb\\Exception</title>
<path fill="none" stroke="black" d="M403.852,-557.932C398.778,-555.089 393.696,-552.07 389,-549 349.664,-523.283 307.809,-488.843 281.086,-465.837"/>
<polygon fill="none" stroke="black" points="283.148,-462.992 273.299,-459.087 278.563,-468.282 283.148,-462.992"/>
</g>
<!-- \\triagens\\ArangoDb\\ValueValidator -->
<g id="node39" class="node"><title>\\triagens\\ArangoDb\\ValueValidator</title>
<polygon fill="none" stroke="black" points="483,-270 397,-270 397,-234 483,-234 483,-270"/>
<text text-anchor="middle" x="440" y="-249.6" font-family="Times Roman,serif" font-size="11.00">ValueValidator</text>
</g>
<!-- \\triagens\\ArangoDb\\GraphHandler -->
<g id="node40" class="node"><title>\\triagens\\ArangoDb\\GraphHandler</title>
<polygon fill="none" stroke="black" points="293,-904 213,-904 213,-868 293,-868 293,-904"/>
<text text-anchor="middle" x="253" y="-883.6" font-family="Times Roman,serif" font-size="11.00">GraphHandler</text>
</g>
<!-- \\triagens\\ArangoDb\\GraphHandler&#45;&gt;\\triagens\\ArangoDb\\Handler -->
<g id="edge31" class="edge"><title>\\triagens\\ArangoDb\\GraphHandler&#45;&gt;\\triagens\\ArangoDb\\Handler</title>
<path fill="none" stroke="black" d="M212.862,-900.843C204.75,-904.417 196.435,-908.515 189,-913 153.576,-934.372 152.485,-950.731 117,-972 113.147,-974.31 109.006,-976.488 104.8,-978.51"/>
<polygon fill="none" stroke="black" points="103.245,-975.372 95.5705,-982.677 106.125,-981.752 103.245,-975.372"/>
</g>
<!-- \\triagens\\ArangoDb\\AdminHandler -->
<g id="node41" class="node"><title>\\triagens\\ArangoDb\\AdminHandler</title>
<polygon fill="none" stroke="black" points="294,-1471 212,-1471 212,-1435 294,-1435 294,-1471"/>
<text text-anchor="middle" x="253" y="-1450.6" font-family="Times Roman,serif" font-size="11.00">AdminHandler</text>
</g>
<!-- \\triagens\\ArangoDb\\AdminHandler&#45;&gt;\\triagens\\ArangoDb\\Handler -->
<g id="edge33" class="edge"><title>\\triagens\\ArangoDb\\AdminHandler&#45;&gt;\\triagens\\ArangoDb\\Handler</title>
<path fill="none" stroke="black" d="M211.272,-1441.73C202.99,-1437.88 195.009,-1432.76 189,-1426 134.035,-1364.16 84.4063,-1108.63 68.95,-1022.49"/>
<polygon fill="none" stroke="black" points="72.352,-1021.63 67.1566,-1012.4 65.4599,-1022.86 72.352,-1021.63"/>
</g>
<!-- \\triagens\\ArangoDb\\EdgeHandler -->
<g id="node42" class="node"><title>\\triagens\\ArangoDb\\EdgeHandler</title>
<polygon fill="none" stroke="black" points="477,-1566 403,-1566 403,-1530 477,-1530 477,-1566"/>
<text text-anchor="middle" x="440" y="-1545.6" font-family="Times Roman,serif" font-size="11.00">EdgeHandler</text>
</g>
<!-- \\triagens\\ArangoDb\\EdgeHandler&#45;&gt;\\triagens\\ArangoDb\\DocumentHandler -->
<g id="edge35" class="edge"><title>\\triagens\\ArangoDb\\EdgeHandler&#45;&gt;\\triagens\\ArangoDb\\DocumentHandler</title>
<path fill="none" stroke="black" d="M402.284,-1530.48C397.602,-1527.61 393.045,-1524.44 389,-1521 348.637,-1486.69 358.828,-1458.51 317,-1426 315.001,-1424.45 312.898,-1422.96 310.724,-1421.56"/>
<polygon fill="none" stroke="black" points="312.441,-1418.51 302.043,-1416.47 308.904,-1424.55 312.441,-1418.51"/>
</g>
<!-- \\triagens\\ArangoDb\\ConnectionOptions -->
<g id="node43" class="node"><title>\\triagens\\ArangoDb\\ConnectionOptions</title>
<polygon fill="none" stroke="black" points="490,-162 390,-162 390,-126 490,-126 490,-162"/>
<text text-anchor="middle" x="440" y="-141.6" font-family="Times Roman,serif" font-size="11.00">ConnectionOptions</text>
</g>
<!-- \\ArrayAccess -->
<g id="node63" class="node"><title>\\ArrayAccess</title>
<ellipse fill="none" stroke="black" cx="253" cy="-19" rx="63.1385" ry="19.0919"/>
<text text-anchor="middle" x="253" y="-15.9" font-family="Times Roman,serif" font-size="14.00" fill="gray">\ArrayAccess</text>
</g>
<!-- \\triagens\\ArangoDb\\ConnectionOptions&#45;&gt;\\ArrayAccess -->
<g id="edge37" class="edge"><title>\\triagens\\ArangoDb\\ConnectionOptions&#45;&gt;\\ArrayAccess</title>
<path fill="none" stroke="black" stroke-dasharray="1,5" d="M420.281,-125.823C396.912,-104.926 356.185,-70.4935 317,-47 312.002,-44.0036 306.626,-41.1457 301.19,-38.4798"/>
<polygon fill="none" stroke="black" points="302.579,-35.2657 292.04,-34.184 299.604,-41.6021 302.579,-35.2657"/>
</g>
</g>
</svg>
