<?xml version="1.0" encoding="UTF-8" standalone="no"?>
<!DOCTYPE svg PUBLIC "-//W3C//DTD SVG 1.1//EN"
 "http://www.w3.org/Graphics/SVG/1.1/DTD/svg11.dtd">
<!-- Generated by graphviz version 2.26.0 (20091210.2329)
 -->
<!-- Title: G Pages: 1 -->
<svg width="531pt" height="1837pt"
 viewBox="0.00 0.00 531.00 1837.00" xmlns="http://www.w3.org/2000/svg" xmlns:xlink="http://www.w3.org/1999/xlink">
<g id="graph1" class="graph" transform="scale(1 1) rotate(0) translate(4 1833)">
<title>G</title>
<polygon fill="white" stroke="white" points="-4,5 -4,-1833 528,-1833 528,5 -4,5"/>
<g id="graph2" class="cluster"><title>cluster_Global</title>
<polyline fill="none" stroke="gray" points="20,-102 503,-102 "/>
<path fill="none" stroke="gray" d="M503,-102C509,-102 515,-108 515,-114"/>
<polyline fill="none" stroke="gray" points="515,-114 515,-1809 "/>
<path fill="none" stroke="gray" d="M515,-1809C515,-1815 509,-1821 503,-1821"/>
<polyline fill="none" stroke="gray" points="503,-1821 20,-1821 "/>
<path fill="none" stroke="gray" d="M20,-1821C14,-1821 8,-1815 8,-1809"/>
<polyline fill="none" stroke="gray" points="8,-1809 8,-114 "/>
<path fill="none" stroke="gray" d="M8,-114C8,-108 14,-102 20,-102"/>
<text text-anchor="middle" x="261.5" y="-1807.1" font-family="Times Roman,serif" font-size="11.00" fill="gray">\</text>
</g>
<g id="graph3" class="cluster"><title>cluster_\triagens</title>
<polyline fill="none" stroke="gray" points="28,-110 495,-110 "/>
<path fill="none" stroke="gray" d="M495,-110C501,-110 507,-116 507,-122"/>
<polyline fill="none" stroke="gray" points="507,-122 507,-1778 "/>
<path fill="none" stroke="gray" d="M507,-1778C507,-1784 501,-1790 495,-1790"/>
<polyline fill="none" stroke="gray" points="495,-1790 28,-1790 "/>
<path fill="none" stroke="gray" d="M28,-1790C22,-1790 16,-1784 16,-1778"/>
<polyline fill="none" stroke="gray" points="16,-1778 16,-122 "/>
<path fill="none" stroke="gray" d="M16,-122C16,-116 22,-110 28,-110"/>
<text text-anchor="middle" x="261.5" y="-1776.1" font-family="Times Roman,serif" font-size="11.00" fill="gray">triagens</text>
</g>
<g id="graph4" class="cluster"><title>cluster_\triagens\ArangoDb</title>
<polyline fill="none" stroke="gray" points="36,-118 487,-118 "/>
<path fill="none" stroke="gray" d="M487,-118C493,-118 499,-124 499,-130"/>
<polyline fill="none" stroke="gray" points="499,-130 499,-1747 "/>
<path fill="none" stroke="gray" d="M499,-1747C499,-1753 493,-1759 487,-1759"/>
<polyline fill="none" stroke="gray" points="487,-1759 36,-1759 "/>
<path fill="none" stroke="gray" d="M36,-1759C30,-1759 24,-1753 24,-1747"/>
<polyline fill="none" stroke="gray" points="24,-1747 24,-130 "/>
<path fill="none" stroke="gray" d="M24,-130C24,-124 30,-118 36,-118"/>
<text text-anchor="middle" x="261.5" y="-1745.1" font-family="Times Roman,serif" font-size="11.00" fill="gray">ArangoDb</text>
</g>
<!-- \\triagens\\ArangoDb\\AqlUserFunction -->
<g id="node4" class="node"><title>\\triagens\\ArangoDb\\AqlUserFunction</title>
<polygon fill="none" stroke="black" points="486,-1728 394,-1728 394,-1692 486,-1692 486,-1728"/>
<text text-anchor="middle" x="440" y="-1707.6" font-family="Times Roman,serif" font-size="11.00">AqlUserFunction</text>
</g>
<!-- \\triagens\\ArangoDb\\UserHandler -->
<g id="node5" class="node"><title>\\triagens\\ArangoDb\\UserHandler</title>
<polygon fill="none" stroke="black" points="290,-1377 216,-1377 216,-1341 290,-1341 290,-1377"/>
<text text-anchor="middle" x="253" y="-1356.6" font-family="Times Roman,serif" font-size="11.00">UserHandler</text>
</g>
<!-- \\triagens\\ArangoDb\\Handler -->
<g id="node26" class="node"><title>\\triagens\\ArangoDb\\Handler</title>
<polygon fill="none" stroke="black" points="95,-1377 33,-1377 33,-1341 95,-1341 95,-1377"/>
<text text-anchor="start" x="41" y="-1364.43" font-family="Times Roman,serif" font-size="11.00">«abstract»</text>
<text text-anchor="start" x="45.5" y="-1351.23" font-family="Times Roman,serif" font-size="11.00">Handler</text>
</g>
<!-- \\triagens\\ArangoDb\\UserHandler&#45;&gt;\\triagens\\ArangoDb\\Handler -->
<g id="edge5" class="edge"><title>\\triagens\\ArangoDb\\UserHandler&#45;&gt;\\triagens\\ArangoDb\\Handler</title>
<path fill="none" stroke="black" d="M215.66,-1359C184.014,-1359 138.669,-1359 105.813,-1359"/>
<polygon fill="none" stroke="black" points="105.618,-1355.5 95.6177,-1359 105.618,-1362.5 105.618,-1355.5"/>
</g>
<!-- \\triagens\\ArangoDb\\BatchPart -->
<g id="node6" class="node"><title>\\triagens\\ArangoDb\\BatchPart</title>
<polygon fill="none" stroke="black" points="470,-1674 410,-1674 410,-1638 470,-1638 470,-1674"/>
<text text-anchor="middle" x="440" y="-1653.6" font-family="Times Roman,serif" font-size="11.00">BatchPart</text>
</g>
<!-- \\triagens\\ArangoDb\\Statement -->
<g id="node7" class="node"><title>\\triagens\\ArangoDb\\Statement</title>
<polygon fill="none" stroke="black" points="470,-1620 410,-1620 410,-1584 470,-1584 470,-1620"/>
<text text-anchor="middle" x="440" y="-1599.6" font-family="Times Roman,serif" font-size="11.00">Statement</text>
</g>
<!-- \\triagens\\ArangoDb\\Urls -->
<g id="node8" class="node"><title>\\triagens\\ArangoDb\\Urls</title>
<polygon fill="none" stroke="black" points="471,-1566 409,-1566 409,-1530 471,-1530 471,-1566"/>
<text text-anchor="start" x="417" y="-1553.43" font-family="Times Roman,serif" font-size="11.00">«abstract»</text>
<text text-anchor="start" x="430" y="-1540.23" font-family="Times Roman,serif" font-size="11.00">Urls</text>
</g>
<!-- \\triagens\\ArangoDb\\TraceResponse -->
<g id="node9" class="node"><title>\\triagens\\ArangoDb\\TraceResponse</title>
<polygon fill="none" stroke="black" points="483,-1512 397,-1512 397,-1476 483,-1476 483,-1512"/>
<text text-anchor="middle" x="440" y="-1491.6" font-family="Times Roman,serif" font-size="11.00">TraceResponse</text>
</g>
<!-- \\triagens\\ArangoDb\\ClientException -->
<g id="node10" class="node"><title>\\triagens\\ArangoDb\\ClientException</title>
<polygon fill="none" stroke="black" points="484,-702 396,-702 396,-666 484,-666 484,-702"/>
<text text-anchor="middle" x="440" y="-681.6" font-family="Times Roman,serif" font-size="11.00">ClientException</text>
</g>
<!-- \\triagens\\ArangoDb\\Exception -->
<g id="node35" class="node"><title>\\triagens\\ArangoDb\\Exception</title>
<polygon fill="none" stroke="black" points="283,-621 223,-621 223,-585 283,-585 283,-621"/>
<text text-anchor="middle" x="253" y="-600.6" font-family="Times Roman,serif" font-size="11.00">Exception</text>
</g>
<!-- \\triagens\\ArangoDb\\ClientException&#45;&gt;\\triagens\\ArangoDb\\Exception -->
<g id="edge7" class="edge"><title>\\triagens\\ArangoDb\\ClientException&#45;&gt;\\triagens\\ArangoDb\\Exception</title>
<path fill="none" stroke="black" d="M398.034,-665.822C366.61,-652.211 323.894,-633.708 292.964,-620.311"/>
<polygon fill="none" stroke="black" points="294.337,-617.091 283.77,-616.328 291.555,-623.514 294.337,-617.091"/>
</g>
<!-- \\triagens\\ArangoDb\\AdminHandler -->
<g id="node11" class="node"><title>\\triagens\\ArangoDb\\AdminHandler</title>
<polygon fill="none" stroke="black" points="294,-1323 212,-1323 212,-1287 294,-1287 294,-1323"/>
<text text-anchor="middle" x="253" y="-1302.6" font-family="Times Roman,serif" font-size="11.00">AdminHandler</text>
</g>
<!-- \\triagens\\ArangoDb\\AdminHandler&#45;&gt;\\triagens\\ArangoDb\\Handler -->
<g id="edge9" class="edge"><title>\\triagens\\ArangoDb\\AdminHandler&#45;&gt;\\triagens\\ArangoDb\\Handler</title>
<path fill="none" stroke="black" d="M211.055,-1316.98C179.555,-1325.98 136.631,-1338.25 105.29,-1347.2"/>
<polygon fill="none" stroke="black" points="104.205,-1343.87 95.5512,-1349.99 106.128,-1350.6 104.205,-1343.87"/>
</g>
<!-- \\triagens\\ArangoDb\\ConnectionOptions -->
<g id="node12" class="node"><title>\\triagens\\ArangoDb\\ConnectionOptions</title>
<polygon fill="none" stroke="black" points="490,-270 390,-270 390,-234 490,-234 490,-270"/>
<text text-anchor="middle" x="440" y="-249.6" font-family="Times Roman,serif" font-size="11.00">ConnectionOptions</text>
</g>
<!-- \\ArrayAccess -->
<g id="node46" class="node"><title>\\ArrayAccess</title>
<ellipse fill="none" stroke="black" cx="253" cy="-75" rx="63.1385" ry="19.0919"/>
<text text-anchor="middle" x="253" y="-71.9" font-family="Times Roman,serif" font-size="14.00" fill="gray">\ArrayAccess</text>
</g>
<!-- \\triagens\\ArangoDb\\ConnectionOptions&#45;&gt;\\ArrayAccess -->
<g id="edge11" class="edge"><title>\\triagens\\ArangoDb\\ConnectionOptions&#45;&gt;\\ArrayAccess</title>
<path fill="none" stroke="black" stroke-dasharray="1,5" d="M400.732,-233.921C396.558,-231.225 392.547,-228.247 389,-225 345.621,-185.301 359.161,-154.991 317,-114 310.354,-107.539 302.452,-101.654 294.506,-96.5245"/>
<polygon fill="none" stroke="black" points="296.28,-93.5065 285.925,-91.2637 292.621,-99.4742 296.28,-93.5065"/>
</g>
<!-- \\triagens\\ArangoDb\\Edge -->
<g id="node13" class="node"><title>\\triagens\\ArangoDb\\Edge</title>
<polygon fill="none" stroke="black" points="467,-1350 413,-1350 413,-1314 467,-1314 467,-1350"/>
<text text-anchor="middle" x="440" y="-1329.6" font-family="Times Roman,serif" font-size="11.00">Edge</text>
</g>
<!-- \\triagens\\ArangoDb\\Document -->
<g id="node15" class="node"><title>\\triagens\\ArangoDb\\Document</title>
<polygon fill="none" stroke="black" points="284,-1012 222,-1012 222,-976 284,-976 284,-1012"/>
<text text-anchor="middle" x="253" y="-991.6" font-family="Times Roman,serif" font-size="11.00">Document</text>
</g>
<!-- \\triagens\\ArangoDb\\Edge&#45;&gt;\\triagens\\ArangoDb\\Document -->
<g id="edge13" class="edge"><title>\\triagens\\ArangoDb\\Edge&#45;&gt;\\triagens\\ArangoDb\\Document</title>
<path fill="none" stroke="black" d="M412.803,-1321.8C404.35,-1317.61 395.542,-1312.05 389,-1305 309.941,-1219.81 271.978,-1081.29 258.713,-1022.18"/>
<polygon fill="none" stroke="black" points="262.065,-1021.13 256.519,-1012.1 255.225,-1022.61 262.065,-1021.13"/>
</g>
<!-- \\triagens\\ArangoDb\\ConnectException -->
<g id="node14" class="node"><title>\\triagens\\ArangoDb\\ConnectException</title>
<polygon fill="none" stroke="black" points="489,-648 391,-648 391,-612 489,-612 489,-648"/>
<text text-anchor="middle" x="440" y="-627.6" font-family="Times Roman,serif" font-size="11.00">ConnectException</text>
</g>
<!-- \\triagens\\ArangoDb\\ConnectException&#45;&gt;\\triagens\\ArangoDb\\Exception -->
<g id="edge15" class="edge"><title>\\triagens\\ArangoDb\\ConnectException&#45;&gt;\\triagens\\ArangoDb\\Exception</title>
<path fill="none" stroke="black" d="M390.868,-622.906C360.606,-618.537 322.271,-613.002 293.71,-608.878"/>
<polygon fill="none" stroke="black" points="294.061,-605.392 283.663,-607.427 293.06,-612.321 294.061,-605.392"/>
</g>
<!-- \\triagens\\ArangoDb\\TraceRequest -->
<g id="node16" class="node"><title>\\triagens\\ArangoDb\\TraceRequest</title>
<polygon fill="none" stroke="black" points="479,-1242 401,-1242 401,-1206 479,-1206 479,-1242"/>
<text text-anchor="middle" x="440" y="-1221.6" font-family="Times Roman,serif" font-size="11.00">TraceRequest</text>
</g>
<!-- \\triagens\\ArangoDb\\Connection -->
<g id="node17" class="node"><title>\\triagens\\ArangoDb\\Connection</title>
<polygon fill="none" stroke="black" points="473,-1188 407,-1188 407,-1152 473,-1152 473,-1188"/>
<text text-anchor="middle" x="440" y="-1167.6" font-family="Times Roman,serif" font-size="11.00">Connection</text>
</g>
<!-- \\triagens\\ArangoDb\\ValueValidator -->
<g id="node18" class="node"><title>\\triagens\\ArangoDb\\ValueValidator</title>
<polygon fill="none" stroke="black" points="483,-1134 397,-1134 397,-1098 483,-1098 483,-1134"/>
<text text-anchor="middle" x="440" y="-1113.6" font-family="Times Roman,serif" font-size="11.00">ValueValidator</text>
</g>
<!-- \\triagens\\ArangoDb\\Batch -->
<g id="node19" class="node"><title>\\triagens\\ArangoDb\\Batch</title>
<polygon fill="none" stroke="black" points="467,-1080 413,-1080 413,-1044 467,-1044 467,-1080"/>
<text text-anchor="middle" x="440" y="-1059.6" font-family="Times Roman,serif" font-size="11.00">Batch</text>
</g>
<!-- \\triagens\\ArangoDb\\DefaultValues -->
<g id="node20" class="node"><title>\\triagens\\ArangoDb\\DefaultValues</title>
<polygon fill="none" stroke="black" points="481,-1026 399,-1026 399,-990 481,-990 481,-1026"/>
<text text-anchor="start" x="417" y="-1013.43" font-family="Times Roman,serif" font-size="11.00">«abstract»</text>
<text text-anchor="start" x="407" y="-1000.23" font-family="Times Roman,serif" font-size="11.00">DefaultValues</text>
</g>
<!-- \\triagens\\ArangoDb\\GraphHandler -->
<g id="node21" class="node"><title>\\triagens\\ArangoDb\\GraphHandler</title>
<polygon fill="none" stroke="black" points="293,-1269 213,-1269 213,-1233 293,-1233 293,-1269"/>
<text text-anchor="middle" x="253" y="-1248.6" font-family="Times Roman,serif" font-size="11.00">GraphHandler</text>
</g>
<!-- \\triagens\\ArangoDb\\GraphHandler&#45;&gt;\\triagens\\ArangoDb\\Handler -->
<g id="edge17" class="edge"><title>\\triagens\\ArangoDb\\GraphHandler&#45;&gt;\\triagens\\ArangoDb\\Handler</title>
<path fill="none" stroke="black" d="M212.862,-1265.84C204.75,-1269.42 196.435,-1273.51 189,-1278 153.576,-1299.37 152.485,-1315.73 117,-1337 113.147,-1339.31 109.006,-1341.49 104.8,-1343.51"/>
<polygon fill="none" stroke="black" points="103.245,-1340.37 95.5705,-1347.68 106.125,-1346.75 103.245,-1340.37"/>
</g>
<!-- \\triagens\\ArangoDb\\Transaction -->
<g id="node22" class="node"><title>\\triagens\\ArangoDb\\Transaction</title>
<polygon fill="none" stroke="black" points="474,-972 406,-972 406,-936 474,-936 474,-972"/>
<text text-anchor="middle" x="440" y="-951.6" font-family="Times Roman,serif" font-size="11.00">Transaction</text>
</g>
<!-- \\triagens\\ArangoDb\\CollectionHandler -->
<g id="node23" class="node"><title>\\triagens\\ArangoDb\\CollectionHandler</title>
<polygon fill="none" stroke="black" points="302,-1485 204,-1485 204,-1449 302,-1449 302,-1485"/>
<text text-anchor="middle" x="253" y="-1464.6" font-family="Times Roman,serif" font-size="11.00">CollectionHandler</text>
</g>
<!-- \\triagens\\ArangoDb\\CollectionHandler&#45;&gt;\\triagens\\ArangoDb\\Handler -->
<g id="edge19" class="edge"><title>\\triagens\\ArangoDb\\CollectionHandler&#45;&gt;\\triagens\\ArangoDb\\Handler</title>
<path fill="none" stroke="black" d="M207.433,-1448.94C201.158,-1446.12 194.861,-1443.1 189,-1440 156.702,-1422.89 121.966,-1399.99 97.329,-1382.9"/>
<polygon fill="none" stroke="black" points="99.2576,-1379.98 89.0562,-1377.11 95.2472,-1385.71 99.2576,-1379.98"/>
</g>
<!-- \\triagens\\ArangoDb\\Autoloader -->
<g id="node24" class="node"><title>\\triagens\\ArangoDb\\Autoloader</title>
<polygon fill="none" stroke="black" points="473,-918 407,-918 407,-882 473,-882 473,-918"/>
<text text-anchor="middle" x="440" y="-897.6" font-family="Times Roman,serif" font-size="11.00">Autoloader</text>
</g>
<!-- \\triagens\\ArangoDb\\Collection -->
<g id="node25" class="node"><title>\\triagens\\ArangoDb\\Collection</title>
<polygon fill="none" stroke="black" points="471,-864 409,-864 409,-828 471,-828 471,-864"/>
<text text-anchor="middle" x="440" y="-843.6" font-family="Times Roman,serif" font-size="11.00">Collection</text>
</g>
<!-- \\triagens\\ArangoDb\\Vertex -->
<g id="node27" class="node"><title>\\triagens\\ArangoDb\\Vertex</title>
<polygon fill="none" stroke="black" points="467,-1296 413,-1296 413,-1260 467,-1260 467,-1296"/>
<text text-anchor="middle" x="440" y="-1275.6" font-family="Times Roman,serif" font-size="11.00">Vertex</text>
</g>
<!-- \\triagens\\ArangoDb\\Vertex&#45;&gt;\\triagens\\ArangoDb\\Document -->
<g id="edge21" class="edge"><title>\\triagens\\ArangoDb\\Vertex&#45;&gt;\\triagens\\ArangoDb\\Document</title>
<path fill="none" stroke="black" d="M412.842,-1267.38C404.487,-1263.18 395.729,-1257.73 389,-1251 320.715,-1182.7 278.536,-1072.95 261.581,-1021.85"/>
<polygon fill="none" stroke="black" points="264.851,-1020.59 258.436,-1012.15 258.193,-1022.75 264.851,-1020.59"/>
</g>
<!-- \\triagens\\ArangoDb\\EdgeHandler -->
<g id="node28" class="node"><title>\\triagens\\ArangoDb\\EdgeHandler</title>
<polygon fill="none" stroke="black" points="477,-1458 403,-1458 403,-1422 477,-1422 477,-1458"/>
<text text-anchor="middle" x="440" y="-1437.6" font-family="Times Roman,serif" font-size="11.00">EdgeHandler</text>
</g>
<!-- \\triagens\\ArangoDb\\DocumentHandler -->
<g id="node37" class="node"><title>\\triagens\\ArangoDb\\DocumentHandler</title>
<polygon fill="none" stroke="black" points="302,-1431 204,-1431 204,-1395 302,-1395 302,-1431"/>
<text text-anchor="middle" x="253" y="-1410.6" font-family="Times Roman,serif" font-size="11.00">DocumentHandler</text>
</g>
<!-- \\triagens\\ArangoDb\\EdgeHandler&#45;&gt;\\triagens\\ArangoDb\\DocumentHandler -->
<g id="edge23" class="edge"><title>\\triagens\\ArangoDb\\EdgeHandler&#45;&gt;\\triagens\\ArangoDb\\DocumentHandler</title>
<path fill="none" stroke="black" d="M402.158,-1434.54C376.382,-1430.81 341.733,-1425.81 312.318,-1421.56"/>
<polygon fill="none" stroke="black" points="312.553,-1418.06 302.155,-1420.1 311.552,-1424.99 312.553,-1418.06"/>
</g>
<!-- \\triagens\\ArangoDb\\Graph -->
<g id="node29" class="node"><title>\\triagens\\ArangoDb\\Graph</title>
<polygon fill="none" stroke="black" points="467,-810 413,-810 413,-774 467,-774 467,-810"/>
<text text-anchor="middle" x="440" y="-789.6" font-family="Times Roman,serif" font-size="11.00">Graph</text>
</g>
<!-- \\triagens\\ArangoDb\\Graph&#45;&gt;\\triagens\\ArangoDb\\Document -->
<g id="edge25" class="edge"><title>\\triagens\\ArangoDb\\Graph&#45;&gt;\\triagens\\ArangoDb\\Document</title>
<path fill="none" stroke="black" d="M412.979,-803.612C404.817,-807.807 396.135,-813.008 389,-819 336.709,-862.912 291.562,-930.038 268.782,-967.092"/>
<polygon fill="none" stroke="black" points="265.675,-965.467 263.482,-975.832 271.66,-969.096 265.675,-965.467"/>
</g>
<!-- \\triagens\\ArangoDb\\Cursor -->
<g id="node30" class="node"><title>\\triagens\\ArangoDb\\Cursor</title>
<polygon fill="none" stroke="black" points="467,-216 413,-216 413,-180 467,-180 467,-216"/>
<text text-anchor="middle" x="440" y="-195.6" font-family="Times Roman,serif" font-size="11.00">Cursor</text>
</g>
<!-- \\Iterator -->
<g id="node55" class="node"><title>\\Iterator</title>
<ellipse fill="none" stroke="black" cx="253" cy="-19" rx="41.9273" ry="19.0919"/>
<text text-anchor="middle" x="253" y="-15.9" font-family="Times Roman,serif" font-size="14.00" fill="gray">\Iterator</text>
</g>
<!-- \\triagens\\ArangoDb\\Cursor&#45;&gt;\\Iterator -->
<g id="edge27" class="edge"><title>\\triagens\\ArangoDb\\Cursor&#45;&gt;\\Iterator</title>
<path fill="none" stroke="black" stroke-dasharray="1,5" d="M412.997,-187.223C404.652,-183.016 395.86,-177.597 389,-171 343.064,-126.829 364.549,-89.4302 317,-47 311.339,-41.9482 304.622,-37.6933 297.704,-34.1475"/>
<polygon fill="none" stroke="black" points="298.77,-30.7833 288.226,-29.7436 295.82,-37.1315 298.77,-30.7833"/>
</g>
<!-- \\triagens\\ArangoDb\\ServerException -->
<g id="node31" class="node"><title>\\triagens\\ArangoDb\\ServerException</title>
<polygon fill="none" stroke="black" points="485,-594 395,-594 395,-558 485,-558 485,-594"/>
<text text-anchor="middle" x="440" y="-573.6" font-family="Times Roman,serif" font-size="11.00">ServerException</text>
</g>
<!-- \\triagens\\ArangoDb\\ServerException&#45;&gt;\\triagens\\ArangoDb\\Exception -->
<g id="edge29" class="edge"><title>\\triagens\\ArangoDb\\ServerException&#45;&gt;\\triagens\\ArangoDb\\Exception</title>
<path fill="none" stroke="black" d="M394.733,-582.536C363.888,-586.989 323.4,-592.835 293.598,-597.138"/>
<polygon fill="none" stroke="black" points="292.933,-593.698 283.536,-598.591 293.934,-600.626 292.933,-593.698"/>
</g>
<!-- \\triagens\\ArangoDb\\UpdatePolicy -->
<g id="node32" class="node"><title>\\triagens\\ArangoDb\\UpdatePolicy</title>
<polygon fill="none" stroke="black" points="478,-540 402,-540 402,-504 478,-504 478,-540"/>
<text text-anchor="middle" x="440" y="-519.6" font-family="Times Roman,serif" font-size="11.00">UpdatePolicy</text>
</g>
<!-- \\triagens\\ArangoDb\\HttpHelper -->
<g id="node33" class="node"><title>\\triagens\\ArangoDb\\HttpHelper</title>
<polygon fill="none" stroke="black" points="473,-486 407,-486 407,-450 473,-450 473,-486"/>
<text text-anchor="middle" x="440" y="-465.6" font-family="Times Roman,serif" font-size="11.00">HttpHelper</text>
</g>
<!-- \\triagens\\ArangoDb\\UrlHelper -->
<g id="node34" class="node"><title>\\triagens\\ArangoDb\\UrlHelper</title>
<polygon fill="none" stroke="black" points="471,-432 409,-432 409,-396 471,-396 471,-432"/>
<text text-anchor="start" x="417" y="-419.433" font-family="Times Roman,serif" font-size="11.00">«abstract»</text>
<text text-anchor="start" x="417" y="-406.233" font-family="Times Roman,serif" font-size="11.00">UrlHelper</text>
</g>
<!-- \\Exception -->
<g id="node58" class="node"><title>\\Exception</title>
<ellipse fill="none" stroke="black" cx="64" cy="-75" rx="53.033" ry="19.0919"/>
<text text-anchor="middle" x="64" y="-71.9" font-family="Times Roman,serif" font-size="14.00" fill="gray">\Exception</text>
</g>
<!-- \\triagens\\ArangoDb\\Exception&#45;&gt;\\Exception -->
<g id="edge31" class="edge"><title>\\triagens\\ArangoDb\\Exception&#45;&gt;\\Exception</title>
<path fill="none" stroke="black" d="M222.383,-599.37C210.272,-596.372 197.29,-590.915 189,-581 54.2987,-419.882 225.817,-293.617 117,-114 113.134,-107.618 107.791,-101.955 101.976,-97.0576"/>
<polygon fill="none" stroke="black" points="103.922,-94.1405 93.8484,-90.8598 99.6778,-99.7068 103.922,-94.1405"/>
</g>
<!-- \\triagens\\ArangoDb\\Endpoint -->
<g id="node36" class="node"><title>\\triagens\\ArangoDb\\Endpoint</title>
<polygon fill="none" stroke="black" points="468,-378 412,-378 412,-342 468,-342 468,-378"/>
<text text-anchor="middle" x="440" y="-357.6" font-family="Times Roman,serif" font-size="11.00">Endpoint</text>
</g>
<!-- \\triagens\\ArangoDb\\DocumentHandler&#45;&gt;\\triagens\\ArangoDb\\Handler -->
<g id="edge33" class="edge"><title>\\triagens\\ArangoDb\\DocumentHandler&#45;&gt;\\triagens\\ArangoDb\\Handler</title>
<path fill="none" stroke="black" d="M203.836,-1398.95C173.31,-1390.23 134.513,-1379.15 105.533,-1370.87"/>
<polygon fill="none" stroke="black" points="106.298,-1367.45 95.7209,-1368.06 104.375,-1374.18 106.298,-1367.45"/>
</g>
<!-- \\triagens\\ArangoDb\\HttpResponse -->
<g id="node38" class="node"><title>\\triagens\\ArangoDb\\HttpResponse</title>
<polygon fill="none" stroke="black" points="479,-324 401,-324 401,-288 479,-288 479,-324"/>
<text text-anchor="middle" x="440" y="-303.6" font-family="Times Roman,serif" font-size="11.00">HttpResponse</text>
</g>
<!-- \\triagens\\ArangoDb\\User -->
<g id="node39" class="node"><title>\\triagens\\ArangoDb\\User</title>
<polygon fill="none" stroke="black" points="467,-756 413,-756 413,-720 467,-720 467,-756"/>
<text text-anchor="middle" x="440" y="-735.6" font-family="Times Roman,serif" font-size="11.00">User</text>
</g>
<!-- \\triagens\\ArangoDb\\User&#45;&gt;\\triagens\\ArangoDb\\Document -->
<g id="edge35" class="edge"><title>\\triagens\\ArangoDb\\User&#45;&gt;\\triagens\\ArangoDb\\Document</title>
<path fill="none" stroke="black" d="M412.772,-748.951C404.508,-753.141 395.82,-758.506 389,-765 326.291,-824.708 282.554,-919.596 263.587,-966.249"/>
<polygon fill="none" stroke="black" points="260.269,-965.121 259.814,-975.706 266.771,-967.715 260.269,-965.121"/>
</g>
<!-- \\triagens\\ArangoDb\\VertexHandler -->
<g id="node40" class="node"><title>\\triagens\\ArangoDb\\VertexHandler</title>
<polygon fill="none" stroke="black" points="481,-1404 399,-1404 399,-1368 481,-1368 481,-1404"/>
<text text-anchor="middle" x="440" y="-1383.6" font-family="Times Roman,serif" font-size="11.00">VertexHandler</text>
</g>
<!-- \\triagens\\ArangoDb\\VertexHandler&#45;&gt;\\triagens\\ArangoDb\\DocumentHandler -->
<g id="edge37" class="edge"><title>\\triagens\\ArangoDb\\VertexHandler&#45;&gt;\\triagens\\ArangoDb\\DocumentHandler</title>
<path fill="none" stroke="black" d="M398.499,-1391.99C373.103,-1395.66 340.203,-1400.41 312.114,-1404.46"/>
<polygon fill="none" stroke="black" points="311.403,-1401.03 302.006,-1405.92 312.404,-1407.96 311.403,-1401.03"/>
</g>
<!-- \\triagens\\ArangoDb\\BindVars -->
<g id="node41" class="node"><title>\\triagens\\ArangoDb\\BindVars</title>
<polygon fill="none" stroke="black" points="469,-162 411,-162 411,-126 469,-126 469,-162"/>
<text text-anchor="middle" x="440" y="-141.6" font-family="Times Roman,serif" font-size="11.00">BindVars</text>
</g>
</g>
</svg>
