<?xml version="1.0" encoding="UTF-8" standalone="no"?>
<!DOCTYPE svg PUBLIC "-//W3C//DTD SVG 1.1//EN"
 "http://www.w3.org/Graphics/SVG/1.1/DTD/svg11.dtd">
<!-- Generated by graphviz version 2.26.0 (20091210.2329)
 -->
<!-- Title: G Pages: 1 -->
<svg width="562pt" height="1636pt"
 viewBox="0.00 0.00 562.00 1636.00" xmlns="http://www.w3.org/2000/svg" xmlns:xlink="http://www.w3.org/1999/xlink">
<g id="graph1" class="graph" transform="scale(1 1) rotate(0) translate(4 1632)">
<title>G</title>
<polygon fill="white" stroke="white" points="-4,5 -4,-1632 559,-1632 559,5 -4,5"/>
<g id="graph2" class="cluster"><title>cluster_triagens</title>
<polyline fill="none" stroke="gray" points="20,-102 534,-102 "/>
<path fill="none" stroke="gray" d="M534,-102C540,-102 546,-108 546,-114"/>
<polyline fill="none" stroke="gray" points="546,-114 546,-1608 "/>
<path fill="none" stroke="gray" d="M546,-1608C546,-1614 540,-1620 534,-1620"/>
<polyline fill="none" stroke="gray" points="534,-1620 20,-1620 "/>
<path fill="none" stroke="gray" d="M20,-1620C14,-1620 8,-1614 8,-1608"/>
<polyline fill="none" stroke="gray" points="8,-1608 8,-114 "/>
<path fill="none" stroke="gray" d="M8,-114C8,-108 14,-102 20,-102"/>
<text text-anchor="middle" x="277" y="-1606.1" font-family="Times Roman,serif" font-size="11.00" fill="gray">triagens</text>
</g>
<g id="graph3" class="cluster"><title>cluster_triagens\ArangoDb</title>
<polyline fill="none" stroke="gray" points="28,-110 526,-110 "/>
<path fill="none" stroke="gray" d="M526,-110C532,-110 538,-116 538,-122"/>
<polyline fill="none" stroke="gray" points="538,-122 538,-1577 "/>
<path fill="none" stroke="gray" d="M538,-1577C538,-1583 532,-1589 526,-1589"/>
<polyline fill="none" stroke="gray" points="526,-1589 28,-1589 "/>
<path fill="none" stroke="gray" d="M28,-1589C22,-1589 16,-1583 16,-1577"/>
<polyline fill="none" stroke="gray" points="16,-1577 16,-122 "/>
<path fill="none" stroke="gray" d="M16,-122C16,-116 22,-110 28,-110"/>
<text text-anchor="middle" x="277" y="-1575.1" font-family="Times Roman,serif" font-size="11.00" fill="gray">ArangoDb</text>
</g>
<!-- \\triagens\\ArangoDb\\ValueValidator -->
<g id="node3" class="node"><title>\\triagens\\ArangoDb\\ValueValidator</title>
<a xlink:href="ValueValidator.html" xlink:title="ValueValidator" target="_parent">
<polygon fill="none" stroke="black" points="519,-1558 409,-1558 409,-1522 519,-1522 519,-1558"/>
<text text-anchor="middle" x="464" y="-1537.1" font-family="Courier,monospace" font-size="11.00">ValueValidator</text>
</a>
</g>
<!-- \\triagens\\ArangoDb\\Batch -->
<g id="node4" class="node"><title>\\triagens\\ArangoDb\\Batch</title>
<a xlink:href="Batch.html" xlink:title="Batch" target="_parent">
<polygon fill="none" stroke="black" points="491,-1504 437,-1504 437,-1468 491,-1468 491,-1504"/>
<text text-anchor="middle" x="464" y="-1483.1" font-family="Courier,monospace" font-size="11.00">Batch</text>
</a>
</g>
<!-- \\triagens\\ArangoDb\\Vertex -->
<g id="node5" class="node"><title>\\triagens\\ArangoDb\\Vertex</title>
<a xlink:href="Vertex.html" xlink:title="Vertex" target="_parent">
<polygon fill="none" stroke="black" points="492,-1018 436,-1018 436,-982 492,-982 492,-1018"/>
<text text-anchor="middle" x="464" y="-997.1" font-family="Courier,monospace" font-size="11.00">Vertex</text>
</a>
</g>
<!-- \\triagens\\ArangoDb\\Document -->
<g id="node26" class="node"><title>\\triagens\\ArangoDb\\Document</title>
<a xlink:href="Document.html" xlink:title="Document" target="_parent">
<polygon fill="none" stroke="black" points="294,-964 224,-964 224,-928 294,-928 294,-964"/>
<text text-anchor="middle" x="259" y="-943.1" font-family="Courier,monospace" font-size="11.00">Document</text>
</a>
</g>
<!-- \\triagens\\ArangoDb\\Vertex&#45;&gt;\\triagens\\ArangoDb\\Document -->
<g id="edge4" class="edge"><title>\\triagens\\ArangoDb\\Vertex&#45;&gt;\\triagens\\ArangoDb\\Document</title>
<path fill="none" stroke="black" d="M435.496,-992.492C401.621,-983.568 344.658,-968.564 304.628,-958.019"/>
<polygon fill="none" stroke="black" points="305.402,-954.604 294.84,-955.441 303.619,-961.373 305.402,-954.604"/>
</g>
<!-- \\triagens\\ArangoDb\\Exception -->
<g id="node6" class="node"><title>\\triagens\\ArangoDb\\Exception</title>
<a xlink:href="Exception.html" xlink:title="Exception" target="_parent">
<polygon fill="none" stroke="black" points="297,-397 221,-397 221,-361 297,-361 297,-397"/>
<text text-anchor="middle" x="259" y="-376.1" font-family="Courier,monospace" font-size="11.00">Exception</text>
</a>
</g>
<!-- \\Exception -->
<g id="node37" class="node"><title>\\Exception</title>
<ellipse fill="none" stroke="black" cx="67" cy="-75" rx="53.033" ry="19.0919"/>
<text text-anchor="middle" x="67" y="-71.9" font-family="Times Roman,serif" font-size="14.00" fill="gray">\Exception</text>
</g>
<!-- \\triagens\\ArangoDb\\Exception&#45;&gt;\\Exception -->
<g id="edge6" class="edge"><title>\\triagens\\ArangoDb\\Exception&#45;&gt;\\Exception</title>
<path fill="none" stroke="black" d="M220.311,-373.149C209.958,-369.9 199.557,-364.849 192,-357 111.507,-273.396 191.196,-197.65 120,-106 117.01,-102.151 113.398,-98.6886 109.481,-95.5967"/>
<polygon fill="none" stroke="black" points="111.32,-92.6121 101.114,-89.7662 107.318,-98.3551 111.32,-92.6121"/>
</g>
<!-- \\triagens\\ArangoDb\\BindVars -->
<g id="node7" class="node"><title>\\triagens\\ArangoDb\\BindVars</title>
<a xlink:href="BindVars.html" xlink:title="BindVars" target="_parent">
<polygon fill="none" stroke="black" points="499,-1396 429,-1396 429,-1360 499,-1360 499,-1396"/>
<text text-anchor="middle" x="464" y="-1375.1" font-family="Courier,monospace" font-size="11.00">BindVars</text>
</a>
</g>
<!-- \\triagens\\ArangoDb\\Scope -->
<g id="node8" class="node"><title>\\triagens\\ArangoDb\\Scope</title>
<a xlink:href="Scope.html" xlink:title="Scope" target="_parent">
<polygon fill="none" stroke="black" points="491,-1342 437,-1342 437,-1306 491,-1306 491,-1342"/>
<text text-anchor="middle" x="464" y="-1321.1" font-family="Courier,monospace" font-size="11.00">Scope</text>
</a>
</g>
<!-- \\triagens\\ArangoDb\\ConnectionOptions -->
<g id="node9" class="node"><title>\\triagens\\ArangoDb\\ConnectionOptions</title>
<a xlink:href="ConnectionOptions.html" xlink:title="ConnectionOptions" target="_parent">
<polygon fill="none" stroke="black" points="529,-208 399,-208 399,-172 529,-172 529,-208"/>
<text text-anchor="middle" x="464" y="-187.1" font-family="Courier,monospace" font-size="11.00">ConnectionOptions</text>
</a>
</g>
<!-- \\ArrayAccess -->
<g id="node49" class="node"><title>\\ArrayAccess</title>
<ellipse fill="none" stroke="black" cx="259" cy="-75" rx="65.9683" ry="19.0919"/>
<text text-anchor="middle" x="259" y="-71.9" font-family="Times Roman,serif" font-size="14.00" fill="gray">\\ArrayAccess</text>
</g>
<!-- \\triagens\\ArangoDb\\ConnectionOptions&#45;&gt;\\ArrayAccess -->
<g id="edge28" class="edge"><title>\\triagens\\ArangoDb\\ConnectionOptions&#45;&gt;\\ArrayAccess</title>
<path fill="none" stroke="black" stroke-dasharray="1,5" d="M415.301,-171.917C409.349,-169.175 403.451,-166.186 398,-163 362.764,-142.403 360.763,-127.385 326,-106 319.771,-102.168 312.99,-98.5041 306.212,-95.1237"/>
<polygon fill="none" stroke="black" points="307.553,-91.8848 297.025,-90.7007 304.517,-98.192 307.553,-91.8848"/>
</g>
<!-- \\triagens\\ArangoDb\\Statement -->
<g id="node10" class="node"><title>\\triagens\\ArangoDb\\Statement</title>
<a xlink:href="Statement.html" xlink:title="Statement" target="_parent">
<polygon fill="none" stroke="black" points="502,-1234 426,-1234 426,-1198 502,-1198 502,-1234"/>
<text text-anchor="middle" x="464" y="-1213.1" font-family="Courier,monospace" font-size="11.00">Statement</text>
</a>
</g>
<!-- \\triagens\\ArangoDb\\DocumentHandler -->
<g id="node11" class="node"><title>\\triagens\\ArangoDb\\DocumentHandler</title>
<a xlink:href="DocumentHandler.html" xlink:title="DocumentHandler" target="_parent">
<polygon fill="none" stroke="black" points="318,-1288 200,-1288 200,-1252 318,-1252 318,-1288"/>
<text text-anchor="middle" x="259" y="-1267.1" font-family="Courier,monospace" font-size="11.00">DocumentHandler</text>
</a>
</g>
<!-- \\triagens\\ArangoDb\\Handler -->
<g id="node28" class="node"><title>\\triagens\\ArangoDb\\Handler</title>
<a xlink:href="Handler.html" xlink:title="«abstract»&lt;br/&gt;Handler" target="_parent">
<polygon fill="none" stroke="black" points="109,-1315 25,-1315 25,-1279 109,-1279 109,-1315"/>
<text text-anchor="start" x="33" y="-1302.43" font-family="Courier,monospace" font-size="11.00">«abstract»</text>
<text text-anchor="start" x="43" y="-1289.23" font-family="Courier,monospace" font-size="11.00">Handler</text>
</a>
</g>
<!-- \\triagens\\ArangoDb\\DocumentHandler&#45;&gt;\\triagens\\ArangoDb\\Handler -->
<g id="edge8" class="edge"><title>\\triagens\\ArangoDb\\DocumentHandler&#45;&gt;\\triagens\\ArangoDb\\Handler</title>
<path fill="none" stroke="black" d="M199.827,-1278.32C174.164,-1281.93 144.363,-1286.12 119.499,-1289.62"/>
<polygon fill="none" stroke="black" points="118.941,-1286.16 109.526,-1291.02 119.916,-1293.09 118.941,-1286.16"/>
</g>
<!-- \\triagens\\ArangoDb\\Connection -->
<g id="node12" class="node"><title>\\triagens\\ArangoDb\\Connection</title>
<a xlink:href="Connection.html" xlink:title="Connection" target="_parent">
<polygon fill="none" stroke="black" points="506,-1180 422,-1180 422,-1144 506,-1144 506,-1180"/>
<text text-anchor="middle" x="464" y="-1159.1" font-family="Courier,monospace" font-size="11.00">Connection</text>
</a>
</g>
<!-- \\triagens\\ArangoDb\\DefaultValues -->
<g id="node13" class="node"><title>\\triagens\\ArangoDb\\DefaultValues</title>
<a xlink:href="DefaultValues.html" xlink:title="«abstract»&lt;br/&gt;DefaultValues" target="_parent">
<polygon fill="none" stroke="black" points="516,-1126 412,-1126 412,-1090 516,-1090 516,-1126"/>
<text text-anchor="start" x="430" y="-1113.43" font-family="Courier,monospace" font-size="11.00">«abstract»</text>
<text text-anchor="start" x="420" y="-1100.23" font-family="Courier,monospace" font-size="11.00">DefaultValues</text>
</a>
</g>
<!-- \\triagens\\ArangoDb\\ConnectException -->
<g id="node14" class="node"><title>\\triagens\\ArangoDb\\ConnectException</title>
<a xlink:href="ConnectException.html" xlink:title="ConnectException" target="_parent">
<polygon fill="none" stroke="black" points="526,-424 402,-424 402,-388 526,-388 526,-424"/>
<text text-anchor="middle" x="464" y="-403.1" font-family="Courier,monospace" font-size="11.00">ConnectException</text>
</a>
</g>
<!-- \\triagens\\ArangoDb\\ConnectException&#45;&gt;\\triagens\\ArangoDb\\Exception -->
<g id="edge10" class="edge"><title>\\triagens\\ArangoDb\\ConnectException&#45;&gt;\\triagens\\ArangoDb\\Exception</title>
<path fill="none" stroke="black" d="M401.379,-397.752C371.282,-393.788 335.75,-389.109 307.711,-385.416"/>
<polygon fill="none" stroke="black" points="308.115,-381.939 297.743,-384.103 307.201,-388.879 308.115,-381.939"/>
</g>
<!-- \\triagens\\ArangoDb\\ClientException -->
<g id="node15" class="node"><title>\\triagens\\ArangoDb\\ClientException</title>
<a xlink:href="ClientException.html" xlink:title="ClientException" target="_parent">
<polygon fill="none" stroke="black" points="523,-370 405,-370 405,-334 523,-334 523,-370"/>
<text text-anchor="middle" x="464" y="-349.1" font-family="Courier,monospace" font-size="11.00">ClientException</text>
</a>
</g>
<!-- \\triagens\\ArangoDb\\ClientException&#45;&gt;\\triagens\\ArangoDb\\Exception -->
<g id="edge12" class="edge"><title>\\triagens\\ArangoDb\\ClientException&#45;&gt;\\triagens\\ArangoDb\\Exception</title>
<path fill="none" stroke="black" d="M404.981,-359.773C374.085,-363.843 336.719,-368.764 307.526,-372.609"/>
<polygon fill="none" stroke="black" points="307.022,-369.145 297.565,-373.921 307.936,-376.085 307.022,-369.145"/>
</g>
<!-- \\triagens\\ArangoDb\\ServerException -->
<g id="node16" class="node"><title>\\triagens\\ArangoDb\\ServerException</title>
<a xlink:href="ServerException.html" xlink:title="ServerException" target="_parent">
<polygon fill="none" stroke="black" points="523,-532 405,-532 405,-496 523,-496 523,-532"/>
<text text-anchor="middle" x="464" y="-511.1" font-family="Courier,monospace" font-size="11.00">ServerException</text>
</a>
</g>
<!-- \\triagens\\ArangoDb\\ServerException&#45;&gt;\\triagens\\ArangoDb\\Exception -->
<g id="edge14" class="edge"><title>\\triagens\\ArangoDb\\ServerException&#45;&gt;\\triagens\\ArangoDb\\Exception</title>
<path fill="none" stroke="black" d="M415.328,-495.87C409.372,-493.135 403.465,-490.161 398,-487 356.348,-462.906 313.349,-427.594 286.417,-403.978"/>
<polygon fill="none" stroke="black" points="288.735,-401.356 278.928,-397.348 284.096,-406.597 288.735,-401.356"/>
</g>
<!-- \\triagens\\ArangoDb\\Graph -->
<g id="node17" class="node"><title>\\triagens\\ArangoDb\\Graph</title>
<a xlink:href="Graph.html" xlink:title="Graph" target="_parent">
<polygon fill="none" stroke="black" points="491,-964 437,-964 437,-928 491,-928 491,-964"/>
<text text-anchor="middle" x="464" y="-943.1" font-family="Courier,monospace" font-size="11.00">Graph</text>
</a>
</g>
<!-- \\triagens\\ArangoDb\\Graph&#45;&gt;\\triagens\\ArangoDb\\Document -->
<g id="edge16" class="edge"><title>\\triagens\\ArangoDb\\Graph&#45;&gt;\\triagens\\ArangoDb\\Document</title>
<path fill="none" stroke="black" d="M436.778,-946C403.113,-946 345.303,-946 304.771,-946"/>
<polygon fill="none" stroke="black" points="304.606,-942.5 294.606,-946 304.606,-949.5 304.606,-942.5"/>
</g>
<!-- \\triagens\\ArangoDb\\HttpResponse -->
<g id="node18" class="node"><title>\\triagens\\ArangoDb\\HttpResponse</title>
<a xlink:href="HttpResponse.html" xlink:title="HttpResponse" target="_parent">
<polygon fill="none" stroke="black" points="513,-856 415,-856 415,-820 513,-820 513,-856"/>
<text text-anchor="middle" x="464" y="-835.1" font-family="Courier,monospace" font-size="11.00">HttpResponse</text>
</a>
</g>
<!-- \\triagens\\ArangoDb\\BatchPart -->
<g id="node19" class="node"><title>\\triagens\\ArangoDb\\BatchPart</title>
<a xlink:href="BatchPart.html" xlink:title="BatchPart" target="_parent">
<polygon fill="none" stroke="black" points="502,-802 426,-802 426,-766 502,-766 502,-802"/>
<text text-anchor="middle" x="464" y="-781.1" font-family="Courier,monospace" font-size="11.00">BatchPart</text>
</a>
</g>
<!-- \\triagens\\ArangoDb\\UpdatePolicy -->
<g id="node20" class="node"><title>\\triagens\\ArangoDb\\UpdatePolicy</title>
<a xlink:href="UpdatePolicy.html" xlink:title="UpdatePolicy" target="_parent">
<polygon fill="none" stroke="black" points="513,-748 415,-748 415,-712 513,-712 513,-748"/>
<text text-anchor="middle" x="464" y="-727.1" font-family="Courier,monospace" font-size="11.00">UpdatePolicy</text>
</a>
</g>
<!-- \\triagens\\ArangoDb\\CollectionHandler -->
<g id="node21" class="node"><title>\\triagens\\ArangoDb\\CollectionHandler</title>
<a xlink:href="CollectionHandler.html" xlink:title="CollectionHandler" target="_parent">
<polygon fill="none" stroke="black" points="324,-1342 194,-1342 194,-1306 324,-1306 324,-1342"/>
<text text-anchor="middle" x="259" y="-1321.1" font-family="Courier,monospace" font-size="11.00">CollectionHandler</text>
</a>
</g>
<!-- \\triagens\\ArangoDb\\CollectionHandler&#45;&gt;\\triagens\\ArangoDb\\Handler -->
<g id="edge18" class="edge"><title>\\triagens\\ArangoDb\\CollectionHandler&#45;&gt;\\triagens\\ArangoDb\\Handler</title>
<path fill="none" stroke="black" d="M193.461,-1314.78C169.439,-1311.41 142.577,-1307.63 119.81,-1304.43"/>
<polygon fill="none" stroke="black" points="120.052,-1300.93 109.662,-1303 119.077,-1307.86 120.052,-1300.93"/>
</g>
<!-- \\triagens\\ArangoDb\\Endpoint -->
<g id="node22" class="node"><title>\\triagens\\ArangoDb\\Endpoint</title>
<a xlink:href="Endpoint.html" xlink:title="Endpoint" target="_parent">
<polygon fill="none" stroke="black" points="499,-694 429,-694 429,-658 499,-658 499,-694"/>
<text text-anchor="middle" x="464" y="-673.1" font-family="Courier,monospace" font-size="11.00">Endpoint</text>
</a>
</g>
<!-- \\triagens\\ArangoDb\\Collection -->
<g id="node23" class="node"><title>\\triagens\\ArangoDb\\Collection</title>
<a xlink:href="Collection.html" xlink:title="Collection" target="_parent">
<polygon fill="none" stroke="black" points="506,-640 422,-640 422,-604 506,-604 506,-640"/>
<text text-anchor="middle" x="464" y="-619.1" font-family="Courier,monospace" font-size="11.00">Collection</text>
</a>
</g>
<!-- \\triagens\\ArangoDb\\HttpHelper -->
<g id="node24" class="node"><title>\\triagens\\ArangoDb\\HttpHelper</title>
<a xlink:href="HttpHelper.html" xlink:title="HttpHelper" target="_parent">
<polygon fill="none" stroke="black" points="506,-586 422,-586 422,-550 506,-550 506,-586"/>
<text text-anchor="middle" x="464" y="-565.1" font-family="Courier,monospace" font-size="11.00">HttpHelper</text>
</a>
</g>
<!-- \\triagens\\ArangoDb\\VertexHandler -->
<g id="node25" class="node"><title>\\triagens\\ArangoDb\\VertexHandler</title>
<a xlink:href="VertexHandler.html" xlink:title="VertexHandler" target="_parent">
<polygon fill="none" stroke="black" points="516,-1450 412,-1450 412,-1414 516,-1414 516,-1450"/>
<text text-anchor="middle" x="464" y="-1429.1" font-family="Courier,monospace" font-size="11.00">VertexHandler</text>
</a>
</g>
<!-- \\triagens\\ArangoDb\\VertexHandler&#45;&gt;\\triagens\\ArangoDb\\DocumentHandler -->
<g id="edge20" class="edge"><title>\\triagens\\ArangoDb\\VertexHandler&#45;&gt;\\triagens\\ArangoDb\\DocumentHandler</title>
<path fill="none" stroke="black" d="M411.854,-1414.21C406.933,-1411.51 402.217,-1408.45 398,-1405 353.345,-1368.48 370.751,-1333.41 326,-1297 324.468,-1295.75 322.871,-1294.56 321.222,-1293.41"/>
<polygon fill="none" stroke="black" points="322.962,-1290.37 312.616,-1288.09 319.28,-1296.33 322.962,-1290.37"/>
</g>
<!-- \\triagens\\ArangoDb\\URLHelper -->
<g id="node27" class="node"><title>\\triagens\\ArangoDb\\URLHelper</title>
<a xlink:href="UrlHelper.html" xlink:title="«abstract»&lt;br/&gt;URLHelper" target="_parent">
<polygon fill="none" stroke="black" points="506,-478 422,-478 422,-442 506,-442 506,-478"/>
<text text-anchor="start" x="430" y="-465.433" font-family="Courier,monospace" font-size="11.00">«abstract»</text>
<text text-anchor="start" x="433.5" y="-452.233" font-family="Courier,monospace" font-size="11.00">URLHelper</text>
</a>
</g>
<!-- \\triagens\\ArangoDb\\Edge -->
<g id="node29" class="node"><title>\\triagens\\ArangoDb\\Edge</title>
<a xlink:href="Edge.html" xlink:title="Edge" target="_parent">
<polygon fill="none" stroke="black" points="491,-910 437,-910 437,-874 491,-874 491,-910"/>
<text text-anchor="middle" x="464" y="-889.1" font-family="Courier,monospace" font-size="11.00">Edge</text>
</a>
</g>
<!-- \\triagens\\ArangoDb\\Edge&#45;&gt;\\triagens\\ArangoDb\\Document -->
<g id="edge22" class="edge"><title>\\triagens\\ArangoDb\\Edge&#45;&gt;\\triagens\\ArangoDb\\Document</title>
<path fill="none" stroke="black" d="M436.778,-899.171C403.041,-908.057 345.058,-923.331 304.513,-934.011"/>
<polygon fill="none" stroke="black" points="303.384,-930.689 294.606,-936.621 305.168,-937.458 303.384,-930.689"/>
</g>
<!-- \\triagens\\ArangoDb\\EdgeHandler -->
<g id="node30" class="node"><title>\\triagens\\ArangoDb\\EdgeHandler</title>
<a xlink:href="EdgeHandler.html" xlink:title="EdgeHandler" target="_parent">
<polygon fill="none" stroke="black" points="509,-1288 419,-1288 419,-1252 509,-1252 509,-1288"/>
<text text-anchor="middle" x="464" y="-1267.1" font-family="Courier,monospace" font-size="11.00">EdgeHandler</text>
</a>
</g>
<!-- \\triagens\\ArangoDb\\EdgeHandler&#45;&gt;\\triagens\\ArangoDb\\DocumentHandler -->
<g id="edge24" class="edge"><title>\\triagens\\ArangoDb\\EdgeHandler&#45;&gt;\\triagens\\ArangoDb\\DocumentHandler</title>
<path fill="none" stroke="black" d="M418.249,-1270C391.86,-1270 358.142,-1270 328.532,-1270"/>
<polygon fill="none" stroke="black" points="328.248,-1266.5 318.248,-1270 328.248,-1273.5 328.248,-1266.5"/>
</g>
<!-- \\triagens\\ArangoDb\\Autoloader -->
<g id="node31" class="node"><title>\\triagens\\ArangoDb\\Autoloader</title>
<a xlink:href="Autoloader.html" xlink:title="Autoloader" target="_parent">
<polygon fill="none" stroke="black" points="506,-316 422,-316 422,-280 506,-280 506,-316"/>
<text text-anchor="middle" x="464" y="-295.1" font-family="Courier,monospace" font-size="11.00">Autoloader</text>
</a>
</g>
<!-- \\triagens\\ArangoDb\\URLs -->
<g id="node32" class="node"><title>\\triagens\\ArangoDb\\URLs</title>
<a xlink:href="Urls.html" xlink:title="«abstract»&lt;br/&gt;URLs" target="_parent">
<polygon fill="none" stroke="black" points="506,-262 422,-262 422,-226 506,-226 506,-262"/>
<text text-anchor="start" x="430" y="-249.433" font-family="Courier,monospace" font-size="11.00">«abstract»</text>
<text text-anchor="start" x="450" y="-236.233" font-family="Courier,monospace" font-size="11.00">URLs</text>
</a>
</g>
<!-- \\triagens\\ArangoDb\\Cursor -->
<g id="node33" class="node"><title>\\triagens\\ArangoDb\\Cursor</title>
<a xlink:href="Cursor.html" xlink:title="Cursor" target="_parent">
<polygon fill="none" stroke="black" points="492,-154 436,-154 436,-118 492,-118 492,-154"/>
<text text-anchor="middle" x="464" y="-133.1" font-family="Courier,monospace" font-size="11.00">Cursor</text>
</a>
</g>
<!-- \\Iterator -->
<g id="node51" class="node"><title>\\Iterator</title>
<ellipse fill="none" stroke="black" cx="259" cy="-19" rx="44.7575" ry="19.0919"/>
<text text-anchor="middle" x="259" y="-15.9" font-family="Times Roman,serif" font-size="14.00" fill="gray">\\Iterator</text>
</g>
<!-- \\triagens\\ArangoDb\\Cursor&#45;&gt;\\Iterator -->
<g id="edge30" class="edge"><title>\\triagens\\ArangoDb\\Cursor&#45;&gt;\\Iterator</title>
<path fill="none" stroke="black" stroke-dasharray="1,5" d="M438.878,-117.863C411.826,-98.8019 367.125,-68.6366 326,-47 318.462,-43.0342 310.236,-39.2114 302.211,-35.7323"/>
<polygon fill="none" stroke="black" points="303.509,-32.4812 292.935,-31.8182 300.787,-38.9306 303.509,-32.4812"/>
</g>
<!-- \\triagens\\ArangoDb\\GraphHandler -->
<g id="node34" class="node"><title>\\triagens\\ArangoDb\\GraphHandler</title>
<a xlink:href="GraphHandler.html" xlink:title="GraphHandler" target="_parent">
<polygon fill="none" stroke="black" points="513,-1072 415,-1072 415,-1036 513,-1036 513,-1072"/>
<text text-anchor="middle" x="464" y="-1051.1" font-family="Courier,monospace" font-size="11.00">GraphHandler</text>
</a>
</g>
<!-- \\triagens\\ArangoDb\\GraphHandler&#45;&gt;\\triagens\\ArangoDb\\DocumentHandler -->
<g id="edge26" class="edge"><title>\\triagens\\ArangoDb\\GraphHandler&#45;&gt;\\triagens\\ArangoDb\\DocumentHandler</title>
<path fill="none" stroke="black" d="M414.733,-1070.57C408.813,-1073.58 403.076,-1077.04 398,-1081 339.727,-1126.46 294.228,-1202.43 272.672,-1242.82"/>
<polygon fill="none" stroke="black" points="269.5,-1241.33 267.954,-1251.81 275.699,-1244.58 269.5,-1241.33"/>
</g>
</g>
</svg>
