<?xml version="1.0" encoding="UTF-8" standalone="no"?>
<!DOCTYPE svg PUBLIC "-//W3C//DTD SVG 1.1//EN"
 "http://www.w3.org/Graphics/SVG/1.1/DTD/svg11.dtd">
<!-- Generated by graphviz version 2.26.3 (20100126.1600)
 -->
<!-- Title: G Pages: 1 -->
<svg width="548pt" height="1366pt"
 viewBox="0.00 0.00 548.00 1366.00" xmlns="http://www.w3.org/2000/svg" xmlns:xlink="http://www.w3.org/1999/xlink">
<g id="graph1" class="graph" transform="scale(1 1) rotate(0) translate(4 1362)">
<title>G</title>
<polygon fill="white" stroke="white" points="-4,5 -4,-1362 545,-1362 545,5 -4,5"/>
<g id="graph2" class="cluster"><title>cluster_triagens</title>
<polyline fill="none" stroke="gray" points="198,-102 520,-102 "/>
<path fill="none" stroke="gray" d="M520,-102C526,-102 532,-108 532,-114"/>
<polyline fill="none" stroke="gray" points="532,-114 532,-1338 "/>
<path fill="none" stroke="gray" d="M532,-1338C532,-1344 526,-1350 520,-1350"/>
<polyline fill="none" stroke="gray" points="520,-1350 198,-1350 "/>
<path fill="none" stroke="gray" d="M198,-1350C192,-1350 186,-1344 186,-1338"/>
<polyline fill="none" stroke="gray" points="186,-1338 186,-114 "/>
<path fill="none" stroke="gray" d="M186,-114C186,-108 192,-102 198,-102"/>
<text text-anchor="middle" x="359" y="-1336.1" font-family="Times Roman,serif" font-size="11.00" fill="gray">triagens</text>
</g>
<g id="graph3" class="cluster"><title>cluster_triagens\ArangoDb</title>
<polyline fill="none" stroke="gray" points="206,-110 512,-110 "/>
<path fill="none" stroke="gray" d="M512,-110C518,-110 524,-116 524,-122"/>
<polyline fill="none" stroke="gray" points="524,-122 524,-1307 "/>
<path fill="none" stroke="gray" d="M524,-1307C524,-1313 518,-1319 512,-1319"/>
<polyline fill="none" stroke="gray" points="512,-1319 206,-1319 "/>
<path fill="none" stroke="gray" d="M206,-1319C200,-1319 194,-1313 194,-1307"/>
<polyline fill="none" stroke="gray" points="194,-1307 194,-122 "/>
<path fill="none" stroke="gray" d="M194,-122C194,-116 200,-110 206,-110"/>
<text text-anchor="middle" x="359" y="-1305.1" font-family="Times Roman,serif" font-size="11.00" fill="gray">ArangoDb</text>
</g>
<!-- \\triagens\\ArangoDb\\HttpHelper -->
<g id="node3" class="node"><title>\\triagens\\ArangoDb\\HttpHelper</title>
<a xlink:href="HttpHelper.html" xlink:title="HttpHelper" target="_parent">
<polygon fill="none" stroke="black" points="492,-1288 408,-1288 408,-1252 492,-1252 492,-1288"/>
<text text-anchor="middle" x="450" y="-1267.1" font-family="Courier,monospace" font-size="11.00">HttpHelper</text>
</a>
</g>
<!-- \\triagens\\ArangoDb\\Scope -->
<g id="node4" class="node"><title>\\triagens\\ArangoDb\\Scope</title>
<a xlink:href="Scope.html" xlink:title="Scope" target="_parent">
<polygon fill="none" stroke="black" points="477,-1234 423,-1234 423,-1198 477,-1198 477,-1234"/>
<text text-anchor="middle" x="450" y="-1213.1" font-family="Courier,monospace" font-size="11.00">Scope</text>
</a>
</g>
<!-- \\triagens\\ArangoDb\\Exception -->
<g id="node5" class="node"><title>\\triagens\\ArangoDb\\Exception</title>
<a xlink:href="Exception.html" xlink:title="Exception" target="_parent">
<polygon fill="none" stroke="black" points="283,-532 207,-532 207,-496 283,-496 283,-532"/>
<text text-anchor="middle" x="245" y="-511.1" font-family="Courier,monospace" font-size="11.00">Exception</text>
</a>
</g>
<!-- \\Exception -->
<g id="node28" class="node"><title>\\Exception</title>
<ellipse fill="none" stroke="black" cx="53" cy="-514" rx="53.033" ry="19.0919"/>
<text text-anchor="middle" x="53" y="-510.9" font-family="Times Roman,serif" font-size="14.00" fill="gray">\Exception</text>
</g>
<!-- \\triagens\\ArangoDb\\Exception&#45;&gt;\\Exception -->
<g id="edge4" class="edge"><title>\\triagens\\ArangoDb\\Exception&#45;&gt;\\Exception</title>
<path fill="none" stroke="black" d="M206.146,-514C180.465,-514 146.206,-514 116.602,-514"/>
<polygon fill="none" stroke="black" points="116.347,-510.5 106.347,-514 116.347,-517.5 116.347,-510.5"/>
</g>
<!-- \\triagens\\ArangoDb\\Autoloader -->
<g id="node6" class="node"><title>\\triagens\\ArangoDb\\Autoloader</title>
<a xlink:href="Autoloader.html" xlink:title="Autoloader" target="_parent">
<polygon fill="none" stroke="black" points="492,-1180 408,-1180 408,-1144 492,-1144 492,-1180"/>
<text text-anchor="middle" x="450" y="-1159.1" font-family="Courier,monospace" font-size="11.00">Autoloader</text>
</a>
</g>
<!-- \\triagens\\ArangoDb\\Collection -->
<g id="node7" class="node"><title>\\triagens\\ArangoDb\\Collection</title>
<a xlink:href="Collection.html" xlink:title="Collection" target="_parent">
<polygon fill="none" stroke="black" points="492,-1126 408,-1126 408,-1090 492,-1090 492,-1126"/>
<text text-anchor="middle" x="450" y="-1105.1" font-family="Courier,monospace" font-size="11.00">Collection</text>
</a>
</g>
<!-- \\triagens\\ArangoDb\\DefaultValues -->
<g id="node8" class="node"><title>\\triagens\\ArangoDb\\DefaultValues</title>
<a xlink:href="DefaultValues.html" xlink:title="«abstract»&lt;br/&gt;DefaultValues" target="_parent">
<polygon fill="none" stroke="black" points="502,-1072 398,-1072 398,-1036 502,-1036 502,-1072"/>
<text text-anchor="start" x="416" y="-1059.43" font-family="Courier,monospace" font-size="11.00">«abstract»</text>
<text text-anchor="start" x="406" y="-1046.23" font-family="Courier,monospace" font-size="11.00">DefaultValues</text>
</a>
</g>
<!-- \\triagens\\ArangoDb\\ServerException -->
<g id="node9" class="node"><title>\\triagens\\ArangoDb\\ServerException</title>
<a xlink:href="ServerException.html" xlink:title="ServerException" target="_parent">
<polygon fill="none" stroke="black" points="509,-370 391,-370 391,-334 509,-334 509,-370"/>
<text text-anchor="middle" x="450" y="-349.1" font-family="Courier,monospace" font-size="11.00">ServerException</text>
</a>
</g>
<!-- \\triagens\\ArangoDb\\ServerException&#45;&gt;\\triagens\\ArangoDb\\Exception -->
<g id="edge6" class="edge"><title>\\triagens\\ArangoDb\\ServerException&#45;&gt;\\triagens\\ArangoDb\\Exception</title>
<path fill="none" stroke="black" d="M397.112,-370.07C392.448,-372.7 387.991,-375.667 384,-379 338.297,-417.177 359.031,-455.471 312,-492 306.478,-496.289 300.086,-499.759 293.486,-502.562"/>
<polygon fill="none" stroke="black" points="291.882,-499.425 283.745,-506.21 294.337,-505.981 291.882,-499.425"/>
</g>
<!-- \\triagens\\ArangoDb\\Connection -->
<g id="node10" class="node"><title>\\triagens\\ArangoDb\\Connection</title>
<a xlink:href="Connection.html" xlink:title="Connection" target="_parent">
<polygon fill="none" stroke="black" points="492,-964 408,-964 408,-928 492,-928 492,-964"/>
<text text-anchor="middle" x="450" y="-943.1" font-family="Courier,monospace" font-size="11.00">Connection</text>
</a>
</g>
<!-- \\triagens\\ArangoDb\\UpdatePolicy -->
<g id="node11" class="node"><title>\\triagens\\ArangoDb\\UpdatePolicy</title>
<a xlink:href="UpdatePolicy.html" xlink:title="UpdatePolicy" target="_parent">
<polygon fill="none" stroke="black" points="499,-910 401,-910 401,-874 499,-874 499,-910"/>
<text text-anchor="middle" x="450" y="-889.1" font-family="Courier,monospace" font-size="11.00">UpdatePolicy</text>
</a>
</g>
<!-- \\triagens\\ArangoDb\\ValueValidator -->
<g id="node12" class="node"><title>\\triagens\\ArangoDb\\ValueValidator</title>
<a xlink:href="ValueValidator.html" xlink:title="ValueValidator" target="_parent">
<polygon fill="none" stroke="black" points="505,-856 395,-856 395,-820 505,-820 505,-856"/>
<text text-anchor="middle" x="450" y="-835.1" font-family="Courier,monospace" font-size="11.00">ValueValidator</text>
</a>
</g>
<!-- \\triagens\\ArangoDb\\CollectionHandler -->
<g id="node13" class="node"><title>\\triagens\\ArangoDb\\CollectionHandler</title>
<a xlink:href="CollectionHandler.html" xlink:title="CollectionHandler" target="_parent">
<polygon fill="none" stroke="black" points="515,-1018 385,-1018 385,-982 515,-982 515,-1018"/>
<text text-anchor="middle" x="450" y="-997.1" font-family="Courier,monospace" font-size="11.00">CollectionHandler</text>
</a>
</g>
<!-- \\triagens\\ArangoDb\\Handler -->
<g id="node15" class="node"><title>\\triagens\\ArangoDb\\Handler</title>
<a xlink:href="Handler.html" xlink:title="«abstract»&lt;br/&gt;Handler" target="_parent">
<polygon fill="none" stroke="black" points="287,-910 203,-910 203,-874 287,-874 287,-910"/>
<text text-anchor="start" x="211" y="-897.433" font-family="Courier,monospace" font-size="11.00">«abstract»</text>
<text text-anchor="start" x="221" y="-884.233" font-family="Courier,monospace" font-size="11.00">Handler</text>
</a>
</g>
<!-- \\triagens\\ArangoDb\\CollectionHandler&#45;&gt;\\triagens\\ArangoDb\\Handler -->
<g id="edge8" class="edge"><title>\\triagens\\ArangoDb\\CollectionHandler&#45;&gt;\\triagens\\ArangoDb\\Handler</title>
<path fill="none" stroke="black" d="M403.479,-981.923C396.874,-979.081 390.218,-976.065 384,-973 348.396,-955.45 309.484,-932.422 281.91,-915.407"/>
<polygon fill="none" stroke="black" points="283.717,-912.409 273.375,-910.109 280.025,-918.356 283.717,-912.409"/>
</g>
<!-- \\triagens\\ArangoDb\\URLHelper -->
<g id="node14" class="node"><title>\\triagens\\ArangoDb\\URLHelper</title>
<a xlink:href="UrlHelper.html" xlink:title="«abstract»&lt;br/&gt;URLHelper" target="_parent">
<polygon fill="none" stroke="black" points="492,-748 408,-748 408,-712 492,-712 492,-748"/>
<text text-anchor="start" x="416" y="-735.433" font-family="Courier,monospace" font-size="11.00">«abstract»</text>
<text text-anchor="start" x="419.5" y="-722.233" font-family="Courier,monospace" font-size="11.00">URLHelper</text>
</a>
</g>
<!-- \\triagens\\ArangoDb\\Endpoint -->
<g id="node16" class="node"><title>\\triagens\\ArangoDb\\Endpoint</title>
<a xlink:href="Endpoint.html" xlink:title="Endpoint" target="_parent">
<polygon fill="none" stroke="black" points="485,-694 415,-694 415,-658 485,-658 485,-694"/>
<text text-anchor="middle" x="450" y="-673.1" font-family="Courier,monospace" font-size="11.00">Endpoint</text>
</a>
</g>
<!-- \\triagens\\ArangoDb\\Statement -->
<g id="node17" class="node"><title>\\triagens\\ArangoDb\\Statement</title>
<a xlink:href="Statement.html" xlink:title="Statement" target="_parent">
<polygon fill="none" stroke="black" points="488,-640 412,-640 412,-604 488,-604 488,-640"/>
<text text-anchor="middle" x="450" y="-619.1" font-family="Courier,monospace" font-size="11.00">Statement</text>
</a>
</g>
<!-- \\triagens\\ArangoDb\\Cursor -->
<g id="node18" class="node"><title>\\triagens\\ArangoDb\\Cursor</title>
<a xlink:href="Cursor.html" xlink:title="Cursor" target="_parent">
<polygon fill="none" stroke="black" points="478,-316 422,-316 422,-280 478,-280 478,-316"/>
<text text-anchor="middle" x="450" y="-295.1" font-family="Courier,monospace" font-size="11.00">Cursor</text>
</a>
</g>
<!-- \\Iterator -->
<g id="node35" class="node"><title>\\Iterator</title>
<ellipse fill="none" stroke="black" cx="245" cy="-75" rx="44.7575" ry="19.0919"/>
<text text-anchor="middle" x="245" y="-71.9" font-family="Times Roman,serif" font-size="14.00" fill="gray">\\Iterator</text>
</g>
<!-- \\triagens\\ArangoDb\\Cursor&#45;&gt;\\Iterator -->
<g id="edge16" class="edge"><title>\\triagens\\ArangoDb\\Cursor&#45;&gt;\\Iterator</title>
<path fill="none" stroke="black" stroke-dasharray="1,5" d="M421.257,-291.506C408.536,-287.409 394.183,-280.95 384,-271 326.773,-215.082 367.954,-163.192 312,-106 306.009,-99.8761 298.578,-94.8368 290.869,-90.733"/>
<polygon fill="none" stroke="black" points="292.287,-87.5312 281.76,-86.3365 289.244,-93.8354 292.287,-87.5312"/>
</g>
<!-- \\triagens\\ArangoDb\\DocumentHandler -->
<g id="node19" class="node"><title>\\triagens\\ArangoDb\\DocumentHandler</title>
<a xlink:href="DocumentHandler.html" xlink:title="DocumentHandler" target="_parent">
<polygon fill="none" stroke="black" points="509,-802 391,-802 391,-766 509,-766 509,-802"/>
<text text-anchor="middle" x="450" y="-781.1" font-family="Courier,monospace" font-size="11.00">DocumentHandler</text>
</a>
</g>
<!-- \\triagens\\ArangoDb\\DocumentHandler&#45;&gt;\\triagens\\ArangoDb\\Handler -->
<g id="edge10" class="edge"><title>\\triagens\\ArangoDb\\DocumentHandler&#45;&gt;\\triagens\\ArangoDb\\Handler</title>
<path fill="none" stroke="black" d="M403.479,-802.077C396.874,-804.919 390.218,-807.935 384,-811 348.396,-828.55 309.484,-851.578 281.91,-868.593"/>
<polygon fill="none" stroke="black" points="280.025,-865.644 273.375,-873.891 283.717,-871.591 280.025,-865.644"/>
</g>
<!-- \\triagens\\ArangoDb\\BindVars -->
<g id="node20" class="node"><title>\\triagens\\ArangoDb\\BindVars</title>
<a xlink:href="BindVars.html" xlink:title="BindVars" target="_parent">
<polygon fill="none" stroke="black" points="485,-478 415,-478 415,-442 485,-442 485,-478"/>
<text text-anchor="middle" x="450" y="-457.1" font-family="Courier,monospace" font-size="11.00">BindVars</text>
</a>
</g>
<!-- \\triagens\\ArangoDb\\URLs -->
<g id="node21" class="node"><title>\\triagens\\ArangoDb\\URLs</title>
<a xlink:href="Urls.html" xlink:title="«abstract»&lt;br/&gt;URLs" target="_parent">
<polygon fill="none" stroke="black" points="492,-424 408,-424 408,-388 492,-388 492,-424"/>
<text text-anchor="start" x="416" y="-411.433" font-family="Courier,monospace" font-size="11.00">«abstract»</text>
<text text-anchor="start" x="436" y="-398.233" font-family="Courier,monospace" font-size="11.00">URLs</text>
</a>
</g>
<!-- \\triagens\\ArangoDb\\ConnectionOptions -->
<g id="node22" class="node"><title>\\triagens\\ArangoDb\\ConnectionOptions</title>
<a xlink:href="ConnectionOptions.html" xlink:title="ConnectionOptions" target="_parent">
<polygon fill="none" stroke="black" points="515,-208 385,-208 385,-172 515,-172 515,-208"/>
<text text-anchor="middle" x="450" y="-187.1" font-family="Courier,monospace" font-size="11.00">ConnectionOptions</text>
</a>
</g>
<!-- \\ArrayAccess -->
<g id="node37" class="node"><title>\\ArrayAccess</title>
<ellipse fill="none" stroke="black" cx="245" cy="-19" rx="65.9683" ry="19.0919"/>
<text text-anchor="middle" x="245" y="-15.9" font-family="Times Roman,serif" font-size="14.00" fill="gray">\\ArrayAccess</text>
</g>
<!-- \\triagens\\ArangoDb\\ConnectionOptions&#45;&gt;\\ArrayAccess -->
<g id="edge18" class="edge"><title>\\triagens\\ArangoDb\\ConnectionOptions&#45;&gt;\\ArrayAccess</title>
<path fill="none" stroke="black" stroke-dasharray="1,5" d="M397.071,-171.979C392.415,-169.339 387.971,-166.357 384,-163 337.661,-123.825 358.191,-86.3489 312,-47 308.023,-43.6124 303.579,-40.5879 298.922,-37.8976"/>
<polygon fill="none" stroke="black" points="300.257,-34.6467 289.771,-33.1285 297.021,-40.8542 300.257,-34.6467"/>
</g>
<!-- \\triagens\\ArangoDb\\ConnectException -->
<g id="node23" class="node"><title>\\triagens\\ArangoDb\\ConnectException</title>
<a xlink:href="ConnectException.html" xlink:title="ConnectException" target="_parent">
<polygon fill="none" stroke="black" points="512,-586 388,-586 388,-550 512,-550 512,-586"/>
<text text-anchor="middle" x="450" y="-565.1" font-family="Courier,monospace" font-size="11.00">ConnectException</text>
</a>
</g>
<!-- \\triagens\\ArangoDb\\ConnectException&#45;&gt;\\triagens\\ArangoDb\\Exception -->
<g id="edge12" class="edge"><title>\\triagens\\ArangoDb\\ConnectException&#45;&gt;\\triagens\\ArangoDb\\Exception</title>
<path fill="none" stroke="black" d="M387.379,-551.505C357.282,-543.577 321.75,-534.217 293.711,-526.831"/>
<polygon fill="none" stroke="black" points="294.305,-523.368 283.743,-524.206 292.522,-530.137 294.305,-523.368"/>
</g>
<!-- \\triagens\\ArangoDb\\Document -->
<g id="node24" class="node"><title>\\triagens\\ArangoDb\\Document</title>
<a xlink:href="Document.html" xlink:title="Document" target="_parent">
<polygon fill="none" stroke="black" points="485,-262 415,-262 415,-226 485,-226 485,-262"/>
<text text-anchor="middle" x="450" y="-241.1" font-family="Courier,monospace" font-size="11.00">Document</text>
</a>
</g>
<!-- \\triagens\\ArangoDb\\ClientException -->
<g id="node25" class="node"><title>\\triagens\\ArangoDb\\ClientException</title>
<a xlink:href="ClientException.html" xlink:title="ClientException" target="_parent">
<polygon fill="none" stroke="black" points="509,-532 391,-532 391,-496 509,-496 509,-532"/>
<text text-anchor="middle" x="450" y="-511.1" font-family="Courier,monospace" font-size="11.00">ClientException</text>
</a>
</g>
<!-- \\triagens\\ArangoDb\\ClientException&#45;&gt;\\triagens\\ArangoDb\\Exception -->
<g id="edge14" class="edge"><title>\\triagens\\ArangoDb\\ClientException&#45;&gt;\\triagens\\ArangoDb\\Exception</title>
<path fill="none" stroke="black" d="M390.981,-514C360.219,-514 323.045,-514 293.909,-514"/>
<polygon fill="none" stroke="black" points="293.565,-510.5 283.565,-514 293.565,-517.5 293.565,-510.5"/>
</g>
<!-- \\triagens\\ArangoDb\\HttpResponse -->
<g id="node26" class="node"><title>\\triagens\\ArangoDb\\HttpResponse</title>
<a xlink:href="HttpResponse.html" xlink:title="HttpResponse" target="_parent">
<polygon fill="none" stroke="black" points="499,-154 401,-154 401,-118 499,-118 499,-154"/>
<text text-anchor="middle" x="450" y="-133.1" font-family="Courier,monospace" font-size="11.00">HttpResponse</text>
</a>
</g>
</g>
</svg>
