<?xml version="1.0" encoding="UTF-8" standalone="no"?>
<!DOCTYPE svg PUBLIC "-//W3C//DTD SVG 1.1//EN"
 "http://www.w3.org/Graphics/SVG/1.1/DTD/svg11.dtd">
<!-- Generated by graphviz version 2.26.0 (20091210.2329)
 -->
<!-- Title: G Pages: 1 -->
<svg width="562pt" height="1636pt"
 viewBox="0.00 0.00 562.00 1636.00" xmlns="http://www.w3.org/2000/svg" xmlns:xlink="http://www.w3.org/1999/xlink">
<g id="graph1" class="graph" transform="scale(1 1) rotate(0) translate(4 1632)">
<title>G</title>
<polygon fill="white" stroke="white" points="-4,5 -4,-1632 559,-1632 559,5 -4,5"/>
<g id="graph2" class="cluster"><title>cluster_triagens</title>
<polyline fill="none" stroke="gray" points="20,-102 534,-102 "/>
<path fill="none" stroke="gray" d="M534,-102C540,-102 546,-108 546,-114"/>
<polyline fill="none" stroke="gray" points="546,-114 546,-1608 "/>
<path fill="none" stroke="gray" d="M546,-1608C546,-1614 540,-1620 534,-1620"/>
<polyline fill="none" stroke="gray" points="534,-1620 20,-1620 "/>
<path fill="none" stroke="gray" d="M20,-1620C14,-1620 8,-1614 8,-1608"/>
<polyline fill="none" stroke="gray" points="8,-1608 8,-114 "/>
<path fill="none" stroke="gray" d="M8,-114C8,-108 14,-102 20,-102"/>
<text text-anchor="middle" x="277" y="-1606.1" font-family="Times Roman,serif" font-size="11.00" fill="gray">triagens</text>
</g>
<g id="graph3" class="cluster"><title>cluster_triagens\ArangoDb</title>
<polyline fill="none" stroke="gray" points="28,-110 526,-110 "/>
<path fill="none" stroke="gray" d="M526,-110C532,-110 538,-116 538,-122"/>
<polyline fill="none" stroke="gray" points="538,-122 538,-1577 "/>
<path fill="none" stroke="gray" d="M538,-1577C538,-1583 532,-1589 526,-1589"/>
<polyline fill="none" stroke="gray" points="526,-1589 28,-1589 "/>
<path fill="none" stroke="gray" d="M28,-1589C22,-1589 16,-1583 16,-1577"/>
<polyline fill="none" stroke="gray" points="16,-1577 16,-122 "/>
<path fill="none" stroke="gray" d="M16,-122C16,-116 22,-110 28,-110"/>
<text text-anchor="middle" x="277" y="-1575.1" font-family="Times Roman,serif" font-size="11.00" fill="gray">ArangoDb</text>
</g>
<!-- \\triagens\\ArangoDb\\ValueValidator -->
<g id="node3" class="node"><title>\\triagens\\ArangoDb\\ValueValidator</title>
<a xlink:href="ValueValidator.html" xlink:title="ValueValidator" target="_parent">
<polygon fill="none" stroke="black" points="519,-1558 409,-1558 409,-1522 519,-1522 519,-1558"/>
<text text-anchor="middle" x="464" y="-1537.1" font-family="Courier,monospace" font-size="11.00">ValueValidator</text>
</a>
</g>
<!-- \\triagens\\ArangoDb\\Batch -->
<g id="node4" class="node"><title>\\triagens\\ArangoDb\\Batch</title>
<a xlink:href="Batch.html" xlink:title="Batch" target="_parent">
<polygon fill="none" stroke="black" points="491,-1504 437,-1504 437,-1468 491,-1468 491,-1504"/>
<text text-anchor="middle" x="464" y="-1483.1" font-family="Courier,monospace" font-size="11.00">Batch</text>
</a>
</g>
<!-- \\triagens\\ArangoDb\\Vertex -->
<g id="node5" class="node"><title>\\triagens\\ArangoDb\\Vertex</title>
<a xlink:href="Vertex.html" xlink:title="Vertex" target="_parent">
<polygon fill="none" stroke="black" points="492,-1018 436,-1018 436,-982 492,-982 492,-1018"/>
<text text-anchor="middle" x="464" y="-997.1" font-family="Courier,monospace" font-size="11.00">Vertex</text>
</a>
</g>
<!-- \\triagens\\ArangoDb\\Document -->
<g id="node27" class="node"><title>\\triagens\\ArangoDb\\Document</title>
<a xlink:href="Document.html" xlink:title="Document" target="_parent">
<polygon fill="none" stroke="black" points="294,-1072 224,-1072 224,-1036 294,-1036 294,-1072"/>
<text text-anchor="middle" x="259" y="-1051.1" font-family="Courier,monospace" font-size="11.00">Document</text>
</a>
</g>
<!-- \\triagens\\ArangoDb\\Vertex&#45;&gt;\\triagens\\ArangoDb\\Document -->
<g id="edge4" class="edge"><title>\\triagens\\ArangoDb\\Vertex&#45;&gt;\\triagens\\ArangoDb\\Document</title>
<path fill="none" stroke="black" d="M435.496,-1007.51C401.621,-1016.43 344.658,-1031.44 304.628,-1041.98"/>
<polygon fill="none" stroke="black" points="303.619,-1038.63 294.84,-1044.56 305.402,-1045.4 303.619,-1038.63"/>
</g>
<!-- \\triagens\\ArangoDb\\Exception -->
<g id="node6" class="node"><title>\\triagens\\ArangoDb\\Exception</title>
<a xlink:href="Exception.html" xlink:title="Exception" target="_parent">
<polygon fill="none" stroke="black" points="297,-397 221,-397 221,-361 297,-361 297,-397"/>
<text text-anchor="middle" x="259" y="-376.1" font-family="Courier,monospace" font-size="11.00">Exception</text>
</a>
</g>
<!-- \\Exception -->
<g id="node40" class="node"><title>\\Exception</title>
<ellipse fill="none" stroke="black" cx="67" cy="-75" rx="53.033" ry="19.0919"/>
<text text-anchor="middle" x="67" y="-71.9" font-family="Times Roman,serif" font-size="14.00" fill="gray">\Exception</text>
</g>
<!-- \\triagens\\ArangoDb\\Exception&#45;&gt;\\Exception -->
<g id="edge6" class="edge"><title>\\triagens\\ArangoDb\\Exception&#45;&gt;\\Exception</title>
<path fill="none" stroke="black" d="M220.311,-373.149C209.958,-369.9 199.557,-364.849 192,-357 111.507,-273.396 191.196,-197.65 120,-106 117.01,-102.151 113.398,-98.6886 109.481,-95.5967"/>
<polygon fill="none" stroke="black" points="111.32,-92.6121 101.114,-89.7662 107.318,-98.3551 111.32,-92.6121"/>
</g>
<!-- \\triagens\\ArangoDb\\BindVars -->
<g id="node7" class="node"><title>\\triagens\\ArangoDb\\BindVars</title>
<a xlink:href="BindVars.html" xlink:title="BindVars" target="_parent">
<polygon fill="none" stroke="black" points="499,-1396 429,-1396 429,-1360 499,-1360 499,-1396"/>
<text text-anchor="middle" x="464" y="-1375.1" font-family="Courier,monospace" font-size="11.00">BindVars</text>
</a>
</g>
<!-- \\triagens\\ArangoDb\\Scope -->
<g id="node8" class="node"><title>\\triagens\\ArangoDb\\Scope</title>
<a xlink:href="Scope.html" xlink:title="Scope" target="_parent">
<polygon fill="none" stroke="black" points="491,-1342 437,-1342 437,-1306 491,-1306 491,-1342"/>
<text text-anchor="middle" x="464" y="-1321.1" font-family="Courier,monospace" font-size="11.00">Scope</text>
</a>
</g>
<!-- \\triagens\\ArangoDb\\ConnectionOptions -->
<g id="node9" class="node"><title>\\triagens\\ArangoDb\\ConnectionOptions</title>
<a xlink:href="ConnectionOptions.html" xlink:title="ConnectionOptions" target="_parent">
<polygon fill="none" stroke="black" points="529,-262 399,-262 399,-226 529,-226 529,-262"/>
<text text-anchor="middle" x="464" y="-241.1" font-family="Courier,monospace" font-size="11.00">ConnectionOptions</text>
</a>
</g>
<!-- \\ArrayAccess -->
<g id="node55" class="node"><title>\\ArrayAccess</title>
<ellipse fill="none" stroke="black" cx="259" cy="-75" rx="65.9683" ry="19.0919"/>
<text text-anchor="middle" x="259" y="-71.9" font-family="Times Roman,serif" font-size="14.00" fill="gray">\\ArrayAccess</text>
</g>
<!-- \\triagens\\ArangoDb\\ConnectionOptions&#45;&gt;\\ArrayAccess -->
<g id="edge34" class="edge"><title>\\triagens\\ArangoDb\\ConnectionOptions&#45;&gt;\\ArrayAccess</title>
<path fill="none" stroke="black" stroke-dasharray="1,5" d="M411.141,-225.896C406.471,-223.273 402.004,-220.317 398,-217 352.718,-179.486 370.426,-144.524 326,-106 321.171,-101.812 315.68,-98.0795 309.969,-94.7835"/>
<polygon fill="none" stroke="black" points="311.351,-91.5546 300.876,-89.961 308.071,-97.7386 311.351,-91.5546"/>
</g>
<!-- \\triagens\\ArangoDb\\Statement -->
<g id="node10" class="node"><title>\\triagens\\ArangoDb\\Statement</title>
<a xlink:href="Statement.html" xlink:title="Statement" target="_parent">
<polygon fill="none" stroke="black" points="502,-1234 426,-1234 426,-1198 502,-1198 502,-1234"/>
<text text-anchor="middle" x="464" y="-1213.1" font-family="Courier,monospace" font-size="11.00">Statement</text>
</a>
</g>
<!-- \\triagens\\ArangoDb\\DocumentHandler -->
<g id="node11" class="node"><title>\\triagens\\ArangoDb\\DocumentHandler</title>
<a xlink:href="DocumentHandler.html" xlink:title="DocumentHandler" target="_parent">
<polygon fill="none" stroke="black" points="318,-964 200,-964 200,-928 318,-928 318,-964"/>
<text text-anchor="middle" x="259" y="-943.1" font-family="Courier,monospace" font-size="11.00">DocumentHandler</text>
</a>
</g>
<!-- \\triagens\\ArangoDb\\Handler -->
<g id="node29" class="node"><title>\\triagens\\ArangoDb\\Handler</title>
<a xlink:href="Handler.html" xlink:title="«abstract»&lt;br/&gt;Handler" target="_parent">
<polygon fill="none" stroke="black" points="109,-1126 25,-1126 25,-1090 109,-1090 109,-1126"/>
<text text-anchor="start" x="33" y="-1113.43" font-family="Courier,monospace" font-size="11.00">«abstract»</text>
<text text-anchor="start" x="43" y="-1100.23" font-family="Courier,monospace" font-size="11.00">Handler</text>
</a>
</g>
<!-- \\triagens\\ArangoDb\\DocumentHandler&#45;&gt;\\triagens\\ArangoDb\\Handler -->
<g id="edge8" class="edge"><title>\\triagens\\ArangoDb\\DocumentHandler&#45;&gt;\\triagens\\ArangoDb\\Handler</title>
<path fill="none" stroke="black" d="M205.311,-964.002C200.577,-966.646 196.051,-969.634 192,-973 146.197,-1011.06 165.605,-1047.71 120,-1086 119.413,-1086.49 118.814,-1086.98 118.204,-1087.45"/>
<polygon fill="none" stroke="black" points="116.132,-1084.62 109.738,-1093.07 120.005,-1090.45 116.132,-1084.62"/>
</g>
<!-- \\triagens\\ArangoDb\\UserHandler -->
<g id="node12" class="node"><title>\\triagens\\ArangoDb\\UserHandler</title>
<a xlink:href="UserHandler.html" xlink:title="UserHandler" target="_parent">
<polygon fill="none" stroke="black" points="304,-1126 214,-1126 214,-1090 304,-1090 304,-1126"/>
<text text-anchor="middle" x="259" y="-1105.1" font-family="Courier,monospace" font-size="11.00">UserHandler</text>
</a>
</g>
<!-- \\triagens\\ArangoDb\\UserHandler&#45;&gt;\\triagens\\ArangoDb\\Handler -->
<g id="edge10" class="edge"><title>\\triagens\\ArangoDb\\UserHandler&#45;&gt;\\triagens\\ArangoDb\\Handler</title>
<path fill="none" stroke="black" d="M213.499,-1108C185.327,-1108 149.044,-1108 119.635,-1108"/>
<polygon fill="none" stroke="black" points="119.544,-1104.5 109.544,-1108 119.544,-1111.5 119.544,-1104.5"/>
</g>
<!-- \\triagens\\ArangoDb\\Connection -->
<g id="node13" class="node"><title>\\triagens\\ArangoDb\\Connection</title>
<a xlink:href="Connection.html" xlink:title="Connection" target="_parent">
<polygon fill="none" stroke="black" points="506,-1180 422,-1180 422,-1144 506,-1144 506,-1180"/>
<text text-anchor="middle" x="464" y="-1159.1" font-family="Courier,monospace" font-size="11.00">Connection</text>
</a>
</g>
<!-- \\triagens\\ArangoDb\\DefaultValues -->
<g id="node14" class="node"><title>\\triagens\\ArangoDb\\DefaultValues</title>
<a xlink:href="DefaultValues.html" xlink:title="«abstract»&lt;br/&gt;DefaultValues" target="_parent">
<polygon fill="none" stroke="black" points="516,-1126 412,-1126 412,-1090 516,-1090 516,-1126"/>
<text text-anchor="start" x="430" y="-1113.43" font-family="Courier,monospace" font-size="11.00">«abstract»</text>
<text text-anchor="start" x="420" y="-1100.23" font-family="Courier,monospace" font-size="11.00">DefaultValues</text>
</a>
</g>
<!-- \\triagens\\ArangoDb\\ConnectException -->
<g id="node15" class="node"><title>\\triagens\\ArangoDb\\ConnectException</title>
<a xlink:href="ConnectException.html" xlink:title="ConnectException" target="_parent">
<polygon fill="none" stroke="black" points="526,-424 402,-424 402,-388 526,-388 526,-424"/>
<text text-anchor="middle" x="464" y="-403.1" font-family="Courier,monospace" font-size="11.00">ConnectException</text>
</a>
</g>
<!-- \\triagens\\ArangoDb\\ConnectException&#45;&gt;\\triagens\\ArangoDb\\Exception -->
<g id="edge12" class="edge"><title>\\triagens\\ArangoDb\\ConnectException&#45;&gt;\\triagens\\ArangoDb\\Exception</title>
<path fill="none" stroke="black" d="M401.379,-397.752C371.282,-393.788 335.75,-389.109 307.711,-385.416"/>
<polygon fill="none" stroke="black" points="308.115,-381.939 297.743,-384.103 307.201,-388.879 308.115,-381.939"/>
</g>
<!-- \\triagens\\ArangoDb\\ClientException -->
<g id="node16" class="node"><title>\\triagens\\ArangoDb\\ClientException</title>
<a xlink:href="ClientException.html" xlink:title="ClientException" target="_parent">
<polygon fill="none" stroke="black" points="523,-370 405,-370 405,-334 523,-334 523,-370"/>
<text text-anchor="middle" x="464" y="-349.1" font-family="Courier,monospace" font-size="11.00">ClientException</text>
</a>
</g>
<!-- \\triagens\\ArangoDb\\ClientException&#45;&gt;\\triagens\\ArangoDb\\Exception -->
<g id="edge14" class="edge"><title>\\triagens\\ArangoDb\\ClientException&#45;&gt;\\triagens\\ArangoDb\\Exception</title>
<path fill="none" stroke="black" d="M404.981,-359.773C374.085,-363.843 336.719,-368.764 307.526,-372.609"/>
<polygon fill="none" stroke="black" points="307.022,-369.145 297.565,-373.921 307.936,-376.085 307.022,-369.145"/>
</g>
<!-- \\triagens\\ArangoDb\\ServerException -->
<g id="node17" class="node"><title>\\triagens\\ArangoDb\\ServerException</title>
<a xlink:href="ServerException.html" xlink:title="ServerException" target="_parent">
<polygon fill="none" stroke="black" points="523,-532 405,-532 405,-496 523,-496 523,-532"/>
<text text-anchor="middle" x="464" y="-511.1" font-family="Courier,monospace" font-size="11.00">ServerException</text>
</a>
</g>
<!-- \\triagens\\ArangoDb\\ServerException&#45;&gt;\\triagens\\ArangoDb\\Exception -->
<g id="edge16" class="edge"><title>\\triagens\\ArangoDb\\ServerException&#45;&gt;\\triagens\\ArangoDb\\Exception</title>
<path fill="none" stroke="black" d="M415.328,-495.87C409.372,-493.135 403.465,-490.161 398,-487 356.348,-462.906 313.349,-427.594 286.417,-403.978"/>
<polygon fill="none" stroke="black" points="288.735,-401.356 278.928,-397.348 284.096,-406.597 288.735,-401.356"/>
</g>
<!-- \\triagens\\ArangoDb\\Graph -->
<g id="node18" class="node"><title>\\triagens\\ArangoDb\\Graph</title>
<a xlink:href="Graph.html" xlink:title="Graph" target="_parent">
<polygon fill="none" stroke="black" points="491,-1450 437,-1450 437,-1414 491,-1414 491,-1450"/>
<text text-anchor="middle" x="464" y="-1429.1" font-family="Courier,monospace" font-size="11.00">Graph</text>
</a>
</g>
<!-- \\triagens\\ArangoDb\\Graph&#45;&gt;\\triagens\\ArangoDb\\Document -->
<g id="edge18" class="edge"><title>\\triagens\\ArangoDb\\Graph&#45;&gt;\\triagens\\ArangoDb\\Document</title>
<path fill="none" stroke="black" d="M436.685,-1427.04C423.182,-1423.22 407.737,-1416.55 398,-1405 302.905,-1292.23 421.39,-1193.52 326,-1081 320.167,-1074.12 312.322,-1068.97 304.057,-1065.13"/>
<polygon fill="none" stroke="black" points="305.214,-1061.82 294.631,-1061.32 302.592,-1068.31 305.214,-1061.82"/>
</g>
<!-- \\triagens\\ArangoDb\\HttpResponse -->
<g id="node19" class="node"><title>\\triagens\\ArangoDb\\HttpResponse</title>
<a xlink:href="HttpResponse.html" xlink:title="HttpResponse" target="_parent">
<polygon fill="none" stroke="black" points="513,-856 415,-856 415,-820 513,-820 513,-856"/>
<text text-anchor="middle" x="464" y="-835.1" font-family="Courier,monospace" font-size="11.00">HttpResponse</text>
</a>
</g>
<!-- \\triagens\\ArangoDb\\BatchPart -->
<g id="node20" class="node"><title>\\triagens\\ArangoDb\\BatchPart</title>
<a xlink:href="BatchPart.html" xlink:title="BatchPart" target="_parent">
<polygon fill="none" stroke="black" points="502,-802 426,-802 426,-766 502,-766 502,-802"/>
<text text-anchor="middle" x="464" y="-781.1" font-family="Courier,monospace" font-size="11.00">BatchPart</text>
</a>
</g>
<!-- \\triagens\\ArangoDb\\UpdatePolicy -->
<g id="node21" class="node"><title>\\triagens\\ArangoDb\\UpdatePolicy</title>
<a xlink:href="UpdatePolicy.html" xlink:title="UpdatePolicy" target="_parent">
<polygon fill="none" stroke="black" points="513,-748 415,-748 415,-712 513,-712 513,-748"/>
<text text-anchor="middle" x="464" y="-727.1" font-family="Courier,monospace" font-size="11.00">UpdatePolicy</text>
</a>
</g>
<!-- \\triagens\\ArangoDb\\CollectionHandler -->
<g id="node22" class="node"><title>\\triagens\\ArangoDb\\CollectionHandler</title>
<a xlink:href="CollectionHandler.html" xlink:title="CollectionHandler" target="_parent">
<polygon fill="none" stroke="black" points="324,-1018 194,-1018 194,-982 324,-982 324,-1018"/>
<text text-anchor="middle" x="259" y="-997.1" font-family="Courier,monospace" font-size="11.00">CollectionHandler</text>
</a>
</g>
<!-- \\triagens\\ArangoDb\\CollectionHandler&#45;&gt;\\triagens\\ArangoDb\\Handler -->
<g id="edge20" class="edge"><title>\\triagens\\ArangoDb\\CollectionHandler&#45;&gt;\\triagens\\ArangoDb\\Handler</title>
<path fill="none" stroke="black" d="M209.149,-1018.1C203.238,-1020.83 197.395,-1023.8 192,-1027 156.405,-1048.09 155.485,-1064.73 120,-1086 119.479,-1086.31 118.953,-1086.62 118.423,-1086.93"/>
<polygon fill="none" stroke="black" points="116.681,-1083.89 109.501,-1091.68 119.972,-1090.07 116.681,-1083.89"/>
</g>
<!-- \\triagens\\ArangoDb\\Endpoint -->
<g id="node23" class="node"><title>\\triagens\\ArangoDb\\Endpoint</title>
<a xlink:href="Endpoint.html" xlink:title="Endpoint" target="_parent">
<polygon fill="none" stroke="black" points="499,-694 429,-694 429,-658 499,-658 499,-694"/>
<text text-anchor="middle" x="464" y="-673.1" font-family="Courier,monospace" font-size="11.00">Endpoint</text>
</a>
</g>
<!-- \\triagens\\ArangoDb\\Collection -->
<g id="node24" class="node"><title>\\triagens\\ArangoDb\\Collection</title>
<a xlink:href="Collection.html" xlink:title="Collection" target="_parent">
<polygon fill="none" stroke="black" points="506,-640 422,-640 422,-604 506,-604 506,-640"/>
<text text-anchor="middle" x="464" y="-619.1" font-family="Courier,monospace" font-size="11.00">Collection</text>
</a>
</g>
<!-- \\triagens\\ArangoDb\\HttpHelper -->
<g id="node25" class="node"><title>\\triagens\\ArangoDb\\HttpHelper</title>
<a xlink:href="HttpHelper.html" xlink:title="HttpHelper" target="_parent">
<polygon fill="none" stroke="black" points="506,-586 422,-586 422,-550 506,-550 506,-586"/>
<text text-anchor="middle" x="464" y="-565.1" font-family="Courier,monospace" font-size="11.00">HttpHelper</text>
</a>
</g>
<!-- \\triagens\\ArangoDb\\VertexHandler -->
<g id="node26" class="node"><title>\\triagens\\ArangoDb\\VertexHandler</title>
<a xlink:href="VertexHandler.html" xlink:title="VertexHandler" target="_parent">
<polygon fill="none" stroke="black" points="516,-910 412,-910 412,-874 516,-874 516,-910"/>
<text text-anchor="middle" x="464" y="-889.1" font-family="Courier,monospace" font-size="11.00">VertexHandler</text>
</a>
</g>
<!-- \\triagens\\ArangoDb\\VertexHandler&#45;&gt;\\triagens\\ArangoDb\\DocumentHandler -->
<g id="edge22" class="edge"><title>\\triagens\\ArangoDb\\VertexHandler&#45;&gt;\\triagens\\ArangoDb\\DocumentHandler</title>
<path fill="none" stroke="black" d="M411.739,-905.766C386.278,-912.473 355.321,-920.628 327.951,-927.837"/>
<polygon fill="none" stroke="black" points="326.825,-924.514 318.046,-930.446 328.608,-931.284 326.825,-924.514"/>
</g>
<!-- \\triagens\\ArangoDb\\URLHelper -->
<g id="node28" class="node"><title>\\triagens\\ArangoDb\\URLHelper</title>
<a xlink:href="UrlHelper.html" xlink:title="«abstract»&lt;br/&gt;URLHelper" target="_parent">
<polygon fill="none" stroke="black" points="506,-478 422,-478 422,-442 506,-442 506,-478"/>
<text text-anchor="start" x="430" y="-465.433" font-family="Courier,monospace" font-size="11.00">«abstract»</text>
<text text-anchor="start" x="433.5" y="-452.233" font-family="Courier,monospace" font-size="11.00">URLHelper</text>
</a>
</g>
<!-- \\triagens\\ArangoDb\\Edge -->
<g id="node30" class="node"><title>\\triagens\\ArangoDb\\Edge</title>
<a xlink:href="Edge.html" xlink:title="Edge" target="_parent">
<polygon fill="none" stroke="black" points="491,-1288 437,-1288 437,-1252 491,-1252 491,-1288"/>
<text text-anchor="middle" x="464" y="-1267.1" font-family="Courier,monospace" font-size="11.00">Edge</text>
</a>
</g>
<!-- \\triagens\\ArangoDb\\Edge&#45;&gt;\\triagens\\ArangoDb\\Document -->
<g id="edge24" class="edge"><title>\\triagens\\ArangoDb\\Edge&#45;&gt;\\triagens\\ArangoDb\\Document</title>
<path fill="none" stroke="black" d="M436.937,-1264C423.829,-1259.93 408.661,-1253.35 398,-1243 341.46,-1188.13 382.684,-1135.73 326,-1081 319.775,-1074.99 312.038,-1070.26 304.057,-1066.55"/>
<polygon fill="none" stroke="black" points="305.229,-1063.25 294.651,-1062.66 302.551,-1069.72 305.229,-1063.25"/>
</g>
<!-- \\triagens\\ArangoDb\\EdgeHandler -->
<g id="node31" class="node"><title>\\triagens\\ArangoDb\\EdgeHandler</title>
<a xlink:href="EdgeHandler.html" xlink:title="EdgeHandler" target="_parent">
<polygon fill="none" stroke="black" points="509,-964 419,-964 419,-928 509,-928 509,-964"/>
<text text-anchor="middle" x="464" y="-943.1" font-family="Courier,monospace" font-size="11.00">EdgeHandler</text>
</a>
</g>
<!-- \\triagens\\ArangoDb\\EdgeHandler&#45;&gt;\\triagens\\ArangoDb\\DocumentHandler -->
<g id="edge26" class="edge"><title>\\triagens\\ArangoDb\\EdgeHandler&#45;&gt;\\triagens\\ArangoDb\\DocumentHandler</title>
<path fill="none" stroke="black" d="M418.249,-946C391.86,-946 358.142,-946 328.532,-946"/>
<polygon fill="none" stroke="black" points="328.248,-942.5 318.248,-946 328.248,-949.5 328.248,-942.5"/>
</g>
<!-- \\triagens\\ArangoDb\\Autoloader -->
<g id="node32" class="node"><title>\\triagens\\ArangoDb\\Autoloader</title>
<a xlink:href="Autoloader.html" xlink:title="Autoloader" target="_parent">
<polygon fill="none" stroke="black" points="506,-316 422,-316 422,-280 506,-280 506,-316"/>
<text text-anchor="middle" x="464" y="-295.1" font-family="Courier,monospace" font-size="11.00">Autoloader</text>
</a>
</g>
<!-- \\triagens\\ArangoDb\\User -->
<g id="node33" class="node"><title>\\triagens\\ArangoDb\\User</title>
<a xlink:href="User.html" xlink:title="User" target="_parent">
<polygon fill="none" stroke="black" points="491,-1072 437,-1072 437,-1036 491,-1036 491,-1072"/>
<text text-anchor="middle" x="464" y="-1051.1" font-family="Courier,monospace" font-size="11.00">User</text>
</a>
</g>
<!-- \\triagens\\ArangoDb\\User&#45;&gt;\\triagens\\ArangoDb\\Document -->
<g id="edge28" class="edge"><title>\\triagens\\ArangoDb\\User&#45;&gt;\\triagens\\ArangoDb\\Document</title>
<path fill="none" stroke="black" d="M436.778,-1054C403.113,-1054 345.303,-1054 304.771,-1054"/>
<polygon fill="none" stroke="black" points="304.606,-1050.5 294.606,-1054 304.606,-1057.5 304.606,-1050.5"/>
</g>
<!-- \\triagens\\ArangoDb\\URLs -->
<g id="node34" class="node"><title>\\triagens\\ArangoDb\\URLs</title>
<a xlink:href="Urls.html" xlink:title="«abstract»&lt;br/&gt;URLs" target="_parent">
<polygon fill="none" stroke="black" points="506,-208 422,-208 422,-172 506,-172 506,-208"/>
<text text-anchor="start" x="430" y="-195.433" font-family="Courier,monospace" font-size="11.00">«abstract»</text>
<text text-anchor="start" x="450" y="-182.233" font-family="Courier,monospace" font-size="11.00">URLs</text>
</a>
</g>
<!-- \\triagens\\ArangoDb\\AdminHandler -->
<g id="node35" class="node"><title>\\triagens\\ArangoDb\\AdminHandler</title>
<a xlink:href="AdminHandler.html" xlink:title="AdminHandler" target="_parent">
<polygon fill="none" stroke="black" points="308,-1234 210,-1234 210,-1198 308,-1198 308,-1234"/>
<text text-anchor="middle" x="259" y="-1213.1" font-family="Courier,monospace" font-size="11.00">AdminHandler</text>
</a>
</g>
<!-- \\triagens\\ArangoDb\\AdminHandler&#45;&gt;\\triagens\\ArangoDb\\Handler -->
<g id="edge30" class="edge"><title>\\triagens\\ArangoDb\\AdminHandler&#45;&gt;\\triagens\\ArangoDb\\Handler</title>
<path fill="none" stroke="black" d="M210.911,-1197.93C204.465,-1195.13 198.01,-1192.12 192,-1189 159.565,-1172.15 124.844,-1149.22 100.247,-1132.05"/>
<polygon fill="none" stroke="black" points="102.181,-1129.14 91.9889,-1126.24 98.1523,-1134.86 102.181,-1129.14"/>
</g>
<!-- \\triagens\\ArangoDb\\Cursor -->
<g id="node36" class="node"><title>\\triagens\\ArangoDb\\Cursor</title>
<a xlink:href="Cursor.html" xlink:title="Cursor" target="_parent">
<polygon fill="none" stroke="black" points="492,-154 436,-154 436,-118 492,-118 492,-154"/>
<text text-anchor="middle" x="464" y="-133.1" font-family="Courier,monospace" font-size="11.00">Cursor</text>
</a>
</g>
<!-- \\Iterator -->
<g id="node57" class="node"><title>\\Iterator</title>
<ellipse fill="none" stroke="black" cx="259" cy="-19" rx="44.7575" ry="19.0919"/>
<text text-anchor="middle" x="259" y="-15.9" font-family="Times Roman,serif" font-size="14.00" fill="gray">\\Iterator</text>
</g>
<!-- \\triagens\\ArangoDb\\Cursor&#45;&gt;\\Iterator -->
<g id="edge36" class="edge"><title>\\triagens\\ArangoDb\\Cursor&#45;&gt;\\Iterator</title>
<path fill="none" stroke="black" stroke-dasharray="1,5" d="M438.878,-117.863C411.826,-98.8019 367.125,-68.6366 326,-47 318.462,-43.0342 310.236,-39.2114 302.211,-35.7323"/>
<polygon fill="none" stroke="black" points="303.509,-32.4812 292.935,-31.8182 300.787,-38.9306 303.509,-32.4812"/>
</g>
<!-- \\triagens\\ArangoDb\\GraphHandler -->
<g id="node37" class="node"><title>\\triagens\\ArangoDb\\GraphHandler</title>
<a xlink:href="GraphHandler.html" xlink:title="GraphHandler" target="_parent">
<polygon fill="none" stroke="black" points="308,-1180 210,-1180 210,-1144 308,-1144 308,-1180"/>
<text text-anchor="middle" x="259" y="-1159.1" font-family="Courier,monospace" font-size="11.00">GraphHandler</text>
</a>
</g>
<!-- \\triagens\\ArangoDb\\GraphHandler&#45;&gt;\\triagens\\ArangoDb\\Handler -->
<g id="edge32" class="edge"><title>\\triagens\\ArangoDb\\GraphHandler&#45;&gt;\\triagens\\ArangoDb\\Handler</title>
<path fill="none" stroke="black" d="M209.555,-1148.09C181.924,-1140.32 147.505,-1130.64 119.409,-1122.74"/>
<polygon fill="none" stroke="black" points="120.33,-1119.36 109.756,-1120.03 118.435,-1126.1 120.33,-1119.36"/>
</g>
</g>
</svg>
