<?xml version="1.0" encoding="UTF-8" standalone="no"?>
<!DOCTYPE svg PUBLIC "-//W3C//DTD SVG 1.1//EN"
 "http://www.w3.org/Graphics/SVG/1.1/DTD/svg11.dtd">
<!-- Generated by graphviz version 2.26.3 (20100126.1600)
 -->
<!-- Title: G Pages: 1 -->
<svg width="492pt" height="1056pt"
 viewBox="0.00 0.00 492.00 1056.00" xmlns="http://www.w3.org/2000/svg" xmlns:xlink="http://www.w3.org/1999/xlink">
<g id="graph1" class="graph" transform="scale(1 1) rotate(0) translate(4 1052)">
<title>G</title>
<polygon fill="white" stroke="white" points="-4,5 -4,-1052 489,-1052 489,5 -4,5"/>
<g id="graph2" class="cluster"><title>cluster_triagens</title>
<polyline fill="none" stroke="gray" points="174,-8 464,-8 "/>
<path fill="none" stroke="gray" d="M464,-8C470,-8 476,-14 476,-20"/>
<polyline fill="none" stroke="gray" points="476,-20 476,-1028 "/>
<path fill="none" stroke="gray" d="M476,-1028C476,-1034 470,-1040 464,-1040"/>
<polyline fill="none" stroke="gray" points="464,-1040 174,-1040 "/>
<path fill="none" stroke="gray" d="M174,-1040C168,-1040 162,-1034 162,-1028"/>
<polyline fill="none" stroke="gray" points="162,-1028 162,-20 "/>
<path fill="none" stroke="gray" d="M162,-20C162,-14 168,-8 174,-8"/>
<text text-anchor="middle" x="319" y="-1026.1" font-family="Times Roman,serif" font-size="11.00" fill="gray">triagens</text>
</g>
<g id="graph3" class="cluster"><title>cluster_triagens\Avocado</title>
<polyline fill="none" stroke="gray" points="182,-16 456,-16 "/>
<path fill="none" stroke="gray" d="M456,-16C462,-16 468,-22 468,-28"/>
<polyline fill="none" stroke="gray" points="468,-28 468,-997 "/>
<path fill="none" stroke="gray" d="M468,-997C468,-1003 462,-1009 456,-1009"/>
<polyline fill="none" stroke="gray" points="456,-1009 182,-1009 "/>
<path fill="none" stroke="gray" d="M182,-1009C176,-1009 170,-1003 170,-997"/>
<polyline fill="none" stroke="gray" points="170,-997 170,-28 "/>
<path fill="none" stroke="gray" d="M170,-28C170,-22 176,-16 182,-16"/>
<text text-anchor="middle" x="319" y="-995.1" font-family="Times Roman,serif" font-size="11.00" fill="gray">Avocado</text>
</g>
<!-- \\triagens\\Avocado\\HttpHelper -->
<g id="node3" class="node"><title>\\triagens\\Avocado\\HttpHelper</title>
<a xlink:href="db_HttpHelper.html" xlink:title="HttpHelper" target="_parent">
<polygon fill="none" stroke="black" points="436,-978 352,-978 352,-942 436,-942 436,-978"/>
<text text-anchor="middle" x="394" y="-957.1" font-family="Courier,monospace" font-size="11.00">HttpHelper</text>
</a>
</g>
<!-- \\triagens\\Avocado\\Scope -->
<g id="node4" class="node"><title>\\triagens\\Avocado\\Scope</title>
<a xlink:href="db_Scope.html" xlink:title="Scope" target="_parent">
<polygon fill="none" stroke="black" points="421,-924 367,-924 367,-888 421,-888 421,-924"/>
<text text-anchor="middle" x="394" y="-903.1" font-family="Courier,monospace" font-size="11.00">Scope</text>
</a>
</g>
<!-- \\triagens\\Avocado\\Exception -->
<g id="node5" class="node"><title>\\triagens\\Avocado\\Exception</title>
<a xlink:href="db_Exception.html" xlink:title="Exception" target="_parent">
<polygon fill="none" stroke="black" points="255,-222 179,-222 179,-186 255,-186 255,-222"/>
<text text-anchor="middle" x="217" y="-201.1" font-family="Courier,monospace" font-size="11.00">Exception</text>
</a>
</g>
<!-- \\Exception -->
<g id="node23" class="node"><title>\\Exception</title>
<ellipse fill="none" stroke="black" cx="53" cy="-204" rx="53.033" ry="19.0919"/>
<text text-anchor="middle" x="53" y="-200.9" font-family="Times Roman,serif" font-size="14.00" fill="gray">\Exception</text>
</g>
<!-- \\triagens\\Avocado\\Exception&#45;&gt;\\Exception -->
<g id="edge4" class="edge"><title>\\triagens\\Avocado\\Exception&#45;&gt;\\Exception</title>
<path fill="none" stroke="black" d="M178.134,-204C159.656,-204 137.093,-204 116.24,-204"/>
<polygon fill="none" stroke="black" points="116.166,-200.5 106.166,-204 116.166,-207.5 116.166,-200.5"/>
</g>
<!-- \\triagens\\Avocado\\Autoloader -->
<g id="node6" class="node"><title>\\triagens\\Avocado\\Autoloader</title>
<a xlink:href="db_Autoloader.html" xlink:title="Autoloader" target="_parent">
<polygon fill="none" stroke="black" points="436,-870 352,-870 352,-834 436,-834 436,-870"/>
<text text-anchor="middle" x="394" y="-849.1" font-family="Courier,monospace" font-size="11.00">Autoloader</text>
</a>
</g>
<!-- \\triagens\\Avocado\\DefaultValues -->
<g id="node7" class="node"><title>\\triagens\\Avocado\\DefaultValues</title>
<a xlink:href="db_DefaultValues.html" xlink:title="«abstract»&lt;br/&gt;DefaultValues" target="_parent">
<polygon fill="none" stroke="black" points="446,-816 342,-816 342,-780 446,-780 446,-816"/>
<text text-anchor="start" x="360" y="-803.433" font-family="Courier,monospace" font-size="11.00">«abstract»</text>
<text text-anchor="start" x="350" y="-790.233" font-family="Courier,monospace" font-size="11.00">DefaultValues</text>
</a>
</g>
<!-- \\triagens\\Avocado\\ServerException -->
<g id="node8" class="node"><title>\\triagens\\Avocado\\ServerException</title>
<a xlink:href="db_ServerException.html" xlink:title="ServerException" target="_parent">
<polygon fill="none" stroke="black" points="453,-762 335,-762 335,-726 453,-726 453,-762"/>
<text text-anchor="middle" x="394" y="-741.1" font-family="Courier,monospace" font-size="11.00">ServerException</text>
</a>
</g>
<!-- \\triagens\\Avocado\\ServerException&#45;&gt;\\triagens\\Avocado\\Exception -->
<g id="edge6" class="edge"><title>\\triagens\\Avocado\\ServerException&#45;&gt;\\triagens\\Avocado\\Exception</title>
<path fill="none" stroke="black" d="M337.588,-725.799C334.041,-723.237 330.784,-720.32 328,-717 264.788,-641.614 229.241,-328.43 219.661,-232.232"/>
<polygon fill="none" stroke="black" points="223.127,-231.714 218.669,-222.103 216.161,-232.396 223.127,-231.714"/>
</g>
<!-- \\triagens\\Avocado\\Connection -->
<g id="node9" class="node"><title>\\triagens\\Avocado\\Connection</title>
<a xlink:href="db_Connection.html" xlink:title="Connection" target="_parent">
<polygon fill="none" stroke="black" points="436,-708 352,-708 352,-672 436,-672 436,-708"/>
<text text-anchor="middle" x="394" y="-687.1" font-family="Courier,monospace" font-size="11.00">Connection</text>
</a>
</g>
<!-- \\triagens\\Avocado\\UpdatePolicy -->
<g id="node10" class="node"><title>\\triagens\\Avocado\\UpdatePolicy</title>
<a xlink:href="db_UpdatePolicy.html" xlink:title="UpdatePolicy" target="_parent">
<polygon fill="none" stroke="black" points="443,-654 345,-654 345,-618 443,-618 443,-654"/>
<text text-anchor="middle" x="394" y="-633.1" font-family="Courier,monospace" font-size="11.00">UpdatePolicy</text>
</a>
</g>
<!-- \\triagens\\Avocado\\ValueValidator -->
<g id="node11" class="node"><title>\\triagens\\Avocado\\ValueValidator</title>
<a xlink:href="db_ValueValidator.html" xlink:title="ValueValidator" target="_parent">
<polygon fill="none" stroke="black" points="449,-600 339,-600 339,-564 449,-564 449,-600"/>
<text text-anchor="middle" x="394" y="-579.1" font-family="Courier,monospace" font-size="11.00">ValueValidator</text>
</a>
</g>
<!-- \\triagens\\Avocado\\URLHelper -->
<g id="node12" class="node"><title>\\triagens\\Avocado\\URLHelper</title>
<a xlink:href="db_UrlHelper.html" xlink:title="«abstract»&lt;br/&gt;URLHelper" target="_parent">
<polygon fill="none" stroke="black" points="436,-546 352,-546 352,-510 436,-510 436,-546"/>
<text text-anchor="start" x="360" y="-533.433" font-family="Courier,monospace" font-size="11.00">«abstract»</text>
<text text-anchor="start" x="363.5" y="-520.233" font-family="Courier,monospace" font-size="11.00">URLHelper</text>
</a>
</g>
<!-- \\triagens\\Avocado\\Statement -->
<g id="node13" class="node"><title>\\triagens\\Avocado\\Statement</title>
<a xlink:href="db_Statement.html" xlink:title="Statement" target="_parent">
<polygon fill="none" stroke="black" points="432,-492 356,-492 356,-456 432,-456 432,-492"/>
<text text-anchor="middle" x="394" y="-471.1" font-family="Courier,monospace" font-size="11.00">Statement</text>
</a>
</g>
<!-- \\triagens\\Avocado\\Cursor -->
<g id="node14" class="node"><title>\\triagens\\Avocado\\Cursor</title>
<a xlink:href="db_Cursor.html" xlink:title="Cursor" target="_parent">
<polygon fill="none" stroke="black" points="422,-438 366,-438 366,-402 422,-402 422,-438"/>
<text text-anchor="middle" x="394" y="-417.1" font-family="Courier,monospace" font-size="11.00">Cursor</text>
</a>
</g>
<!-- \\triagens\\Avocado\\DocumentHandler -->
<g id="node15" class="node"><title>\\triagens\\Avocado\\DocumentHandler</title>
<a xlink:href="db_DocumentHandler.html" xlink:title="DocumentHandler" target="_parent">
<polygon fill="none" stroke="black" points="453,-384 335,-384 335,-348 453,-348 453,-384"/>
<text text-anchor="middle" x="394" y="-363.1" font-family="Courier,monospace" font-size="11.00">DocumentHandler</text>
</a>
</g>
<!-- \\triagens\\Avocado\\BindVars -->
<g id="node16" class="node"><title>\\triagens\\Avocado\\BindVars</title>
<a xlink:href="db_BindVars.html" xlink:title="BindVars" target="_parent">
<polygon fill="none" stroke="black" points="429,-330 359,-330 359,-294 429,-294 429,-330"/>
<text text-anchor="middle" x="394" y="-309.1" font-family="Courier,monospace" font-size="11.00">BindVars</text>
</a>
</g>
<!-- \\triagens\\Avocado\\ConnectionOptions -->
<g id="node17" class="node"><title>\\triagens\\Avocado\\ConnectionOptions</title>
<a xlink:href="db_ConnectionOptions.html" xlink:title="ConnectionOptions" target="_parent">
<polygon fill="none" stroke="black" points="459,-276 329,-276 329,-240 459,-240 459,-276"/>
<text text-anchor="middle" x="394" y="-255.1" font-family="Courier,monospace" font-size="11.00">ConnectionOptions</text>
</a>
</g>
<!-- \\triagens\\Avocado\\ConnectException -->
<g id="node18" class="node"><title>\\triagens\\Avocado\\ConnectException</title>
<a xlink:href="db_ConnectException.html" xlink:title="ConnectException" target="_parent">
<polygon fill="none" stroke="black" points="456,-222 332,-222 332,-186 456,-186 456,-222"/>
<text text-anchor="middle" x="394" y="-201.1" font-family="Courier,monospace" font-size="11.00">ConnectException</text>
</a>
</g>
<!-- \\triagens\\Avocado\\ConnectException&#45;&gt;\\triagens\\Avocado\\Exception -->
<g id="edge8" class="edge"><title>\\triagens\\Avocado\\ConnectException&#45;&gt;\\triagens\\Avocado\\Exception</title>
<path fill="none" stroke="black" d="M331.098,-204C309.69,-204 286.096,-204 265.946,-204"/>
<polygon fill="none" stroke="black" points="265.753,-200.5 255.753,-204 265.753,-207.5 265.753,-200.5"/>
</g>
<!-- \\triagens\\Avocado\\Document -->
<g id="node19" class="node"><title>\\triagens\\Avocado\\Document</title>
<a xlink:href="db_Document.html" xlink:title="Document" target="_parent">
<polygon fill="none" stroke="black" points="429,-168 359,-168 359,-132 429,-132 429,-168"/>
<text text-anchor="middle" x="394" y="-147.1" font-family="Courier,monospace" font-size="11.00">Document</text>
</a>
</g>
<!-- \\triagens\\Avocado\\ClientException -->
<g id="node20" class="node"><title>\\triagens\\Avocado\\ClientException</title>
<a xlink:href="db_ClientException.html" xlink:title="ClientException" target="_parent">
<polygon fill="none" stroke="black" points="453,-114 335,-114 335,-78 453,-78 453,-114"/>
<text text-anchor="middle" x="394" y="-93.1" font-family="Courier,monospace" font-size="11.00">ClientException</text>
</a>
</g>
<!-- \\triagens\\Avocado\\ClientException&#45;&gt;\\triagens\\Avocado\\Exception -->
<g id="edge10" class="edge"><title>\\triagens\\Avocado\\ClientException&#45;&gt;\\triagens\\Avocado\\Exception</title>
<path fill="none" stroke="black" d="M345.77,-114.13C339.681,-116.883 333.62,-119.861 328,-123 298.635,-139.401 267.948,-162.305 246.301,-179.574"/>
<polygon fill="none" stroke="black" points="244.055,-176.889 238.469,-185.892 248.45,-182.338 244.055,-176.889"/>
</g>
<!-- \\triagens\\Avocado\\HttpResponse -->
<g id="node21" class="node"><title>\\triagens\\Avocado\\HttpResponse</title>
<a xlink:href="db_HttpResponse.html" xlink:title="HttpResponse" target="_parent">
<polygon fill="none" stroke="black" points="443,-60 345,-60 345,-24 443,-24 443,-60"/>
<text text-anchor="middle" x="394" y="-39.1" font-family="Courier,monospace" font-size="11.00">HttpResponse</text>
</a>
</g>
</g>
</svg>
