<?xml version="1.0" encoding="UTF-8" standalone="no"?>
<!DOCTYPE svg PUBLIC "-//W3C//DTD SVG 1.1//EN"
 "http://www.w3.org/Graphics/SVG/1.1/DTD/svg11.dtd">
<!-- Generated by graphviz version 2.26.3 (20100126.1600)
 -->
<!-- Title: G Pages: 1 -->
<svg width="562pt" height="1582pt"
 viewBox="0.00 0.00 562.00 1582.00" xmlns="http://www.w3.org/2000/svg" xmlns:xlink="http://www.w3.org/1999/xlink">
<g id="graph1" class="graph" transform="scale(1 1) rotate(0) translate(4 1578)">
<title>G</title>
<polygon fill="white" stroke="white" points="-4,5 -4,-1578 559,-1578 559,5 -4,5"/>
<g id="graph2" class="cluster"><title>cluster_triagens</title>
<polyline fill="none" stroke="gray" points="20,-102 534,-102 "/>
<path fill="none" stroke="gray" d="M534,-102C540,-102 546,-108 546,-114"/>
<polyline fill="none" stroke="gray" points="546,-114 546,-1554 "/>
<path fill="none" stroke="gray" d="M546,-1554C546,-1560 540,-1566 534,-1566"/>
<polyline fill="none" stroke="gray" points="534,-1566 20,-1566 "/>
<path fill="none" stroke="gray" d="M20,-1566C14,-1566 8,-1560 8,-1554"/>
<polyline fill="none" stroke="gray" points="8,-1554 8,-114 "/>
<path fill="none" stroke="gray" d="M8,-114C8,-108 14,-102 20,-102"/>
<text text-anchor="middle" x="277" y="-1552.1" font-family="Times Roman,serif" font-size="11.00" fill="gray">triagens</text>
</g>
<g id="graph3" class="cluster"><title>cluster_triagens\ArangoDb</title>
<polyline fill="none" stroke="gray" points="28,-110 526,-110 "/>
<path fill="none" stroke="gray" d="M526,-110C532,-110 538,-116 538,-122"/>
<polyline fill="none" stroke="gray" points="538,-122 538,-1523 "/>
<path fill="none" stroke="gray" d="M538,-1523C538,-1529 532,-1535 526,-1535"/>
<polyline fill="none" stroke="gray" points="526,-1535 28,-1535 "/>
<path fill="none" stroke="gray" d="M28,-1535C22,-1535 16,-1529 16,-1523"/>
<polyline fill="none" stroke="gray" points="16,-1523 16,-122 "/>
<path fill="none" stroke="gray" d="M16,-122C16,-116 22,-110 28,-110"/>
<text text-anchor="middle" x="277" y="-1521.1" font-family="Times Roman,serif" font-size="11.00" fill="gray">ArangoDb</text>
</g>
<!-- \\triagens\\ArangoDb\\HttpHelper -->
<g id="node3" class="node"><title>\\triagens\\ArangoDb\\HttpHelper</title>
<a xlink:href="HttpHelper.html" xlink:title="HttpHelper" target="_parent">
<polygon fill="none" stroke="black" points="506,-1504 422,-1504 422,-1468 506,-1468 506,-1504"/>
<text text-anchor="middle" x="464" y="-1483.1" font-family="Courier,monospace" font-size="11.00">HttpHelper</text>
</a>
</g>
<!-- \\triagens\\ArangoDb\\Scope -->
<g id="node4" class="node"><title>\\triagens\\ArangoDb\\Scope</title>
<a xlink:href="Scope.html" xlink:title="Scope" target="_parent">
<polygon fill="none" stroke="black" points="491,-1450 437,-1450 437,-1414 491,-1414 491,-1450"/>
<text text-anchor="middle" x="464" y="-1429.1" font-family="Courier,monospace" font-size="11.00">Scope</text>
</a>
</g>
<!-- \\triagens\\ArangoDb\\Exception -->
<g id="node5" class="node"><title>\\triagens\\ArangoDb\\Exception</title>
<a xlink:href="Exception.html" xlink:title="Exception" target="_parent">
<polygon fill="none" stroke="black" points="297,-397 221,-397 221,-361 297,-361 297,-397"/>
<text text-anchor="middle" x="259" y="-376.1" font-family="Courier,monospace" font-size="11.00">Exception</text>
</a>
</g>
<!-- \\Exception -->
<g id="node37" class="node"><title>\\Exception</title>
<ellipse fill="none" stroke="black" cx="67" cy="-75" rx="53.033" ry="19.0919"/>
<text text-anchor="middle" x="67" y="-71.9" font-family="Times Roman,serif" font-size="14.00" fill="gray">\Exception</text>
</g>
<!-- \\triagens\\ArangoDb\\Exception&#45;&gt;\\Exception -->
<g id="edge4" class="edge"><title>\\triagens\\ArangoDb\\Exception&#45;&gt;\\Exception</title>
<path fill="none" stroke="black" d="M220.311,-373.149C209.958,-369.9 199.557,-364.849 192,-357 111.507,-273.396 191.196,-197.65 120,-106 117.01,-102.151 113.398,-98.6886 109.481,-95.5967"/>
<polygon fill="none" stroke="black" points="111.32,-92.6121 101.114,-89.7662 107.318,-98.3551 111.32,-92.6121"/>
</g>
<!-- \\triagens\\ArangoDb\\Autoloader -->
<g id="node6" class="node"><title>\\triagens\\ArangoDb\\Autoloader</title>
<a xlink:href="Autoloader.html" xlink:title="Autoloader" target="_parent">
<polygon fill="none" stroke="black" points="506,-1396 422,-1396 422,-1360 506,-1360 506,-1396"/>
<text text-anchor="middle" x="464" y="-1375.1" font-family="Courier,monospace" font-size="11.00">Autoloader</text>
</a>
</g>
<!-- \\triagens\\ArangoDb\\Collection -->
<g id="node7" class="node"><title>\\triagens\\ArangoDb\\Collection</title>
<a xlink:href="Collection.html" xlink:title="Collection" target="_parent">
<polygon fill="none" stroke="black" points="506,-1342 422,-1342 422,-1306 506,-1306 506,-1342"/>
<text text-anchor="middle" x="464" y="-1321.1" font-family="Courier,monospace" font-size="11.00">Collection</text>
</a>
</g>
<!-- \\triagens\\ArangoDb\\AdminHandler -->
<g id="node8" class="node"><title>\\triagens\\ArangoDb\\AdminHandler</title>
<a xlink:href="AdminHandler.html" xlink:title="AdminHandler" target="_parent">
<polygon fill="none" stroke="black" points="308,-991 210,-991 210,-955 308,-955 308,-991"/>
<text text-anchor="middle" x="259" y="-970.1" font-family="Courier,monospace" font-size="11.00">AdminHandler</text>
</a>
</g>
<!-- \\triagens\\ArangoDb\\Handler -->
<g id="node23" class="node"><title>\\triagens\\ArangoDb\\Handler</title>
<a xlink:href="Handler.html" xlink:title="«abstract»&lt;br/&gt;Handler" target="_parent">
<polygon fill="none" stroke="black" points="109,-1018 25,-1018 25,-982 109,-982 109,-1018"/>
<text text-anchor="start" x="33" y="-1005.43" font-family="Courier,monospace" font-size="11.00">«abstract»</text>
<text text-anchor="start" x="43" y="-992.233" font-family="Courier,monospace" font-size="11.00">Handler</text>
</a>
</g>
<!-- \\triagens\\ArangoDb\\AdminHandler&#45;&gt;\\triagens\\ArangoDb\\Handler -->
<g id="edge6" class="edge"><title>\\triagens\\ArangoDb\\AdminHandler&#45;&gt;\\triagens\\ArangoDb\\Handler</title>
<path fill="none" stroke="black" d="M209.555,-979.953C182.045,-983.822 147.805,-988.637 119.777,-992.578"/>
<polygon fill="none" stroke="black" points="119.171,-989.129 109.756,-993.987 120.146,-996.061 119.171,-989.129"/>
</g>
<!-- \\triagens\\ArangoDb\\VertexHandler -->
<g id="node9" class="node"><title>\\triagens\\ArangoDb\\VertexHandler</title>
<a xlink:href="VertexHandler.html" xlink:title="VertexHandler" target="_parent">
<polygon fill="none" stroke="black" points="516,-1288 412,-1288 412,-1252 516,-1252 516,-1288"/>
<text text-anchor="middle" x="464" y="-1267.1" font-family="Courier,monospace" font-size="11.00">VertexHandler</text>
</a>
</g>
<!-- \\triagens\\ArangoDb\\DocumentHandler -->
<g id="node27" class="node"><title>\\triagens\\ArangoDb\\DocumentHandler</title>
<a xlink:href="DocumentHandler.html" xlink:title="DocumentHandler" target="_parent">
<polygon fill="none" stroke="black" points="318,-1180 200,-1180 200,-1144 318,-1144 318,-1180"/>
<text text-anchor="middle" x="259" y="-1159.1" font-family="Courier,monospace" font-size="11.00">DocumentHandler</text>
</a>
</g>
<!-- \\triagens\\ArangoDb\\VertexHandler&#45;&gt;\\triagens\\ArangoDb\\DocumentHandler -->
<g id="edge8" class="edge"><title>\\triagens\\ArangoDb\\VertexHandler&#45;&gt;\\triagens\\ArangoDb\\DocumentHandler</title>
<path fill="none" stroke="black" d="M417.479,-1251.92C410.874,-1249.08 404.218,-1246.07 398,-1243 362.396,-1225.45 323.484,-1202.42 295.91,-1185.41"/>
<polygon fill="none" stroke="black" points="297.717,-1182.41 287.375,-1180.11 294.025,-1188.36 297.717,-1182.41"/>
</g>
<!-- \\triagens\\ArangoDb\\DefaultValues -->
<g id="node10" class="node"><title>\\triagens\\ArangoDb\\DefaultValues</title>
<a xlink:href="DefaultValues.html" xlink:title="«abstract»&lt;br/&gt;DefaultValues" target="_parent">
<polygon fill="none" stroke="black" points="516,-1234 412,-1234 412,-1198 516,-1198 516,-1234"/>
<text text-anchor="start" x="430" y="-1221.43" font-family="Courier,monospace" font-size="11.00">«abstract»</text>
<text text-anchor="start" x="420" y="-1208.23" font-family="Courier,monospace" font-size="11.00">DefaultValues</text>
</a>
</g>
<!-- \\triagens\\ArangoDb\\ServerException -->
<g id="node11" class="node"><title>\\triagens\\ArangoDb\\ServerException</title>
<a xlink:href="ServerException.html" xlink:title="ServerException" target="_parent">
<polygon fill="none" stroke="black" points="523,-478 405,-478 405,-442 523,-442 523,-478"/>
<text text-anchor="middle" x="464" y="-457.1" font-family="Courier,monospace" font-size="11.00">ServerException</text>
</a>
</g>
<!-- \\triagens\\ArangoDb\\ServerException&#45;&gt;\\triagens\\ArangoDb\\Exception -->
<g id="edge10" class="edge"><title>\\triagens\\ArangoDb\\ServerException&#45;&gt;\\triagens\\ArangoDb\\Exception</title>
<path fill="none" stroke="black" d="M418.249,-441.923C385.277,-428.895 340.864,-411.346 307.317,-398.091"/>
<polygon fill="none" stroke="black" points="308.309,-394.72 297.722,-394.3 305.736,-401.23 308.309,-394.72"/>
</g>
<!-- \\triagens\\ArangoDb\\Connection -->
<g id="node12" class="node"><title>\\triagens\\ArangoDb\\Connection</title>
<a xlink:href="Connection.html" xlink:title="Connection" target="_parent">
<polygon fill="none" stroke="black" points="506,-1126 422,-1126 422,-1090 506,-1090 506,-1126"/>
<text text-anchor="middle" x="464" y="-1105.1" font-family="Courier,monospace" font-size="11.00">Connection</text>
</a>
</g>
<!-- \\triagens\\ArangoDb\\UpdatePolicy -->
<g id="node13" class="node"><title>\\triagens\\ArangoDb\\UpdatePolicy</title>
<a xlink:href="UpdatePolicy.html" xlink:title="UpdatePolicy" target="_parent">
<polygon fill="none" stroke="black" points="513,-1072 415,-1072 415,-1036 513,-1036 513,-1072"/>
<text text-anchor="middle" x="464" y="-1051.1" font-family="Courier,monospace" font-size="11.00">UpdatePolicy</text>
</a>
</g>
<!-- \\triagens\\ArangoDb\\ValueValidator -->
<g id="node14" class="node"><title>\\triagens\\ArangoDb\\ValueValidator</title>
<a xlink:href="ValueValidator.html" xlink:title="ValueValidator" target="_parent">
<polygon fill="none" stroke="black" points="519,-1018 409,-1018 409,-982 519,-982 519,-1018"/>
<text text-anchor="middle" x="464" y="-997.1" font-family="Courier,monospace" font-size="11.00">ValueValidator</text>
</a>
</g>
<!-- \\triagens\\ArangoDb\\Graph -->
<g id="node15" class="node"><title>\\triagens\\ArangoDb\\Graph</title>
<a xlink:href="Graph.html" xlink:title="Graph" target="_parent">
<polygon fill="none" stroke="black" points="491,-856 437,-856 437,-820 491,-820 491,-856"/>
<text text-anchor="middle" x="464" y="-835.1" font-family="Courier,monospace" font-size="11.00">Graph</text>
</a>
</g>
<!-- \\triagens\\ArangoDb\\Document -->
<g id="node32" class="node"><title>\\triagens\\ArangoDb\\Document</title>
<a xlink:href="Document.html" xlink:title="Document" target="_parent">
<polygon fill="none" stroke="black" points="294,-896 224,-896 224,-860 294,-860 294,-896"/>
<text text-anchor="middle" x="259" y="-875.1" font-family="Courier,monospace" font-size="11.00">Document</text>
</a>
</g>
<!-- \\triagens\\ArangoDb\\Graph&#45;&gt;\\triagens\\ArangoDb\\Document -->
<g id="edge12" class="edge"><title>\\triagens\\ArangoDb\\Graph&#45;&gt;\\triagens\\ArangoDb\\Document</title>
<path fill="none" stroke="black" d="M436.778,-843.312C403.041,-849.894 345.058,-861.208 304.513,-869.119"/>
<polygon fill="none" stroke="black" points="303.75,-865.702 294.606,-871.053 305.091,-872.573 303.75,-865.702"/>
</g>
<!-- \\triagens\\ArangoDb\\Batch -->
<g id="node16" class="node"><title>\\triagens\\ArangoDb\\Batch</title>
<a xlink:href="Batch.html" xlink:title="Batch" target="_parent">
<polygon fill="none" stroke="black" points="491,-910 437,-910 437,-874 491,-874 491,-910"/>
<text text-anchor="middle" x="464" y="-889.1" font-family="Courier,monospace" font-size="11.00">Batch</text>
</a>
</g>
<!-- \\triagens\\ArangoDb\\CollectionHandler -->
<g id="node17" class="node"><title>\\triagens\\ArangoDb\\CollectionHandler</title>
<a xlink:href="CollectionHandler.html" xlink:title="CollectionHandler" target="_parent">
<polygon fill="none" stroke="black" points="324,-842 194,-842 194,-806 324,-806 324,-842"/>
<text text-anchor="middle" x="259" y="-821.1" font-family="Courier,monospace" font-size="11.00">CollectionHandler</text>
</a>
</g>
<!-- \\triagens\\ArangoDb\\CollectionHandler&#45;&gt;\\triagens\\ArangoDb\\Handler -->
<g id="edge14" class="edge"><title>\\triagens\\ArangoDb\\CollectionHandler&#45;&gt;\\triagens\\ArangoDb\\Handler</title>
<path fill="none" stroke="black" d="M204.457,-842.172C200.005,-844.765 195.774,-847.696 192,-851 143.18,-893.738 168.598,-935.009 120,-978 119.412,-978.52 118.811,-979.028 118.197,-979.526"/>
<polygon fill="none" stroke="black" points="115.896,-976.859 109.618,-985.394 119.848,-982.637 115.896,-976.859"/>
</g>
<!-- \\triagens\\ArangoDb\\Edge -->
<g id="node18" class="node"><title>\\triagens\\ArangoDb\\Edge</title>
<a xlink:href="Edge.html" xlink:title="Edge" target="_parent">
<polygon fill="none" stroke="black" points="491,-964 437,-964 437,-928 491,-928 491,-964"/>
<text text-anchor="middle" x="464" y="-943.1" font-family="Courier,monospace" font-size="11.00">Edge</text>
</a>
</g>
<!-- \\triagens\\ArangoDb\\Edge&#45;&gt;\\triagens\\ArangoDb\\Document -->
<g id="edge16" class="edge"><title>\\triagens\\ArangoDb\\Edge&#45;&gt;\\triagens\\ArangoDb\\Document</title>
<path fill="none" stroke="black" d="M436.778,-936.97C402.97,-925.756 344.812,-906.464 304.255,-893.012"/>
<polygon fill="none" stroke="black" points="305.199,-889.637 294.606,-889.811 302.995,-896.281 305.199,-889.637"/>
</g>
<!-- \\triagens\\ArangoDb\\Vertex -->
<g id="node19" class="node"><title>\\triagens\\ArangoDb\\Vertex</title>
<a xlink:href="Vertex.html" xlink:title="Vertex" target="_parent">
<polygon fill="none" stroke="black" points="492,-802 436,-802 436,-766 492,-766 492,-802"/>
<text text-anchor="middle" x="464" y="-781.1" font-family="Courier,monospace" font-size="11.00">Vertex</text>
</a>
</g>
<!-- \\triagens\\ArangoDb\\Vertex&#45;&gt;\\triagens\\ArangoDb\\Document -->
<g id="edge18" class="edge"><title>\\triagens\\ArangoDb\\Vertex&#45;&gt;\\triagens\\ArangoDb\\Document</title>
<path fill="none" stroke="black" d="M435.414,-794.835C423.683,-799.502 410.053,-805.212 398,-811 365.001,-826.847 359.04,-835.239 326,-851 319.152,-854.267 311.799,-857.497 304.561,-860.526"/>
<polygon fill="none" stroke="black" points="302.749,-857.486 294.823,-864.517 305.403,-863.964 302.749,-857.486"/>
</g>
<!-- \\triagens\\ArangoDb\\EdgeHandler -->
<g id="node20" class="node"><title>\\triagens\\ArangoDb\\EdgeHandler</title>
<a xlink:href="EdgeHandler.html" xlink:title="EdgeHandler" target="_parent">
<polygon fill="none" stroke="black" points="509,-1180 419,-1180 419,-1144 509,-1144 509,-1180"/>
<text text-anchor="middle" x="464" y="-1159.1" font-family="Courier,monospace" font-size="11.00">EdgeHandler</text>
</a>
</g>
<!-- \\triagens\\ArangoDb\\EdgeHandler&#45;&gt;\\triagens\\ArangoDb\\DocumentHandler -->
<g id="edge20" class="edge"><title>\\triagens\\ArangoDb\\EdgeHandler&#45;&gt;\\triagens\\ArangoDb\\DocumentHandler</title>
<path fill="none" stroke="black" d="M418.249,-1162C391.86,-1162 358.142,-1162 328.532,-1162"/>
<polygon fill="none" stroke="black" points="328.248,-1158.5 318.248,-1162 328.248,-1165.5 328.248,-1158.5"/>
</g>
<!-- \\triagens\\ArangoDb\\URLHelper -->
<g id="node21" class="node"><title>\\triagens\\ArangoDb\\URLHelper</title>
<a xlink:href="UrlHelper.html" xlink:title="«abstract»&lt;br/&gt;URLHelper" target="_parent">
<polygon fill="none" stroke="black" points="506,-694 422,-694 422,-658 506,-658 506,-694"/>
<text text-anchor="start" x="430" y="-681.433" font-family="Courier,monospace" font-size="11.00">«abstract»</text>
<text text-anchor="start" x="433.5" y="-668.233" font-family="Courier,monospace" font-size="11.00">URLHelper</text>
</a>
</g>
<!-- \\triagens\\ArangoDb\\BatchPart -->
<g id="node22" class="node"><title>\\triagens\\ArangoDb\\BatchPart</title>
<a xlink:href="BatchPart.html" xlink:title="BatchPart" target="_parent">
<polygon fill="none" stroke="black" points="502,-640 426,-640 426,-604 502,-604 502,-640"/>
<text text-anchor="middle" x="464" y="-619.1" font-family="Courier,monospace" font-size="11.00">BatchPart</text>
</a>
</g>
<!-- \\triagens\\ArangoDb\\Endpoint -->
<g id="node24" class="node"><title>\\triagens\\ArangoDb\\Endpoint</title>
<a xlink:href="Endpoint.html" xlink:title="Endpoint" target="_parent">
<polygon fill="none" stroke="black" points="499,-586 429,-586 429,-550 499,-550 499,-586"/>
<text text-anchor="middle" x="464" y="-565.1" font-family="Courier,monospace" font-size="11.00">Endpoint</text>
</a>
</g>
<!-- \\triagens\\ArangoDb\\Statement -->
<g id="node25" class="node"><title>\\triagens\\ArangoDb\\Statement</title>
<a xlink:href="Statement.html" xlink:title="Statement" target="_parent">
<polygon fill="none" stroke="black" points="502,-532 426,-532 426,-496 502,-496 502,-532"/>
<text text-anchor="middle" x="464" y="-511.1" font-family="Courier,monospace" font-size="11.00">Statement</text>
</a>
</g>
<!-- \\triagens\\ArangoDb\\Cursor -->
<g id="node26" class="node"><title>\\triagens\\ArangoDb\\Cursor</title>
<a xlink:href="Cursor.html" xlink:title="Cursor" target="_parent">
<polygon fill="none" stroke="black" points="492,-262 436,-262 436,-226 492,-226 492,-262"/>
<text text-anchor="middle" x="464" y="-241.1" font-family="Courier,monospace" font-size="11.00">Cursor</text>
</a>
</g>
<!-- \\Iterator -->
<g id="node51" class="node"><title>\\Iterator</title>
<ellipse fill="none" stroke="black" cx="259" cy="-75" rx="44.7575" ry="19.0919"/>
<text text-anchor="middle" x="259" y="-71.9" font-family="Times Roman,serif" font-size="14.00" fill="gray">\\Iterator</text>
</g>
<!-- \\triagens\\ArangoDb\\Cursor&#45;&gt;\\Iterator -->
<g id="edge30" class="edge"><title>\\triagens\\ArangoDb\\Cursor&#45;&gt;\\Iterator</title>
<path fill="none" stroke="black" stroke-dasharray="1,5" d="M435.31,-236.492C422.895,-232.231 408.773,-225.925 398,-217 352.718,-179.486 370.426,-144.524 326,-106 319.458,-100.327 311.702,-95.4892 303.829,-91.4409"/>
<polygon fill="none" stroke="black" points="305.133,-88.185 294.599,-87.0484 302.125,-94.5058 305.133,-88.185"/>
</g>
<!-- \\triagens\\ArangoDb\\DocumentHandler&#45;&gt;\\triagens\\ArangoDb\\Handler -->
<g id="edge22" class="edge"><title>\\triagens\\ArangoDb\\DocumentHandler&#45;&gt;\\triagens\\ArangoDb\\Handler</title>
<path fill="none" stroke="black" d="M237.348,-1143.73C202.83,-1114.61 135.27,-1057.6 96.4075,-1024.81"/>
<polygon fill="none" stroke="black" points="98.4725,-1021.98 88.5725,-1018.2 93.9584,-1027.33 98.4725,-1021.98"/>
</g>
<!-- \\triagens\\ArangoDb\\BindVars -->
<g id="node28" class="node"><title>\\triagens\\ArangoDb\\BindVars</title>
<a xlink:href="BindVars.html" xlink:title="BindVars" target="_parent">
<polygon fill="none" stroke="black" points="499,-424 429,-424 429,-388 499,-388 499,-424"/>
<text text-anchor="middle" x="464" y="-403.1" font-family="Courier,monospace" font-size="11.00">BindVars</text>
</a>
</g>
<!-- \\triagens\\ArangoDb\\URLs -->
<g id="node29" class="node"><title>\\triagens\\ArangoDb\\URLs</title>
<a xlink:href="Urls.html" xlink:title="«abstract»&lt;br/&gt;URLs" target="_parent">
<polygon fill="none" stroke="black" points="506,-370 422,-370 422,-334 506,-334 506,-370"/>
<text text-anchor="start" x="430" y="-357.433" font-family="Courier,monospace" font-size="11.00">«abstract»</text>
<text text-anchor="start" x="450" y="-344.233" font-family="Courier,monospace" font-size="11.00">URLs</text>
</a>
</g>
<!-- \\triagens\\ArangoDb\\ConnectionOptions -->
<g id="node30" class="node"><title>\\triagens\\ArangoDb\\ConnectionOptions</title>
<a xlink:href="ConnectionOptions.html" xlink:title="ConnectionOptions" target="_parent">
<polygon fill="none" stroke="black" points="529,-208 399,-208 399,-172 529,-172 529,-208"/>
<text text-anchor="middle" x="464" y="-187.1" font-family="Courier,monospace" font-size="11.00">ConnectionOptions</text>
</a>
</g>
<!-- \\ArrayAccess -->
<g id="node53" class="node"><title>\\ArrayAccess</title>
<ellipse fill="none" stroke="black" cx="259" cy="-19" rx="65.9683" ry="19.0919"/>
<text text-anchor="middle" x="259" y="-15.9" font-family="Times Roman,serif" font-size="14.00" fill="gray">\\ArrayAccess</text>
</g>
<!-- \\triagens\\ArangoDb\\ConnectionOptions&#45;&gt;\\ArrayAccess -->
<g id="edge32" class="edge"><title>\\triagens\\ArangoDb\\ConnectionOptions&#45;&gt;\\ArrayAccess</title>
<path fill="none" stroke="black" stroke-dasharray="1,5" d="M411.071,-171.979C406.415,-169.339 401.971,-166.357 398,-163 351.661,-123.825 372.191,-86.3489 326,-47 322.023,-43.6124 317.579,-40.5879 312.922,-37.8976"/>
<polygon fill="none" stroke="black" points="314.257,-34.6467 303.771,-33.1285 311.021,-40.8542 314.257,-34.6467"/>
</g>
<!-- \\triagens\\ArangoDb\\ConnectException -->
<g id="node31" class="node"><title>\\triagens\\ArangoDb\\ConnectException</title>
<a xlink:href="ConnectException.html" xlink:title="ConnectException" target="_parent">
<polygon fill="none" stroke="black" points="526,-316 402,-316 402,-280 526,-280 526,-316"/>
<text text-anchor="middle" x="464" y="-295.1" font-family="Courier,monospace" font-size="11.00">ConnectException</text>
</a>
</g>
<!-- \\triagens\\ArangoDb\\ConnectException&#45;&gt;\\triagens\\ArangoDb\\Exception -->
<g id="edge24" class="edge"><title>\\triagens\\ArangoDb\\ConnectException&#45;&gt;\\triagens\\ArangoDb\\Exception</title>
<path fill="none" stroke="black" d="M419.192,-316.12C412.087,-319.053 404.832,-322.085 398,-325 365.791,-338.742 358.677,-344.411 326,-357 320.002,-359.311 313.647,-361.599 307.332,-363.777"/>
<polygon fill="none" stroke="black" points="305.856,-360.581 297.501,-367.095 308.095,-367.213 305.856,-360.581"/>
</g>
<!-- \\triagens\\ArangoDb\\ClientException -->
<g id="node33" class="node"><title>\\triagens\\ArangoDb\\ClientException</title>
<a xlink:href="ClientException.html" xlink:title="ClientException" target="_parent">
<polygon fill="none" stroke="black" points="523,-748 405,-748 405,-712 523,-712 523,-748"/>
<text text-anchor="middle" x="464" y="-727.1" font-family="Courier,monospace" font-size="11.00">ClientException</text>
</a>
</g>
<!-- \\triagens\\ArangoDb\\ClientException&#45;&gt;\\triagens\\ArangoDb\\Exception -->
<g id="edge26" class="edge"><title>\\triagens\\ArangoDb\\ClientException&#45;&gt;\\triagens\\ArangoDb\\Exception</title>
<path fill="none" stroke="black" d="M409.55,-711.986C405.369,-709.365 401.443,-706.385 398,-703 311.124,-617.584 275.312,-469.118 263.678,-407.289"/>
<polygon fill="none" stroke="black" points="267.063,-406.338 261.838,-397.121 260.175,-407.584 267.063,-406.338"/>
</g>
<!-- \\triagens\\ArangoDb\\GraphHandler -->
<g id="node34" class="node"><title>\\triagens\\ArangoDb\\GraphHandler</title>
<a xlink:href="GraphHandler.html" xlink:title="GraphHandler" target="_parent">
<polygon fill="none" stroke="black" points="308,-1045 210,-1045 210,-1009 308,-1009 308,-1045"/>
<text text-anchor="middle" x="259" y="-1024.1" font-family="Courier,monospace" font-size="11.00">GraphHandler</text>
</a>
</g>
<!-- \\triagens\\ArangoDb\\GraphHandler&#45;&gt;\\triagens\\ArangoDb\\Handler -->
<g id="edge28" class="edge"><title>\\triagens\\ArangoDb\\GraphHandler&#45;&gt;\\triagens\\ArangoDb\\Handler</title>
<path fill="none" stroke="black" d="M209.555,-1020.05C182.045,-1016.18 147.805,-1011.36 119.777,-1007.42"/>
<polygon fill="none" stroke="black" points="120.146,-1003.94 109.756,-1006.01 119.171,-1010.87 120.146,-1003.94"/>
</g>
<!-- \\triagens\\ArangoDb\\HttpResponse -->
<g id="node35" class="node"><title>\\triagens\\ArangoDb\\HttpResponse</title>
<a xlink:href="HttpResponse.html" xlink:title="HttpResponse" target="_parent">
<polygon fill="none" stroke="black" points="513,-154 415,-154 415,-118 513,-118 513,-154"/>
<text text-anchor="middle" x="464" y="-133.1" font-family="Courier,monospace" font-size="11.00">HttpResponse</text>
</a>
</g>
</g>
</svg>
