<?xml version="1.0" encoding="UTF-8" standalone="no"?>
<!DOCTYPE svg PUBLIC "-//W3C//DTD SVG 1.1//EN"
 "http://www.w3.org/Graphics/SVG/1.1/DTD/svg11.dtd">
<!-- Generated by graphviz version 2.26.3 (20100126.1600)
 -->
<!-- Title: G Pages: 1 -->
<svg width="500pt" height="1272pt"
 viewBox="0.00 0.00 500.00 1272.00" xmlns="http://www.w3.org/2000/svg" xmlns:xlink="http://www.w3.org/1999/xlink">
<g id="graph1" class="graph" transform="scale(1 1) rotate(0) translate(4 1268)">
<title>G</title>
<polygon fill="white" stroke="white" points="-4,5 -4,-1268 497,-1268 497,5 -4,5"/>
<g id="graph2" class="cluster"><title>cluster_triagens</title>
<polyline fill="none" stroke="gray" points="174,-8 472,-8 "/>
<path fill="none" stroke="gray" d="M472,-8C478,-8 484,-14 484,-20"/>
<polyline fill="none" stroke="gray" points="484,-20 484,-1244 "/>
<path fill="none" stroke="gray" d="M484,-1244C484,-1250 478,-1256 472,-1256"/>
<polyline fill="none" stroke="gray" points="472,-1256 174,-1256 "/>
<path fill="none" stroke="gray" d="M174,-1256C168,-1256 162,-1250 162,-1244"/>
<polyline fill="none" stroke="gray" points="162,-1244 162,-20 "/>
<path fill="none" stroke="gray" d="M162,-20C162,-14 168,-8 174,-8"/>
<text text-anchor="middle" x="323" y="-1242.1" font-family="Times Roman,serif" font-size="11.00" fill="gray">triagens</text>
</g>
<g id="graph3" class="cluster"><title>cluster_triagens\ArangoDb</title>
<polyline fill="none" stroke="gray" points="182,-16 464,-16 "/>
<path fill="none" stroke="gray" d="M464,-16C470,-16 476,-22 476,-28"/>
<polyline fill="none" stroke="gray" points="476,-28 476,-1213 "/>
<path fill="none" stroke="gray" d="M476,-1213C476,-1219 470,-1225 464,-1225"/>
<polyline fill="none" stroke="gray" points="464,-1225 182,-1225 "/>
<path fill="none" stroke="gray" d="M182,-1225C176,-1225 170,-1219 170,-1213"/>
<polyline fill="none" stroke="gray" points="170,-1213 170,-28 "/>
<path fill="none" stroke="gray" d="M170,-28C170,-22 176,-16 182,-16"/>
<text text-anchor="middle" x="323" y="-1211.1" font-family="Times Roman,serif" font-size="11.00" fill="gray">ArangoDb</text>
</g>
<!-- \\triagens\\ArangoDb\\HttpHelper -->
<g id="node3" class="node"><title>\\triagens\\ArangoDb\\HttpHelper</title>
<a xlink:href="db_triagens_ArangoDb_HttpHelper.html" xlink:title="HttpHelper" target="_parent">
<polygon fill="none" stroke="black" points="444,-1194 360,-1194 360,-1158 444,-1158 444,-1194"/>
<text text-anchor="middle" x="402" y="-1173.1" font-family="Courier,monospace" font-size="11.00">HttpHelper</text>
</a>
</g>
<!-- \\triagens\\ArangoDb\\Scope -->
<g id="node4" class="node"><title>\\triagens\\ArangoDb\\Scope</title>
<a xlink:href="db_triagens_ArangoDb_Scope.html" xlink:title="Scope" target="_parent">
<polygon fill="none" stroke="black" points="429,-1140 375,-1140 375,-1104 429,-1104 429,-1140"/>
<text text-anchor="middle" x="402" y="-1119.1" font-family="Courier,monospace" font-size="11.00">Scope</text>
</a>
</g>
<!-- \\triagens\\ArangoDb\\Exception -->
<g id="node5" class="node"><title>\\triagens\\ArangoDb\\Exception</title>
<a xlink:href="db_triagens_ArangoDb_Exception.html" xlink:title="Exception" target="_parent">
<polygon fill="none" stroke="black" points="259,-222 183,-222 183,-186 259,-186 259,-222"/>
<text text-anchor="middle" x="221" y="-201.1" font-family="Courier,monospace" font-size="11.00">Exception</text>
</a>
</g>
<!-- \\Exception -->
<g id="node28" class="node"><title>\\Exception</title>
<ellipse fill="none" stroke="black" cx="53" cy="-204" rx="53.033" ry="19.0919"/>
<text text-anchor="middle" x="53" y="-200.9" font-family="Times Roman,serif" font-size="14.00" fill="gray">\Exception</text>
</g>
<!-- \\triagens\\ArangoDb\\Exception&#45;&gt;\\Exception -->
<g id="edge4" class="edge"><title>\\triagens\\ArangoDb\\Exception&#45;&gt;\\Exception</title>
<path fill="none" stroke="black" d="M182.457,-204C162.8,-204 138.389,-204 116.08,-204"/>
<polygon fill="none" stroke="black" points="116.003,-200.5 106.003,-204 116.003,-207.5 116.003,-200.5"/>
</g>
<!-- \\triagens\\ArangoDb\\Autoloader -->
<g id="node6" class="node"><title>\\triagens\\ArangoDb\\Autoloader</title>
<a xlink:href="db_triagens_ArangoDb_Autoloader.html" xlink:title="Autoloader" target="_parent">
<polygon fill="none" stroke="black" points="444,-1086 360,-1086 360,-1050 444,-1050 444,-1086"/>
<text text-anchor="middle" x="402" y="-1065.1" font-family="Courier,monospace" font-size="11.00">Autoloader</text>
</a>
</g>
<!-- \\triagens\\ArangoDb\\Collection -->
<g id="node7" class="node"><title>\\triagens\\ArangoDb\\Collection</title>
<a xlink:href="db_triagens_ArangoDb_Collection.html" xlink:title="Collection" target="_parent">
<polygon fill="none" stroke="black" points="444,-1032 360,-1032 360,-996 444,-996 444,-1032"/>
<text text-anchor="middle" x="402" y="-1011.1" font-family="Courier,monospace" font-size="11.00">Collection</text>
</a>
</g>
<!-- \\triagens\\ArangoDb\\DefaultValues -->
<g id="node8" class="node"><title>\\triagens\\ArangoDb\\DefaultValues</title>
<a xlink:href="db_triagens_ArangoDb_DefaultValues.html" xlink:title="«abstract»&lt;br/&gt;DefaultValues" target="_parent">
<polygon fill="none" stroke="black" points="454,-978 350,-978 350,-942 454,-942 454,-978"/>
<text text-anchor="start" x="368" y="-965.433" font-family="Courier,monospace" font-size="11.00">«abstract»</text>
<text text-anchor="start" x="358" y="-952.233" font-family="Courier,monospace" font-size="11.00">DefaultValues</text>
</a>
</g>
<!-- \\triagens\\ArangoDb\\ServerException -->
<g id="node9" class="node"><title>\\triagens\\ArangoDb\\ServerException</title>
<a xlink:href="db_triagens_ArangoDb_ServerException.html" xlink:title="ServerException" target="_parent">
<polygon fill="none" stroke="black" points="461,-114 343,-114 343,-78 461,-78 461,-114"/>
<text text-anchor="middle" x="402" y="-93.1" font-family="Courier,monospace" font-size="11.00">ServerException</text>
</a>
</g>
<!-- \\triagens\\ArangoDb\\ServerException&#45;&gt;\\triagens\\ArangoDb\\Exception -->
<g id="edge6" class="edge"><title>\\triagens\\ArangoDb\\ServerException&#45;&gt;\\triagens\\ArangoDb\\Exception</title>
<path fill="none" stroke="black" d="M354.172,-114.063C347.956,-116.845 341.755,-119.849 336,-123 305.801,-139.536 273.985,-162.426 251.492,-179.656"/>
<polygon fill="none" stroke="black" points="249.117,-177.069 243.351,-185.957 253.401,-182.604 249.117,-177.069"/>
</g>
<!-- \\triagens\\ArangoDb\\Connection -->
<g id="node10" class="node"><title>\\triagens\\ArangoDb\\Connection</title>
<a xlink:href="db_triagens_ArangoDb_Connection.html" xlink:title="Connection" target="_parent">
<polygon fill="none" stroke="black" points="444,-870 360,-870 360,-834 444,-834 444,-870"/>
<text text-anchor="middle" x="402" y="-849.1" font-family="Courier,monospace" font-size="11.00">Connection</text>
</a>
</g>
<!-- \\triagens\\ArangoDb\\UpdatePolicy -->
<g id="node11" class="node"><title>\\triagens\\ArangoDb\\UpdatePolicy</title>
<a xlink:href="db_triagens_ArangoDb_UpdatePolicy.html" xlink:title="UpdatePolicy" target="_parent">
<polygon fill="none" stroke="black" points="451,-816 353,-816 353,-780 451,-780 451,-816"/>
<text text-anchor="middle" x="402" y="-795.1" font-family="Courier,monospace" font-size="11.00">UpdatePolicy</text>
</a>
</g>
<!-- \\triagens\\ArangoDb\\ValueValidator -->
<g id="node12" class="node"><title>\\triagens\\ArangoDb\\ValueValidator</title>
<a xlink:href="db_triagens_ArangoDb_ValueValidator.html" xlink:title="ValueValidator" target="_parent">
<polygon fill="none" stroke="black" points="457,-762 347,-762 347,-726 457,-726 457,-762"/>
<text text-anchor="middle" x="402" y="-741.1" font-family="Courier,monospace" font-size="11.00">ValueValidator</text>
</a>
</g>
<!-- \\triagens\\ArangoDb\\CollectionHandler -->
<g id="node13" class="node"><title>\\triagens\\ArangoDb\\CollectionHandler</title>
<a xlink:href="db_triagens_ArangoDb_CollectionHandler.html" xlink:title="CollectionHandler" target="_parent">
<polygon fill="none" stroke="black" points="467,-924 337,-924 337,-888 467,-888 467,-924"/>
<text text-anchor="middle" x="402" y="-903.1" font-family="Courier,monospace" font-size="11.00">CollectionHandler</text>
</a>
</g>
<!-- \\triagens\\ArangoDb\\Handler -->
<g id="node15" class="node"><title>\\triagens\\ArangoDb\\Handler</title>
<a xlink:href="db_triagens_ArangoDb_Handler.html" xlink:title="«abstract»&lt;br/&gt;Handler" target="_parent">
<polygon fill="none" stroke="black" points="263,-816 179,-816 179,-780 263,-780 263,-816"/>
<text text-anchor="start" x="187" y="-803.433" font-family="Courier,monospace" font-size="11.00">«abstract»</text>
<text text-anchor="start" x="197" y="-790.233" font-family="Courier,monospace" font-size="11.00">Handler</text>
</a>
</g>
<!-- \\triagens\\ArangoDb\\CollectionHandler&#45;&gt;\\triagens\\ArangoDb\\Handler -->
<g id="edge8" class="edge"><title>\\triagens\\ArangoDb\\CollectionHandler&#45;&gt;\\triagens\\ArangoDb\\Handler</title>
<path fill="none" stroke="black" d="M354.172,-887.937C347.956,-885.155 341.755,-882.151 336,-879 305.801,-862.464 273.985,-839.574 251.492,-822.344"/>
<polygon fill="none" stroke="black" points="253.401,-819.396 243.351,-816.043 249.117,-824.931 253.401,-819.396"/>
</g>
<!-- \\triagens\\ArangoDb\\URLHelper -->
<g id="node14" class="node"><title>\\triagens\\ArangoDb\\URLHelper</title>
<a xlink:href="db_triagens_ArangoDb_UrlHelper.html" xlink:title="«abstract»&lt;br/&gt;URLHelper" target="_parent">
<polygon fill="none" stroke="black" points="444,-654 360,-654 360,-618 444,-618 444,-654"/>
<text text-anchor="start" x="368" y="-641.433" font-family="Courier,monospace" font-size="11.00">«abstract»</text>
<text text-anchor="start" x="371.5" y="-628.233" font-family="Courier,monospace" font-size="11.00">URLHelper</text>
</a>
</g>
<!-- \\triagens\\ArangoDb\\Endpoint -->
<g id="node16" class="node"><title>\\triagens\\ArangoDb\\Endpoint</title>
<a xlink:href="db_triagens_ArangoDb_Endpoint.html" xlink:title="Endpoint" target="_parent">
<polygon fill="none" stroke="black" points="437,-600 367,-600 367,-564 437,-564 437,-600"/>
<text text-anchor="middle" x="402" y="-579.1" font-family="Courier,monospace" font-size="11.00">Endpoint</text>
</a>
</g>
<!-- \\triagens\\ArangoDb\\Statement -->
<g id="node17" class="node"><title>\\triagens\\ArangoDb\\Statement</title>
<a xlink:href="db_triagens_ArangoDb_Statement.html" xlink:title="Statement" target="_parent">
<polygon fill="none" stroke="black" points="440,-546 364,-546 364,-510 440,-510 440,-546"/>
<text text-anchor="middle" x="402" y="-525.1" font-family="Courier,monospace" font-size="11.00">Statement</text>
</a>
</g>
<!-- \\triagens\\ArangoDb\\Cursor -->
<g id="node18" class="node"><title>\\triagens\\ArangoDb\\Cursor</title>
<a xlink:href="db_triagens_ArangoDb_Cursor.html" xlink:title="Cursor" target="_parent">
<polygon fill="none" stroke="black" points="430,-492 374,-492 374,-456 430,-456 430,-492"/>
<text text-anchor="middle" x="402" y="-471.1" font-family="Courier,monospace" font-size="11.00">Cursor</text>
</a>
</g>
<!-- \\triagens\\ArangoDb\\DocumentHandler -->
<g id="node19" class="node"><title>\\triagens\\ArangoDb\\DocumentHandler</title>
<a xlink:href="db_triagens_ArangoDb_DocumentHandler.html" xlink:title="DocumentHandler" target="_parent">
<polygon fill="none" stroke="black" points="461,-708 343,-708 343,-672 461,-672 461,-708"/>
<text text-anchor="middle" x="402" y="-687.1" font-family="Courier,monospace" font-size="11.00">DocumentHandler</text>
</a>
</g>
<!-- \\triagens\\ArangoDb\\DocumentHandler&#45;&gt;\\triagens\\ArangoDb\\Handler -->
<g id="edge10" class="edge"><title>\\triagens\\ArangoDb\\DocumentHandler&#45;&gt;\\triagens\\ArangoDb\\Handler</title>
<path fill="none" stroke="black" d="M354.172,-708.063C347.956,-710.845 341.755,-713.849 336,-717 305.801,-733.536 273.985,-756.426 251.492,-773.656"/>
<polygon fill="none" stroke="black" points="249.117,-771.069 243.351,-779.957 253.401,-776.604 249.117,-771.069"/>
</g>
<!-- \\triagens\\ArangoDb\\BindVars -->
<g id="node20" class="node"><title>\\triagens\\ArangoDb\\BindVars</title>
<a xlink:href="db_triagens_ArangoDb_BindVars.html" xlink:title="BindVars" target="_parent">
<polygon fill="none" stroke="black" points="437,-384 367,-384 367,-348 437,-348 437,-384"/>
<text text-anchor="middle" x="402" y="-363.1" font-family="Courier,monospace" font-size="11.00">BindVars</text>
</a>
</g>
<!-- \\triagens\\ArangoDb\\URLs -->
<g id="node21" class="node"><title>\\triagens\\ArangoDb\\URLs</title>
<a xlink:href="db_triagens_ArangoDb_Urls.html" xlink:title="«abstract»&lt;br/&gt;URLs" target="_parent">
<polygon fill="none" stroke="black" points="444,-330 360,-330 360,-294 444,-294 444,-330"/>
<text text-anchor="start" x="368" y="-317.433" font-family="Courier,monospace" font-size="11.00">«abstract»</text>
<text text-anchor="start" x="388" y="-304.233" font-family="Courier,monospace" font-size="11.00">URLs</text>
</a>
</g>
<!-- \\triagens\\ArangoDb\\ConnectionOptions -->
<g id="node22" class="node"><title>\\triagens\\ArangoDb\\ConnectionOptions</title>
<a xlink:href="db_triagens_ArangoDb_ConnectionOptions.html" xlink:title="ConnectionOptions" target="_parent">
<polygon fill="none" stroke="black" points="467,-276 337,-276 337,-240 467,-240 467,-276"/>
<text text-anchor="middle" x="402" y="-255.1" font-family="Courier,monospace" font-size="11.00">ConnectionOptions</text>
</a>
</g>
<!-- \\triagens\\ArangoDb\\ConnectException -->
<g id="node23" class="node"><title>\\triagens\\ArangoDb\\ConnectException</title>
<a xlink:href="db_triagens_ArangoDb_ConnectException.html" xlink:title="ConnectException" target="_parent">
<polygon fill="none" stroke="black" points="464,-438 340,-438 340,-402 464,-402 464,-438"/>
<text text-anchor="middle" x="402" y="-417.1" font-family="Courier,monospace" font-size="11.00">ConnectException</text>
</a>
</g>
<!-- \\triagens\\ArangoDb\\ConnectException&#45;&gt;\\triagens\\ArangoDb\\Exception -->
<g id="edge12" class="edge"><title>\\triagens\\ArangoDb\\ConnectException&#45;&gt;\\triagens\\ArangoDb\\Exception</title>
<path fill="none" stroke="black" d="M348.708,-401.826C344.179,-399.226 339.862,-396.294 336,-393 283.2,-347.96 247.644,-272.346 231.294,-231.754"/>
<polygon fill="none" stroke="black" points="234.466,-230.256 227.552,-222.228 227.95,-232.816 234.466,-230.256"/>
</g>
<!-- \\triagens\\ArangoDb\\Document -->
<g id="node24" class="node"><title>\\triagens\\ArangoDb\\Document</title>
<a xlink:href="db_triagens_ArangoDb_Document.html" xlink:title="Document" target="_parent">
<polygon fill="none" stroke="black" points="437,-168 367,-168 367,-132 437,-132 437,-168"/>
<text text-anchor="middle" x="402" y="-147.1" font-family="Courier,monospace" font-size="11.00">Document</text>
</a>
</g>
<!-- \\triagens\\ArangoDb\\ClientException -->
<g id="node25" class="node"><title>\\triagens\\ArangoDb\\ClientException</title>
<a xlink:href="db_triagens_ArangoDb_ClientException.html" xlink:title="ClientException" target="_parent">
<polygon fill="none" stroke="black" points="461,-222 343,-222 343,-186 461,-186 461,-222"/>
<text text-anchor="middle" x="402" y="-201.1" font-family="Courier,monospace" font-size="11.00">ClientException</text>
</a>
</g>
<!-- \\triagens\\ArangoDb\\ClientException&#45;&gt;\\triagens\\ArangoDb\\Exception -->
<g id="edge14" class="edge"><title>\\triagens\\ArangoDb\\ClientException&#45;&gt;\\triagens\\ArangoDb\\Exception</title>
<path fill="none" stroke="black" d="M342.734,-204C319.041,-204 292.093,-204 269.584,-204"/>
<polygon fill="none" stroke="black" points="269.583,-200.5 259.583,-204 269.583,-207.5 269.583,-200.5"/>
</g>
<!-- \\triagens\\ArangoDb\\HttpResponse -->
<g id="node26" class="node"><title>\\triagens\\ArangoDb\\HttpResponse</title>
<a xlink:href="db_triagens_ArangoDb_HttpResponse.html" xlink:title="HttpResponse" target="_parent">
<polygon fill="none" stroke="black" points="451,-60 353,-60 353,-24 451,-24 451,-60"/>
<text text-anchor="middle" x="402" y="-39.1" font-family="Courier,monospace" font-size="11.00">HttpResponse</text>
</a>
</g>
</g>
</svg>
