<?xml version="1.0" encoding="UTF-8" standalone="no"?>
<!DOCTYPE svg PUBLIC "-//W3C//DTD SVG 1.1//EN"
 "http://www.w3.org/Graphics/SVG/1.1/DTD/svg11.dtd">
<!-- Generated by graphviz version 2.26.0 (20091210.2329)
 -->
<!-- Title: G Pages: 1 -->
<svg width="562pt" height="1582pt"
 viewBox="0.00 0.00 562.00 1582.00" xmlns="http://www.w3.org/2000/svg" xmlns:xlink="http://www.w3.org/1999/xlink">
<g id="graph1" class="graph" transform="scale(1 1) rotate(0) translate(4 1578)">
<title>G</title>
<polygon fill="white" stroke="white" points="-4,5 -4,-1578 559,-1578 559,5 -4,5"/>
<g id="graph2" class="cluster"><title>cluster_triagens</title>
<polyline fill="none" stroke="gray" points="20,-102 534,-102 "/>
<path fill="none" stroke="gray" d="M534,-102C540,-102 546,-108 546,-114"/>
<polyline fill="none" stroke="gray" points="546,-114 546,-1554 "/>
<path fill="none" stroke="gray" d="M546,-1554C546,-1560 540,-1566 534,-1566"/>
<polyline fill="none" stroke="gray" points="534,-1566 20,-1566 "/>
<path fill="none" stroke="gray" d="M20,-1566C14,-1566 8,-1560 8,-1554"/>
<polyline fill="none" stroke="gray" points="8,-1554 8,-114 "/>
<path fill="none" stroke="gray" d="M8,-114C8,-108 14,-102 20,-102"/>
<text text-anchor="middle" x="277" y="-1552.1" font-family="Times Roman,serif" font-size="11.00" fill="gray">triagens</text>
</g>
<g id="graph3" class="cluster"><title>cluster_triagens\ArangoDb</title>
<polyline fill="none" stroke="gray" points="28,-110 526,-110 "/>
<path fill="none" stroke="gray" d="M526,-110C532,-110 538,-116 538,-122"/>
<polyline fill="none" stroke="gray" points="538,-122 538,-1523 "/>
<path fill="none" stroke="gray" d="M538,-1523C538,-1529 532,-1535 526,-1535"/>
<polyline fill="none" stroke="gray" points="526,-1535 28,-1535 "/>
<path fill="none" stroke="gray" d="M28,-1535C22,-1535 16,-1529 16,-1523"/>
<polyline fill="none" stroke="gray" points="16,-1523 16,-122 "/>
<path fill="none" stroke="gray" d="M16,-122C16,-116 22,-110 28,-110"/>
<text text-anchor="middle" x="277" y="-1521.1" font-family="Times Roman,serif" font-size="11.00" fill="gray">ArangoDb</text>
</g>
<!-- \\triagens\\ArangoDb\\ValueValidator -->
<g id="node3" class="node"><title>\\triagens\\ArangoDb\\ValueValidator</title>
<a xlink:href="ValueValidator.html" xlink:title="ValueValidator" target="_parent">
<polygon fill="none" stroke="black" points="519,-1504 409,-1504 409,-1468 519,-1468 519,-1504"/>
<text text-anchor="middle" x="464" y="-1483.1" font-family="Courier,monospace" font-size="11.00">ValueValidator</text>
</a>
</g>
<!-- \\triagens\\ArangoDb\\Batch -->
<g id="node4" class="node"><title>\\triagens\\ArangoDb\\Batch</title>
<a xlink:href="Batch.html" xlink:title="Batch" target="_parent">
<polygon fill="none" stroke="black" points="491,-1450 437,-1450 437,-1414 491,-1414 491,-1450"/>
<text text-anchor="middle" x="464" y="-1429.1" font-family="Courier,monospace" font-size="11.00">Batch</text>
</a>
</g>
<!-- \\triagens\\ArangoDb\\Vertex -->
<g id="node5" class="node"><title>\\triagens\\ArangoDb\\Vertex</title>
<a xlink:href="Vertex.html" xlink:title="Vertex" target="_parent">
<polygon fill="none" stroke="black" points="492,-1018 436,-1018 436,-982 492,-982 492,-1018"/>
<text text-anchor="middle" x="464" y="-997.1" font-family="Courier,monospace" font-size="11.00">Vertex</text>
</a>
</g>
<!-- \\triagens\\ArangoDb\\Document -->
<g id="node26" class="node"><title>\\triagens\\ArangoDb\\Document</title>
<a xlink:href="Document.html" xlink:title="Document" target="_parent">
<polygon fill="none" stroke="black" points="294,-991 224,-991 224,-955 294,-955 294,-991"/>
<text text-anchor="middle" x="259" y="-970.1" font-family="Courier,monospace" font-size="11.00">Document</text>
</a>
</g>
<!-- \\triagens\\ArangoDb\\Vertex&#45;&gt;\\triagens\\ArangoDb\\Document -->
<g id="edge4" class="edge"><title>\\triagens\\ArangoDb\\Vertex&#45;&gt;\\triagens\\ArangoDb\\Document</title>
<path fill="none" stroke="black" d="M435.496,-996.246C401.693,-991.794 344.9,-984.314 304.883,-979.043"/>
<polygon fill="none" stroke="black" points="305.212,-975.556 294.84,-977.72 304.297,-982.496 305.212,-975.556"/>
</g>
<!-- \\triagens\\ArangoDb\\Exception -->
<g id="node6" class="node"><title>\\triagens\\ArangoDb\\Exception</title>
<a xlink:href="Exception.html" xlink:title="Exception" target="_parent">
<polygon fill="none" stroke="black" points="297,-424 221,-424 221,-388 297,-388 297,-424"/>
<text text-anchor="middle" x="259" y="-403.1" font-family="Courier,monospace" font-size="11.00">Exception</text>
</a>
</g>
<!-- \\Exception -->
<g id="node37" class="node"><title>\\Exception</title>
<ellipse fill="none" stroke="black" cx="67" cy="-75" rx="53.033" ry="19.0919"/>
<text text-anchor="middle" x="67" y="-71.9" font-family="Times Roman,serif" font-size="14.00" fill="gray">\Exception</text>
</g>
<!-- \\triagens\\ArangoDb\\Exception&#45;&gt;\\Exception -->
<g id="edge6" class="edge"><title>\\triagens\\ArangoDb\\Exception&#45;&gt;\\Exception</title>
<path fill="none" stroke="black" d="M220.181,-400.274C209.824,-397.027 199.455,-391.947 192,-384 104.677,-290.916 196.986,-207.8 120,-106 117.06,-102.113 113.48,-98.6254 109.582,-95.5189"/>
<polygon fill="none" stroke="black" points="111.436,-92.544 101.238,-89.6712 107.419,-98.2765 111.436,-92.544"/>
</g>
<!-- \\triagens\\ArangoDb\\BindVars -->
<g id="node7" class="node"><title>\\triagens\\ArangoDb\\BindVars</title>
<a xlink:href="BindVars.html" xlink:title="BindVars" target="_parent">
<polygon fill="none" stroke="black" points="499,-1342 429,-1342 429,-1306 499,-1306 499,-1342"/>
<text text-anchor="middle" x="464" y="-1321.1" font-family="Courier,monospace" font-size="11.00">BindVars</text>
</a>
</g>
<!-- \\triagens\\ArangoDb\\Scope -->
<g id="node8" class="node"><title>\\triagens\\ArangoDb\\Scope</title>
<a xlink:href="Scope.html" xlink:title="Scope" target="_parent">
<polygon fill="none" stroke="black" points="491,-1288 437,-1288 437,-1252 491,-1252 491,-1288"/>
<text text-anchor="middle" x="464" y="-1267.1" font-family="Courier,monospace" font-size="11.00">Scope</text>
</a>
</g>
<!-- \\triagens\\ArangoDb\\ConnectionOptions -->
<g id="node9" class="node"><title>\\triagens\\ArangoDb\\ConnectionOptions</title>
<a xlink:href="ConnectionOptions.html" xlink:title="ConnectionOptions" target="_parent">
<polygon fill="none" stroke="black" points="529,-316 399,-316 399,-280 529,-280 529,-316"/>
<text text-anchor="middle" x="464" y="-295.1" font-family="Courier,monospace" font-size="11.00">ConnectionOptions</text>
</a>
</g>
<!-- \\ArrayAccess -->
<g id="node49" class="node"><title>\\ArrayAccess</title>
<ellipse fill="none" stroke="black" cx="259" cy="-75" rx="65.9683" ry="19.0919"/>
<text text-anchor="middle" x="259" y="-71.9" font-family="Times Roman,serif" font-size="14.00" fill="gray">\\ArrayAccess</text>
</g>
<!-- \\triagens\\ArangoDb\\ConnectionOptions&#45;&gt;\\ArrayAccess -->
<g id="edge28" class="edge"><title>\\triagens\\ArangoDb\\ConnectionOptions&#45;&gt;\\ArrayAccess</title>
<path fill="none" stroke="black" stroke-dasharray="1,5" d="M409.572,-279.963C405.386,-277.347 401.453,-274.374 398,-271 340.773,-215.082 381.954,-163.192 326,-106 321.751,-101.657 316.778,-97.8593 311.495,-94.554"/>
<polygon fill="none" stroke="black" points="312.819,-91.2838 302.385,-89.447 309.396,-97.3898 312.819,-91.2838"/>
</g>
<!-- \\triagens\\ArangoDb\\Statement -->
<g id="node10" class="node"><title>\\triagens\\ArangoDb\\Statement</title>
<a xlink:href="Statement.html" xlink:title="Statement" target="_parent">
<polygon fill="none" stroke="black" points="502,-1180 426,-1180 426,-1144 502,-1144 502,-1180"/>
<text text-anchor="middle" x="464" y="-1159.1" font-family="Courier,monospace" font-size="11.00">Statement</text>
</a>
</g>
<!-- \\triagens\\ArangoDb\\DocumentHandler -->
<g id="node11" class="node"><title>\\triagens\\ArangoDb\\DocumentHandler</title>
<a xlink:href="DocumentHandler.html" xlink:title="DocumentHandler" target="_parent">
<polygon fill="none" stroke="black" points="318,-1234 200,-1234 200,-1198 318,-1198 318,-1234"/>
<text text-anchor="middle" x="259" y="-1213.1" font-family="Courier,monospace" font-size="11.00">DocumentHandler</text>
</a>
</g>
<!-- \\triagens\\ArangoDb\\Handler -->
<g id="node28" class="node"><title>\\triagens\\ArangoDb\\Handler</title>
<a xlink:href="Handler.html" xlink:title="«abstract»&lt;br/&gt;Handler" target="_parent">
<polygon fill="none" stroke="black" points="109,-1126 25,-1126 25,-1090 109,-1090 109,-1126"/>
<text text-anchor="start" x="33" y="-1113.43" font-family="Courier,monospace" font-size="11.00">«abstract»</text>
<text text-anchor="start" x="43" y="-1100.23" font-family="Courier,monospace" font-size="11.00">Handler</text>
</a>
</g>
<!-- \\triagens\\ArangoDb\\DocumentHandler&#45;&gt;\\triagens\\ArangoDb\\Handler -->
<g id="edge8" class="edge"><title>\\triagens\\ArangoDb\\DocumentHandler&#45;&gt;\\triagens\\ArangoDb\\Handler</title>
<path fill="none" stroke="black" d="M226.864,-1197.92C194.329,-1179.62 143.884,-1151.25 108.378,-1131.28"/>
<polygon fill="none" stroke="black" points="109.673,-1127.99 99.2413,-1126.14 106.241,-1134.09 109.673,-1127.99"/>
</g>
<!-- \\triagens\\ArangoDb\\Connection -->
<g id="node12" class="node"><title>\\triagens\\ArangoDb\\Connection</title>
<a xlink:href="Connection.html" xlink:title="Connection" target="_parent">
<polygon fill="none" stroke="black" points="506,-1126 422,-1126 422,-1090 506,-1090 506,-1126"/>
<text text-anchor="middle" x="464" y="-1105.1" font-family="Courier,monospace" font-size="11.00">Connection</text>
</a>
</g>
<!-- \\triagens\\ArangoDb\\DefaultValues -->
<g id="node13" class="node"><title>\\triagens\\ArangoDb\\DefaultValues</title>
<a xlink:href="DefaultValues.html" xlink:title="«abstract»&lt;br/&gt;DefaultValues" target="_parent">
<polygon fill="none" stroke="black" points="516,-1072 412,-1072 412,-1036 516,-1036 516,-1072"/>
<text text-anchor="start" x="430" y="-1059.43" font-family="Courier,monospace" font-size="11.00">«abstract»</text>
<text text-anchor="start" x="420" y="-1046.23" font-family="Courier,monospace" font-size="11.00">DefaultValues</text>
</a>
</g>
<!-- \\triagens\\ArangoDb\\ConnectException -->
<g id="node14" class="node"><title>\\triagens\\ArangoDb\\ConnectException</title>
<a xlink:href="ConnectException.html" xlink:title="ConnectException" target="_parent">
<polygon fill="none" stroke="black" points="526,-478 402,-478 402,-442 526,-442 526,-478"/>
<text text-anchor="middle" x="464" y="-457.1" font-family="Courier,monospace" font-size="11.00">ConnectException</text>
</a>
</g>
<!-- \\triagens\\ArangoDb\\ConnectException&#45;&gt;\\triagens\\ArangoDb\\Exception -->
<g id="edge10" class="edge"><title>\\triagens\\ArangoDb\\ConnectException&#45;&gt;\\triagens\\ArangoDb\\Exception</title>
<path fill="none" stroke="black" d="M401.379,-443.505C371.282,-435.577 335.75,-426.217 307.711,-418.831"/>
<polygon fill="none" stroke="black" points="308.305,-415.368 297.743,-416.206 306.522,-422.137 308.305,-415.368"/>
</g>
<!-- \\triagens\\ArangoDb\\ClientException -->
<g id="node15" class="node"><title>\\triagens\\ArangoDb\\ClientException</title>
<a xlink:href="ClientException.html" xlink:title="ClientException" target="_parent">
<polygon fill="none" stroke="black" points="523,-370 405,-370 405,-334 523,-334 523,-370"/>
<text text-anchor="middle" x="464" y="-349.1" font-family="Courier,monospace" font-size="11.00">ClientException</text>
</a>
</g>
<!-- \\triagens\\ArangoDb\\ClientException&#45;&gt;\\triagens\\ArangoDb\\Exception -->
<g id="edge12" class="edge"><title>\\triagens\\ArangoDb\\ClientException&#45;&gt;\\triagens\\ArangoDb\\Exception</title>
<path fill="none" stroke="black" d="M404.981,-367.547C374.085,-375.685 336.719,-385.528 307.526,-393.218"/>
<polygon fill="none" stroke="black" points="306.343,-389.91 297.565,-395.842 308.126,-396.679 306.343,-389.91"/>
</g>
<!-- \\triagens\\ArangoDb\\ServerException -->
<g id="node16" class="node"><title>\\triagens\\ArangoDb\\ServerException</title>
<a xlink:href="ServerException.html" xlink:title="ServerException" target="_parent">
<polygon fill="none" stroke="black" points="523,-856 405,-856 405,-820 523,-820 523,-856"/>
<text text-anchor="middle" x="464" y="-835.1" font-family="Courier,monospace" font-size="11.00">ServerException</text>
</a>
</g>
<!-- \\triagens\\ArangoDb\\ServerException&#45;&gt;\\triagens\\ArangoDb\\Exception -->
<g id="edge14" class="edge"><title>\\triagens\\ArangoDb\\ServerException&#45;&gt;\\triagens\\ArangoDb\\Exception</title>
<path fill="none" stroke="black" d="M408.641,-819.842C404.758,-817.263 401.144,-814.331 398,-811 293.164,-699.933 267.072,-506.284 260.856,-434.143"/>
<polygon fill="none" stroke="black" points="264.332,-433.71 260.048,-424.021 257.355,-434.268 264.332,-433.71"/>
</g>
<!-- \\triagens\\ArangoDb\\Graph -->
<g id="node17" class="node"><title>\\triagens\\ArangoDb\\Graph</title>
<a xlink:href="Graph.html" xlink:title="Graph" target="_parent">
<polygon fill="none" stroke="black" points="491,-964 437,-964 437,-928 491,-928 491,-964"/>
<text text-anchor="middle" x="464" y="-943.1" font-family="Courier,monospace" font-size="11.00">Graph</text>
</a>
</g>
<!-- \\triagens\\ArangoDb\\Graph&#45;&gt;\\triagens\\ArangoDb\\Document -->
<g id="edge16" class="edge"><title>\\triagens\\ArangoDb\\Graph&#45;&gt;\\triagens\\ArangoDb\\Document</title>
<path fill="none" stroke="black" d="M436.778,-949.585C403.113,-954.019 345.303,-961.633 304.771,-966.972"/>
<polygon fill="none" stroke="black" points="304.063,-963.535 294.606,-968.31 304.977,-970.475 304.063,-963.535"/>
</g>
<!-- \\triagens\\ArangoDb\\HttpResponse -->
<g id="node18" class="node"><title>\\triagens\\ArangoDb\\HttpResponse</title>
<a xlink:href="HttpResponse.html" xlink:title="HttpResponse" target="_parent">
<polygon fill="none" stroke="black" points="513,-802 415,-802 415,-766 513,-766 513,-802"/>
<text text-anchor="middle" x="464" y="-781.1" font-family="Courier,monospace" font-size="11.00">HttpResponse</text>
</a>
</g>
<!-- \\triagens\\ArangoDb\\BatchPart -->
<g id="node19" class="node"><title>\\triagens\\ArangoDb\\BatchPart</title>
<a xlink:href="BatchPart.html" xlink:title="BatchPart" target="_parent">
<polygon fill="none" stroke="black" points="502,-748 426,-748 426,-712 502,-712 502,-748"/>
<text text-anchor="middle" x="464" y="-727.1" font-family="Courier,monospace" font-size="11.00">BatchPart</text>
</a>
</g>
<!-- \\triagens\\ArangoDb\\UpdatePolicy -->
<g id="node20" class="node"><title>\\triagens\\ArangoDb\\UpdatePolicy</title>
<a xlink:href="UpdatePolicy.html" xlink:title="UpdatePolicy" target="_parent">
<polygon fill="none" stroke="black" points="513,-694 415,-694 415,-658 513,-658 513,-694"/>
<text text-anchor="middle" x="464" y="-673.1" font-family="Courier,monospace" font-size="11.00">UpdatePolicy</text>
</a>
</g>
<!-- \\triagens\\ArangoDb\\CollectionHandler -->
<g id="node21" class="node"><title>\\triagens\\ArangoDb\\CollectionHandler</title>
<a xlink:href="CollectionHandler.html" xlink:title="CollectionHandler" target="_parent">
<polygon fill="none" stroke="black" points="324,-937 194,-937 194,-901 324,-901 324,-937"/>
<text text-anchor="middle" x="259" y="-916.1" font-family="Courier,monospace" font-size="11.00">CollectionHandler</text>
</a>
</g>
<!-- \\triagens\\ArangoDb\\CollectionHandler&#45;&gt;\\triagens\\ArangoDb\\Handler -->
<g id="edge18" class="edge"><title>\\triagens\\ArangoDb\\CollectionHandler&#45;&gt;\\triagens\\ArangoDb\\Handler</title>
<path fill="none" stroke="black" d="M204.312,-937.009C199.89,-939.636 195.706,-942.62 192,-946 140.304,-993.15 171.451,-1038.58 120,-1086 119.423,-1086.53 118.831,-1087.05 118.227,-1087.56"/>
<polygon fill="none" stroke="black" points="115.906,-1084.91 109.738,-1093.53 119.932,-1090.64 115.906,-1084.91"/>
</g>
<!-- \\triagens\\ArangoDb\\Endpoint -->
<g id="node22" class="node"><title>\\triagens\\ArangoDb\\Endpoint</title>
<a xlink:href="Endpoint.html" xlink:title="Endpoint" target="_parent">
<polygon fill="none" stroke="black" points="499,-640 429,-640 429,-604 499,-604 499,-640"/>
<text text-anchor="middle" x="464" y="-619.1" font-family="Courier,monospace" font-size="11.00">Endpoint</text>
</a>
</g>
<!-- \\triagens\\ArangoDb\\Collection -->
<g id="node23" class="node"><title>\\triagens\\ArangoDb\\Collection</title>
<a xlink:href="Collection.html" xlink:title="Collection" target="_parent">
<polygon fill="none" stroke="black" points="506,-586 422,-586 422,-550 506,-550 506,-586"/>
<text text-anchor="middle" x="464" y="-565.1" font-family="Courier,monospace" font-size="11.00">Collection</text>
</a>
</g>
<!-- \\triagens\\ArangoDb\\HttpHelper -->
<g id="node24" class="node"><title>\\triagens\\ArangoDb\\HttpHelper</title>
<a xlink:href="HttpHelper.html" xlink:title="HttpHelper" target="_parent">
<polygon fill="none" stroke="black" points="506,-532 422,-532 422,-496 506,-496 506,-532"/>
<text text-anchor="middle" x="464" y="-511.1" font-family="Courier,monospace" font-size="11.00">HttpHelper</text>
</a>
</g>
<!-- \\triagens\\ArangoDb\\VertexHandler -->
<g id="node25" class="node"><title>\\triagens\\ArangoDb\\VertexHandler</title>
<a xlink:href="VertexHandler.html" xlink:title="VertexHandler" target="_parent">
<polygon fill="none" stroke="black" points="516,-1396 412,-1396 412,-1360 516,-1360 516,-1396"/>
<text text-anchor="middle" x="464" y="-1375.1" font-family="Courier,monospace" font-size="11.00">VertexHandler</text>
</a>
</g>
<!-- \\triagens\\ArangoDb\\VertexHandler&#45;&gt;\\triagens\\ArangoDb\\DocumentHandler -->
<g id="edge20" class="edge"><title>\\triagens\\ArangoDb\\VertexHandler&#45;&gt;\\triagens\\ArangoDb\\DocumentHandler</title>
<path fill="none" stroke="black" d="M413.938,-1359.94C408.4,-1357.24 402.972,-1354.25 398,-1351 350.918,-1320.18 306.018,-1272 280.55,-1242.3"/>
<polygon fill="none" stroke="black" points="283.03,-1239.82 273.897,-1234.45 277.689,-1244.34 283.03,-1239.82"/>
</g>
<!-- \\triagens\\ArangoDb\\URLHelper -->
<g id="node27" class="node"><title>\\triagens\\ArangoDb\\URLHelper</title>
<a xlink:href="UrlHelper.html" xlink:title="«abstract»&lt;br/&gt;URLHelper" target="_parent">
<polygon fill="none" stroke="black" points="506,-424 422,-424 422,-388 506,-388 506,-424"/>
<text text-anchor="start" x="430" y="-411.433" font-family="Courier,monospace" font-size="11.00">«abstract»</text>
<text text-anchor="start" x="433.5" y="-398.233" font-family="Courier,monospace" font-size="11.00">URLHelper</text>
</a>
</g>
<!-- \\triagens\\ArangoDb\\Edge -->
<g id="node29" class="node"><title>\\triagens\\ArangoDb\\Edge</title>
<a xlink:href="Edge.html" xlink:title="Edge" target="_parent">
<polygon fill="none" stroke="black" points="491,-910 437,-910 437,-874 491,-874 491,-910"/>
<text text-anchor="middle" x="464" y="-889.1" font-family="Courier,monospace" font-size="11.00">Edge</text>
</a>
</g>
<!-- \\triagens\\ArangoDb\\Edge&#45;&gt;\\triagens\\ArangoDb\\Document -->
<g id="edge22" class="edge"><title>\\triagens\\ArangoDb\\Edge&#45;&gt;\\triagens\\ArangoDb\\Document</title>
<path fill="none" stroke="black" d="M436.778,-902.756C402.898,-916.143 344.566,-939.191 303.998,-955.22"/>
<polygon fill="none" stroke="black" points="302.62,-952.001 294.606,-958.931 305.192,-958.512 302.62,-952.001"/>
</g>
<!-- \\triagens\\ArangoDb\\EdgeHandler -->
<g id="node30" class="node"><title>\\triagens\\ArangoDb\\EdgeHandler</title>
<a xlink:href="EdgeHandler.html" xlink:title="EdgeHandler" target="_parent">
<polygon fill="none" stroke="black" points="509,-1234 419,-1234 419,-1198 509,-1198 509,-1234"/>
<text text-anchor="middle" x="464" y="-1213.1" font-family="Courier,monospace" font-size="11.00">EdgeHandler</text>
</a>
</g>
<!-- \\triagens\\ArangoDb\\EdgeHandler&#45;&gt;\\triagens\\ArangoDb\\DocumentHandler -->
<g id="edge24" class="edge"><title>\\triagens\\ArangoDb\\EdgeHandler&#45;&gt;\\triagens\\ArangoDb\\DocumentHandler</title>
<path fill="none" stroke="black" d="M418.249,-1216C391.86,-1216 358.142,-1216 328.532,-1216"/>
<polygon fill="none" stroke="black" points="328.248,-1212.5 318.248,-1216 328.248,-1219.5 328.248,-1212.5"/>
</g>
<!-- \\triagens\\ArangoDb\\Autoloader -->
<g id="node31" class="node"><title>\\triagens\\ArangoDb\\Autoloader</title>
<a xlink:href="Autoloader.html" xlink:title="Autoloader" target="_parent">
<polygon fill="none" stroke="black" points="506,-262 422,-262 422,-226 506,-226 506,-262"/>
<text text-anchor="middle" x="464" y="-241.1" font-family="Courier,monospace" font-size="11.00">Autoloader</text>
</a>
</g>
<!-- \\triagens\\ArangoDb\\URLs -->
<g id="node32" class="node"><title>\\triagens\\ArangoDb\\URLs</title>
<a xlink:href="Urls.html" xlink:title="«abstract»&lt;br/&gt;URLs" target="_parent">
<polygon fill="none" stroke="black" points="506,-208 422,-208 422,-172 506,-172 506,-208"/>
<text text-anchor="start" x="430" y="-195.433" font-family="Courier,monospace" font-size="11.00">«abstract»</text>
<text text-anchor="start" x="450" y="-182.233" font-family="Courier,monospace" font-size="11.00">URLs</text>
</a>
</g>
<!-- \\triagens\\ArangoDb\\Cursor -->
<g id="node33" class="node"><title>\\triagens\\ArangoDb\\Cursor</title>
<a xlink:href="Cursor.html" xlink:title="Cursor" target="_parent">
<polygon fill="none" stroke="black" points="492,-154 436,-154 436,-118 492,-118 492,-154"/>
<text text-anchor="middle" x="464" y="-133.1" font-family="Courier,monospace" font-size="11.00">Cursor</text>
</a>
</g>
<!-- \\Iterator -->
<g id="node51" class="node"><title>\\Iterator</title>
<ellipse fill="none" stroke="black" cx="259" cy="-19" rx="44.7575" ry="19.0919"/>
<text text-anchor="middle" x="259" y="-15.9" font-family="Times Roman,serif" font-size="14.00" fill="gray">\\Iterator</text>
</g>
<!-- \\triagens\\ArangoDb\\Cursor&#45;&gt;\\Iterator -->
<g id="edge30" class="edge"><title>\\triagens\\ArangoDb\\Cursor&#45;&gt;\\Iterator</title>
<path fill="none" stroke="black" stroke-dasharray="1,5" d="M438.878,-117.863C411.826,-98.8019 367.125,-68.6366 326,-47 318.462,-43.0342 310.236,-39.2114 302.211,-35.7323"/>
<polygon fill="none" stroke="black" points="303.509,-32.4812 292.935,-31.8182 300.787,-38.9306 303.509,-32.4812"/>
</g>
<!-- \\triagens\\ArangoDb\\GraphHandler -->
<g id="node34" class="node"><title>\\triagens\\ArangoDb\\GraphHandler</title>
<a xlink:href="GraphHandler.html" xlink:title="GraphHandler" target="_parent">
<polygon fill="none" stroke="black" points="308,-1126 210,-1126 210,-1090 308,-1090 308,-1126"/>
<text text-anchor="middle" x="259" y="-1105.1" font-family="Courier,monospace" font-size="11.00">GraphHandler</text>
</a>
</g>
<!-- \\triagens\\ArangoDb\\GraphHandler&#45;&gt;\\triagens\\ArangoDb\\Handler -->
<g id="edge26" class="edge"><title>\\triagens\\ArangoDb\\GraphHandler&#45;&gt;\\triagens\\ArangoDb\\Handler</title>
<path fill="none" stroke="black" d="M209.555,-1108C182.045,-1108 147.805,-1108 119.777,-1108"/>
<polygon fill="none" stroke="black" points="119.756,-1104.5 109.756,-1108 119.756,-1111.5 119.756,-1104.5"/>
</g>
</g>
</svg>
