<?xml version="1.0" encoding="UTF-8" standalone="no"?>
<!DOCTYPE svg PUBLIC "-//W3C//DTD SVG 1.1//EN"
 "http://www.w3.org/Graphics/SVG/1.1/DTD/svg11.dtd">
<!-- Generated by graphviz version 2.26.3 (20100126.1600)
 -->
<!-- Title: G Pages: 1 -->
<svg width="562pt" height="1312pt"
 viewBox="0.00 0.00 562.00 1312.00" xmlns="http://www.w3.org/2000/svg" xmlns:xlink="http://www.w3.org/1999/xlink">
<g id="graph1" class="graph" transform="scale(1 1) rotate(0) translate(4 1308)">
<title>G</title>
<polygon fill="white" stroke="white" points="-4,5 -4,-1308 559,-1308 559,5 -4,5"/>
<g id="graph2" class="cluster"><title>cluster_triagens</title>
<polyline fill="none" stroke="gray" points="20,-102 534,-102 "/>
<path fill="none" stroke="gray" d="M534,-102C540,-102 546,-108 546,-114"/>
<polyline fill="none" stroke="gray" points="546,-114 546,-1284 "/>
<path fill="none" stroke="gray" d="M546,-1284C546,-1290 540,-1296 534,-1296"/>
<polyline fill="none" stroke="gray" points="534,-1296 20,-1296 "/>
<path fill="none" stroke="gray" d="M20,-1296C14,-1296 8,-1290 8,-1284"/>
<polyline fill="none" stroke="gray" points="8,-1284 8,-114 "/>
<path fill="none" stroke="gray" d="M8,-114C8,-108 14,-102 20,-102"/>
<text text-anchor="middle" x="277" y="-1282.1" font-family="Times Roman,serif" font-size="11.00" fill="gray">triagens</text>
</g>
<g id="graph3" class="cluster"><title>cluster_triagens\ArangoDb</title>
<polyline fill="none" stroke="gray" points="28,-110 526,-110 "/>
<path fill="none" stroke="gray" d="M526,-110C532,-110 538,-116 538,-122"/>
<polyline fill="none" stroke="gray" points="538,-122 538,-1253 "/>
<path fill="none" stroke="gray" d="M538,-1253C538,-1259 532,-1265 526,-1265"/>
<polyline fill="none" stroke="gray" points="526,-1265 28,-1265 "/>
<path fill="none" stroke="gray" d="M28,-1265C22,-1265 16,-1259 16,-1253"/>
<polyline fill="none" stroke="gray" points="16,-1253 16,-122 "/>
<path fill="none" stroke="gray" d="M16,-122C16,-116 22,-110 28,-110"/>
<text text-anchor="middle" x="277" y="-1251.1" font-family="Times Roman,serif" font-size="11.00" fill="gray">ArangoDb</text>
</g>
<!-- \\triagens\\ArangoDb\\HttpHelper -->
<g id="node3" class="node"><title>\\triagens\\ArangoDb\\HttpHelper</title>
<a xlink:href="HttpHelper.html" xlink:title="HttpHelper" target="_parent">
<polygon fill="none" stroke="black" points="506,-1234 422,-1234 422,-1198 506,-1198 506,-1234"/>
<text text-anchor="middle" x="464" y="-1213.1" font-family="Courier,monospace" font-size="11.00">HttpHelper</text>
</a>
</g>
<!-- \\triagens\\ArangoDb\\Scope -->
<g id="node4" class="node"><title>\\triagens\\ArangoDb\\Scope</title>
<a xlink:href="Scope.html" xlink:title="Scope" target="_parent">
<polygon fill="none" stroke="black" points="491,-1180 437,-1180 437,-1144 491,-1144 491,-1180"/>
<text text-anchor="middle" x="464" y="-1159.1" font-family="Courier,monospace" font-size="11.00">Scope</text>
</a>
</g>
<!-- \\triagens\\ArangoDb\\Exception -->
<g id="node5" class="node"><title>\\triagens\\ArangoDb\\Exception</title>
<a xlink:href="Exception.html" xlink:title="Exception" target="_parent">
<polygon fill="none" stroke="black" points="297,-397 221,-397 221,-361 297,-361 297,-397"/>
<text text-anchor="middle" x="259" y="-376.1" font-family="Courier,monospace" font-size="11.00">Exception</text>
</a>
</g>
<!-- \\Exception -->
<g id="node30" class="node"><title>\\Exception</title>
<ellipse fill="none" stroke="black" cx="67" cy="-75" rx="53.033" ry="19.0919"/>
<text text-anchor="middle" x="67" y="-71.9" font-family="Times Roman,serif" font-size="14.00" fill="gray">\Exception</text>
</g>
<!-- \\triagens\\ArangoDb\\Exception&#45;&gt;\\Exception -->
<g id="edge4" class="edge"><title>\\triagens\\ArangoDb\\Exception&#45;&gt;\\Exception</title>
<path fill="none" stroke="black" d="M220.311,-373.149C209.958,-369.9 199.557,-364.849 192,-357 111.507,-273.396 191.196,-197.65 120,-106 117.01,-102.151 113.398,-98.6886 109.481,-95.5967"/>
<polygon fill="none" stroke="black" points="111.32,-92.6121 101.114,-89.7662 107.318,-98.3551 111.32,-92.6121"/>
</g>
<!-- \\triagens\\ArangoDb\\Autoloader -->
<g id="node6" class="node"><title>\\triagens\\ArangoDb\\Autoloader</title>
<a xlink:href="Autoloader.html" xlink:title="Autoloader" target="_parent">
<polygon fill="none" stroke="black" points="506,-1126 422,-1126 422,-1090 506,-1090 506,-1126"/>
<text text-anchor="middle" x="464" y="-1105.1" font-family="Courier,monospace" font-size="11.00">Autoloader</text>
</a>
</g>
<!-- \\triagens\\ArangoDb\\Collection -->
<g id="node7" class="node"><title>\\triagens\\ArangoDb\\Collection</title>
<a xlink:href="Collection.html" xlink:title="Collection" target="_parent">
<polygon fill="none" stroke="black" points="506,-1072 422,-1072 422,-1036 506,-1036 506,-1072"/>
<text text-anchor="middle" x="464" y="-1051.1" font-family="Courier,monospace" font-size="11.00">Collection</text>
</a>
</g>
<!-- \\triagens\\ArangoDb\\DefaultValues -->
<g id="node8" class="node"><title>\\triagens\\ArangoDb\\DefaultValues</title>
<a xlink:href="DefaultValues.html" xlink:title="«abstract»&lt;br/&gt;DefaultValues" target="_parent">
<polygon fill="none" stroke="black" points="516,-1018 412,-1018 412,-982 516,-982 516,-1018"/>
<text text-anchor="start" x="430" y="-1005.43" font-family="Courier,monospace" font-size="11.00">«abstract»</text>
<text text-anchor="start" x="420" y="-992.233" font-family="Courier,monospace" font-size="11.00">DefaultValues</text>
</a>
</g>
<!-- \\triagens\\ArangoDb\\ServerException -->
<g id="node9" class="node"><title>\\triagens\\ArangoDb\\ServerException</title>
<a xlink:href="ServerException.html" xlink:title="ServerException" target="_parent">
<polygon fill="none" stroke="black" points="523,-478 405,-478 405,-442 523,-442 523,-478"/>
<text text-anchor="middle" x="464" y="-457.1" font-family="Courier,monospace" font-size="11.00">ServerException</text>
</a>
</g>
<!-- \\triagens\\ArangoDb\\ServerException&#45;&gt;\\triagens\\ArangoDb\\Exception -->
<g id="edge6" class="edge"><title>\\triagens\\ArangoDb\\ServerException&#45;&gt;\\triagens\\ArangoDb\\Exception</title>
<path fill="none" stroke="black" d="M418.249,-441.923C385.277,-428.895 340.864,-411.346 307.317,-398.091"/>
<polygon fill="none" stroke="black" points="308.309,-394.72 297.722,-394.3 305.736,-401.23 308.309,-394.72"/>
</g>
<!-- \\triagens\\ArangoDb\\Connection -->
<g id="node10" class="node"><title>\\triagens\\ArangoDb\\Connection</title>
<a xlink:href="Connection.html" xlink:title="Connection" target="_parent">
<polygon fill="none" stroke="black" points="506,-910 422,-910 422,-874 506,-874 506,-910"/>
<text text-anchor="middle" x="464" y="-889.1" font-family="Courier,monospace" font-size="11.00">Connection</text>
</a>
</g>
<!-- \\triagens\\ArangoDb\\UpdatePolicy -->
<g id="node11" class="node"><title>\\triagens\\ArangoDb\\UpdatePolicy</title>
<a xlink:href="UpdatePolicy.html" xlink:title="UpdatePolicy" target="_parent">
<polygon fill="none" stroke="black" points="513,-856 415,-856 415,-820 513,-820 513,-856"/>
<text text-anchor="middle" x="464" y="-835.1" font-family="Courier,monospace" font-size="11.00">UpdatePolicy</text>
</a>
</g>
<!-- \\triagens\\ArangoDb\\ValueValidator -->
<g id="node12" class="node"><title>\\triagens\\ArangoDb\\ValueValidator</title>
<a xlink:href="ValueValidator.html" xlink:title="ValueValidator" target="_parent">
<polygon fill="none" stroke="black" points="519,-802 409,-802 409,-766 519,-766 519,-802"/>
<text text-anchor="middle" x="464" y="-781.1" font-family="Courier,monospace" font-size="11.00">ValueValidator</text>
</a>
</g>
<!-- \\triagens\\ArangoDb\\CollectionHandler -->
<g id="node13" class="node"><title>\\triagens\\ArangoDb\\CollectionHandler</title>
<a xlink:href="CollectionHandler.html" xlink:title="CollectionHandler" target="_parent">
<polygon fill="none" stroke="black" points="324,-977 194,-977 194,-941 324,-941 324,-977"/>
<text text-anchor="middle" x="259" y="-956.1" font-family="Courier,monospace" font-size="11.00">CollectionHandler</text>
</a>
</g>
<!-- \\triagens\\ArangoDb\\Handler -->
<g id="node17" class="node"><title>\\triagens\\ArangoDb\\Handler</title>
<a xlink:href="Handler.html" xlink:title="«abstract»&lt;br/&gt;Handler" target="_parent">
<polygon fill="none" stroke="black" points="109,-882 25,-882 25,-846 109,-846 109,-882"/>
<text text-anchor="start" x="33" y="-869.433" font-family="Courier,monospace" font-size="11.00">«abstract»</text>
<text text-anchor="start" x="43" y="-856.233" font-family="Courier,monospace" font-size="11.00">Handler</text>
</a>
</g>
<!-- \\triagens\\ArangoDb\\CollectionHandler&#45;&gt;\\triagens\\ArangoDb\\Handler -->
<g id="edge8" class="edge"><title>\\triagens\\ArangoDb\\CollectionHandler&#45;&gt;\\triagens\\ArangoDb\\Handler</title>
<path fill="none" stroke="black" d="M212.206,-940.947C205.373,-938.079 198.465,-935.049 192,-932 162.874,-918.265 131.002,-900.888 106.73,-887.138"/>
<polygon fill="none" stroke="black" points="108.243,-883.971 97.8218,-882.061 104.777,-890.053 108.243,-883.971"/>
</g>
<!-- \\triagens\\ArangoDb\\Edge -->
<g id="node14" class="node"><title>\\triagens\\ArangoDb\\Edge</title>
<a xlink:href="Edge.html" xlink:title="Edge" target="_parent">
<polygon fill="none" stroke="black" points="491,-964 437,-964 437,-928 491,-928 491,-964"/>
<text text-anchor="middle" x="464" y="-943.1" font-family="Courier,monospace" font-size="11.00">Edge</text>
</a>
</g>
<!-- \\triagens\\ArangoDb\\Document -->
<g id="node26" class="node"><title>\\triagens\\ArangoDb\\Document</title>
<a xlink:href="Document.html" xlink:title="Document" target="_parent">
<polygon fill="none" stroke="black" points="294,-923 224,-923 224,-887 294,-887 294,-923"/>
<text text-anchor="middle" x="259" y="-902.1" font-family="Courier,monospace" font-size="11.00">Document</text>
</a>
</g>
<!-- \\triagens\\ArangoDb\\Edge&#45;&gt;\\triagens\\ArangoDb\\Document -->
<g id="edge10" class="edge"><title>\\triagens\\ArangoDb\\Edge&#45;&gt;\\triagens\\ArangoDb\\Document</title>
<path fill="none" stroke="black" d="M436.778,-940.556C403.041,-933.808 345.058,-922.212 304.513,-914.103"/>
<polygon fill="none" stroke="black" points="305.098,-910.65 294.606,-912.121 303.725,-917.514 305.098,-910.65"/>
</g>
<!-- \\triagens\\ArangoDb\\EdgeHandler -->
<g id="node15" class="node"><title>\\triagens\\ArangoDb\\EdgeHandler</title>
<a xlink:href="EdgeHandler.html" xlink:title="EdgeHandler" target="_parent">
<polygon fill="none" stroke="black" points="509,-748 419,-748 419,-712 509,-712 509,-748"/>
<text text-anchor="middle" x="464" y="-727.1" font-family="Courier,monospace" font-size="11.00">EdgeHandler</text>
</a>
</g>
<!-- \\triagens\\ArangoDb\\DocumentHandler -->
<g id="node21" class="node"><title>\\triagens\\ArangoDb\\DocumentHandler</title>
<a xlink:href="DocumentHandler.html" xlink:title="DocumentHandler" target="_parent">
<polygon fill="none" stroke="black" points="318,-788 200,-788 200,-752 318,-752 318,-788"/>
<text text-anchor="middle" x="259" y="-767.1" font-family="Courier,monospace" font-size="11.00">DocumentHandler</text>
</a>
</g>
<!-- \\triagens\\ArangoDb\\EdgeHandler&#45;&gt;\\triagens\\ArangoDb\\DocumentHandler -->
<g id="edge12" class="edge"><title>\\triagens\\ArangoDb\\EdgeHandler&#45;&gt;\\triagens\\ArangoDb\\DocumentHandler</title>
<path fill="none" stroke="black" d="M418.249,-738.927C391.744,-744.099 357.847,-750.713 328.144,-756.509"/>
<polygon fill="none" stroke="black" points="327.393,-753.089 318.248,-758.439 328.733,-759.959 327.393,-753.089"/>
</g>
<!-- \\triagens\\ArangoDb\\URLHelper -->
<g id="node16" class="node"><title>\\triagens\\ArangoDb\\URLHelper</title>
<a xlink:href="UrlHelper.html" xlink:title="«abstract»&lt;br/&gt;URLHelper" target="_parent">
<polygon fill="none" stroke="black" points="506,-640 422,-640 422,-604 506,-604 506,-640"/>
<text text-anchor="start" x="430" y="-627.433" font-family="Courier,monospace" font-size="11.00">«abstract»</text>
<text text-anchor="start" x="433.5" y="-614.233" font-family="Courier,monospace" font-size="11.00">URLHelper</text>
</a>
</g>
<!-- \\triagens\\ArangoDb\\Endpoint -->
<g id="node18" class="node"><title>\\triagens\\ArangoDb\\Endpoint</title>
<a xlink:href="Endpoint.html" xlink:title="Endpoint" target="_parent">
<polygon fill="none" stroke="black" points="499,-586 429,-586 429,-550 499,-550 499,-586"/>
<text text-anchor="middle" x="464" y="-565.1" font-family="Courier,monospace" font-size="11.00">Endpoint</text>
</a>
</g>
<!-- \\triagens\\ArangoDb\\Statement -->
<g id="node19" class="node"><title>\\triagens\\ArangoDb\\Statement</title>
<a xlink:href="Statement.html" xlink:title="Statement" target="_parent">
<polygon fill="none" stroke="black" points="502,-532 426,-532 426,-496 502,-496 502,-532"/>
<text text-anchor="middle" x="464" y="-511.1" font-family="Courier,monospace" font-size="11.00">Statement</text>
</a>
</g>
<!-- \\triagens\\ArangoDb\\Cursor -->
<g id="node20" class="node"><title>\\triagens\\ArangoDb\\Cursor</title>
<a xlink:href="Cursor.html" xlink:title="Cursor" target="_parent">
<polygon fill="none" stroke="black" points="492,-262 436,-262 436,-226 492,-226 492,-262"/>
<text text-anchor="middle" x="464" y="-241.1" font-family="Courier,monospace" font-size="11.00">Cursor</text>
</a>
</g>
<!-- \\Iterator -->
<g id="node39" class="node"><title>\\Iterator</title>
<ellipse fill="none" stroke="black" cx="259" cy="-75" rx="44.7575" ry="19.0919"/>
<text text-anchor="middle" x="259" y="-71.9" font-family="Times Roman,serif" font-size="14.00" fill="gray">\\Iterator</text>
</g>
<!-- \\triagens\\ArangoDb\\Cursor&#45;&gt;\\Iterator -->
<g id="edge20" class="edge"><title>\\triagens\\ArangoDb\\Cursor&#45;&gt;\\Iterator</title>
<path fill="none" stroke="black" stroke-dasharray="1,5" d="M435.31,-236.492C422.895,-232.231 408.773,-225.925 398,-217 352.718,-179.486 370.426,-144.524 326,-106 319.458,-100.327 311.702,-95.4892 303.829,-91.4409"/>
<polygon fill="none" stroke="black" points="305.133,-88.185 294.599,-87.0484 302.125,-94.5058 305.133,-88.185"/>
</g>
<!-- \\triagens\\ArangoDb\\DocumentHandler&#45;&gt;\\triagens\\ArangoDb\\Handler -->
<g id="edge14" class="edge"><title>\\triagens\\ArangoDb\\DocumentHandler&#45;&gt;\\triagens\\ArangoDb\\Handler</title>
<path fill="none" stroke="black" d="M225.971,-788.112C198.051,-803.178 156.834,-824.853 120,-842 119.687,-842.146 119.372,-842.292 119.056,-842.438"/>
<polygon fill="none" stroke="black" points="117.347,-839.369 109.662,-846.661 120.218,-845.753 117.347,-839.369"/>
</g>
<!-- \\triagens\\ArangoDb\\BindVars -->
<g id="node22" class="node"><title>\\triagens\\ArangoDb\\BindVars</title>
<a xlink:href="BindVars.html" xlink:title="BindVars" target="_parent">
<polygon fill="none" stroke="black" points="499,-424 429,-424 429,-388 499,-388 499,-424"/>
<text text-anchor="middle" x="464" y="-403.1" font-family="Courier,monospace" font-size="11.00">BindVars</text>
</a>
</g>
<!-- \\triagens\\ArangoDb\\URLs -->
<g id="node23" class="node"><title>\\triagens\\ArangoDb\\URLs</title>
<a xlink:href="Urls.html" xlink:title="«abstract»&lt;br/&gt;URLs" target="_parent">
<polygon fill="none" stroke="black" points="506,-370 422,-370 422,-334 506,-334 506,-370"/>
<text text-anchor="start" x="430" y="-357.433" font-family="Courier,monospace" font-size="11.00">«abstract»</text>
<text text-anchor="start" x="450" y="-344.233" font-family="Courier,monospace" font-size="11.00">URLs</text>
</a>
</g>
<!-- \\triagens\\ArangoDb\\ConnectionOptions -->
<g id="node24" class="node"><title>\\triagens\\ArangoDb\\ConnectionOptions</title>
<a xlink:href="ConnectionOptions.html" xlink:title="ConnectionOptions" target="_parent">
<polygon fill="none" stroke="black" points="529,-208 399,-208 399,-172 529,-172 529,-208"/>
<text text-anchor="middle" x="464" y="-187.1" font-family="Courier,monospace" font-size="11.00">ConnectionOptions</text>
</a>
</g>
<!-- \\ArrayAccess -->
<g id="node41" class="node"><title>\\ArrayAccess</title>
<ellipse fill="none" stroke="black" cx="259" cy="-19" rx="65.9683" ry="19.0919"/>
<text text-anchor="middle" x="259" y="-15.9" font-family="Times Roman,serif" font-size="14.00" fill="gray">\\ArrayAccess</text>
</g>
<!-- \\triagens\\ArangoDb\\ConnectionOptions&#45;&gt;\\ArrayAccess -->
<g id="edge22" class="edge"><title>\\triagens\\ArangoDb\\ConnectionOptions&#45;&gt;\\ArrayAccess</title>
<path fill="none" stroke="black" stroke-dasharray="1,5" d="M411.071,-171.979C406.415,-169.339 401.971,-166.357 398,-163 351.661,-123.825 372.191,-86.3489 326,-47 322.023,-43.6124 317.579,-40.5879 312.922,-37.8976"/>
<polygon fill="none" stroke="black" points="314.257,-34.6467 303.771,-33.1285 311.021,-40.8542 314.257,-34.6467"/>
</g>
<!-- \\triagens\\ArangoDb\\ConnectException -->
<g id="node25" class="node"><title>\\triagens\\ArangoDb\\ConnectException</title>
<a xlink:href="ConnectException.html" xlink:title="ConnectException" target="_parent">
<polygon fill="none" stroke="black" points="526,-316 402,-316 402,-280 526,-280 526,-316"/>
<text text-anchor="middle" x="464" y="-295.1" font-family="Courier,monospace" font-size="11.00">ConnectException</text>
</a>
</g>
<!-- \\triagens\\ArangoDb\\ConnectException&#45;&gt;\\triagens\\ArangoDb\\Exception -->
<g id="edge16" class="edge"><title>\\triagens\\ArangoDb\\ConnectException&#45;&gt;\\triagens\\ArangoDb\\Exception</title>
<path fill="none" stroke="black" d="M419.192,-316.12C412.087,-319.053 404.832,-322.085 398,-325 365.791,-338.742 358.677,-344.411 326,-357 320.002,-359.311 313.647,-361.599 307.332,-363.777"/>
<polygon fill="none" stroke="black" points="305.856,-360.581 297.501,-367.095 308.095,-367.213 305.856,-360.581"/>
</g>
<!-- \\triagens\\ArangoDb\\ClientException -->
<g id="node27" class="node"><title>\\triagens\\ArangoDb\\ClientException</title>
<a xlink:href="ClientException.html" xlink:title="ClientException" target="_parent">
<polygon fill="none" stroke="black" points="523,-694 405,-694 405,-658 523,-658 523,-694"/>
<text text-anchor="middle" x="464" y="-673.1" font-family="Courier,monospace" font-size="11.00">ClientException</text>
</a>
</g>
<!-- \\triagens\\ArangoDb\\ClientException&#45;&gt;\\triagens\\ArangoDb\\Exception -->
<g id="edge18" class="edge"><title>\\triagens\\ArangoDb\\ClientException&#45;&gt;\\triagens\\ArangoDb\\Exception</title>
<path fill="none" stroke="black" d="M410.128,-657.917C405.772,-655.305 401.651,-652.346 398,-649 322.754,-580.039 281.823,-460.971 266.339,-407.018"/>
<polygon fill="none" stroke="black" points="269.638,-405.821 263.578,-397.13 262.896,-407.703 269.638,-405.821"/>
</g>
<!-- \\triagens\\ArangoDb\\HttpResponse -->
<g id="node28" class="node"><title>\\triagens\\ArangoDb\\HttpResponse</title>
<a xlink:href="HttpResponse.html" xlink:title="HttpResponse" target="_parent">
<polygon fill="none" stroke="black" points="513,-154 415,-154 415,-118 513,-118 513,-154"/>
<text text-anchor="middle" x="464" y="-133.1" font-family="Courier,monospace" font-size="11.00">HttpResponse</text>
</a>
</g>
</g>
</svg>
