<?xml version="1.0" encoding="UTF-8" standalone="no"?>
<!DOCTYPE svg PUBLIC "-//W3C//DTD SVG 1.1//EN"
 "http://www.w3.org/Graphics/SVG/1.1/DTD/svg11.dtd">
<!-- Generated by graphviz version 2.40.1 (20161225.0304)
 -->
<!-- Title: G Pages: 1 -->
<svg width="578pt" height="2220pt"
 viewBox="0.00 0.00 578.39 2220.00" xmlns="http://www.w3.org/2000/svg" xmlns:xlink="http://www.w3.org/1999/xlink">
<g id="graph0" class="graph" transform="scale(1 1) rotate(0) translate(4 2216)">
<title>G</title>
<polygon fill="#ffffff" stroke="transparent" points="-4,4 -4,-2216 574.3875,-2216 574.3875,4 -4,4"/>
<g id="clust1" class="cluster">
<title>cluster_Global</title>
<path fill="none" stroke="#c0c0c0" d="M24.1938,-98C24.1938,-98 550.3875,-98 550.3875,-98 556.3875,-98 562.3875,-104 562.3875,-110 562.3875,-110 562.3875,-2192 562.3875,-2192 562.3875,-2198 556.3875,-2204 550.3875,-2204 550.3875,-2204 24.1938,-2204 24.1938,-2204 18.1938,-2204 12.1938,-2198 12.1938,-2192 12.1938,-2192 12.1938,-110 12.1938,-110 12.1938,-104 18.1938,-98 24.1938,-98"/>
<text text-anchor="middle" x="287.2907" y="-2191.2" font-family="Times,serif" font-size="11.00" fill="#c0c0c0">Global</text>
</g>
<g id="clust2" class="cluster">
<title>cluster_\ArangoDBClient</title>
<path fill="none" stroke="#c0c0c0" d="M32.1938,-106C32.1938,-106 542.3875,-106 542.3875,-106 548.3875,-106 554.3875,-112 554.3875,-118 554.3875,-118 554.3875,-2164 554.3875,-2164 554.3875,-2170 548.3875,-2176 542.3875,-2176 542.3875,-2176 32.1938,-2176 32.1938,-2176 26.1938,-2176 20.1938,-2170 20.1938,-2164 20.1938,-2164 20.1938,-118 20.1938,-118 20.1938,-112 26.1938,-106 32.1938,-106"/>
<text text-anchor="middle" x="287.2907" y="-2163.2" font-family="Times,serif" font-size="11.00" fill="#c0c0c0">ArangoDBClient</text>
</g>
<!-- \\ArangoDBClient\\AqlUserFunction -->
<g id="node1" class="node">
<title>\\ArangoDBClient\\AqlUserFunction</title>
<polygon fill="none" stroke="#000000" points="539.8875,-2148 421.8875,-2148 421.8875,-2112 539.8875,-2112 539.8875,-2148"/>
<text text-anchor="middle" x="480.8875" y="-2127.2" font-family="Courier,monospace" font-size="11.00" fill="#000000">AqlUserFunction</text>
</g>
<!-- \\ArangoDBClient\\ViewHandler -->
<g id="node2" class="node">
<title>\\ArangoDBClient\\ViewHandler</title>
<polygon fill="none" stroke="#000000" points="323.3875,-1824 232.3875,-1824 232.3875,-1788 323.3875,-1788 323.3875,-1824"/>
<text text-anchor="middle" x="277.8875" y="-1803.2" font-family="Courier,monospace" font-size="11.00" fill="#000000">ViewHandler</text>
</g>
<!-- \\ArangoDBClient\\Handler -->
<g id="node39" class="node">
<title>\\ArangoDBClient\\Handler</title>
<polygon fill="none" stroke="#000000" points="112.1938,-1716 28.1938,-1716 28.1938,-1680 112.1938,-1680 112.1938,-1716"/>
<text text-anchor="start" x="36.1938" y="-1701.2" font-family="Courier,monospace" font-size="11.00" fill="#000000">«abstract»</text>
<text text-anchor="start" x="46.1938" y="-1689.2" font-family="Courier,monospace" font-size="11.00" fill="#000000">Handler</text>
</g>
<!-- \\ArangoDBClient\\ViewHandler&#45;&gt;\\ArangoDBClient\\Handler -->
<g id="edge1" class="edge">
<title>\\ArangoDBClient\\ViewHandler&#45;&gt;\\ArangoDBClient\\Handler</title>
<path fill="none" stroke="#000000" d="M232.1027,-1787.9979C225.4284,-1785.1226 218.687,-1782.0772 212.3875,-1779 176.1076,-1761.2777 136.2861,-1738.2688 108.0366,-1721.3049"/>
<polygon fill="none" stroke="#000000" points="109.6601,-1718.1967 99.2904,-1716.024 106.0418,-1724.1891 109.6601,-1718.1967"/>
</g>
<!-- \\ArangoDBClient\\BatchPart -->
<g id="node3" class="node">
<title>\\ArangoDBClient\\BatchPart</title>
<polygon fill="none" stroke="#000000" points="519.3875,-2094 442.3875,-2094 442.3875,-2058 519.3875,-2058 519.3875,-2094"/>
<text text-anchor="middle" x="480.8875" y="-2073.2" font-family="Courier,monospace" font-size="11.00" fill="#000000">BatchPart</text>
</g>
<!-- \\ArangoDBClient\\View -->
<g id="node4" class="node">
<title>\\ArangoDBClient\\View</title>
<polygon fill="none" stroke="#000000" points="507.8875,-2040 453.8875,-2040 453.8875,-2004 507.8875,-2004 507.8875,-2040"/>
<text text-anchor="middle" x="480.8875" y="-2019.2" font-family="Courier,monospace" font-size="11.00" fill="#000000">View</text>
</g>
<!-- \\ArangoDBClient\\UserHandler -->
<g id="node5" class="node">
<title>\\ArangoDBClient\\UserHandler</title>
<polygon fill="none" stroke="#000000" points="323.3875,-1770 232.3875,-1770 232.3875,-1734 323.3875,-1734 323.3875,-1770"/>
<text text-anchor="middle" x="277.8875" y="-1749.2" font-family="Courier,monospace" font-size="11.00" fill="#000000">UserHandler</text>
</g>
<!-- \\ArangoDBClient\\UserHandler&#45;&gt;\\ArangoDBClient\\Handler -->
<g id="edge2" class="edge">
<title>\\ArangoDBClient\\UserHandler&#45;&gt;\\ArangoDBClient\\Handler</title>
<path fill="none" stroke="#000000" d="M232.3083,-1740.1495C199.8123,-1731.7006 156.0617,-1720.3255 122.2009,-1711.5217"/>
<polygon fill="none" stroke="#000000" points="123.0418,-1708.1241 112.4829,-1708.9951 121.2804,-1714.8989 123.0418,-1708.1241"/>
</g>
<!-- \\ArangoDBClient\\Document -->
<g id="node6" class="node">
<title>\\ArangoDBClient\\Document</title>
<polygon fill="none" stroke="#000000" points="313.3875,-1392 242.3875,-1392 242.3875,-1356 313.3875,-1356 313.3875,-1392"/>
<text text-anchor="middle" x="277.8875" y="-1371.2" font-family="Courier,monospace" font-size="11.00" fill="#000000">Document</text>
</g>
<!-- \\JsonSerializable -->
<g id="node51" class="node">
<title>\\JsonSerializable</title>
<ellipse fill="none" stroke="#000000" cx="70.1938" cy="-72" rx="70.3881" ry="18"/>
<text text-anchor="middle" x="70.1938" y="-68.3" font-family="Times,serif" font-size="14.00" fill="#c0c0c0">\JsonSerializable</text>
</g>
<!-- \\ArangoDBClient\\Document&#45;&gt;\\JsonSerializable -->
<g id="edge3" class="edge">
<title>\\ArangoDBClient\\Document&#45;&gt;\\JsonSerializable</title>
<path fill="none" stroke="#000000" stroke-dasharray="1,5" d="M274.4469,-1355.9065C263.7582,-1299.1144 230.7467,-1119.2379 212.3875,-969 188.937,-777.0976 253.4855,-258.797 140.3875,-102 137.0926,-97.4319 132.957,-93.5537 128.3508,-90.2623"/>
<polygon fill="none" stroke="#000000" points="129.9919,-87.1638 119.6311,-84.9491 126.3495,-93.1415 129.9919,-87.1638"/>
</g>
<!-- \\ArangoDBClient\\ConnectionOptions -->
<g id="node7" class="node">
<title>\\ArangoDBClient\\ConnectionOptions</title>
<polygon fill="none" stroke="#000000" points="546.3875,-528 415.3875,-528 415.3875,-492 546.3875,-492 546.3875,-528"/>
<text text-anchor="middle" x="480.8875" y="-507.2" font-family="Courier,monospace" font-size="11.00" fill="#000000">ConnectionOptions</text>
</g>
<!-- \\ArrayAccess -->
<g id="node52" class="node">
<title>\\ArrayAccess</title>
<ellipse fill="none" stroke="#000000" cx="277.8875" cy="-72" rx="58.4896" ry="18"/>
<text text-anchor="middle" x="277.8875" y="-68.3" font-family="Times,serif" font-size="14.00" fill="#c0c0c0">\ArrayAccess</text>
</g>
<!-- \\ArangoDBClient\\ConnectionOptions&#45;&gt;\\ArrayAccess -->
<g id="edge4" class="edge">
<title>\\ArangoDBClient\\ConnectionOptions&#45;&gt;\\ArrayAccess</title>
<path fill="none" stroke="#000000" stroke-dasharray="1,5" d="M424.8023,-491.8401C421.3045,-489.2688 418.1054,-486.3385 415.3875,-483 306.5872,-349.3577 449.5947,-237.7122 343.3875,-102 339.4924,-97.0228 334.583,-92.8416 329.2114,-89.336"/>
<polygon fill="none" stroke="#000000" points="330.8925,-86.2658 320.4694,-84.3663 327.433,-92.3512 330.8925,-86.2658"/>
</g>
<!-- \\ArangoDBClient\\Connection -->
<g id="node8" class="node">
<title>\\ArangoDBClient\\Connection</title>
<polygon fill="none" stroke="#000000" points="522.8875,-1932 438.8875,-1932 438.8875,-1896 522.8875,-1896 522.8875,-1932"/>
<text text-anchor="middle" x="480.8875" y="-1911.2" font-family="Courier,monospace" font-size="11.00" fill="#000000">Connection</text>
</g>
<!-- \\ArangoDBClient\\Transaction -->
<g id="node9" class="node">
<title>\\ArangoDBClient\\Transaction</title>
<polygon fill="none" stroke="#000000" points="526.3875,-1878 435.3875,-1878 435.3875,-1842 526.3875,-1842 526.3875,-1878"/>
<text text-anchor="middle" x="480.8875" y="-1857.2" font-family="Courier,monospace" font-size="11.00" fill="#000000">Transaction</text>
</g>
<!-- \\ArangoDBClient\\ExportCursor -->
<g id="node10" class="node">
<title>\\ArangoDBClient\\ExportCursor</title>
<polygon fill="none" stroke="#000000" points="529.8875,-1824 431.8875,-1824 431.8875,-1788 529.8875,-1788 529.8875,-1824"/>
<text text-anchor="middle" x="480.8875" y="-1803.2" font-family="Courier,monospace" font-size="11.00" fill="#000000">ExportCursor</text>
</g>
<!-- \\ArangoDBClient\\UrlHelper -->
<g id="node11" class="node">
<title>\\ArangoDBClient\\UrlHelper</title>
<polygon fill="none" stroke="#000000" points="522.8875,-1770 438.8875,-1770 438.8875,-1734 522.8875,-1734 522.8875,-1770"/>
<text text-anchor="start" x="446.8875" y="-1755.2" font-family="Courier,monospace" font-size="11.00" fill="#000000">«abstract»</text>
<text text-anchor="start" x="450.3875" y="-1743.2" font-family="Courier,monospace" font-size="11.00" fill="#000000">UrlHelper</text>
</g>
<!-- \\ArangoDBClient\\QueryCacheHandler -->
<g id="node12" class="node">
<title>\\ArangoDBClient\\QueryCacheHandler</title>
<polygon fill="none" stroke="#000000" points="343.3875,-1716 212.3875,-1716 212.3875,-1680 343.3875,-1680 343.3875,-1716"/>
<text text-anchor="middle" x="277.8875" y="-1695.2" font-family="Courier,monospace" font-size="11.00" fill="#000000">QueryCacheHandler</text>
</g>
<!-- \\ArangoDBClient\\QueryCacheHandler&#45;&gt;\\ArangoDBClient\\Handler -->
<g id="edge5" class="edge">
<title>\\ArangoDBClient\\QueryCacheHandler&#45;&gt;\\ArangoDBClient\\Handler</title>
<path fill="none" stroke="#000000" d="M212.1719,-1698C183.1923,-1698 149.6119,-1698 122.3866,-1698"/>
<polygon fill="none" stroke="#000000" points="122.2863,-1694.5001 112.2862,-1698 122.2862,-1701.5001 122.2863,-1694.5001"/>
</g>
<!-- \\ArangoDBClient\\DocumentHandler -->
<g id="node13" class="node">
<title>\\ArangoDBClient\\DocumentHandler</title>
<polygon fill="none" stroke="#000000" points="336.8875,-1932 218.8875,-1932 218.8875,-1896 336.8875,-1896 336.8875,-1932"/>
<text text-anchor="middle" x="277.8875" y="-1911.2" font-family="Courier,monospace" font-size="11.00" fill="#000000">DocumentHandler</text>
</g>
<!-- \\ArangoDBClient\\DocumentHandler&#45;&gt;\\ArangoDBClient\\Handler -->
<g id="edge6" class="edge">
<title>\\ArangoDBClient\\DocumentHandler&#45;&gt;\\ArangoDBClient\\Handler</title>
<path fill="none" stroke="#000000" d="M226.3342,-1895.9311C221.4124,-1893.2819 216.6682,-1890.3112 212.3875,-1887 153.4534,-1841.4125 106.6264,-1765.4965 84.3519,-1725.1489"/>
<polygon fill="none" stroke="#000000" points="87.3217,-1723.2833 79.4746,-1716.1648 81.1698,-1726.6231 87.3217,-1723.2833"/>
</g>
<!-- \\ArangoDBClient\\Edge -->
<g id="node14" class="node">
<title>\\ArangoDBClient\\Edge</title>
<polygon fill="none" stroke="#000000" points="507.8875,-1662 453.8875,-1662 453.8875,-1626 507.8875,-1626 507.8875,-1662"/>
<text text-anchor="middle" x="480.8875" y="-1641.2" font-family="Courier,monospace" font-size="11.00" fill="#000000">Edge</text>
</g>
<!-- \\ArangoDBClient\\Edge&#45;&gt;\\ArangoDBClient\\Document -->
<g id="edge7" class="edge">
<title>\\ArangoDBClient\\Edge&#45;&gt;\\ArangoDBClient\\Document</title>
<path fill="none" stroke="#000000" d="M453.7016,-1637.8489C440.768,-1633.7597 425.8772,-1627.2078 415.3875,-1617 358.9205,-1562.0502 384.5105,-1522.2079 343.3875,-1455 331.3307,-1435.2953 314.9986,-1415.0884 301.6593,-1399.7861"/>
<polygon fill="none" stroke="#000000" points="304.2447,-1397.4264 294.995,-1392.2598 299.0039,-1402.0669 304.2447,-1397.4264"/>
</g>
<!-- \\ArangoDBClient\\Cursor -->
<g id="node15" class="node">
<title>\\ArangoDBClient\\Cursor</title>
<polygon fill="none" stroke="#000000" points="509.3875,-312 452.3875,-312 452.3875,-276 509.3875,-276 509.3875,-312"/>
<text text-anchor="middle" x="480.8875" y="-291.2" font-family="Courier,monospace" font-size="11.00" fill="#000000">Cursor</text>
</g>
<!-- \\Iterator -->
<g id="node53" class="node">
<title>\\Iterator</title>
<ellipse fill="none" stroke="#000000" cx="277.8875" cy="-18" rx="38.9931" ry="18"/>
<text text-anchor="middle" x="277.8875" y="-14.3" font-family="Times,serif" font-size="14.00" fill="#c0c0c0">\Iterator</text>
</g>
<!-- \\ArangoDBClient\\Cursor&#45;&gt;\\Iterator -->
<g id="edge8" class="edge">
<title>\\ArangoDBClient\\Cursor&#45;&gt;\\Iterator</title>
<path fill="none" stroke="#000000" stroke-dasharray="1,5" d="M452.2406,-288.0023C439.4358,-283.9969 425.0786,-277.4715 415.3875,-267 344.9336,-190.8728 413.8415,-121.1272 343.3875,-45 337.563,-38.7064 330.0529,-33.8382 322.2073,-30.0859"/>
<polygon fill="none" stroke="#000000" points="323.4986,-26.832 312.9242,-26.175 320.7809,-33.2829 323.4986,-26.832"/>
</g>
<!-- \\ArangoDBClient\\Database -->
<g id="node16" class="node">
<title>\\ArangoDBClient\\Database</title>
<polygon fill="none" stroke="#000000" points="516.3875,-1608 445.3875,-1608 445.3875,-1572 516.3875,-1572 516.3875,-1608"/>
<text text-anchor="middle" x="480.8875" y="-1587.2" font-family="Courier,monospace" font-size="11.00" fill="#000000">Database</text>
</g>
<!-- \\ArangoDBClient\\FailoverException -->
<g id="node17" class="node">
<title>\\ArangoDBClient\\FailoverException</title>
<polygon fill="none" stroke="#000000" points="546.3875,-1068 415.3875,-1068 415.3875,-1032 546.3875,-1032 546.3875,-1068"/>
<text text-anchor="middle" x="480.8875" y="-1047.2" font-family="Courier,monospace" font-size="11.00" fill="#000000">FailoverException</text>
</g>
<!-- \\ArangoDBClient\\Exception -->
<g id="node35" class="node">
<title>\\ArangoDBClient\\Exception</title>
<polygon fill="none" stroke="#000000" points="316.3875,-960 239.3875,-960 239.3875,-924 316.3875,-924 316.3875,-960"/>
<text text-anchor="middle" x="277.8875" y="-939.2" font-family="Courier,monospace" font-size="11.00" fill="#000000">Exception</text>
</g>
<!-- \\ArangoDBClient\\FailoverException&#45;&gt;\\ArangoDBClient\\Exception -->
<g id="edge9" class="edge">
<title>\\ArangoDBClient\\FailoverException&#45;&gt;\\ArangoDBClient\\Exception</title>
<path fill="none" stroke="#000000" d="M434.7108,-1031.9288C428.1574,-1029.086 421.5543,-1026.0682 415.3875,-1023 380.2874,-1005.5364 341.9797,-982.6307 314.7347,-965.6348"/>
<polygon fill="none" stroke="#000000" points="316.2702,-962.4663 305.9398,-960.1139 312.5486,-968.395 316.2702,-962.4663"/>
</g>
<!-- \\ArangoDBClient\\Batch -->
<g id="node18" class="node">
<title>\\ArangoDBClient\\Batch</title>
<polygon fill="none" stroke="#000000" points="507.8875,-1500 453.8875,-1500 453.8875,-1464 507.8875,-1464 507.8875,-1500"/>
<text text-anchor="middle" x="480.8875" y="-1479.2" font-family="Courier,monospace" font-size="11.00" fill="#000000">Batch</text>
</g>
<!-- \\ArangoDBClient\\TraceRequest -->
<g id="node19" class="node">
<title>\\ArangoDBClient\\TraceRequest</title>
<polygon fill="none" stroke="#000000" points="529.8875,-1446 431.8875,-1446 431.8875,-1410 529.8875,-1410 529.8875,-1446"/>
<text text-anchor="middle" x="480.8875" y="-1425.2" font-family="Courier,monospace" font-size="11.00" fill="#000000">TraceRequest</text>
</g>
<!-- \\ArangoDBClient\\ConnectException -->
<g id="node20" class="node">
<title>\\ArangoDBClient\\ConnectException</title>
<polygon fill="none" stroke="#000000" points="543.3875,-960 418.3875,-960 418.3875,-924 543.3875,-924 543.3875,-960"/>
<text text-anchor="middle" x="480.8875" y="-939.2" font-family="Courier,monospace" font-size="11.00" fill="#000000">ConnectException</text>
</g>
<!-- \\ArangoDBClient\\ConnectException&#45;&gt;\\ArangoDBClient\\Exception -->
<g id="edge10" class="edge">
<title>\\ArangoDBClient\\ConnectException&#45;&gt;\\ArangoDBClient\\Exception</title>
<path fill="none" stroke="#000000" d="M418.3244,-942C388.884,-942 354.2923,-942 326.8069,-942"/>
<polygon fill="none" stroke="#000000" points="326.6464,-938.5001 316.6464,-942 326.6463,-945.5001 326.6464,-938.5001"/>
</g>
<!-- \\ArangoDBClient\\ValueValidator -->
<g id="node21" class="node">
<title>\\ArangoDBClient\\ValueValidator</title>
<polygon fill="none" stroke="#000000" points="536.3875,-1338 425.3875,-1338 425.3875,-1302 536.3875,-1302 536.3875,-1338"/>
<text text-anchor="middle" x="480.8875" y="-1317.2" font-family="Courier,monospace" font-size="11.00" fill="#000000">ValueValidator</text>
</g>
<!-- \\ArangoDBClient\\Autoloader -->
<g id="node22" class="node">
<title>\\ArangoDBClient\\Autoloader</title>
<polygon fill="none" stroke="#000000" points="522.8875,-1284 438.8875,-1284 438.8875,-1248 522.8875,-1248 522.8875,-1284"/>
<text text-anchor="middle" x="480.8875" y="-1263.2" font-family="Courier,monospace" font-size="11.00" fill="#000000">Autoloader</text>
</g>
<!-- \\ArangoDBClient\\ClientException -->
<g id="node23" class="node">
<title>\\ArangoDBClient\\ClientException</title>
<polygon fill="none" stroke="#000000" points="539.8875,-636 421.8875,-636 421.8875,-600 539.8875,-600 539.8875,-636"/>
<text text-anchor="middle" x="480.8875" y="-615.2" font-family="Courier,monospace" font-size="11.00" fill="#000000">ClientException</text>
</g>
<!-- \\ArangoDBClient\\ClientException&#45;&gt;\\ArangoDBClient\\Exception -->
<g id="edge11" class="edge">
<title>\\ArangoDBClient\\ClientException&#45;&gt;\\ArangoDBClient\\Exception</title>
<path fill="none" stroke="#000000" d="M426.9504,-636.1569C422.7792,-638.7467 418.8509,-641.6811 415.3875,-645 334.6704,-722.3505 296.8056,-856.2403 283.6027,-914.0697"/>
<polygon fill="none" stroke="#000000" points="280.1592,-913.4322 281.4196,-923.9517 286.9944,-914.9422 280.1592,-913.4322"/>
</g>
<!-- \\ArangoDBClient\\FoxxHandler -->
<g id="node24" class="node">
<title>\\ArangoDBClient\\FoxxHandler</title>
<polygon fill="none" stroke="#000000" points="323.3875,-1662 232.3875,-1662 232.3875,-1626 323.3875,-1626 323.3875,-1662"/>
<text text-anchor="middle" x="277.8875" y="-1641.2" font-family="Courier,monospace" font-size="11.00" fill="#000000">FoxxHandler</text>
</g>
<!-- \\ArangoDBClient\\FoxxHandler&#45;&gt;\\ArangoDBClient\\Handler -->
<g id="edge12" class="edge">
<title>\\ArangoDBClient\\FoxxHandler&#45;&gt;\\ArangoDBClient\\Handler</title>
<path fill="none" stroke="#000000" d="M232.3083,-1655.8505C199.8123,-1664.2994 156.0617,-1675.6745 122.2009,-1684.4783"/>
<polygon fill="none" stroke="#000000" points="121.2804,-1681.1011 112.4829,-1687.0049 123.0418,-1687.8759 121.2804,-1681.1011"/>
</g>
<!-- \\ArangoDBClient\\User -->
<g id="node25" class="node">
<title>\\ArangoDBClient\\User</title>
<polygon fill="none" stroke="#000000" points="507.8875,-1554 453.8875,-1554 453.8875,-1518 507.8875,-1518 507.8875,-1554"/>
<text text-anchor="middle" x="480.8875" y="-1533.2" font-family="Courier,monospace" font-size="11.00" fill="#000000">User</text>
</g>
<!-- \\ArangoDBClient\\User&#45;&gt;\\ArangoDBClient\\Document -->
<g id="edge13" class="edge">
<title>\\ArangoDBClient\\User&#45;&gt;\\ArangoDBClient\\Document</title>
<path fill="none" stroke="#000000" d="M453.5862,-1527.4258C441.357,-1522.9258 427.0884,-1516.7265 415.3875,-1509 368.6904,-1478.1642 324.313,-1429.9875 299.161,-1400.2966"/>
<polygon fill="none" stroke="#000000" points="301.6916,-1397.8668 292.5907,-1392.4423 296.3224,-1402.3582 301.6916,-1397.8668"/>
</g>
<!-- \\ArangoDBClient\\BindVars -->
<g id="node26" class="node">
<title>\\ArangoDBClient\\BindVars</title>
<polygon fill="none" stroke="#000000" points="516.3875,-1122 445.3875,-1122 445.3875,-1086 516.3875,-1086 516.3875,-1122"/>
<text text-anchor="middle" x="480.8875" y="-1101.2" font-family="Courier,monospace" font-size="11.00" fill="#000000">BindVars</text>
</g>
<!-- \\ArangoDBClient\\CollectionHandler -->
<g id="node27" class="node">
<title>\\ArangoDBClient\\CollectionHandler</title>
<polygon fill="none" stroke="#000000" points="343.3875,-1608 212.3875,-1608 212.3875,-1572 343.3875,-1572 343.3875,-1608"/>
<text text-anchor="middle" x="277.8875" y="-1587.2" font-family="Courier,monospace" font-size="11.00" fill="#000000">CollectionHandler</text>
</g>
<!-- \\ArangoDBClient\\CollectionHandler&#45;&gt;\\ArangoDBClient\\Handler -->
<g id="edge14" class="edge">
<title>\\ArangoDBClient\\CollectionHandler&#45;&gt;\\ArangoDBClient\\Handler</title>
<path fill="none" stroke="#000000" d="M232.1027,-1608.0021C225.4284,-1610.8774 218.687,-1613.9228 212.3875,-1617 176.1076,-1634.7223 136.2861,-1657.7312 108.0366,-1674.6951"/>
<polygon fill="none" stroke="#000000" points="106.0418,-1671.8109 99.2904,-1679.976 109.6601,-1677.8033 106.0418,-1671.8109"/>
</g>
<!-- \\ArangoDBClient\\Graph -->
<g id="node28" class="node">
<title>\\ArangoDBClient\\Graph</title>
<polygon fill="none" stroke="#000000" points="507.8875,-1392 453.8875,-1392 453.8875,-1356 507.8875,-1356 507.8875,-1392"/>
<text text-anchor="middle" x="480.8875" y="-1371.2" font-family="Courier,monospace" font-size="11.00" fill="#000000">Graph</text>
</g>
<!-- \\ArangoDBClient\\Graph&#45;&gt;\\ArangoDBClient\\Document -->
<g id="edge15" class="edge">
<title>\\ArangoDBClient\\Graph&#45;&gt;\\ArangoDBClient\\Document</title>
<path fill="none" stroke="#000000" d="M453.5101,-1374C420.258,-1374 363.6691,-1374 323.7275,-1374"/>
<polygon fill="none" stroke="#000000" points="323.7017,-1370.5001 313.7017,-1374 323.7016,-1377.5001 323.7017,-1370.5001"/>
</g>
<!-- \\ArangoDBClient\\EdgeDefinition -->
<g id="node29" class="node">
<title>\\ArangoDBClient\\EdgeDefinition</title>
<polygon fill="none" stroke="#000000" points="536.3875,-1014 425.3875,-1014 425.3875,-978 536.3875,-978 536.3875,-1014"/>
<text text-anchor="middle" x="480.8875" y="-993.2" font-family="Courier,monospace" font-size="11.00" fill="#000000">EdgeDefinition</text>
</g>
<!-- \\ArangoDBClient\\Vertex -->
<g id="node30" class="node">
<title>\\ArangoDBClient\\Vertex</title>
<polygon fill="none" stroke="#000000" points="509.3875,-1230 452.3875,-1230 452.3875,-1194 509.3875,-1194 509.3875,-1230"/>
<text text-anchor="middle" x="480.8875" y="-1209.2" font-family="Courier,monospace" font-size="11.00" fill="#000000">Vertex</text>
</g>
<!-- \\ArangoDBClient\\Vertex&#45;&gt;\\ArangoDBClient\\Document -->
<g id="edge16" class="edge">
<title>\\ArangoDBClient\\Vertex&#45;&gt;\\ArangoDBClient\\Document</title>
<path fill="none" stroke="#000000" d="M452.2916,-1221.0541C440.3589,-1225.5111 426.6778,-1231.5446 415.3875,-1239 368.6904,-1269.8358 324.313,-1318.0125 299.161,-1347.7034"/>
<polygon fill="none" stroke="#000000" points="296.3224,-1345.6418 292.5907,-1355.5577 301.6916,-1350.1332 296.3224,-1345.6418"/>
</g>
<!-- \\ArangoDBClient\\Collection -->
<g id="node31" class="node">
<title>\\ArangoDBClient\\Collection</title>
<polygon fill="none" stroke="#000000" points="522.8875,-906 438.8875,-906 438.8875,-870 522.8875,-870 522.8875,-906"/>
<text text-anchor="middle" x="480.8875" y="-885.2" font-family="Courier,monospace" font-size="11.00" fill="#000000">Collection</text>
</g>
<!-- \\ArangoDBClient\\HttpResponse -->
<g id="node32" class="node">
<title>\\ArangoDBClient\\HttpResponse</title>
<polygon fill="none" stroke="#000000" points="529.8875,-852 431.8875,-852 431.8875,-816 529.8875,-816 529.8875,-852"/>
<text text-anchor="middle" x="480.8875" y="-831.2" font-family="Courier,monospace" font-size="11.00" fill="#000000">HttpResponse</text>
</g>
<!-- \\ArangoDBClient\\HttpHelper -->
<g id="node33" class="node">
<title>\\ArangoDBClient\\HttpHelper</title>
<polygon fill="none" stroke="#000000" points="522.8875,-798 438.8875,-798 438.8875,-762 522.8875,-762 522.8875,-798"/>
<text text-anchor="middle" x="480.8875" y="-777.2" font-family="Courier,monospace" font-size="11.00" fill="#000000">HttpHelper</text>
</g>
<!-- \\ArangoDBClient\\UpdatePolicy -->
<g id="node34" class="node">
<title>\\ArangoDBClient\\UpdatePolicy</title>
<polygon fill="none" stroke="#000000" points="529.8875,-744 431.8875,-744 431.8875,-708 529.8875,-708 529.8875,-744"/>
<text text-anchor="middle" x="480.8875" y="-723.2" font-family="Courier,monospace" font-size="11.00" fill="#000000">UpdatePolicy</text>
</g>
<!-- \\Exception -->
<g id="node54" class="node">
<title>\\Exception</title>
<ellipse fill="none" stroke="#000000" cx="70.1938" cy="-18" rx="48.9926" ry="18"/>
<text text-anchor="middle" x="70.1938" y="-14.3" font-family="Times,serif" font-size="14.00" fill="#c0c0c0">\Exception</text>
</g>
<!-- \\ArangoDBClient\\Exception&#45;&gt;\\Exception -->
<g id="edge17" class="edge">
<title>\\ArangoDBClient\\Exception&#45;&gt;\\Exception</title>
<path fill="none" stroke="#000000" d="M277.5193,-923.9509C274.8467,-809.7264 255.1207,-187.5063 140.3875,-45 135.6589,-39.1267 129.4915,-34.5292 122.7753,-30.9309"/>
<polygon fill="none" stroke="#000000" points="123.9092,-27.6006 113.3601,-26.6174 120.9936,-33.9645 123.9092,-27.6006"/>
</g>
<!-- \\ArangoDBClient\\Endpoint -->
<g id="node36" class="node">
<title>\\ArangoDBClient\\Endpoint</title>
<polygon fill="none" stroke="#000000" points="516.3875,-690 445.3875,-690 445.3875,-654 516.3875,-654 516.3875,-690"/>
<text text-anchor="middle" x="480.8875" y="-669.2" font-family="Courier,monospace" font-size="11.00" fill="#000000">Endpoint</text>
</g>
<!-- \\ArangoDBClient\\QueryHandler -->
<g id="node37" class="node">
<title>\\ArangoDBClient\\QueryHandler</title>
<polygon fill="none" stroke="#000000" points="326.8875,-1554 228.8875,-1554 228.8875,-1518 326.8875,-1518 326.8875,-1554"/>
<text text-anchor="middle" x="277.8875" y="-1533.2" font-family="Courier,monospace" font-size="11.00" fill="#000000">QueryHandler</text>
</g>
<!-- \\ArangoDBClient\\QueryHandler&#45;&gt;\\ArangoDBClient\\Handler -->
<g id="edge18" class="edge">
<title>\\ArangoDBClient\\QueryHandler&#45;&gt;\\ArangoDBClient\\Handler</title>
<path fill="none" stroke="#000000" d="M228.5871,-1553.98C222.9653,-1556.7085 217.4445,-1559.7212 212.3875,-1563 164.6106,-1593.9767 118.5605,-1642.1101 92.3788,-1671.7541"/>
<polygon fill="none" stroke="#000000" points="89.4741,-1669.7595 85.5361,-1679.5953 94.7483,-1674.362 89.4741,-1669.7595"/>
</g>
<!-- \\ArangoDBClient\\ServerException -->
<g id="node38" class="node">
<title>\\ArangoDBClient\\ServerException</title>
<polygon fill="none" stroke="#000000" points="539.8875,-1176 421.8875,-1176 421.8875,-1140 539.8875,-1140 539.8875,-1176"/>
<text text-anchor="middle" x="480.8875" y="-1155.2" font-family="Courier,monospace" font-size="11.00" fill="#000000">ServerException</text>
</g>
<!-- \\ArangoDBClient\\ServerException&#45;&gt;\\ArangoDBClient\\Exception -->
<g id="edge19" class="edge">
<title>\\ArangoDBClient\\ServerException&#45;&gt;\\ArangoDBClient\\Exception</title>
<path fill="none" stroke="#000000" d="M428.9447,-1139.8195C424.1535,-1137.2023 419.5448,-1134.2695 415.3875,-1131 357.5124,-1085.4847 312.6013,-1009.5386 291.3528,-969.1673"/>
<polygon fill="none" stroke="#000000" points="294.4065,-967.4526 286.7042,-960.1776 288.1886,-970.668 294.4065,-967.4526"/>
</g>
<!-- \\ArangoDBClient\\Traversal -->
<g id="node40" class="node">
<title>\\ArangoDBClient\\Traversal</title>
<polygon fill="none" stroke="#000000" points="519.3875,-582 442.3875,-582 442.3875,-546 519.3875,-546 519.3875,-582"/>
<text text-anchor="middle" x="480.8875" y="-561.2" font-family="Courier,monospace" font-size="11.00" fill="#000000">Traversal</text>
</g>
<!-- \\ArangoDBClient\\VertexHandler -->
<g id="node41" class="node">
<title>\\ArangoDBClient\\VertexHandler</title>
<polygon fill="none" stroke="#000000" points="532.8875,-1986 428.8875,-1986 428.8875,-1950 532.8875,-1950 532.8875,-1986"/>
<text text-anchor="middle" x="480.8875" y="-1965.2" font-family="Courier,monospace" font-size="11.00" fill="#000000">VertexHandler</text>
</g>
<!-- \\ArangoDBClient\\VertexHandler&#45;&gt;\\ArangoDBClient\\DocumentHandler -->
<g id="edge20" class="edge">
<title>\\ArangoDBClient\\VertexHandler&#45;&gt;\\ArangoDBClient\\DocumentHandler</title>
<path fill="none" stroke="#000000" d="M428.8736,-1954.1638C403.8684,-1947.5122 373.5581,-1939.4493 346.6757,-1932.2983"/>
<polygon fill="none" stroke="#000000" points="347.5066,-1928.8977 336.9429,-1929.7093 345.707,-1935.6624 347.5066,-1928.8977"/>
</g>
<!-- \\ArangoDBClient\\Statement -->
<g id="node42" class="node">
<title>\\ArangoDBClient\\Statement</title>
<polygon fill="none" stroke="#000000" points="519.3875,-474 442.3875,-474 442.3875,-438 519.3875,-438 519.3875,-474"/>
<text text-anchor="middle" x="480.8875" y="-453.2" font-family="Courier,monospace" font-size="11.00" fill="#000000">Statement</text>
</g>
<!-- \\ArangoDBClient\\Urls -->
<g id="node43" class="node">
<title>\\ArangoDBClient\\Urls</title>
<polygon fill="none" stroke="#000000" points="522.8875,-420 438.8875,-420 438.8875,-384 522.8875,-384 522.8875,-420"/>
<text text-anchor="start" x="446.8875" y="-405.2" font-family="Courier,monospace" font-size="11.00" fill="#000000">«abstract»</text>
<text text-anchor="start" x="466.8875" y="-393.2" font-family="Courier,monospace" font-size="11.00" fill="#000000">Urls</text>
</g>
<!-- \\ArangoDBClient\\TraceResponse -->
<g id="node44" class="node">
<title>\\ArangoDBClient\\TraceResponse</title>
<polygon fill="none" stroke="#000000" points="532.8875,-366 428.8875,-366 428.8875,-330 532.8875,-330 532.8875,-366"/>
<text text-anchor="middle" x="480.8875" y="-345.2" font-family="Courier,monospace" font-size="11.00" fill="#000000">TraceResponse</text>
</g>
<!-- \\ArangoDBClient\\AdminHandler -->
<g id="node45" class="node">
<title>\\ArangoDBClient\\AdminHandler</title>
<polygon fill="none" stroke="#000000" points="326.8875,-1500 228.8875,-1500 228.8875,-1464 326.8875,-1464 326.8875,-1500"/>
<text text-anchor="middle" x="277.8875" y="-1479.2" font-family="Courier,monospace" font-size="11.00" fill="#000000">AdminHandler</text>
</g>
<!-- \\ArangoDBClient\\AdminHandler&#45;&gt;\\ArangoDBClient\\Handler -->
<g id="edge21" class="edge">
<title>\\ArangoDBClient\\AdminHandler&#45;&gt;\\ArangoDBClient\\Handler</title>
<path fill="none" stroke="#000000" d="M228.6956,-1498.8288C222.9336,-1501.7816 217.3492,-1505.162 212.3875,-1509 153.4534,-1554.5875 106.6264,-1630.5035 84.3519,-1670.8511"/>
<polygon fill="none" stroke="#000000" points="81.1698,-1669.3769 79.4746,-1679.8352 87.3217,-1672.7167 81.1698,-1669.3769"/>
</g>
<!-- \\ArangoDBClient\\EdgeHandler -->
<g id="node46" class="node">
<title>\\ArangoDBClient\\EdgeHandler</title>
<polygon fill="none" stroke="#000000" points="526.3875,-1716 435.3875,-1716 435.3875,-1680 526.3875,-1680 526.3875,-1716"/>
<text text-anchor="middle" x="480.8875" y="-1695.2" font-family="Courier,monospace" font-size="11.00" fill="#000000">EdgeHandler</text>
</g>
<!-- \\ArangoDBClient\\EdgeHandler&#45;&gt;\\ArangoDBClient\\DocumentHandler -->
<g id="edge22" class="edge">
<title>\\ArangoDBClient\\EdgeHandler&#45;&gt;\\ArangoDBClient\\DocumentHandler</title>
<path fill="none" stroke="#000000" d="M435.142,-1711.517C427.9436,-1715.0776 421.0291,-1719.5101 415.3875,-1725 358.9205,-1779.9498 399.8545,-1832.0502 343.3875,-1887 342.3132,-1888.0454 341.1928,-1889.0525 340.0329,-1890.0226"/>
<polygon fill="none" stroke="#000000" points="337.9449,-1887.2131 331.8798,-1895.9003 342.0385,-1892.8914 337.9449,-1887.2131"/>
</g>
<!-- \\ArangoDBClient\\Export -->
<g id="node47" class="node">
<title>\\ArangoDBClient\\Export</title>
<polygon fill="none" stroke="#000000" points="509.3875,-258 452.3875,-258 452.3875,-222 509.3875,-222 509.3875,-258"/>
<text text-anchor="middle" x="480.8875" y="-237.2" font-family="Courier,monospace" font-size="11.00" fill="#000000">Export</text>
</g>
<!-- \\ArangoDBClient\\GraphHandler -->
<g id="node48" class="node">
<title>\\ArangoDBClient\\GraphHandler</title>
<polygon fill="none" stroke="#000000" points="326.8875,-1878 228.8875,-1878 228.8875,-1842 326.8875,-1842 326.8875,-1878"/>
<text text-anchor="middle" x="277.8875" y="-1857.2" font-family="Courier,monospace" font-size="11.00" fill="#000000">GraphHandler</text>
</g>
<!-- \\ArangoDBClient\\GraphHandler&#45;&gt;\\ArangoDBClient\\Handler -->
<g id="edge23" class="edge">
<title>\\ArangoDBClient\\GraphHandler&#45;&gt;\\ArangoDBClient\\Handler</title>
<path fill="none" stroke="#000000" d="M228.5871,-1842.02C222.9653,-1839.2915 217.4445,-1836.2788 212.3875,-1833 164.6106,-1802.0233 118.5605,-1753.8899 92.3788,-1724.2459"/>
<polygon fill="none" stroke="#000000" points="94.7483,-1721.638 85.5361,-1716.4047 89.4741,-1726.2405 94.7483,-1721.638"/>
</g>
<!-- \\ArangoDBClient\\DefaultValues -->
<g id="node49" class="node">
<title>\\ArangoDBClient\\DefaultValues</title>
<polygon fill="none" stroke="#000000" points="532.8875,-204 428.8875,-204 428.8875,-168 532.8875,-168 532.8875,-204"/>
<text text-anchor="start" x="446.8875" y="-189.2" font-family="Courier,monospace" font-size="11.00" fill="#000000">«abstract»</text>
<text text-anchor="start" x="436.8875" y="-177.2" font-family="Courier,monospace" font-size="11.00" fill="#000000">DefaultValues</text>
</g>
<!-- \\ArangoDBClient\\DocumentClassable -->
<g id="node50" class="node">
<title>\\ArangoDBClient\\DocumentClassable</title>
<polygon fill="none" stroke="#000000" points="546.3875,-150 415.3875,-150 415.3875,-114 546.3875,-114 546.3875,-150"/>
<text text-anchor="middle" x="480.8875" y="-129.2" font-family="Courier,monospace" font-size="11.00" fill="#000000">DocumentClassable</text>
</g>
</g>
</svg>
