<?xml version="1.0" encoding="UTF-8" standalone="no"?>
<!DOCTYPE svg PUBLIC "-//W3C//DTD SVG 1.1//EN"
 "http://www.w3.org/Graphics/SVG/1.1/DTD/svg11.dtd">
<!-- Generated by graphviz version 2.26.0 (20091210.2329)
 -->
<!-- Title: G Pages: 1 -->
<svg width="548pt" height="1366pt"
 viewBox="0.00 0.00 548.00 1366.00" xmlns="http://www.w3.org/2000/svg" xmlns:xlink="http://www.w3.org/1999/xlink">
<g id="graph1" class="graph" transform="scale(1 1) rotate(0) translate(4 1362)">
<title>G</title>
<polygon fill="white" stroke="white" points="-4,5 -4,-1362 545,-1362 545,5 -4,5"/>
<g id="graph2" class="cluster"><title>cluster_triagens</title>
<polyline fill="none" stroke="gray" points="198,-102 520,-102 "/>
<path fill="none" stroke="gray" d="M520,-102C526,-102 532,-108 532,-114"/>
<polyline fill="none" stroke="gray" points="532,-114 532,-1338 "/>
<path fill="none" stroke="gray" d="M532,-1338C532,-1344 526,-1350 520,-1350"/>
<polyline fill="none" stroke="gray" points="520,-1350 198,-1350 "/>
<path fill="none" stroke="gray" d="M198,-1350C192,-1350 186,-1344 186,-1338"/>
<polyline fill="none" stroke="gray" points="186,-1338 186,-114 "/>
<path fill="none" stroke="gray" d="M186,-114C186,-108 192,-102 198,-102"/>
<text text-anchor="middle" x="359" y="-1336.1" font-family="Times Roman,serif" font-size="11.00" fill="gray">triagens</text>
</g>
<g id="graph3" class="cluster"><title>cluster_triagens\ArangoDb</title>
<polyline fill="none" stroke="gray" points="206,-110 512,-110 "/>
<path fill="none" stroke="gray" d="M512,-110C518,-110 524,-116 524,-122"/>
<polyline fill="none" stroke="gray" points="524,-122 524,-1307 "/>
<path fill="none" stroke="gray" d="M524,-1307C524,-1313 518,-1319 512,-1319"/>
<polyline fill="none" stroke="gray" points="512,-1319 206,-1319 "/>
<path fill="none" stroke="gray" d="M206,-1319C200,-1319 194,-1313 194,-1307"/>
<polyline fill="none" stroke="gray" points="194,-1307 194,-122 "/>
<path fill="none" stroke="gray" d="M194,-122C194,-116 200,-110 206,-110"/>
<text text-anchor="middle" x="359" y="-1305.1" font-family="Times Roman,serif" font-size="11.00" fill="gray">ArangoDb</text>
</g>
<!-- \\triagens\\ArangoDb\\ValueValidator -->
<g id="node3" class="node"><title>\\triagens\\ArangoDb\\ValueValidator</title>
<a xlink:href="ValueValidator.html" xlink:title="ValueValidator" target="_parent">
<polygon fill="none" stroke="black" points="505,-1288 395,-1288 395,-1252 505,-1252 505,-1288"/>
<text text-anchor="middle" x="450" y="-1267.1" font-family="Courier,monospace" font-size="11.00">ValueValidator</text>
</a>
</g>
<!-- \\triagens\\ArangoDb\\Exception -->
<g id="node4" class="node"><title>\\triagens\\ArangoDb\\Exception</title>
<a xlink:href="Exception.html" xlink:title="Exception" target="_parent">
<polygon fill="none" stroke="black" points="283,-1018 207,-1018 207,-982 283,-982 283,-1018"/>
<text text-anchor="middle" x="245" y="-997.1" font-family="Courier,monospace" font-size="11.00">Exception</text>
</a>
</g>
<!-- \\Exception -->
<g id="node28" class="node"><title>\\Exception</title>
<ellipse fill="none" stroke="black" cx="53" cy="-1000" rx="53.033" ry="19.0919"/>
<text text-anchor="middle" x="53" y="-996.9" font-family="Times Roman,serif" font-size="14.00" fill="gray">\Exception</text>
</g>
<!-- \\triagens\\ArangoDb\\Exception&#45;&gt;\\Exception -->
<g id="edge4" class="edge"><title>\\triagens\\ArangoDb\\Exception&#45;&gt;\\Exception</title>
<path fill="none" stroke="black" d="M206.146,-1000C180.465,-1000 146.206,-1000 116.602,-1000"/>
<polygon fill="none" stroke="black" points="116.347,-996.5 106.347,-1000 116.347,-1003.5 116.347,-996.5"/>
</g>
<!-- \\triagens\\ArangoDb\\BindVars -->
<g id="node5" class="node"><title>\\triagens\\ArangoDb\\BindVars</title>
<a xlink:href="BindVars.html" xlink:title="BindVars" target="_parent">
<polygon fill="none" stroke="black" points="485,-1234 415,-1234 415,-1198 485,-1198 485,-1234"/>
<text text-anchor="middle" x="450" y="-1213.1" font-family="Courier,monospace" font-size="11.00">BindVars</text>
</a>
</g>
<!-- \\triagens\\ArangoDb\\Scope -->
<g id="node6" class="node"><title>\\triagens\\ArangoDb\\Scope</title>
<a xlink:href="Scope.html" xlink:title="Scope" target="_parent">
<polygon fill="none" stroke="black" points="477,-1180 423,-1180 423,-1144 477,-1144 477,-1180"/>
<text text-anchor="middle" x="450" y="-1159.1" font-family="Courier,monospace" font-size="11.00">Scope</text>
</a>
</g>
<!-- \\triagens\\ArangoDb\\ConnectionOptions -->
<g id="node7" class="node"><title>\\triagens\\ArangoDb\\ConnectionOptions</title>
<a xlink:href="ConnectionOptions.html" xlink:title="ConnectionOptions" target="_parent">
<polygon fill="none" stroke="black" points="515,-586 385,-586 385,-550 515,-550 515,-586"/>
<text text-anchor="middle" x="450" y="-565.1" font-family="Courier,monospace" font-size="11.00">ConnectionOptions</text>
</a>
</g>
<!-- \\ArrayAccess -->
<g id="node35" class="node"><title>\\ArrayAccess</title>
<ellipse fill="none" stroke="black" cx="245" cy="-75" rx="65.9683" ry="19.0919"/>
<text text-anchor="middle" x="245" y="-71.9" font-family="Times Roman,serif" font-size="14.00" fill="gray">\\ArrayAccess</text>
</g>
<!-- \\triagens\\ArangoDb\\ConnectionOptions&#45;&gt;\\ArrayAccess -->
<g id="edge16" class="edge"><title>\\triagens\\ArangoDb\\ConnectionOptions&#45;&gt;\\ArrayAccess</title>
<path fill="none" stroke="black" stroke-dasharray="1,5" d="M393.404,-549.95C389.898,-547.353 386.702,-544.388 384,-541 261.81,-387.796 430.709,-261.916 312,-106 308.555,-101.475 304.291,-97.5871 299.595,-94.2516"/>
<polygon fill="none" stroke="black" points="301.114,-91.0772 290.761,-88.826 297.451,-97.042 301.114,-91.0772"/>
</g>
<!-- \\triagens\\ArangoDb\\Statement -->
<g id="node8" class="node"><title>\\triagens\\ArangoDb\\Statement</title>
<a xlink:href="Statement.html" xlink:title="Statement" target="_parent">
<polygon fill="none" stroke="black" points="488,-1072 412,-1072 412,-1036 488,-1036 488,-1072"/>
<text text-anchor="middle" x="450" y="-1051.1" font-family="Courier,monospace" font-size="11.00">Statement</text>
</a>
</g>
<!-- \\triagens\\ArangoDb\\DocumentHandler -->
<g id="node9" class="node"><title>\\triagens\\ArangoDb\\DocumentHandler</title>
<a xlink:href="DocumentHandler.html" xlink:title="DocumentHandler" target="_parent">
<polygon fill="none" stroke="black" points="509,-748 391,-748 391,-712 509,-712 509,-748"/>
<text text-anchor="middle" x="450" y="-727.1" font-family="Courier,monospace" font-size="11.00">DocumentHandler</text>
</a>
</g>
<!-- \\triagens\\ArangoDb\\Handler -->
<g id="node23" class="node"><title>\\triagens\\ArangoDb\\Handler</title>
<a xlink:href="Handler.html" xlink:title="«abstract»&lt;br/&gt;Handler" target="_parent">
<polygon fill="none" stroke="black" points="287,-775 203,-775 203,-739 287,-739 287,-775"/>
<text text-anchor="start" x="211" y="-762.433" font-family="Courier,monospace" font-size="11.00">«abstract»</text>
<text text-anchor="start" x="221" y="-749.233" font-family="Courier,monospace" font-size="11.00">Handler</text>
</a>
</g>
<!-- \\triagens\\ArangoDb\\DocumentHandler&#45;&gt;\\triagens\\ArangoDb\\Handler -->
<g id="edge6" class="edge"><title>\\triagens\\ArangoDb\\DocumentHandler&#45;&gt;\\triagens\\ArangoDb\\Handler</title>
<path fill="none" stroke="black" d="M390.981,-737.773C361.589,-741.644 326.342,-746.287 297.847,-750.04"/>
<polygon fill="none" stroke="black" points="297.134,-746.603 287.677,-751.379 298.048,-753.543 297.134,-746.603"/>
</g>
<!-- \\triagens\\ArangoDb\\Connection -->
<g id="node10" class="node"><title>\\triagens\\ArangoDb\\Connection</title>
<a xlink:href="Connection.html" xlink:title="Connection" target="_parent">
<polygon fill="none" stroke="black" points="492,-964 408,-964 408,-928 492,-928 492,-964"/>
<text text-anchor="middle" x="450" y="-943.1" font-family="Courier,monospace" font-size="11.00">Connection</text>
</a>
</g>
<!-- \\triagens\\ArangoDb\\DefaultValues -->
<g id="node11" class="node"><title>\\triagens\\ArangoDb\\DefaultValues</title>
<a xlink:href="DefaultValues.html" xlink:title="«abstract»&lt;br/&gt;DefaultValues" target="_parent">
<polygon fill="none" stroke="black" points="502,-910 398,-910 398,-874 502,-874 502,-910"/>
<text text-anchor="start" x="416" y="-897.433" font-family="Courier,monospace" font-size="11.00">«abstract»</text>
<text text-anchor="start" x="406" y="-884.233" font-family="Courier,monospace" font-size="11.00">DefaultValues</text>
</a>
</g>
<!-- \\triagens\\ArangoDb\\ConnectException -->
<g id="node12" class="node"><title>\\triagens\\ArangoDb\\ConnectException</title>
<a xlink:href="ConnectException.html" xlink:title="ConnectException" target="_parent">
<polygon fill="none" stroke="black" points="512,-1018 388,-1018 388,-982 512,-982 512,-1018"/>
<text text-anchor="middle" x="450" y="-997.1" font-family="Courier,monospace" font-size="11.00">ConnectException</text>
</a>
</g>
<!-- \\triagens\\ArangoDb\\ConnectException&#45;&gt;\\triagens\\ArangoDb\\Exception -->
<g id="edge8" class="edge"><title>\\triagens\\ArangoDb\\ConnectException&#45;&gt;\\triagens\\ArangoDb\\Exception</title>
<path fill="none" stroke="black" d="M387.379,-1000C357.414,-1000 322.061,-1000 294.08,-1000"/>
<polygon fill="none" stroke="black" points="293.743,-996.5 283.743,-1000 293.743,-1003.5 293.743,-996.5"/>
</g>
<!-- \\triagens\\ArangoDb\\ClientException -->
<g id="node13" class="node"><title>\\triagens\\ArangoDb\\ClientException</title>
<a xlink:href="ClientException.html" xlink:title="ClientException" target="_parent">
<polygon fill="none" stroke="black" points="509,-856 391,-856 391,-820 509,-820 509,-856"/>
<text text-anchor="middle" x="450" y="-835.1" font-family="Courier,monospace" font-size="11.00">ClientException</text>
</a>
</g>
<!-- \\triagens\\ArangoDb\\ClientException&#45;&gt;\\triagens\\ArangoDb\\Exception -->
<g id="edge10" class="edge"><title>\\triagens\\ArangoDb\\ClientException&#45;&gt;\\triagens\\ArangoDb\\Exception</title>
<path fill="none" stroke="black" d="M399.938,-856.063C394.4,-858.762 388.972,-861.746 384,-865 336.918,-895.817 292.018,-944 266.55,-973.697"/>
<polygon fill="none" stroke="black" points="263.689,-971.66 259.897,-981.553 269.03,-976.184 263.689,-971.66"/>
</g>
<!-- \\triagens\\ArangoDb\\ServerException -->
<g id="node14" class="node"><title>\\triagens\\ArangoDb\\ServerException</title>
<a xlink:href="ServerException.html" xlink:title="ServerException" target="_parent">
<polygon fill="none" stroke="black" points="509,-1126 391,-1126 391,-1090 509,-1090 509,-1126"/>
<text text-anchor="middle" x="450" y="-1105.1" font-family="Courier,monospace" font-size="11.00">ServerException</text>
</a>
</g>
<!-- \\triagens\\ArangoDb\\ServerException&#45;&gt;\\triagens\\ArangoDb\\Exception -->
<g id="edge12" class="edge"><title>\\triagens\\ArangoDb\\ServerException&#45;&gt;\\triagens\\ArangoDb\\Exception</title>
<path fill="none" stroke="black" d="M403.479,-1089.92C396.874,-1087.08 390.218,-1084.07 384,-1081 348.396,-1063.45 309.484,-1040.42 281.91,-1023.41"/>
<polygon fill="none" stroke="black" points="283.717,-1020.41 273.375,-1018.11 280.025,-1026.36 283.717,-1020.41"/>
</g>
<!-- \\triagens\\ArangoDb\\HttpResponse -->
<g id="node15" class="node"><title>\\triagens\\ArangoDb\\HttpResponse</title>
<a xlink:href="HttpResponse.html" xlink:title="HttpResponse" target="_parent">
<polygon fill="none" stroke="black" points="499,-694 401,-694 401,-658 499,-658 499,-694"/>
<text text-anchor="middle" x="450" y="-673.1" font-family="Courier,monospace" font-size="11.00">HttpResponse</text>
</a>
</g>
<!-- \\triagens\\ArangoDb\\UpdatePolicy -->
<g id="node16" class="node"><title>\\triagens\\ArangoDb\\UpdatePolicy</title>
<a xlink:href="UpdatePolicy.html" xlink:title="UpdatePolicy" target="_parent">
<polygon fill="none" stroke="black" points="499,-640 401,-640 401,-604 499,-604 499,-640"/>
<text text-anchor="middle" x="450" y="-619.1" font-family="Courier,monospace" font-size="11.00">UpdatePolicy</text>
</a>
</g>
<!-- \\triagens\\ArangoDb\\CollectionHandler -->
<g id="node17" class="node"><title>\\triagens\\ArangoDb\\CollectionHandler</title>
<a xlink:href="CollectionHandler.html" xlink:title="CollectionHandler" target="_parent">
<polygon fill="none" stroke="black" points="515,-802 385,-802 385,-766 515,-766 515,-802"/>
<text text-anchor="middle" x="450" y="-781.1" font-family="Courier,monospace" font-size="11.00">CollectionHandler</text>
</a>
</g>
<!-- \\triagens\\ArangoDb\\CollectionHandler&#45;&gt;\\triagens\\ArangoDb\\Handler -->
<g id="edge14" class="edge"><title>\\triagens\\ArangoDb\\CollectionHandler&#45;&gt;\\triagens\\ArangoDb\\Handler</title>
<path fill="none" stroke="black" d="M384.291,-775.346C356.376,-771.669 324.263,-767.44 297.912,-763.969"/>
<polygon fill="none" stroke="black" points="298.117,-760.466 287.746,-762.63 297.203,-767.406 298.117,-760.466"/>
</g>
<!-- \\triagens\\ArangoDb\\Endpoint -->
<g id="node18" class="node"><title>\\triagens\\ArangoDb\\Endpoint</title>
<a xlink:href="Endpoint.html" xlink:title="Endpoint" target="_parent">
<polygon fill="none" stroke="black" points="485,-532 415,-532 415,-496 485,-496 485,-532"/>
<text text-anchor="middle" x="450" y="-511.1" font-family="Courier,monospace" font-size="11.00">Endpoint</text>
</a>
</g>
<!-- \\triagens\\ArangoDb\\Collection -->
<g id="node19" class="node"><title>\\triagens\\ArangoDb\\Collection</title>
<a xlink:href="Collection.html" xlink:title="Collection" target="_parent">
<polygon fill="none" stroke="black" points="492,-478 408,-478 408,-442 492,-442 492,-478"/>
<text text-anchor="middle" x="450" y="-457.1" font-family="Courier,monospace" font-size="11.00">Collection</text>
</a>
</g>
<!-- \\triagens\\ArangoDb\\HttpHelper -->
<g id="node20" class="node"><title>\\triagens\\ArangoDb\\HttpHelper</title>
<a xlink:href="HttpHelper.html" xlink:title="HttpHelper" target="_parent">
<polygon fill="none" stroke="black" points="492,-424 408,-424 408,-388 492,-388 492,-424"/>
<text text-anchor="middle" x="450" y="-403.1" font-family="Courier,monospace" font-size="11.00">HttpHelper</text>
</a>
</g>
<!-- \\triagens\\ArangoDb\\Document -->
<g id="node21" class="node"><title>\\triagens\\ArangoDb\\Document</title>
<a xlink:href="Document.html" xlink:title="Document" target="_parent">
<polygon fill="none" stroke="black" points="485,-370 415,-370 415,-334 485,-334 485,-370"/>
<text text-anchor="middle" x="450" y="-349.1" font-family="Courier,monospace" font-size="11.00">Document</text>
</a>
</g>
<!-- \\triagens\\ArangoDb\\URLHelper -->
<g id="node22" class="node"><title>\\triagens\\ArangoDb\\URLHelper</title>
<a xlink:href="UrlHelper.html" xlink:title="«abstract»&lt;br/&gt;URLHelper" target="_parent">
<polygon fill="none" stroke="black" points="492,-316 408,-316 408,-280 492,-280 492,-316"/>
<text text-anchor="start" x="416" y="-303.433" font-family="Courier,monospace" font-size="11.00">«abstract»</text>
<text text-anchor="start" x="419.5" y="-290.233" font-family="Courier,monospace" font-size="11.00">URLHelper</text>
</a>
</g>
<!-- \\triagens\\ArangoDb\\Autoloader -->
<g id="node24" class="node"><title>\\triagens\\ArangoDb\\Autoloader</title>
<a xlink:href="Autoloader.html" xlink:title="Autoloader" target="_parent">
<polygon fill="none" stroke="black" points="492,-262 408,-262 408,-226 492,-226 492,-262"/>
<text text-anchor="middle" x="450" y="-241.1" font-family="Courier,monospace" font-size="11.00">Autoloader</text>
</a>
</g>
<!-- \\triagens\\ArangoDb\\URLs -->
<g id="node25" class="node"><title>\\triagens\\ArangoDb\\URLs</title>
<a xlink:href="Urls.html" xlink:title="«abstract»&lt;br/&gt;URLs" target="_parent">
<polygon fill="none" stroke="black" points="492,-208 408,-208 408,-172 492,-172 492,-208"/>
<text text-anchor="start" x="416" y="-195.433" font-family="Courier,monospace" font-size="11.00">«abstract»</text>
<text text-anchor="start" x="436" y="-182.233" font-family="Courier,monospace" font-size="11.00">URLs</text>
</a>
</g>
<!-- \\triagens\\ArangoDb\\Cursor -->
<g id="node26" class="node"><title>\\triagens\\ArangoDb\\Cursor</title>
<a xlink:href="Cursor.html" xlink:title="Cursor" target="_parent">
<polygon fill="none" stroke="black" points="478,-154 422,-154 422,-118 478,-118 478,-154"/>
<text text-anchor="middle" x="450" y="-133.1" font-family="Courier,monospace" font-size="11.00">Cursor</text>
</a>
</g>
<!-- \\Iterator -->
<g id="node37" class="node"><title>\\Iterator</title>
<ellipse fill="none" stroke="black" cx="245" cy="-19" rx="44.7575" ry="19.0919"/>
<text text-anchor="middle" x="245" y="-15.9" font-family="Times Roman,serif" font-size="14.00" fill="gray">\\Iterator</text>
</g>
<!-- \\triagens\\ArangoDb\\Cursor&#45;&gt;\\Iterator -->
<g id="edge18" class="edge"><title>\\triagens\\ArangoDb\\Cursor&#45;&gt;\\Iterator</title>
<path fill="none" stroke="black" stroke-dasharray="1,5" d="M424.878,-117.863C397.826,-98.8019 353.125,-68.6366 312,-47 304.462,-43.0342 296.236,-39.2114 288.211,-35.7323"/>
<polygon fill="none" stroke="black" points="289.509,-32.4812 278.935,-31.8182 286.787,-38.9306 289.509,-32.4812"/>
</g>
</g>
</svg>
