<?xml version="1.0" encoding="UTF-8" standalone="no"?>
<!DOCTYPE svg PUBLIC "-//W3C//DTD SVG 1.1//EN"
 "http://www.w3.org/Graphics/SVG/1.1/DTD/svg11.dtd">
<!-- Generated by graphviz version 2.40.1 (20161225.0304)
 -->
<!-- Title: G Pages: 1 -->
<svg width="734pt" height="2274pt"
 viewBox="0.00 0.00 734.39 2274.00" xmlns="http://www.w3.org/2000/svg" xmlns:xlink="http://www.w3.org/1999/xlink">
<g id="graph0" class="graph" transform="scale(1 1) rotate(0) translate(4 2270)">
<title>G</title>
<polygon fill="#ffffff" stroke="transparent" points="-4,4 -4,-2270 730.3875,-2270 730.3875,4 -4,4"/>
<g id="clust1" class="cluster">
<title>cluster_Global</title>
<path fill="none" stroke="#c0c0c0" d="M24.1938,-98C24.1938,-98 706.3875,-98 706.3875,-98 712.3875,-98 718.3875,-104 718.3875,-110 718.3875,-110 718.3875,-2246 718.3875,-2246 718.3875,-2252 712.3875,-2258 706.3875,-2258 706.3875,-2258 24.1938,-2258 24.1938,-2258 18.1938,-2258 12.1938,-2252 12.1938,-2246 12.1938,-2246 12.1938,-110 12.1938,-110 12.1938,-104 18.1938,-98 24.1938,-98"/>
<text text-anchor="middle" x="365.2907" y="-2245.2" font-family="Times,serif" font-size="11.00" fill="#c0c0c0">Global</text>
</g>
<g id="clust2" class="cluster">
<title>cluster_\ArangoDBClient</title>
<path fill="none" stroke="#c0c0c0" d="M32.1938,-106C32.1938,-106 698.3875,-106 698.3875,-106 704.3875,-106 710.3875,-112 710.3875,-118 710.3875,-118 710.3875,-2218 710.3875,-2218 710.3875,-2224 704.3875,-2230 698.3875,-2230 698.3875,-2230 32.1938,-2230 32.1938,-2230 26.1938,-2230 20.1938,-2224 20.1938,-2218 20.1938,-2218 20.1938,-118 20.1938,-118 20.1938,-112 26.1938,-106 32.1938,-106"/>
<text text-anchor="middle" x="365.2907" y="-2217.2" font-family="Times,serif" font-size="11.00" fill="#c0c0c0">ArangoDBClient</text>
</g>
<!-- \\ArangoDBClient\\Edge -->
<g id="node1" class="node">
<title>\\ArangoDBClient\\Edge</title>
<polygon fill="none" stroke="#000000" points="619.8875,-1446 565.8875,-1446 565.8875,-1410 619.8875,-1410 619.8875,-1446"/>
<text text-anchor="middle" x="592.8875" y="-1425.2" font-family="Courier,monospace" font-size="11.00" fill="#000000">Edge</text>
</g>
<!-- \\ArangoDBClient\\Document -->
<g id="node33" class="node">
<title>\\ArangoDBClient\\Document</title>
<polygon fill="none" stroke="#000000" points="347.3875,-1122 276.3875,-1122 276.3875,-1086 347.3875,-1086 347.3875,-1122"/>
<text text-anchor="middle" x="311.8875" y="-1101.2" font-family="Courier,monospace" font-size="11.00" fill="#000000">Document</text>
</g>
<!-- \\ArangoDBClient\\Edge&#45;&gt;\\ArangoDBClient\\Document -->
<g id="edge1" class="edge">
<title>\\ArangoDBClient\\Edge&#45;&gt;\\ArangoDBClient\\Document</title>
<path fill="none" stroke="#000000" d="M565.6041,-1427.1448C541.7715,-1425.126 507.3363,-1418.9968 483.3875,-1401 389.09,-1330.1382 338.0351,-1191.0928 319.7657,-1131.8265"/>
<polygon fill="none" stroke="#000000" points="323.0566,-1130.6161 316.8272,-1122.0461 316.3526,-1132.6303 323.0566,-1130.6161"/>
</g>
<!-- \\ArangoDBClient\\Transaction -->
<g id="node2" class="node">
<title>\\ArangoDBClient\\Transaction</title>
<polygon fill="none" stroke="#000000" points="638.3875,-2148 547.3875,-2148 547.3875,-2112 638.3875,-2112 638.3875,-2148"/>
<text text-anchor="middle" x="592.8875" y="-2127.2" font-family="Courier,monospace" font-size="11.00" fill="#000000">Transaction</text>
</g>
<!-- \\ArangoDBClient\\TransactionBase -->
<g id="node31" class="node">
<title>\\ArangoDBClient\\TransactionBase</title>
<polygon fill="none" stroke="#000000" points="370.8875,-2175 252.8875,-2175 252.8875,-2139 370.8875,-2139 370.8875,-2175"/>
<text text-anchor="middle" x="311.8875" y="-2154.2" font-family="Courier,monospace" font-size="11.00" fill="#000000">TransactionBase</text>
</g>
<!-- \\ArangoDBClient\\Transaction&#45;&gt;\\ArangoDBClient\\TransactionBase -->
<g id="edge2" class="edge">
<title>\\ArangoDBClient\\Transaction&#45;&gt;\\ArangoDBClient\\TransactionBase</title>
<path fill="none" stroke="#000000" d="M547.1146,-2134.3981C502.1362,-2138.7199 432.9141,-2145.3711 381.19,-2150.341"/>
<polygon fill="none" stroke="#000000" points="380.7102,-2146.8709 371.0908,-2151.3114 381.3798,-2153.8388 380.7102,-2146.8709"/>
</g>
<!-- \\ArangoDBClient\\StreamingTransaction -->
<g id="node3" class="node">
<title>\\ArangoDBClient\\StreamingTransaction</title>
<polygon fill="none" stroke="#000000" points="668.8875,-2202 516.8875,-2202 516.8875,-2166 668.8875,-2166 668.8875,-2202"/>
<text text-anchor="middle" x="592.8875" y="-2181.2" font-family="Courier,monospace" font-size="11.00" fill="#000000">StreamingTransaction</text>
</g>
<!-- \\ArangoDBClient\\StreamingTransaction&#45;&gt;\\ArangoDBClient\\TransactionBase -->
<g id="edge3" class="edge">
<title>\\ArangoDBClient\\StreamingTransaction&#45;&gt;\\ArangoDBClient\\TransactionBase</title>
<path fill="none" stroke="#000000" d="M516.8449,-2176.6934C474.5902,-2172.6333 422.4049,-2167.6191 381.2673,-2163.6664"/>
<polygon fill="none" stroke="#000000" points="381.3483,-2160.1581 371.0594,-2162.6855 380.6787,-2167.126 381.3483,-2160.1581"/>
</g>
<!-- \\ArangoDBClient\\UrlHelper -->
<g id="node4" class="node">
<title>\\ArangoDBClient\\UrlHelper</title>
<polygon fill="none" stroke="#000000" points="634.8875,-2040 550.8875,-2040 550.8875,-2004 634.8875,-2004 634.8875,-2040"/>
<text text-anchor="start" x="558.8875" y="-2025.2" font-family="Courier,monospace" font-size="11.00" fill="#000000">«abstract»</text>
<text text-anchor="start" x="562.3875" y="-2013.2" font-family="Courier,monospace" font-size="11.00" fill="#000000">UrlHelper</text>
</g>
<!-- \\ArangoDBClient\\Endpoint -->
<g id="node5" class="node">
<title>\\ArangoDBClient\\Endpoint</title>
<polygon fill="none" stroke="#000000" points="628.3875,-1986 557.3875,-1986 557.3875,-1950 628.3875,-1950 628.3875,-1986"/>
<text text-anchor="middle" x="592.8875" y="-1965.2" font-family="Courier,monospace" font-size="11.00" fill="#000000">Endpoint</text>
</g>
<!-- \\ArangoDBClient\\Batch -->
<g id="node6" class="node">
<title>\\ArangoDBClient\\Batch</title>
<polygon fill="none" stroke="#000000" points="619.8875,-1932 565.8875,-1932 565.8875,-1896 619.8875,-1896 619.8875,-1932"/>
<text text-anchor="middle" x="592.8875" y="-1911.2" font-family="Courier,monospace" font-size="11.00" fill="#000000">Batch</text>
</g>
<!-- \\ArangoDBClient\\ExportCursor -->
<g id="node7" class="node">
<title>\\ArangoDBClient\\ExportCursor</title>
<polygon fill="none" stroke="#000000" points="641.8875,-1878 543.8875,-1878 543.8875,-1842 641.8875,-1842 641.8875,-1878"/>
<text text-anchor="middle" x="592.8875" y="-1857.2" font-family="Courier,monospace" font-size="11.00" fill="#000000">ExportCursor</text>
</g>
<!-- \\ArangoDBClient\\FailoverException -->
<g id="node8" class="node">
<title>\\ArangoDBClient\\FailoverException</title>
<polygon fill="none" stroke="#000000" points="658.3875,-798 527.3875,-798 527.3875,-762 658.3875,-762 658.3875,-798"/>
<text text-anchor="middle" x="592.8875" y="-777.2" font-family="Courier,monospace" font-size="11.00" fill="#000000">FailoverException</text>
</g>
<!-- \\ArangoDBClient\\Exception -->
<g id="node38" class="node">
<title>\\ArangoDBClient\\Exception</title>
<polygon fill="none" stroke="#000000" points="350.3875,-798 273.3875,-798 273.3875,-762 350.3875,-762 350.3875,-798"/>
<text text-anchor="middle" x="311.8875" y="-777.2" font-family="Courier,monospace" font-size="11.00" fill="#000000">Exception</text>
</g>
<!-- \\ArangoDBClient\\FailoverException&#45;&gt;\\ArangoDBClient\\Exception -->
<g id="edge4" class="edge">
<title>\\ArangoDBClient\\FailoverException&#45;&gt;\\ArangoDBClient\\Exception</title>
<path fill="none" stroke="#000000" d="M527.3602,-780C476.3994,-780 406.8286,-780 360.6868,-780"/>
<polygon fill="none" stroke="#000000" points="360.6379,-776.5001 350.6379,-780 360.6379,-783.5001 360.6379,-776.5001"/>
</g>
<!-- \\ArangoDBClient\\ConnectException -->
<g id="node9" class="node">
<title>\\ArangoDBClient\\ConnectException</title>
<polygon fill="none" stroke="#000000" points="655.3875,-474 530.3875,-474 530.3875,-438 655.3875,-438 655.3875,-474"/>
<text text-anchor="middle" x="592.8875" y="-453.2" font-family="Courier,monospace" font-size="11.00" fill="#000000">ConnectException</text>
</g>
<!-- \\ArangoDBClient\\ConnectException&#45;&gt;\\ArangoDBClient\\Exception -->
<g id="edge5" class="edge">
<title>\\ArangoDBClient\\ConnectException&#45;&gt;\\ArangoDBClient\\Exception</title>
<path fill="none" stroke="#000000" d="M530.251,-462.454C513.8186,-466.4439 496.9272,-472.8254 483.3875,-483 389.09,-553.8618 338.0351,-692.9072 319.7657,-752.1735"/>
<polygon fill="none" stroke="#000000" points="316.3526,-751.3697 316.8272,-761.9539 323.0566,-753.3839 316.3526,-751.3697"/>
</g>
<!-- \\ArangoDBClient\\Collection -->
<g id="node10" class="node">
<title>\\ArangoDBClient\\Collection</title>
<polygon fill="none" stroke="#000000" points="353.8875,-312 269.8875,-312 269.8875,-276 353.8875,-276 353.8875,-312"/>
<text text-anchor="middle" x="311.8875" y="-291.2" font-family="Courier,monospace" font-size="11.00" fill="#000000">Collection</text>
</g>
<!-- \\ArangoDBClient\\TraceRequest -->
<g id="node11" class="node">
<title>\\ArangoDBClient\\TraceRequest</title>
<polygon fill="none" stroke="#000000" points="641.8875,-1716 543.8875,-1716 543.8875,-1680 641.8875,-1680 641.8875,-1716"/>
<text text-anchor="middle" x="592.8875" y="-1695.2" font-family="Courier,monospace" font-size="11.00" fill="#000000">TraceRequest</text>
</g>
<!-- \\ArangoDBClient\\AqlUserFunction -->
<g id="node12" class="node">
<title>\\ArangoDBClient\\AqlUserFunction</title>
<polygon fill="none" stroke="#000000" points="651.8875,-1662 533.8875,-1662 533.8875,-1626 651.8875,-1626 651.8875,-1662"/>
<text text-anchor="middle" x="592.8875" y="-1641.2" font-family="Courier,monospace" font-size="11.00" fill="#000000">AqlUserFunction</text>
</g>
<!-- \\ArangoDBClient\\Traversal -->
<g id="node13" class="node">
<title>\\ArangoDBClient\\Traversal</title>
<polygon fill="none" stroke="#000000" points="631.3875,-1608 554.3875,-1608 554.3875,-1572 631.3875,-1572 631.3875,-1608"/>
<text text-anchor="middle" x="592.8875" y="-1587.2" font-family="Courier,monospace" font-size="11.00" fill="#000000">Traversal</text>
</g>
<!-- \\ArangoDBClient\\View -->
<g id="node14" class="node">
<title>\\ArangoDBClient\\View</title>
<polygon fill="none" stroke="#000000" points="619.8875,-1554 565.8875,-1554 565.8875,-1518 619.8875,-1518 619.8875,-1554"/>
<text text-anchor="middle" x="592.8875" y="-1533.2" font-family="Courier,monospace" font-size="11.00" fill="#000000">View</text>
</g>
<!-- \\ArangoDBClient\\DefaultValues -->
<g id="node15" class="node">
<title>\\ArangoDBClient\\DefaultValues</title>
<polygon fill="none" stroke="#000000" points="644.8875,-1500 540.8875,-1500 540.8875,-1464 644.8875,-1464 644.8875,-1500"/>
<text text-anchor="start" x="558.8875" y="-1485.2" font-family="Courier,monospace" font-size="11.00" fill="#000000">«abstract»</text>
<text text-anchor="start" x="548.8875" y="-1473.2" font-family="Courier,monospace" font-size="11.00" fill="#000000">DefaultValues</text>
</g>
<!-- \\ArangoDBClient\\User -->
<g id="node16" class="node">
<title>\\ArangoDBClient\\User</title>
<polygon fill="none" stroke="#000000" points="619.8875,-1122 565.8875,-1122 565.8875,-1086 619.8875,-1086 619.8875,-1122"/>
<text text-anchor="middle" x="592.8875" y="-1101.2" font-family="Courier,monospace" font-size="11.00" fill="#000000">User</text>
</g>
<!-- \\ArangoDBClient\\User&#45;&gt;\\ArangoDBClient\\Document -->
<g id="edge6" class="edge">
<title>\\ArangoDBClient\\User&#45;&gt;\\ArangoDBClient\\Document</title>
<path fill="none" stroke="#000000" d="M565.6888,-1104C517.4835,-1104 416.5891,-1104 357.5633,-1104"/>
<polygon fill="none" stroke="#000000" points="357.4047,-1100.5001 347.4046,-1104 357.4046,-1107.5001 357.4047,-1100.5001"/>
</g>
<!-- \\ArangoDBClient\\CollectionHandler -->
<g id="node17" class="node">
<title>\\ArangoDBClient\\CollectionHandler</title>
<polygon fill="none" stroke="#000000" points="377.3875,-1810 246.3875,-1810 246.3875,-1774 377.3875,-1774 377.3875,-1810"/>
<text text-anchor="middle" x="311.8875" y="-1789.2" font-family="Courier,monospace" font-size="11.00" fill="#000000">CollectionHandler</text>
</g>
<!-- \\ArangoDBClient\\Handler -->
<g id="node39" class="node">
<title>\\ArangoDBClient\\Handler</title>
<polygon fill="none" stroke="#000000" points="112.1938,-1783 28.1938,-1783 28.1938,-1747 112.1938,-1747 112.1938,-1783"/>
<text text-anchor="start" x="36.1938" y="-1768.2" font-family="Courier,monospace" font-size="11.00" fill="#000000">«abstract»</text>
<text text-anchor="start" x="46.1938" y="-1756.2" font-family="Courier,monospace" font-size="11.00" fill="#000000">Handler</text>
</g>
<!-- \\ArangoDBClient\\CollectionHandler&#45;&gt;\\ArangoDBClient\\Handler -->
<g id="edge7" class="edge">
<title>\\ArangoDBClient\\CollectionHandler&#45;&gt;\\ArangoDBClient\\Handler</title>
<path fill="none" stroke="#000000" d="M246.1629,-1784.6578C207.3587,-1780.3229 158.9042,-1774.91 122.6708,-1770.8623"/>
<polygon fill="none" stroke="#000000" points="122.6458,-1767.3378 112.319,-1769.7059 121.8686,-1774.2945 122.6458,-1767.3378"/>
</g>
<!-- \\ArangoDBClient\\Database -->
<g id="node18" class="node">
<title>\\ArangoDBClient\\Database</title>
<polygon fill="none" stroke="#000000" points="628.3875,-1392 557.3875,-1392 557.3875,-1356 628.3875,-1356 628.3875,-1392"/>
<text text-anchor="middle" x="592.8875" y="-1371.2" font-family="Courier,monospace" font-size="11.00" fill="#000000">Database</text>
</g>
<!-- \\ArangoDBClient\\StreamingTransactionHandler -->
<g id="node19" class="node">
<title>\\ArangoDBClient\\StreamingTransactionHandler</title>
<polygon fill="none" stroke="#000000" points="411.3875,-1756 212.3875,-1756 212.3875,-1720 411.3875,-1720 411.3875,-1756"/>
<text text-anchor="middle" x="311.8875" y="-1735.2" font-family="Courier,monospace" font-size="11.00" fill="#000000">StreamingTransactionHandler</text>
</g>
<!-- \\ArangoDBClient\\StreamingTransactionHandler&#45;&gt;\\ArangoDBClient\\Handler -->
<g id="edge8" class="edge">
<title>\\ArangoDBClient\\StreamingTransactionHandler&#45;&gt;\\ArangoDBClient\\Handler</title>
<path fill="none" stroke="#000000" d="M212.186,-1749.1378C181.4209,-1752.5746 148.7685,-1756.2223 122.5426,-1759.152"/>
<polygon fill="none" stroke="#000000" points="122.0073,-1755.69 112.4578,-1760.2786 122.7845,-1762.6467 122.0073,-1755.69"/>
</g>
<!-- \\ArangoDBClient\\BatchPart -->
<g id="node20" class="node">
<title>\\ArangoDBClient\\BatchPart</title>
<polygon fill="none" stroke="#000000" points="631.3875,-1338 554.3875,-1338 554.3875,-1302 631.3875,-1302 631.3875,-1338"/>
<text text-anchor="middle" x="592.8875" y="-1317.2" font-family="Courier,monospace" font-size="11.00" fill="#000000">BatchPart</text>
</g>
<!-- \\ArangoDBClient\\FoxxHandler -->
<g id="node21" class="node">
<title>\\ArangoDBClient\\FoxxHandler</title>
<polygon fill="none" stroke="#000000" points="357.3875,-1702 266.3875,-1702 266.3875,-1666 357.3875,-1666 357.3875,-1702"/>
<text text-anchor="middle" x="311.8875" y="-1681.2" font-family="Courier,monospace" font-size="11.00" fill="#000000">FoxxHandler</text>
</g>
<!-- \\ArangoDBClient\\FoxxHandler&#45;&gt;\\ArangoDBClient\\Handler -->
<g id="edge9" class="edge">
<title>\\ArangoDBClient\\FoxxHandler&#45;&gt;\\ArangoDBClient\\Handler</title>
<path fill="none" stroke="#000000" d="M266.0393,-1695.4357C249.0751,-1699.9302 229.7521,-1705.3618 212.3875,-1711 182.0778,-1720.8415 148.7457,-1733.4043 121.9763,-1743.9358"/>
<polygon fill="none" stroke="#000000" points="120.4384,-1740.7803 112.4286,-1747.7151 123.0148,-1747.2889 120.4384,-1740.7803"/>
</g>
<!-- \\ArangoDBClient\\Connection -->
<g id="node22" class="node">
<title>\\ArangoDBClient\\Connection</title>
<polygon fill="none" stroke="#000000" points="634.8875,-1284 550.8875,-1284 550.8875,-1248 634.8875,-1248 634.8875,-1284"/>
<text text-anchor="middle" x="592.8875" y="-1263.2" font-family="Courier,monospace" font-size="11.00" fill="#000000">Connection</text>
</g>
<!-- \\ArangoDBClient\\TraceResponse -->
<g id="node23" class="node">
<title>\\ArangoDBClient\\TraceResponse</title>
<polygon fill="none" stroke="#000000" points="644.8875,-1230 540.8875,-1230 540.8875,-1194 644.8875,-1194 644.8875,-1230"/>
<text text-anchor="middle" x="592.8875" y="-1209.2" font-family="Courier,monospace" font-size="11.00" fill="#000000">TraceResponse</text>
</g>
<!-- \\ArangoDBClient\\Autoloader -->
<g id="node24" class="node">
<title>\\ArangoDBClient\\Autoloader</title>
<polygon fill="none" stroke="#000000" points="634.8875,-1176 550.8875,-1176 550.8875,-1140 634.8875,-1140 634.8875,-1176"/>
<text text-anchor="middle" x="592.8875" y="-1155.2" font-family="Courier,monospace" font-size="11.00" fill="#000000">Autoloader</text>
</g>
<!-- \\ArangoDBClient\\ServerException -->
<g id="node25" class="node">
<title>\\ArangoDBClient\\ServerException</title>
<polygon fill="none" stroke="#000000" points="651.8875,-906 533.8875,-906 533.8875,-870 651.8875,-870 651.8875,-906"/>
<text text-anchor="middle" x="592.8875" y="-885.2" font-family="Courier,monospace" font-size="11.00" fill="#000000">ServerException</text>
</g>
<!-- \\ArangoDBClient\\ServerException&#45;&gt;\\ArangoDBClient\\Exception -->
<g id="edge10" class="edge">
<title>\\ArangoDBClient\\ServerException&#45;&gt;\\ArangoDBClient\\Exception</title>
<path fill="none" stroke="#000000" d="M533.7166,-875.6941C517.2261,-871.6505 499.4383,-866.7048 483.3875,-861 437.8692,-844.8217 388.1986,-820.5846 354.0838,-802.8384"/>
<polygon fill="none" stroke="#000000" points="355.3721,-799.562 344.8905,-798.0173 352.1211,-805.7613 355.3721,-799.562"/>
</g>
<!-- \\ArangoDBClient\\UserHandler -->
<g id="node26" class="node">
<title>\\ArangoDBClient\\UserHandler</title>
<polygon fill="none" stroke="#000000" points="357.3875,-1648 266.3875,-1648 266.3875,-1612 357.3875,-1612 357.3875,-1648"/>
<text text-anchor="middle" x="311.8875" y="-1627.2" font-family="Courier,monospace" font-size="11.00" fill="#000000">UserHandler</text>
</g>
<!-- \\ArangoDBClient\\UserHandler&#45;&gt;\\ArangoDBClient\\Handler -->
<g id="edge11" class="edge">
<title>\\ArangoDBClient\\UserHandler&#45;&gt;\\ArangoDBClient\\Handler</title>
<path fill="none" stroke="#000000" d="M265.9741,-1638.5603C248.6431,-1642.7844 229.09,-1648.7814 212.3875,-1657 168.0849,-1678.7994 123.8666,-1715.2799 96.7774,-1739.7344"/>
<polygon fill="none" stroke="#000000" points="94.2891,-1737.2671 89.2725,-1746.599 99.0136,-1742.4323 94.2891,-1737.2671"/>
</g>
<!-- \\ArangoDBClient\\QueryCacheHandler -->
<g id="node27" class="node">
<title>\\ArangoDBClient\\QueryCacheHandler</title>
<polygon fill="none" stroke="#000000" points="377.3875,-1594 246.3875,-1594 246.3875,-1558 377.3875,-1558 377.3875,-1594"/>
<text text-anchor="middle" x="311.8875" y="-1573.2" font-family="Courier,monospace" font-size="11.00" fill="#000000">QueryCacheHandler</text>
</g>
<!-- \\ArangoDBClient\\QueryCacheHandler&#45;&gt;\\ArangoDBClient\\Handler -->
<g id="edge12" class="edge">
<title>\\ArangoDBClient\\QueryCacheHandler&#45;&gt;\\ArangoDBClient\\Handler</title>
<path fill="none" stroke="#000000" d="M246.1661,-1587.9583C234.4015,-1591.7066 222.6387,-1596.6059 212.3875,-1603 156.1865,-1638.0551 109.7263,-1702.0785 86.4036,-1738.2546"/>
<polygon fill="none" stroke="#000000" points="83.3743,-1736.4964 80.9808,-1746.8174 89.2881,-1740.2417 83.3743,-1736.4964"/>
</g>
<!-- \\ArangoDBClient\\HttpHelper -->
<g id="node28" class="node">
<title>\\ArangoDBClient\\HttpHelper</title>
<polygon fill="none" stroke="#000000" points="634.8875,-1068 550.8875,-1068 550.8875,-1032 634.8875,-1032 634.8875,-1068"/>
<text text-anchor="middle" x="592.8875" y="-1047.2" font-family="Courier,monospace" font-size="11.00" fill="#000000">HttpHelper</text>
</g>
<!-- \\ArangoDBClient\\ViewHandler -->
<g id="node29" class="node">
<title>\\ArangoDBClient\\ViewHandler</title>
<polygon fill="none" stroke="#000000" points="357.3875,-1540 266.3875,-1540 266.3875,-1504 357.3875,-1504 357.3875,-1540"/>
<text text-anchor="middle" x="311.8875" y="-1519.2" font-family="Courier,monospace" font-size="11.00" fill="#000000">ViewHandler</text>
</g>
<!-- \\ArangoDBClient\\ViewHandler&#45;&gt;\\ArangoDBClient\\Handler -->
<g id="edge13" class="edge">
<title>\\ArangoDBClient\\ViewHandler&#45;&gt;\\ArangoDBClient\\Handler</title>
<path fill="none" stroke="#000000" d="M266.2707,-1527.2693C248.1991,-1531.0844 228.0439,-1537.6615 212.3875,-1549 144.296,-1598.3126 99.7368,-1691.0572 80.7165,-1737.3086"/>
<polygon fill="none" stroke="#000000" points="77.4225,-1736.1193 76.9429,-1746.7033 83.9181,-1738.7284 77.4225,-1736.1193"/>
</g>
<!-- \\ArangoDBClient\\Cursor -->
<g id="node30" class="node">
<title>\\ArangoDBClient\\Cursor</title>
<polygon fill="none" stroke="#000000" points="621.3875,-258 564.3875,-258 564.3875,-222 621.3875,-222 621.3875,-258"/>
<text text-anchor="middle" x="592.8875" y="-237.2" font-family="Courier,monospace" font-size="11.00" fill="#000000">Cursor</text>
</g>
<!-- \\Iterator -->
<g id="node55" class="node">
<title>\\Iterator</title>
<ellipse fill="none" stroke="#000000" cx="311.8875" cy="-72" rx="38.9931" ry="18"/>
<text text-anchor="middle" x="311.8875" y="-68.3" font-family="Times,serif" font-size="14.00" fill="#c0c0c0">\Iterator</text>
</g>
<!-- \\ArangoDBClient\\Cursor&#45;&gt;\\Iterator -->
<g id="edge14" class="edge">
<title>\\ArangoDBClient\\Cursor&#45;&gt;\\Iterator</title>
<path fill="none" stroke="#000000" stroke-dasharray="1,5" d="M563.9471,-238.6585C540.3507,-236.288 507.1559,-229.9169 483.3875,-213 435.4801,-178.9023 458.4085,-137.3101 411.3875,-102 396.4327,-90.7697 377.2755,-83.7154 359.7709,-79.2965"/>
<polygon fill="none" stroke="#000000" points="360.2289,-75.8107 349.6997,-76.9875 358.6647,-82.6337 360.2289,-75.8107"/>
</g>
<!-- \\ArangoDBClient\\Graph -->
<g id="node32" class="node">
<title>\\ArangoDBClient\\Graph</title>
<polygon fill="none" stroke="#000000" points="619.8875,-1014 565.8875,-1014 565.8875,-978 619.8875,-978 619.8875,-1014"/>
<text text-anchor="middle" x="592.8875" y="-993.2" font-family="Courier,monospace" font-size="11.00" fill="#000000">Graph</text>
</g>
<!-- \\ArangoDBClient\\Graph&#45;&gt;\\ArangoDBClient\\Document -->
<g id="edge15" class="edge">
<title>\\ArangoDBClient\\Graph&#45;&gt;\\ArangoDBClient\\Document</title>
<path fill="none" stroke="#000000" d="M565.4441,-1001.18C543.0239,-1005.7874 510.6923,-1013.2952 483.3875,-1023 437.8692,-1039.1783 388.1986,-1063.4154 354.0838,-1081.1616"/>
<polygon fill="none" stroke="#000000" points="352.1211,-1078.2387 344.8905,-1085.9827 355.3721,-1084.438 352.1211,-1078.2387"/>
</g>
<!-- \\JsonSerializable -->
<g id="node56" class="node">
<title>\\JsonSerializable</title>
<ellipse fill="none" stroke="#000000" cx="70.1938" cy="-72" rx="70.3881" ry="18"/>
<text text-anchor="middle" x="70.1938" y="-68.3" font-family="Times,serif" font-size="14.00" fill="#c0c0c0">\JsonSerializable</text>
</g>
<!-- \\ArangoDBClient\\Document&#45;&gt;\\JsonSerializable -->
<g id="edge16" class="edge">
<title>\\ArangoDBClient\\Document&#45;&gt;\\JsonSerializable</title>
<path fill="none" stroke="#000000" stroke-dasharray="1,5" d="M304.2751,-1085.9749C285.3184,-1040.2597 235.8434,-915.7035 212.3875,-807 179.1709,-653.0614 233.7183,-228.8456 140.3875,-102 137.0495,-97.4633 132.8852,-93.6061 128.2609,-90.3278"/>
<polygon fill="none" stroke="#000000" points="129.8858,-87.2199 119.5197,-85.0303 126.2578,-93.2064 129.8858,-87.2199"/>
</g>
<!-- \\ArangoDBClient\\Vertex -->
<g id="node34" class="node">
<title>\\ArangoDBClient\\Vertex</title>
<polygon fill="none" stroke="#000000" points="621.3875,-1770 564.3875,-1770 564.3875,-1734 621.3875,-1734 621.3875,-1770"/>
<text text-anchor="middle" x="592.8875" y="-1749.2" font-family="Courier,monospace" font-size="11.00" fill="#000000">Vertex</text>
</g>
<!-- \\ArangoDBClient\\Vertex&#45;&gt;\\ArangoDBClient\\Document -->
<g id="edge17" class="edge">
<title>\\ArangoDBClient\\Vertex&#45;&gt;\\ArangoDBClient\\Document</title>
<path fill="none" stroke="#000000" d="M563.9183,-1752.5265C539.3243,-1751.3787 504.7214,-1745.751 483.3875,-1725 461.0851,-1703.3069 347.9652,-1250.0794 318.7705,-1131.9513"/>
<polygon fill="none" stroke="#000000" points="322.1561,-1131.062 316.3613,-1122.1924 315.3601,-1132.7398 322.1561,-1131.062"/>
</g>
<!-- \\ArangoDBClient\\QueryHandler -->
<g id="node35" class="node">
<title>\\ArangoDBClient\\QueryHandler</title>
<polygon fill="none" stroke="#000000" points="360.8875,-2026 262.8875,-2026 262.8875,-1990 360.8875,-1990 360.8875,-2026"/>
<text text-anchor="middle" x="311.8875" y="-2005.2" font-family="Courier,monospace" font-size="11.00" fill="#000000">QueryHandler</text>
</g>
<!-- \\ArangoDBClient\\QueryHandler&#45;&gt;\\ArangoDBClient\\Handler -->
<g id="edge18" class="edge">
<title>\\ArangoDBClient\\QueryHandler&#45;&gt;\\ArangoDBClient\\Handler</title>
<path fill="none" stroke="#000000" d="M262.7323,-2001.9535C245.6053,-1998.043 227.0292,-1991.6036 212.3875,-1981 144.296,-1931.6874 99.7368,-1838.9428 80.7165,-1792.6914"/>
<polygon fill="none" stroke="#000000" points="83.9181,-1791.2716 76.9429,-1783.2967 77.4225,-1793.8807 83.9181,-1791.2716"/>
</g>
<!-- \\ArangoDBClient\\DocumentHandler -->
<g id="node36" class="node">
<title>\\ArangoDBClient\\DocumentHandler</title>
<polygon fill="none" stroke="#000000" points="370.8875,-1918 252.8875,-1918 252.8875,-1882 370.8875,-1882 370.8875,-1918"/>
<text text-anchor="middle" x="311.8875" y="-1897.2" font-family="Courier,monospace" font-size="11.00" fill="#000000">DocumentHandler</text>
</g>
<!-- \\ArangoDBClient\\DocumentHandler&#45;&gt;\\ArangoDBClient\\Handler -->
<g id="edge19" class="edge">
<title>\\ArangoDBClient\\DocumentHandler&#45;&gt;\\ArangoDBClient\\Handler</title>
<path fill="none" stroke="#000000" d="M252.6385,-1887.9322C239.0447,-1884.0782 224.9144,-1879.1639 212.3875,-1873 168.0849,-1851.2006 123.8666,-1814.7201 96.7774,-1790.2656"/>
<polygon fill="none" stroke="#000000" points="99.0136,-1787.5677 89.2725,-1783.401 94.2891,-1792.7329 99.0136,-1787.5677"/>
</g>
<!-- \\ArangoDBClient\\Statement -->
<g id="node37" class="node">
<title>\\ArangoDBClient\\Statement</title>
<polygon fill="none" stroke="#000000" points="631.3875,-852 554.3875,-852 554.3875,-816 631.3875,-816 631.3875,-852"/>
<text text-anchor="middle" x="592.8875" y="-831.2" font-family="Courier,monospace" font-size="11.00" fill="#000000">Statement</text>
</g>
<!-- \\Exception -->
<g id="node57" class="node">
<title>\\Exception</title>
<ellipse fill="none" stroke="#000000" cx="70.1938" cy="-18" rx="48.9926" ry="18"/>
<text text-anchor="middle" x="70.1938" y="-14.3" font-family="Times,serif" font-size="14.00" fill="#c0c0c0">\Exception</text>
</g>
<!-- \\ArangoDBClient\\Exception&#45;&gt;\\Exception -->
<g id="edge20" class="edge">
<title>\\ArangoDBClient\\Exception&#45;&gt;\\Exception</title>
<path fill="none" stroke="#000000" d="M307.8979,-761.8491C283.2964,-650.0589 152.8508,-59.3134 140.3875,-45 135.4359,-39.3133 129.1463,-34.8183 122.3742,-31.2667"/>
<polygon fill="none" stroke="#000000" points="123.4742,-27.9227 112.9209,-26.9851 120.5861,-34.2992 123.4742,-27.9227"/>
</g>
<!-- \\ArangoDBClient\\VertexHandler -->
<g id="node40" class="node">
<title>\\ArangoDBClient\\VertexHandler</title>
<polygon fill="none" stroke="#000000" points="644.8875,-1824 540.8875,-1824 540.8875,-1788 644.8875,-1788 644.8875,-1824"/>
<text text-anchor="middle" x="592.8875" y="-1803.2" font-family="Courier,monospace" font-size="11.00" fill="#000000">VertexHandler</text>
</g>
<!-- \\ArangoDBClient\\VertexHandler&#45;&gt;\\ArangoDBClient\\DocumentHandler -->
<g id="edge21" class="edge">
<title>\\ArangoDBClient\\VertexHandler&#45;&gt;\\ArangoDBClient\\DocumentHandler</title>
<path fill="none" stroke="#000000" d="M540.7602,-1815.8815C522.3055,-1820.1526 501.6108,-1825.8389 483.3875,-1833 449.317,-1846.3885 445.3003,-1859.2168 411.3875,-1873 401.7118,-1876.9325 391.2775,-1880.4751 380.9331,-1883.6012"/>
<polygon fill="none" stroke="#000000" points="379.695,-1880.3161 371.0705,-1886.4698 381.6501,-1887.0376 379.695,-1880.3161"/>
</g>
<!-- \\ArangoDBClient\\HttpResponse -->
<g id="node41" class="node">
<title>\\ArangoDBClient\\HttpResponse</title>
<polygon fill="none" stroke="#000000" points="641.8875,-744 543.8875,-744 543.8875,-708 641.8875,-708 641.8875,-744"/>
<text text-anchor="middle" x="592.8875" y="-723.2" font-family="Courier,monospace" font-size="11.00" fill="#000000">HttpResponse</text>
</g>
<!-- \\ArangoDBClient\\BindVars -->
<g id="node42" class="node">
<title>\\ArangoDBClient\\BindVars</title>
<polygon fill="none" stroke="#000000" points="628.3875,-690 557.3875,-690 557.3875,-654 628.3875,-654 628.3875,-690"/>
<text text-anchor="middle" x="592.8875" y="-669.2" font-family="Courier,monospace" font-size="11.00" fill="#000000">BindVars</text>
</g>
<!-- \\ArangoDBClient\\UpdatePolicy -->
<g id="node43" class="node">
<title>\\ArangoDBClient\\UpdatePolicy</title>
<polygon fill="none" stroke="#000000" points="641.8875,-636 543.8875,-636 543.8875,-600 641.8875,-600 641.8875,-636"/>
<text text-anchor="middle" x="592.8875" y="-615.2" font-family="Courier,monospace" font-size="11.00" fill="#000000">UpdatePolicy</text>
</g>
<!-- \\ArangoDBClient\\Urls -->
<g id="node44" class="node">
<title>\\ArangoDBClient\\Urls</title>
<polygon fill="none" stroke="#000000" points="634.8875,-582 550.8875,-582 550.8875,-546 634.8875,-546 634.8875,-582"/>
<text text-anchor="start" x="558.8875" y="-567.2" font-family="Courier,monospace" font-size="11.00" fill="#000000">«abstract»</text>
<text text-anchor="start" x="578.8875" y="-555.2" font-family="Courier,monospace" font-size="11.00" fill="#000000">Urls</text>
</g>
<!-- \\ArangoDBClient\\EdgeDefinition -->
<g id="node45" class="node">
<title>\\ArangoDBClient\\EdgeDefinition</title>
<polygon fill="none" stroke="#000000" points="648.3875,-528 537.3875,-528 537.3875,-492 648.3875,-492 648.3875,-528"/>
<text text-anchor="middle" x="592.8875" y="-507.2" font-family="Courier,monospace" font-size="11.00" fill="#000000">EdgeDefinition</text>
</g>
<!-- \\ArangoDBClient\\ClientException -->
<g id="node46" class="node">
<title>\\ArangoDBClient\\ClientException</title>
<polygon fill="none" stroke="#000000" points="651.8875,-960 533.8875,-960 533.8875,-924 651.8875,-924 651.8875,-960"/>
<text text-anchor="middle" x="592.8875" y="-939.2" font-family="Courier,monospace" font-size="11.00" fill="#000000">ClientException</text>
</g>
<!-- \\ArangoDBClient\\ClientException&#45;&gt;\\ArangoDBClient\\Exception -->
<g id="edge22" class="edge">
<title>\\ArangoDBClient\\ClientException&#45;&gt;\\ArangoDBClient\\Exception</title>
<path fill="none" stroke="#000000" d="M533.8798,-932.284C517.0515,-928.2407 499.0459,-922.6473 483.3875,-915 425.3187,-886.6401 368.5054,-836.1511 337.0469,-805.6044"/>
<polygon fill="none" stroke="#000000" points="339.1948,-802.808 329.6099,-798.2936 334.2876,-807.7999 339.1948,-802.808"/>
</g>
<!-- \\ArangoDBClient\\Export -->
<g id="node47" class="node">
<title>\\ArangoDBClient\\Export</title>
<polygon fill="none" stroke="#000000" points="621.3875,-420 564.3875,-420 564.3875,-384 621.3875,-384 621.3875,-420"/>
<text text-anchor="middle" x="592.8875" y="-399.2" font-family="Courier,monospace" font-size="11.00" fill="#000000">Export</text>
</g>
<!-- \\ArangoDBClient\\ValueValidator -->
<g id="node48" class="node">
<title>\\ArangoDBClient\\ValueValidator</title>
<polygon fill="none" stroke="#000000" points="648.3875,-366 537.3875,-366 537.3875,-330 648.3875,-330 648.3875,-366"/>
<text text-anchor="middle" x="592.8875" y="-345.2" font-family="Courier,monospace" font-size="11.00" fill="#000000">ValueValidator</text>
</g>
<!-- \\ArangoDBClient\\GraphHandler -->
<g id="node49" class="node">
<title>\\ArangoDBClient\\GraphHandler</title>
<polygon fill="none" stroke="#000000" points="360.8875,-1972 262.8875,-1972 262.8875,-1936 360.8875,-1936 360.8875,-1972"/>
<text text-anchor="middle" x="311.8875" y="-1951.2" font-family="Courier,monospace" font-size="11.00" fill="#000000">GraphHandler</text>
</g>
<!-- \\ArangoDBClient\\GraphHandler&#45;&gt;\\ArangoDBClient\\Handler -->
<g id="edge23" class="edge">
<title>\\ArangoDBClient\\GraphHandler&#45;&gt;\\ArangoDBClient\\Handler</title>
<path fill="none" stroke="#000000" d="M262.7383,-1946.6331C245.8941,-1942.6028 227.4985,-1936.4254 212.3875,-1927 156.1865,-1891.9449 109.7263,-1827.9215 86.4036,-1791.7454"/>
<polygon fill="none" stroke="#000000" points="89.2881,-1789.7583 80.9808,-1783.1826 83.3743,-1793.5036 89.2881,-1789.7583"/>
</g>
<!-- \\ArangoDBClient\\StreamingTransactionCollection -->
<g id="node50" class="node">
<title>\\ArangoDBClient\\StreamingTransactionCollection</title>
<polygon fill="none" stroke="#000000" points="702.3875,-312 483.3875,-312 483.3875,-276 702.3875,-276 702.3875,-312"/>
<text text-anchor="middle" x="592.8875" y="-291.2" font-family="Courier,monospace" font-size="11.00" fill="#000000">StreamingTransactionCollection</text>
</g>
<!-- \\ArangoDBClient\\StreamingTransactionCollection&#45;&gt;\\ArangoDBClient\\Collection -->
<g id="edge24" class="edge">
<title>\\ArangoDBClient\\StreamingTransactionCollection&#45;&gt;\\ArangoDBClient\\Collection</title>
<path fill="none" stroke="#000000" d="M483.0383,-294C442.2023,-294 397.7349,-294 364.3626,-294"/>
<polygon fill="none" stroke="#000000" points="363.9359,-290.5001 353.9359,-294 363.9359,-297.5001 363.9359,-290.5001"/>
</g>
<!-- \\ArangoDBClient\\AdminHandler -->
<g id="node51" class="node">
<title>\\ArangoDBClient\\AdminHandler</title>
<polygon fill="none" stroke="#000000" points="360.8875,-1864 262.8875,-1864 262.8875,-1828 360.8875,-1828 360.8875,-1864"/>
<text text-anchor="middle" x="311.8875" y="-1843.2" font-family="Courier,monospace" font-size="11.00" fill="#000000">AdminHandler</text>
</g>
<!-- \\ArangoDBClient\\AdminHandler&#45;&gt;\\ArangoDBClient\\Handler -->
<g id="edge25" class="edge">
<title>\\ArangoDBClient\\AdminHandler&#45;&gt;\\ArangoDBClient\\Handler</title>
<path fill="none" stroke="#000000" d="M262.7686,-1833.6939C246.6204,-1829.3767 228.6455,-1824.2789 212.3875,-1819 182.0778,-1809.1585 148.7457,-1796.5957 121.9763,-1786.0642"/>
<polygon fill="none" stroke="#000000" points="123.0148,-1782.7111 112.4286,-1782.2849 120.4384,-1789.2197 123.0148,-1782.7111"/>
</g>
<!-- \\ArangoDBClient\\EdgeHandler -->
<g id="node52" class="node">
<title>\\ArangoDBClient\\EdgeHandler</title>
<polygon fill="none" stroke="#000000" points="638.3875,-2094 547.3875,-2094 547.3875,-2058 638.3875,-2058 638.3875,-2094"/>
<text text-anchor="middle" x="592.8875" y="-2073.2" font-family="Courier,monospace" font-size="11.00" fill="#000000">EdgeHandler</text>
</g>
<!-- \\ArangoDBClient\\EdgeHandler&#45;&gt;\\ArangoDBClient\\DocumentHandler -->
<g id="edge26" class="edge">
<title>\\ArangoDBClient\\EdgeHandler&#45;&gt;\\ArangoDBClient\\DocumentHandler</title>
<path fill="none" stroke="#000000" d="M547.3524,-2072.859C526.2179,-2069.4901 501.7664,-2062.6752 483.3875,-2049 432.8756,-2011.4155 461.4596,-1965.1685 411.3875,-1927 402.3595,-1920.1182 391.6978,-1914.989 380.766,-1911.1665"/>
<polygon fill="none" stroke="#000000" points="381.7134,-1907.7955 371.124,-1908.1325 379.6123,-1914.4728 381.7134,-1907.7955"/>
</g>
<!-- \\ArangoDBClient\\ConnectionOptions -->
<g id="node53" class="node">
<title>\\ArangoDBClient\\ConnectionOptions</title>
<polygon fill="none" stroke="#000000" points="658.3875,-204 527.3875,-204 527.3875,-168 658.3875,-168 658.3875,-204"/>
<text text-anchor="middle" x="592.8875" y="-183.2" font-family="Courier,monospace" font-size="11.00" fill="#000000">ConnectionOptions</text>
</g>
<!-- \\ArrayAccess -->
<g id="node58" class="node">
<title>\\ArrayAccess</title>
<ellipse fill="none" stroke="#000000" cx="311.8875" cy="-18" rx="58.4896" ry="18"/>
<text text-anchor="middle" x="311.8875" y="-14.3" font-family="Times,serif" font-size="14.00" fill="#c0c0c0">\ArrayAccess</text>
</g>
<!-- \\ArangoDBClient\\ConnectionOptions&#45;&gt;\\ArrayAccess -->
<g id="edge27" class="edge">
<title>\\ArangoDBClient\\ConnectionOptions&#45;&gt;\\ArrayAccess</title>
<path fill="none" stroke="#000000" stroke-dasharray="1,5" d="M527.3732,-178.4006C511.939,-174.383 496.2527,-168.2745 483.3875,-159 434.7764,-123.9562 459.5885,-80.6059 411.3875,-45 400.8902,-37.2456 388.3008,-31.7181 375.6627,-27.7781"/>
<polygon fill="none" stroke="#000000" points="376.597,-24.4051 366.0227,-25.0639 374.6998,-31.1431 376.597,-24.4051"/>
</g>
<!-- \\ArangoDBClient\\DocumentClassable -->
<g id="node54" class="node">
<title>\\ArangoDBClient\\DocumentClassable</title>
<polygon fill="none" stroke="#000000" points="658.3875,-150 527.3875,-150 527.3875,-114 658.3875,-114 658.3875,-150"/>
<text text-anchor="middle" x="592.8875" y="-129.2" font-family="Courier,monospace" font-size="11.00" fill="#000000">DocumentClassable</text>
</g>
</g>
</svg>
