<?xml version="1.0" encoding="UTF-8" standalone="no"?>
<!DOCTYPE svg PUBLIC "-//W3C//DTD SVG 1.1//EN"
 "http://www.w3.org/Graphics/SVG/1.1/DTD/svg11.dtd">
<!-- Generated by graphviz version 2.26.3 (20100126.1600)
 -->
<!-- Title: G Pages: 1 -->
<svg width="580pt" height="909pt"
 viewBox="0.00 0.00 580.00 909.00" xmlns="http://www.w3.org/2000/svg" xmlns:xlink="http://www.w3.org/1999/xlink">
<g id="graph1" class="graph" transform="scale(1 1) rotate(0) translate(4 905)">
<title>G</title>
<polygon fill="white" stroke="white" points="-4,5 -4,-905 577,-905 577,5 -4,5"/>
<g id="graph2" class="cluster"><title>cluster_triagens</title>
<polyline fill="none" stroke="gray" points="182,-8 552,-8 "/>
<path fill="none" stroke="gray" d="M552,-8C558,-8 564,-14 564,-20"/>
<polyline fill="none" stroke="gray" points="564,-20 564,-881 "/>
<path fill="none" stroke="gray" d="M564,-881C564,-887 558,-893 552,-893"/>
<polyline fill="none" stroke="gray" points="552,-893 182,-893 "/>
<path fill="none" stroke="gray" d="M182,-893C176,-893 170,-887 170,-881"/>
<polyline fill="none" stroke="gray" points="170,-881 170,-20 "/>
<path fill="none" stroke="gray" d="M170,-20C170,-14 176,-8 182,-8"/>
<text text-anchor="middle" x="367" y="-879.1" font-family="Times Roman,serif" font-size="11.00" fill="gray">triagens</text>
</g>
<!-- \\triagens\\AvocadoBindVars -->
<g id="node2" class="node"><title>\\triagens\\AvocadoBindVars</title>
<a xlink:href="db_AvocadoBindVars.html" xlink:title="AvocadoBindVars" target="_parent">
<polygon fill="none" stroke="black" points="525,-862 407,-862 407,-826 525,-826 525,-862"/>
<text text-anchor="middle" x="466" y="-841.1" font-family="Courier,monospace" font-size="11.00">AvocadoBindVars</text>
</a>
</g>
<!-- \\triagens\\AvocadoScope -->
<g id="node3" class="node"><title>\\triagens\\AvocadoScope</title>
<a xlink:href="db_AvocadoScope.html" xlink:title="AvocadoScope" target="_parent">
<polygon fill="none" stroke="black" points="515,-808 417,-808 417,-772 515,-772 515,-808"/>
<text text-anchor="middle" x="466" y="-787.1" font-family="Courier,monospace" font-size="11.00">AvocadoScope</text>
</a>
</g>
<!-- \\triagens\\AvocadoAutoloader -->
<g id="node4" class="node"><title>\\triagens\\AvocadoAutoloader</title>
<a xlink:href="db_AvocadoAutoloader.html" xlink:title="AvocadoAutoloader" target="_parent">
<polygon fill="none" stroke="black" points="531,-754 401,-754 401,-718 531,-718 531,-754"/>
<text text-anchor="middle" x="466" y="-733.1" font-family="Courier,monospace" font-size="11.00">AvocadoAutoloader</text>
</a>
</g>
<!-- \\triagens\\AvocadoStatement -->
<g id="node5" class="node"><title>\\triagens\\AvocadoStatement</title>
<a xlink:href="db_AvocadoStatement.html" xlink:title="AvocadoStatement" target="_parent">
<polygon fill="none" stroke="black" points="528,-700 404,-700 404,-664 528,-664 528,-700"/>
<text text-anchor="middle" x="466" y="-679.1" font-family="Courier,monospace" font-size="11.00">AvocadoStatement</text>
</a>
</g>
<!-- \\triagens\\AvocadoException -->
<g id="node6" class="node"><title>\\triagens\\AvocadoException</title>
<a xlink:href="db_AvocadoException.html" xlink:title="AvocadoException" target="_parent">
<polygon fill="none" stroke="black" points="303,-214 179,-214 179,-178 303,-178 303,-214"/>
<text text-anchor="middle" x="241" y="-193.1" font-family="Courier,monospace" font-size="11.00">AvocadoException</text>
</a>
</g>
<!-- \\Exception -->
<g id="node20" class="node"><title>\\Exception</title>
<ellipse fill="none" stroke="black" cx="53" cy="-196" rx="53.033" ry="19.0919"/>
<text text-anchor="middle" x="53" y="-192.9" font-family="Times Roman,serif" font-size="14.00" fill="gray">\Exception</text>
</g>
<!-- \\triagens\\AvocadoException&#45;&gt;\\Exception -->
<g id="edge3" class="edge"><title>\\triagens\\AvocadoException&#45;&gt;\\Exception</title>
<path fill="none" stroke="black" d="M178.399,-196C158.479,-196 136.433,-196 116.453,-196"/>
<polygon fill="none" stroke="black" points="116.215,-192.5 106.215,-196 116.215,-199.5 116.215,-192.5"/>
</g>
<!-- \\triagens\\AvocadoValueValidator -->
<g id="node7" class="node"><title>\\triagens\\AvocadoValueValidator</title>
<a xlink:href="db_AvocadoValueValidator.html" xlink:title="AvocadoValueValidator" target="_parent">
<polygon fill="none" stroke="black" points="545,-646 387,-646 387,-610 545,-610 545,-646"/>
<text text-anchor="middle" x="466" y="-625.1" font-family="Courier,monospace" font-size="11.00">AvocadoValueValidator</text>
</a>
</g>
<!-- \\triagens\\AvocadoDocument -->
<g id="node8" class="node"><title>\\triagens\\AvocadoDocument</title>
<a xlink:href="db_AvocadoDocument.html" xlink:title="AvocadoDocument" target="_parent">
<polygon fill="none" stroke="black" points="525,-592 407,-592 407,-556 525,-556 525,-592"/>
<text text-anchor="middle" x="466" y="-571.1" font-family="Courier,monospace" font-size="11.00">AvocadoDocument</text>
</a>
</g>
<!-- \\triagens\\AvocadoHttpHelper -->
<g id="node9" class="node"><title>\\triagens\\AvocadoHttpHelper</title>
<a xlink:href="db_AvocadoHttpHelper.html" xlink:title="AvocadoHttpHelper" target="_parent">
<polygon fill="none" stroke="black" points="531,-538 401,-538 401,-502 531,-502 531,-538"/>
<text text-anchor="middle" x="466" y="-517.1" font-family="Courier,monospace" font-size="11.00">AvocadoHttpHelper</text>
</a>
</g>
<!-- \\triagens\\AvocadoConnectException -->
<g id="node10" class="node"><title>\\triagens\\AvocadoConnectException</title>
<a xlink:href="db_AvocadoConnectException.html" xlink:title="AvocadoConnectException" target="_parent">
<polygon fill="none" stroke="black" points="552,-484 380,-484 380,-448 552,-448 552,-484"/>
<text text-anchor="middle" x="466" y="-463.1" font-family="Courier,monospace" font-size="11.00">AvocadoConnectException</text>
</a>
</g>
<!-- \\triagens\\AvocadoConnectException&#45;&gt;\\triagens\\AvocadoException -->
<g id="edge5" class="edge"><title>\\triagens\\AvocadoConnectException&#45;&gt;\\triagens\\AvocadoException</title>
<path fill="none" stroke="black" d="M389.648,-447.913C384.802,-445.328 380.194,-442.375 376,-439 304.215,-381.237 264.416,-274.477 248.82,-223.929"/>
<polygon fill="none" stroke="black" points="252.079,-222.61 245.857,-214.034 245.373,-224.618 252.079,-222.61"/>
</g>
<!-- \\triagens\\AvocadoConnection -->
<g id="node11" class="node"><title>\\triagens\\AvocadoConnection</title>
<a xlink:href="db_AvocadoConnection.html" xlink:title="AvocadoConnection" target="_parent">
<polygon fill="none" stroke="black" points="531,-430 401,-430 401,-394 531,-394 531,-430"/>
<text text-anchor="middle" x="466" y="-409.1" font-family="Courier,monospace" font-size="11.00">AvocadoConnection</text>
</a>
</g>
<!-- \\triagens\\AvocadoHttpResponse -->
<g id="node12" class="node"><title>\\triagens\\AvocadoHttpResponse</title>
<a xlink:href="db_AvocadoHttpResponse.html" xlink:title="AvocadoHttpResponse" target="_parent">
<polygon fill="none" stroke="black" points="538,-376 394,-376 394,-340 538,-340 538,-376"/>
<text text-anchor="middle" x="466" y="-355.1" font-family="Courier,monospace" font-size="11.00">AvocadoHttpResponse</text>
</a>
</g>
<!-- \\triagens\\AvocadoDocumentHandler -->
<g id="node13" class="node"><title>\\triagens\\AvocadoDocumentHandler</title>
<a xlink:href="db_AvocadoDocumentHandler.html" xlink:title="AvocadoDocumentHandler" target="_parent">
<polygon fill="none" stroke="black" points="548,-322 384,-322 384,-286 548,-286 548,-322"/>
<text text-anchor="middle" x="466" y="-301.1" font-family="Courier,monospace" font-size="11.00">AvocadoDocumentHandler</text>
</a>
</g>
<!-- \\triagens\\AvocadoConnectionOptions -->
<g id="node14" class="node"><title>\\triagens\\AvocadoConnectionOptions</title>
<a xlink:href="db_AvocadoConnectionOptions.html" xlink:title="AvocadoConnectionOptions" target="_parent">
<polygon fill="none" stroke="black" points="555,-268 377,-268 377,-232 555,-232 555,-268"/>
<text text-anchor="middle" x="466" y="-247.1" font-family="Courier,monospace" font-size="11.00">AvocadoConnectionOptions</text>
</a>
</g>
<!-- \\triagens\\AvocadoClientException -->
<g id="node15" class="node"><title>\\triagens\\AvocadoClientException</title>
<a xlink:href="db_AvocadoClientException.html" xlink:title="AvocadoClientException" target="_parent">
<polygon fill="none" stroke="black" points="548,-214 384,-214 384,-178 548,-178 548,-214"/>
<text text-anchor="middle" x="466" y="-193.1" font-family="Courier,monospace" font-size="11.00">AvocadoClientException</text>
</a>
</g>
<!-- \\triagens\\AvocadoClientException&#45;&gt;\\triagens\\AvocadoException -->
<g id="edge7" class="edge"><title>\\triagens\\AvocadoClientException&#45;&gt;\\triagens\\AvocadoException</title>
<path fill="none" stroke="black" d="M383.496,-196C360.656,-196 336.036,-196 313.792,-196"/>
<polygon fill="none" stroke="black" points="313.755,-192.5 303.754,-196 313.754,-199.5 313.755,-192.5"/>
</g>
<!-- \\triagens\\AvocadoServerException -->
<g id="node16" class="node"><title>\\triagens\\AvocadoServerException</title>
<a xlink:href="db_AvocadoServerException.html" xlink:title="AvocadoServerException" target="_parent">
<polygon fill="none" stroke="black" points="548,-160 384,-160 384,-124 548,-124 548,-160"/>
<text text-anchor="middle" x="466" y="-139.1" font-family="Courier,monospace" font-size="11.00">AvocadoServerException</text>
</a>
</g>
<!-- \\triagens\\AvocadoServerException&#45;&gt;\\triagens\\AvocadoException -->
<g id="edge9" class="edge"><title>\\triagens\\AvocadoServerException&#45;&gt;\\triagens\\AvocadoException</title>
<path fill="none" stroke="black" d="M390.765,-160.056C365.951,-166.012 338.41,-172.622 313.782,-178.532"/>
<polygon fill="none" stroke="black" points="312.69,-175.195 303.783,-180.932 314.324,-182.002 312.69,-175.195"/>
</g>
<!-- \\triagens\\AvocadoCursor -->
<g id="node17" class="node"><title>\\triagens\\AvocadoCursor</title>
<a xlink:href="db_AvocadoCursor.html" xlink:title="AvocadoCursor" target="_parent">
<polygon fill="none" stroke="black" points="518,-106 414,-106 414,-70 518,-70 518,-106"/>
<text text-anchor="middle" x="466" y="-85.1" font-family="Courier,monospace" font-size="11.00">AvocadoCursor</text>
</a>
</g>
<!-- \\triagens\\AvocadoURLHelper -->
<g id="node18" class="node"><title>\\triagens\\AvocadoURLHelper</title>
<a xlink:href="db_AvocadoUrlHelper.html" xlink:title="«abstract»&lt;br/&gt;AvocadoURLHelper" target="_parent">
<polygon fill="none" stroke="black" points="529,-52 403,-52 403,-16 529,-16 529,-52"/>
<text text-anchor="start" x="432" y="-39.4333" font-family="Courier,monospace" font-size="11.00">«abstract»</text>
<text text-anchor="start" x="411.5" y="-26.2333" font-family="Courier,monospace" font-size="11.00">AvocadoURLHelper</text>
</a>
</g>
</g>
</svg>
