<?xml version="1.0" encoding="UTF-8" standalone="no"?>
<!DOCTYPE svg PUBLIC "-//W3C//DTD SVG 1.1//EN"
 "http://www.w3.org/Graphics/SVG/1.1/DTD/svg11.dtd">
<!-- Generated by graphviz version 2.28.0 (20130927.1109)
 -->
<!-- Title: G Pages: 1 -->
<svg width="558pt" height="1896pt"
 viewBox="0.00 0.00 558.00 1896.00" xmlns="http://www.w3.org/2000/svg" xmlns:xlink="http://www.w3.org/1999/xlink">
<g id="graph1" class="graph" transform="scale(1 1) rotate(0) translate(4 1892)">
<title>G</title>
<polygon fill="white" stroke="white" points="-4,5 -4,-1892 555,-1892 555,5 -4,5"/>
<g id="graph2" class="cluster"><title>cluster_triagens</title>
<polyline fill="none" stroke="gray" points="20,-98 530,-98 "/>
<path fill="none" stroke="gray" d="M530,-98C536,-98 542,-104 542,-110"/>
<polyline fill="none" stroke="gray" points="542,-110 542,-1868 "/>
<path fill="none" stroke="gray" d="M542,-1868C542,-1874 536,-1880 530,-1880"/>
<polyline fill="none" stroke="gray" points="530,-1880 20,-1880 "/>
<path fill="none" stroke="gray" d="M20,-1880C14,-1880 8,-1874 8,-1868"/>
<polyline fill="none" stroke="gray" points="8,-1868 8,-110 "/>
<path fill="none" stroke="gray" d="M8,-110C8,-104 14,-98 20,-98"/>
<text text-anchor="middle" x="275" y="-1867.2" font-family="Times,serif" font-size="11.00" fill="gray">triagens</text>
</g>
<g id="graph3" class="cluster"><title>cluster_triagens\ArangoDb</title>
<polyline fill="none" stroke="gray" points="28,-106 522,-106 "/>
<path fill="none" stroke="gray" d="M522,-106C528,-106 534,-112 534,-118"/>
<polyline fill="none" stroke="gray" points="534,-118 534,-1840 "/>
<path fill="none" stroke="gray" d="M534,-1840C534,-1846 528,-1852 522,-1852"/>
<polyline fill="none" stroke="gray" points="522,-1852 28,-1852 "/>
<path fill="none" stroke="gray" d="M28,-1852C22,-1852 16,-1846 16,-1840"/>
<polyline fill="none" stroke="gray" points="16,-1840 16,-118 "/>
<path fill="none" stroke="gray" d="M16,-118C16,-112 22,-106 28,-106"/>
<text text-anchor="middle" x="275" y="-1839.2" font-family="Times,serif" font-size="11.00" fill="gray">ArangoDb</text>
</g>
<!-- \\triagens\\ArangoDb\\HttpHelper -->
<g id="node3" class="node"><title>\\triagens\\ArangoDb\\HttpHelper</title>
<a xlink:href="HttpHelper.html" xlink:title="HttpHelper" target="_parent">
<polygon fill="none" stroke="black" points="502,-1824 418,-1824 418,-1788 502,-1788 502,-1824"/>
<text text-anchor="middle" x="460" y="-1803.2" font-family="Courier,monospace" font-size="11.00">HttpHelper</text>
</a>
</g>
<!-- \\triagens\\ArangoDb\\Exception -->
<g id="node4" class="node"><title>\\triagens\\ArangoDb\\Exception</title>
<a xlink:href="Exception.html" xlink:title="Exception" target="_parent">
<polygon fill="none" stroke="black" points="294.5,-393 217.5,-393 217.5,-357 294.5,-357 294.5,-393"/>
<text text-anchor="middle" x="256" y="-372.2" font-family="Courier,monospace" font-size="11.00">Exception</text>
</a>
</g>
<!-- \\Exception -->
<g id="node44" class="node"><title>\\Exception</title>
<ellipse fill="none" stroke="black" cx="67" cy="-72" rx="50.8918" ry="18"/>
<text text-anchor="middle" x="67" y="-68.3" font-family="Times,serif" font-size="14.00" fill="gray">\Exception</text>
</g>
<!-- \\triagens\\ArangoDb\\Exception&#45;&gt;\\Exception -->
<g id="edge4" class="edge"><title>\\triagens\\ArangoDb\\Exception&#45;&gt;\\Exception</title>
<path fill="none" stroke="black" d="M217.45,-368.922C207.406,-365.668 197.319,-360.672 190,-353 109.888,-269.031 188.683,-194.046 118,-102 115.071,-98.1862 111.508,-94.7549 107.647,-91.6954"/>
<polygon fill="none" stroke="black" points="109.61,-88.7974 99.4093,-85.9341 105.598,-94.5336 109.61,-88.7974"/>
</g>
<!-- \\triagens\\ArangoDb\\Autoloader -->
<g id="node5" class="node"><title>\\triagens\\ArangoDb\\Autoloader</title>
<a xlink:href="Autoloader.html" xlink:title="Autoloader" target="_parent">
<polygon fill="none" stroke="black" points="502,-1770 418,-1770 418,-1734 502,-1734 502,-1770"/>
<text text-anchor="middle" x="460" y="-1749.2" font-family="Courier,monospace" font-size="11.00">Autoloader</text>
</a>
</g>
<!-- \\triagens\\ArangoDb\\UserHandler -->
<g id="node6" class="node"><title>\\triagens\\ArangoDb\\UserHandler</title>
<a xlink:href="UserHandler.html" xlink:title="UserHandler" target="_parent">
<polygon fill="none" stroke="black" points="301.5,-1284 210.5,-1284 210.5,-1248 301.5,-1248 301.5,-1284"/>
<text text-anchor="middle" x="256" y="-1263.2" font-family="Courier,monospace" font-size="11.00">UserHandler</text>
</a>
</g>
<!-- \\triagens\\ArangoDb\\Handler -->
<g id="node30" class="node"><title>\\triagens\\ArangoDb\\Handler</title>
<a xlink:href="Handler.html" xlink:title="«abstract»&lt;br/&gt;Handler" target="_parent">
<polygon fill="none" stroke="black" points="109.5,-1284 24.5,-1284 24.5,-1248 109.5,-1248 109.5,-1284"/>
<text text-anchor="start" x="33" y="-1269.7" font-family="Courier,monospace" font-size="11.00">«abstract»</text>
<text text-anchor="start" x="43" y="-1258.7" font-family="Courier,monospace" font-size="11.00">Handler</text>
</a>
</g>
<!-- \\triagens\\ArangoDb\\UserHandler&#45;&gt;\\triagens\\ArangoDb\\Handler -->
<g id="edge6" class="edge"><title>\\triagens\\ArangoDb\\UserHandler&#45;&gt;\\triagens\\ArangoDb\\Handler</title>
<path fill="none" stroke="black" d="M210.209,-1266C182.975,-1266 148.092,-1266 119.69,-1266"/>
<polygon fill="none" stroke="black" points="119.546,-1262.5 109.546,-1266 119.546,-1269.5 119.546,-1262.5"/>
</g>
<!-- \\triagens\\ArangoDb\\Collection -->
<g id="node7" class="node"><title>\\triagens\\ArangoDb\\Collection</title>
<a xlink:href="Collection.html" xlink:title="Collection" target="_parent">
<polygon fill="none" stroke="black" points="502,-1716 418,-1716 418,-1680 502,-1680 502,-1716"/>
<text text-anchor="middle" x="460" y="-1695.2" font-family="Courier,monospace" font-size="11.00">Collection</text>
</a>
</g>
<!-- \\triagens\\ArangoDb\\AqlUserFunction -->
<g id="node8" class="node"><title>\\triagens\\ArangoDb\\AqlUserFunction</title>
<a xlink:href="AqlUserFunction.html" xlink:title="AqlUserFunction" target="_parent">
<polygon fill="none" stroke="black" points="519,-1662 401,-1662 401,-1626 519,-1626 519,-1662"/>
<text text-anchor="middle" x="460" y="-1641.2" font-family="Courier,monospace" font-size="11.00">AqlUserFunction</text>
</a>
</g>
<!-- \\triagens\\ArangoDb\\AdminHandler -->
<g id="node9" class="node"><title>\\triagens\\ArangoDb\\AdminHandler</title>
<a xlink:href="AdminHandler.html" xlink:title="AdminHandler" target="_parent">
<polygon fill="none" stroke="black" points="305,-1230 207,-1230 207,-1194 305,-1194 305,-1230"/>
<text text-anchor="middle" x="256" y="-1209.2" font-family="Courier,monospace" font-size="11.00">AdminHandler</text>
</a>
</g>
<!-- \\triagens\\ArangoDb\\AdminHandler&#45;&gt;\\triagens\\ArangoDb\\Handler -->
<g id="edge8" class="edge"><title>\\triagens\\ArangoDb\\AdminHandler&#45;&gt;\\triagens\\ArangoDb\\Handler</title>
<path fill="none" stroke="black" d="M206.843,-1225.91C180.049,-1233.64 146.701,-1243.27 119.403,-1251.16"/>
<polygon fill="none" stroke="black" points="118.279,-1247.84 109.643,-1253.97 120.221,-1254.56 118.279,-1247.84"/>
</g>
<!-- \\triagens\\ArangoDb\\VertexHandler -->
<g id="node10" class="node"><title>\\triagens\\ArangoDb\\VertexHandler</title>
<a xlink:href="VertexHandler.html" xlink:title="VertexHandler" target="_parent">
<polygon fill="none" stroke="black" points="512,-1608 408,-1608 408,-1572 512,-1572 512,-1608"/>
<text text-anchor="middle" x="460" y="-1587.2" font-family="Courier,monospace" font-size="11.00">VertexHandler</text>
</a>
</g>
<!-- \\triagens\\ArangoDb\\DocumentHandler -->
<g id="node34" class="node"><title>\\triagens\\ArangoDb\\DocumentHandler</title>
<a xlink:href="DocumentHandler.html" xlink:title="DocumentHandler" target="_parent">
<polygon fill="none" stroke="black" points="315,-1500 197,-1500 197,-1464 315,-1464 315,-1500"/>
<text text-anchor="middle" x="256" y="-1479.2" font-family="Courier,monospace" font-size="11.00">DocumentHandler</text>
</a>
</g>
<!-- \\triagens\\ArangoDb\\VertexHandler&#45;&gt;\\triagens\\ArangoDb\\DocumentHandler -->
<g id="edge10" class="edge"><title>\\triagens\\ArangoDb\\VertexHandler&#45;&gt;\\triagens\\ArangoDb\\DocumentHandler</title>
<path fill="none" stroke="black" d="M413.176,-1571.92C406.673,-1569.08 400.12,-1566.06 394,-1563 359.032,-1545.51 320.863,-1522.61 293.716,-1505.62"/>
<polygon fill="none" stroke="black" points="295.28,-1502.47 284.953,-1500.1 291.55,-1508.39 295.28,-1502.47"/>
</g>
<!-- \\triagens\\ArangoDb\\DefaultValues -->
<g id="node11" class="node"><title>\\triagens\\ArangoDb\\DefaultValues</title>
<a xlink:href="DefaultValues.html" xlink:title="«abstract»&lt;br/&gt;DefaultValues" target="_parent">
<polygon fill="none" stroke="black" points="512.5,-1554 407.5,-1554 407.5,-1518 512.5,-1518 512.5,-1554"/>
<text text-anchor="start" x="426" y="-1539.7" font-family="Courier,monospace" font-size="11.00">«abstract»</text>
<text text-anchor="start" x="416" y="-1528.7" font-family="Courier,monospace" font-size="11.00">DefaultValues</text>
</a>
</g>
<!-- \\triagens\\ArangoDb\\ServerException -->
<g id="node12" class="node"><title>\\triagens\\ArangoDb\\ServerException</title>
<a xlink:href="ServerException.html" xlink:title="ServerException" target="_parent">
<polygon fill="none" stroke="black" points="519,-798 401,-798 401,-762 519,-762 519,-798"/>
<text text-anchor="middle" x="460" y="-777.2" font-family="Courier,monospace" font-size="11.00">ServerException</text>
</a>
</g>
<!-- \\triagens\\ArangoDb\\ServerException&#45;&gt;\\triagens\\ArangoDb\\Exception -->
<g id="edge12" class="edge"><title>\\triagens\\ArangoDb\\ServerException&#45;&gt;\\triagens\\ArangoDb\\Exception</title>
<path fill="none" stroke="black" d="M404.848,-761.913C400.894,-759.314 397.207,-756.358 394,-753 295.841,-650.22 267.16,-471.82 259.532,-403.102"/>
<polygon fill="none" stroke="black" points="263.001,-402.626 258.481,-393.044 256.039,-403.353 263.001,-402.626"/>
</g>
<!-- \\triagens\\ArangoDb\\Transaction -->
<g id="node13" class="node"><title>\\triagens\\ArangoDb\\Transaction</title>
<a xlink:href="Transaction.html" xlink:title="Transaction" target="_parent">
<polygon fill="none" stroke="black" points="505.5,-1446 414.5,-1446 414.5,-1410 505.5,-1410 505.5,-1446"/>
<text text-anchor="middle" x="460" y="-1425.2" font-family="Courier,monospace" font-size="11.00">Transaction</text>
</a>
</g>
<!-- \\triagens\\ArangoDb\\Traversal -->
<g id="node14" class="node"><title>\\triagens\\ArangoDb\\Traversal</title>
<a xlink:href="Traversal.html" xlink:title="Traversal" target="_parent">
<polygon fill="none" stroke="black" points="498.5,-1392 421.5,-1392 421.5,-1356 498.5,-1356 498.5,-1392"/>
<text text-anchor="middle" x="460" y="-1371.2" font-family="Courier,monospace" font-size="11.00">Traversal</text>
</a>
</g>
<!-- \\triagens\\ArangoDb\\Connection -->
<g id="node15" class="node"><title>\\triagens\\ArangoDb\\Connection</title>
<a xlink:href="Connection.html" xlink:title="Connection" target="_parent">
<polygon fill="none" stroke="black" points="502,-1338 418,-1338 418,-1302 502,-1302 502,-1338"/>
<text text-anchor="middle" x="460" y="-1317.2" font-family="Courier,monospace" font-size="11.00">Connection</text>
</a>
</g>
<!-- \\triagens\\ArangoDb\\User -->
<g id="node16" class="node"><title>\\triagens\\ArangoDb\\User</title>
<a xlink:href="User.html" xlink:title="User" target="_parent">
<polygon fill="none" stroke="black" points="487,-852 433,-852 433,-816 487,-816 487,-852"/>
<text text-anchor="middle" x="460" y="-831.2" font-family="Courier,monospace" font-size="11.00">User</text>
</a>
</g>
<!-- \\triagens\\ArangoDb\\Document -->
<g id="node39" class="node"><title>\\triagens\\ArangoDb\\Document</title>
<a xlink:href="Document.html" xlink:title="Document" target="_parent">
<polygon fill="none" stroke="black" points="291.5,-1068 220.5,-1068 220.5,-1032 291.5,-1032 291.5,-1068"/>
<text text-anchor="middle" x="256" y="-1047.2" font-family="Courier,monospace" font-size="11.00">Document</text>
</a>
</g>
<!-- \\triagens\\ArangoDb\\User&#45;&gt;\\triagens\\ArangoDb\\Document -->
<g id="edge14" class="edge"><title>\\triagens\\ArangoDb\\User&#45;&gt;\\triagens\\ArangoDb\\Document</title>
<path fill="none" stroke="black" d="M432.987,-839.891C419.932,-843.969 404.67,-850.589 394,-861 337.607,-916.026 378.393,-967.974 322,-1023 316.031,-1028.82 308.625,-1033.46 300.972,-1037.13"/>
<polygon fill="none" stroke="black" points="299.412,-1033.99 291.595,-1041.14 302.165,-1040.43 299.412,-1033.99"/>
</g>
<!-- \\triagens\\ArangoDb\\TraceRequest -->
<g id="node17" class="node"><title>\\triagens\\ArangoDb\\TraceRequest</title>
<a xlink:href="TraceRequest.html" xlink:title="TraceRequest" target="_parent">
<polygon fill="none" stroke="black" points="509,-1230 411,-1230 411,-1194 509,-1194 509,-1230"/>
<text text-anchor="middle" x="460" y="-1209.2" font-family="Courier,monospace" font-size="11.00">TraceRequest</text>
</a>
</g>
<!-- \\triagens\\ArangoDb\\UpdatePolicy -->
<g id="node18" class="node"><title>\\triagens\\ArangoDb\\UpdatePolicy</title>
<a xlink:href="UpdatePolicy.html" xlink:title="UpdatePolicy" target="_parent">
<polygon fill="none" stroke="black" points="509,-1176 411,-1176 411,-1140 509,-1140 509,-1176"/>
<text text-anchor="middle" x="460" y="-1155.2" font-family="Courier,monospace" font-size="11.00">UpdatePolicy</text>
</a>
</g>
<!-- \\triagens\\ArangoDb\\ValueValidator -->
<g id="node19" class="node"><title>\\triagens\\ArangoDb\\ValueValidator</title>
<a xlink:href="ValueValidator.html" xlink:title="ValueValidator" target="_parent">
<polygon fill="none" stroke="black" points="515.5,-1122 404.5,-1122 404.5,-1086 515.5,-1086 515.5,-1122"/>
<text text-anchor="middle" x="460" y="-1101.2" font-family="Courier,monospace" font-size="11.00">ValueValidator</text>
</a>
</g>
<!-- \\triagens\\ArangoDb\\Graph -->
<g id="node20" class="node"><title>\\triagens\\ArangoDb\\Graph</title>
<a xlink:href="Graph.html" xlink:title="Graph" target="_parent">
<polygon fill="none" stroke="black" points="487,-1284 433,-1284 433,-1248 487,-1248 487,-1284"/>
<text text-anchor="middle" x="460" y="-1263.2" font-family="Courier,monospace" font-size="11.00">Graph</text>
</a>
</g>
<!-- \\triagens\\ArangoDb\\Graph&#45;&gt;\\triagens\\ArangoDb\\Document -->
<g id="edge16" class="edge"><title>\\triagens\\ArangoDb\\Graph&#45;&gt;\\triagens\\ArangoDb\\Document</title>
<path fill="none" stroke="black" d="M432.881,-1258.82C420.258,-1254.48 405.41,-1248.01 394,-1239 336.299,-1193.41 291.566,-1117.5 270.407,-1077.15"/>
<polygon fill="none" stroke="black" points="273.47,-1075.45 265.778,-1068.17 267.247,-1078.66 273.47,-1075.45"/>
</g>
<!-- \\triagens\\ArangoDb\\Batch -->
<g id="node21" class="node"><title>\\triagens\\ArangoDb\\Batch</title>
<a xlink:href="Batch.html" xlink:title="Batch" target="_parent">
<polygon fill="none" stroke="black" points="487,-1014 433,-1014 433,-978 487,-978 487,-1014"/>
<text text-anchor="middle" x="460" y="-993.2" font-family="Courier,monospace" font-size="11.00">Batch</text>
</a>
</g>
<!-- \\triagens\\ArangoDb\\CollectionHandler -->
<g id="node22" class="node"><title>\\triagens\\ArangoDb\\CollectionHandler</title>
<a xlink:href="CollectionHandler.html" xlink:title="CollectionHandler" target="_parent">
<polygon fill="none" stroke="black" points="321.5,-1014 190.5,-1014 190.5,-978 321.5,-978 321.5,-1014"/>
<text text-anchor="middle" x="256" y="-993.2" font-family="Courier,monospace" font-size="11.00">CollectionHandler</text>
</a>
</g>
<!-- \\triagens\\ArangoDb\\CollectionHandler&#45;&gt;\\triagens\\ArangoDb\\Handler -->
<g id="edge18" class="edge"><title>\\triagens\\ArangoDb\\CollectionHandler&#45;&gt;\\triagens\\ArangoDb\\Handler</title>
<path fill="none" stroke="black" d="M200.418,-1014.18C196.608,-1016.76 193.069,-1019.68 190,-1023 119.886,-1098.87 187.321,-1167.41 118,-1244 117.849,-1244.17 117.696,-1244.33 117.542,-1244.5"/>
<polygon fill="none" stroke="black" points="115.106,-1241.98 109.761,-1251.12 119.644,-1247.3 115.106,-1241.98"/>
</g>
<!-- \\triagens\\ArangoDb\\Edge -->
<g id="node23" class="node"><title>\\triagens\\ArangoDb\\Edge</title>
<a xlink:href="Edge.html" xlink:title="Edge" target="_parent">
<polygon fill="none" stroke="black" points="487,-1068 433,-1068 433,-1032 487,-1032 487,-1068"/>
<text text-anchor="middle" x="460" y="-1047.2" font-family="Courier,monospace" font-size="11.00">Edge</text>
</a>
</g>
<!-- \\triagens\\ArangoDb\\Edge&#45;&gt;\\triagens\\ArangoDb\\Document -->
<g id="edge20" class="edge"><title>\\triagens\\ArangoDb\\Edge&#45;&gt;\\triagens\\ArangoDb\\Document</title>
<path fill="none" stroke="black" d="M432.592,-1050C399.34,-1050 341.716,-1050 301.586,-1050"/>
<polygon fill="none" stroke="black" points="301.531,-1046.5 291.531,-1050 301.531,-1053.5 301.531,-1046.5"/>
</g>
<!-- \\triagens\\ArangoDb\\TraceResponse -->
<g id="node24" class="node"><title>\\triagens\\ArangoDb\\TraceResponse</title>
<a xlink:href="TraceResponse.html" xlink:title="TraceResponse" target="_parent">
<polygon fill="none" stroke="black" points="512,-906 408,-906 408,-870 512,-870 512,-906"/>
<text text-anchor="middle" x="460" y="-885.2" font-family="Courier,monospace" font-size="11.00">TraceResponse</text>
</a>
</g>
<!-- \\triagens\\ArangoDb\\Vertex -->
<g id="node25" class="node"><title>\\triagens\\ArangoDb\\Vertex</title>
<a xlink:href="Vertex.html" xlink:title="Vertex" target="_parent">
<polygon fill="none" stroke="black" points="488.5,-960 431.5,-960 431.5,-924 488.5,-924 488.5,-960"/>
<text text-anchor="middle" x="460" y="-939.2" font-family="Courier,monospace" font-size="11.00">Vertex</text>
</a>
</g>
<!-- \\triagens\\ArangoDb\\Vertex&#45;&gt;\\triagens\\ArangoDb\\Document -->
<g id="edge22" class="edge"><title>\\triagens\\ArangoDb\\Vertex&#45;&gt;\\triagens\\ArangoDb\\Document</title>
<path fill="none" stroke="black" d="M431.401,-951.703C419.565,-956.308 405.78,-962.277 394,-969 359.259,-988.827 356.741,-1003.17 322,-1023 315.506,-1026.71 308.403,-1030.18 301.354,-1033.33"/>
<polygon fill="none" stroke="black" points="299.651,-1030.25 291.835,-1037.4 302.406,-1036.69 299.651,-1030.25"/>
</g>
<!-- \\triagens\\ArangoDb\\EdgeHandler -->
<g id="node26" class="node"><title>\\triagens\\ArangoDb\\EdgeHandler</title>
<a xlink:href="EdgeHandler.html" xlink:title="EdgeHandler" target="_parent">
<polygon fill="none" stroke="black" points="505.5,-1500 414.5,-1500 414.5,-1464 505.5,-1464 505.5,-1500"/>
<text text-anchor="middle" x="460" y="-1479.2" font-family="Courier,monospace" font-size="11.00">EdgeHandler</text>
</a>
</g>
<!-- \\triagens\\ArangoDb\\EdgeHandler&#45;&gt;\\triagens\\ArangoDb\\DocumentHandler -->
<g id="edge24" class="edge"><title>\\triagens\\ArangoDb\\EdgeHandler&#45;&gt;\\triagens\\ArangoDb\\DocumentHandler</title>
<path fill="none" stroke="black" d="M414.17,-1482C388.072,-1482 354.639,-1482 325.322,-1482"/>
<polygon fill="none" stroke="black" points="325.143,-1478.5 315.143,-1482 325.143,-1485.5 325.143,-1478.5"/>
</g>
<!-- \\triagens\\ArangoDb\\UrlHelper -->
<g id="node27" class="node"><title>\\triagens\\ArangoDb\\UrlHelper</title>
<a xlink:href="UrlHelper.html" xlink:title="«abstract»&lt;br/&gt;UrlHelper" target="_parent">
<polygon fill="none" stroke="black" points="502.5,-744 417.5,-744 417.5,-708 502.5,-708 502.5,-744"/>
<text text-anchor="start" x="426" y="-729.7" font-family="Courier,monospace" font-size="11.00">«abstract»</text>
<text text-anchor="start" x="429.5" y="-718.7" font-family="Courier,monospace" font-size="11.00">UrlHelper</text>
</a>
</g>
<!-- \\triagens\\ArangoDb\\Database -->
<g id="node28" class="node"><title>\\triagens\\ArangoDb\\Database</title>
<a xlink:href="Database.html" xlink:title="Database" target="_parent">
<polygon fill="none" stroke="black" points="495.5,-690 424.5,-690 424.5,-654 495.5,-654 495.5,-690"/>
<text text-anchor="middle" x="460" y="-669.2" font-family="Courier,monospace" font-size="11.00">Database</text>
</a>
</g>
<!-- \\triagens\\ArangoDb\\BatchPart -->
<g id="node29" class="node"><title>\\triagens\\ArangoDb\\BatchPart</title>
<a xlink:href="BatchPart.html" xlink:title="BatchPart" target="_parent">
<polygon fill="none" stroke="black" points="498.5,-636 421.5,-636 421.5,-600 498.5,-600 498.5,-636"/>
<text text-anchor="middle" x="460" y="-615.2" font-family="Courier,monospace" font-size="11.00">BatchPart</text>
</a>
</g>
<!-- \\triagens\\ArangoDb\\Endpoint -->
<g id="node31" class="node"><title>\\triagens\\ArangoDb\\Endpoint</title>
<a xlink:href="Endpoint.html" xlink:title="Endpoint" target="_parent">
<polygon fill="none" stroke="black" points="495.5,-582 424.5,-582 424.5,-546 495.5,-546 495.5,-582"/>
<text text-anchor="middle" x="460" y="-561.2" font-family="Courier,monospace" font-size="11.00">Endpoint</text>
</a>
</g>
<!-- \\triagens\\ArangoDb\\Statement -->
<g id="node32" class="node"><title>\\triagens\\ArangoDb\\Statement</title>
<a xlink:href="Statement.html" xlink:title="Statement" target="_parent">
<polygon fill="none" stroke="black" points="498.5,-528 421.5,-528 421.5,-492 498.5,-492 498.5,-528"/>
<text text-anchor="middle" x="460" y="-507.2" font-family="Courier,monospace" font-size="11.00">Statement</text>
</a>
</g>
<!-- \\triagens\\ArangoDb\\Cursor -->
<g id="node33" class="node"><title>\\triagens\\ArangoDb\\Cursor</title>
<a xlink:href="Cursor.html" xlink:title="Cursor" target="_parent">
<polygon fill="none" stroke="black" points="488.5,-258 431.5,-258 431.5,-222 488.5,-222 488.5,-258"/>
<text text-anchor="middle" x="460" y="-237.2" font-family="Courier,monospace" font-size="11.00">Cursor</text>
</a>
</g>
<!-- \\Iterator -->
<g id="node60" class="node"><title>\\Iterator</title>
<ellipse fill="none" stroke="black" cx="256" cy="-72" rx="42.4939" ry="18"/>
<text text-anchor="middle" x="256" y="-68.3" font-family="Times,serif" font-size="14.00" fill="gray">\\Iterator</text>
</g>
<!-- \\triagens\\ArangoDb\\Cursor&#45;&gt;\\Iterator -->
<g id="edge34" class="edge"><title>\\triagens\\ArangoDb\\Cursor&#45;&gt;\\Iterator</title>
<path fill="none" stroke="black" stroke-dasharray="1,5" d="M431.392,-232.636C419.011,-228.356 404.797,-221.994 394,-213 348.819,-175.365 366.444,-140.503 322,-102 315.243,-96.1463 307.152,-91.2137 299.009,-87.1467"/>
<polygon fill="none" stroke="black" points="300.408,-83.9378 289.862,-82.9198 297.472,-90.292 300.408,-83.9378"/>
</g>
<!-- \\triagens\\ArangoDb\\DocumentHandler&#45;&gt;\\triagens\\ArangoDb\\Handler -->
<g id="edge26" class="edge"><title>\\triagens\\ArangoDb\\DocumentHandler&#45;&gt;\\triagens\\ArangoDb\\Handler</title>
<path fill="none" stroke="black" d="M239.378,-1463.96C206.241,-1425.68 128.802,-1336.23 90.4048,-1291.88"/>
<polygon fill="none" stroke="black" points="92.9004,-1289.41 83.7089,-1284.15 87.6081,-1294 92.9004,-1289.41"/>
</g>
<!-- \\triagens\\ArangoDb\\BindVars -->
<g id="node35" class="node"><title>\\triagens\\ArangoDb\\BindVars</title>
<a xlink:href="BindVars.html" xlink:title="BindVars" target="_parent">
<polygon fill="none" stroke="black" points="495.5,-420 424.5,-420 424.5,-384 495.5,-384 495.5,-420"/>
<text text-anchor="middle" x="460" y="-399.2" font-family="Courier,monospace" font-size="11.00">BindVars</text>
</a>
</g>
<!-- \\triagens\\ArangoDb\\Urls -->
<g id="node36" class="node"><title>\\triagens\\ArangoDb\\Urls</title>
<a xlink:href="Urls.html" xlink:title="«abstract»&lt;br/&gt;Urls" target="_parent">
<polygon fill="none" stroke="black" points="502.5,-366 417.5,-366 417.5,-330 502.5,-330 502.5,-366"/>
<text text-anchor="start" x="426" y="-351.7" font-family="Courier,monospace" font-size="11.00">«abstract»</text>
<text text-anchor="start" x="446" y="-340.7" font-family="Courier,monospace" font-size="11.00">Urls</text>
</a>
</g>
<!-- \\triagens\\ArangoDb\\ConnectionOptions -->
<g id="node37" class="node"><title>\\triagens\\ArangoDb\\ConnectionOptions</title>
<a xlink:href="ConnectionOptions.html" xlink:title="ConnectionOptions" target="_parent">
<polygon fill="none" stroke="black" points="525.5,-204 394.5,-204 394.5,-168 525.5,-168 525.5,-204"/>
<text text-anchor="middle" x="460" y="-183.2" font-family="Courier,monospace" font-size="11.00">ConnectionOptions</text>
</a>
</g>
<!-- \\ArrayAccess -->
<g id="node62" class="node"><title>\\ArrayAccess</title>
<ellipse fill="none" stroke="black" cx="256" cy="-18" rx="63.8893" ry="18"/>
<text text-anchor="middle" x="256" y="-14.3" font-family="Times,serif" font-size="14.00" fill="gray">\\ArrayAccess</text>
</g>
<!-- \\triagens\\ArangoDb\\ConnectionOptions&#45;&gt;\\ArrayAccess -->
<g id="edge36" class="edge"><title>\\triagens\\ArangoDb\\ConnectionOptions&#45;&gt;\\ArrayAccess</title>
<path fill="none" stroke="black" stroke-dasharray="1,5" d="M406.9,-167.878C402.309,-165.258 397.923,-162.309 394,-159 348.189,-120.368 367.811,-83.6323 322,-45 318.015,-41.6397 313.554,-38.6496 308.885,-35.9997"/>
<polygon fill="none" stroke="black" points="310.219,-32.751 299.722,-31.3149 307.033,-38.9836 310.219,-32.751"/>
</g>
<!-- \\triagens\\ArangoDb\\ConnectException -->
<g id="node38" class="node"><title>\\triagens\\ArangoDb\\ConnectException</title>
<a xlink:href="ConnectException.html" xlink:title="ConnectException" target="_parent">
<polygon fill="none" stroke="black" points="522.5,-312 397.5,-312 397.5,-276 522.5,-276 522.5,-312"/>
<text text-anchor="middle" x="460" y="-291.2" font-family="Courier,monospace" font-size="11.00">ConnectException</text>
</a>
</g>
<!-- \\triagens\\ArangoDb\\ConnectException&#45;&gt;\\triagens\\ArangoDb\\Exception -->
<g id="edge28" class="edge"><title>\\triagens\\ArangoDb\\ConnectException&#45;&gt;\\triagens\\ArangoDb\\Exception</title>
<path fill="none" stroke="black" d="M415.233,-312.008C408.123,-314.983 400.848,-318.056 394,-321 361.828,-334.829 354.619,-340.262 322,-353 316.384,-355.193 310.448,-357.379 304.538,-359.475"/>
<polygon fill="none" stroke="black" points="302.974,-356.313 294.678,-362.902 305.272,-362.925 302.974,-356.313"/>
</g>
<!-- \\triagens\\ArangoDb\\ClientException -->
<g id="node40" class="node"><title>\\triagens\\ArangoDb\\ClientException</title>
<a xlink:href="ClientException.html" xlink:title="ClientException" target="_parent">
<polygon fill="none" stroke="black" points="519,-474 401,-474 401,-438 519,-438 519,-474"/>
<text text-anchor="middle" x="460" y="-453.2" font-family="Courier,monospace" font-size="11.00">ClientException</text>
</a>
</g>
<!-- \\triagens\\ArangoDb\\ClientException&#45;&gt;\\triagens\\ArangoDb\\Exception -->
<g id="edge30" class="edge"><title>\\triagens\\ArangoDb\\ClientException&#45;&gt;\\triagens\\ArangoDb\\Exception</title>
<path fill="none" stroke="black" d="M413.919,-437.923C381.323,-424.852 337.38,-407.232 304.288,-393.962"/>
<polygon fill="none" stroke="black" points="305.41,-390.641 294.826,-390.168 302.805,-397.138 305.41,-390.641"/>
</g>
<!-- \\triagens\\ArangoDb\\GraphHandler -->
<g id="node41" class="node"><title>\\triagens\\ArangoDb\\GraphHandler</title>
<a xlink:href="GraphHandler.html" xlink:title="GraphHandler" target="_parent">
<polygon fill="none" stroke="black" points="305,-1338 207,-1338 207,-1302 305,-1302 305,-1338"/>
<text text-anchor="middle" x="256" y="-1317.2" font-family="Courier,monospace" font-size="11.00">GraphHandler</text>
</a>
</g>
<!-- \\triagens\\ArangoDb\\GraphHandler&#45;&gt;\\triagens\\ArangoDb\\Handler -->
<g id="edge32" class="edge"><title>\\triagens\\ArangoDb\\GraphHandler&#45;&gt;\\triagens\\ArangoDb\\Handler</title>
<path fill="none" stroke="black" d="M206.843,-1306.09C180.049,-1298.36 146.701,-1288.73 119.403,-1280.84"/>
<polygon fill="none" stroke="black" points="120.221,-1277.44 109.643,-1278.03 118.279,-1284.16 120.221,-1277.44"/>
</g>
<!-- \\triagens\\ArangoDb\\HttpResponse -->
<g id="node42" class="node"><title>\\triagens\\ArangoDb\\HttpResponse</title>
<a xlink:href="HttpResponse.html" xlink:title="HttpResponse" target="_parent">
<polygon fill="none" stroke="black" points="509,-150 411,-150 411,-114 509,-114 509,-150"/>
<text text-anchor="middle" x="460" y="-129.2" font-family="Courier,monospace" font-size="11.00">HttpResponse</text>
</a>
</g>
</g>
</svg>
